G04 #@! TF.GenerationSoftware,KiCad,Pcbnew,(5.1.6)-1*
G04 #@! TF.CreationDate,2020-08-28T15:57:22-04:00*
G04 #@! TF.ProjectId,railroad-keyboard-switch-plate,7261696c-726f-4616-942d-6b6579626f61,rev?*
G04 #@! TF.SameCoordinates,Original*
G04 #@! TF.FileFunction,Legend,Top*
G04 #@! TF.FilePolarity,Positive*
%FSLAX46Y46*%
G04 Gerber Fmt 4.6, Leading zero omitted, Abs format (unit mm)*
G04 Created by KiCad (PCBNEW (5.1.6)-1) date 2020-08-28 15:57:22*
%MOMM*%
%LPD*%
G01*
G04 APERTURE LIST*
%ADD10C,0.150000*%
%ADD11C,0.120000*%
%ADD12R,0.950000X0.950000*%
G04 APERTURE END LIST*
D10*
X23671773Y-400472130D02*
X23338440Y-399995940D01*
X23100345Y-400472130D02*
X23100345Y-399472130D01*
X23481297Y-399472130D01*
X23576535Y-399519750D01*
X23624154Y-399567369D01*
X23671773Y-399662607D01*
X23671773Y-399805464D01*
X23624154Y-399900702D01*
X23576535Y-399948321D01*
X23481297Y-399995940D01*
X23100345Y-399995940D01*
X24528916Y-400472130D02*
X24528916Y-399948321D01*
X24481297Y-399853083D01*
X24386059Y-399805464D01*
X24195583Y-399805464D01*
X24100345Y-399853083D01*
X24528916Y-400424511D02*
X24433678Y-400472130D01*
X24195583Y-400472130D01*
X24100345Y-400424511D01*
X24052726Y-400329273D01*
X24052726Y-400234035D01*
X24100345Y-400138797D01*
X24195583Y-400091178D01*
X24433678Y-400091178D01*
X24528916Y-400043559D01*
X25005107Y-400472130D02*
X25005107Y-399805464D01*
X25005107Y-399472130D02*
X24957488Y-399519750D01*
X25005107Y-399567369D01*
X25052726Y-399519750D01*
X25005107Y-399472130D01*
X25005107Y-399567369D01*
X25624154Y-400472130D02*
X25528916Y-400424511D01*
X25481297Y-400329273D01*
X25481297Y-399472130D01*
X26005107Y-400472130D02*
X26005107Y-399805464D01*
X26005107Y-399995940D02*
X26052726Y-399900702D01*
X26100345Y-399853083D01*
X26195583Y-399805464D01*
X26290821Y-399805464D01*
X26767011Y-400472130D02*
X26671773Y-400424511D01*
X26624154Y-400376892D01*
X26576535Y-400281654D01*
X26576535Y-399995940D01*
X26624154Y-399900702D01*
X26671773Y-399853083D01*
X26767011Y-399805464D01*
X26909869Y-399805464D01*
X27005107Y-399853083D01*
X27052726Y-399900702D01*
X27100345Y-399995940D01*
X27100345Y-400281654D01*
X27052726Y-400376892D01*
X27005107Y-400424511D01*
X26909869Y-400472130D01*
X26767011Y-400472130D01*
X27957488Y-400472130D02*
X27957488Y-399948321D01*
X27909869Y-399853083D01*
X27814630Y-399805464D01*
X27624154Y-399805464D01*
X27528916Y-399853083D01*
X27957488Y-400424511D02*
X27862250Y-400472130D01*
X27624154Y-400472130D01*
X27528916Y-400424511D01*
X27481297Y-400329273D01*
X27481297Y-400234035D01*
X27528916Y-400138797D01*
X27624154Y-400091178D01*
X27862250Y-400091178D01*
X27957488Y-400043559D01*
X28862250Y-400472130D02*
X28862250Y-399472130D01*
X28862250Y-400424511D02*
X28767011Y-400472130D01*
X28576535Y-400472130D01*
X28481297Y-400424511D01*
X28433678Y-400376892D01*
X28386059Y-400281654D01*
X28386059Y-399995940D01*
X28433678Y-399900702D01*
X28481297Y-399853083D01*
X28576535Y-399805464D01*
X28767011Y-399805464D01*
X28862250Y-399853083D01*
X30100345Y-400472130D02*
X30100345Y-399472130D01*
X30481297Y-399472130D01*
X30576535Y-399519750D01*
X30624154Y-399567369D01*
X30671773Y-399662607D01*
X30671773Y-399805464D01*
X30624154Y-399900702D01*
X30576535Y-399948321D01*
X30481297Y-399995940D01*
X30100345Y-399995940D01*
X31671773Y-400376892D02*
X31624154Y-400424511D01*
X31481297Y-400472130D01*
X31386059Y-400472130D01*
X31243202Y-400424511D01*
X31147964Y-400329273D01*
X31100345Y-400234035D01*
X31052726Y-400043559D01*
X31052726Y-399900702D01*
X31100345Y-399710226D01*
X31147964Y-399614988D01*
X31243202Y-399519750D01*
X31386059Y-399472130D01*
X31481297Y-399472130D01*
X31624154Y-399519750D01*
X31671773Y-399567369D01*
X32433678Y-399948321D02*
X32576535Y-399995940D01*
X32624154Y-400043559D01*
X32671773Y-400138797D01*
X32671773Y-400281654D01*
X32624154Y-400376892D01*
X32576535Y-400424511D01*
X32481297Y-400472130D01*
X32100345Y-400472130D01*
X32100345Y-399472130D01*
X32433678Y-399472130D01*
X32528916Y-399519750D01*
X32576535Y-399567369D01*
X32624154Y-399662607D01*
X32624154Y-399757845D01*
X32576535Y-399853083D01*
X32528916Y-399900702D01*
X32433678Y-399948321D01*
X32100345Y-399948321D01*
X23005107Y-401122130D02*
X23243202Y-402122130D01*
X23433678Y-401407845D01*
X23624154Y-402122130D01*
X23862250Y-401122130D01*
X24243202Y-402026892D02*
X24290821Y-402074511D01*
X24243202Y-402122130D01*
X24195583Y-402074511D01*
X24243202Y-402026892D01*
X24243202Y-402122130D01*
X25433678Y-401836416D02*
X25909869Y-401836416D01*
X25338440Y-402122130D02*
X25671773Y-401122130D01*
X26005107Y-402122130D01*
X26481297Y-402122130D02*
X26386059Y-402074511D01*
X26338440Y-401979273D01*
X26338440Y-401122130D01*
X27243202Y-402074511D02*
X27147964Y-402122130D01*
X26957488Y-402122130D01*
X26862250Y-402074511D01*
X26814630Y-401979273D01*
X26814630Y-401598321D01*
X26862250Y-401503083D01*
X26957488Y-401455464D01*
X27147964Y-401455464D01*
X27243202Y-401503083D01*
X27290821Y-401598321D01*
X27290821Y-401693559D01*
X26814630Y-401788797D01*
X27624154Y-402122130D02*
X28147964Y-401455464D01*
X27624154Y-401455464D02*
X28147964Y-402122130D01*
X29862250Y-402122130D02*
X29528916Y-401645940D01*
X29290821Y-402122130D02*
X29290821Y-401122130D01*
X29671773Y-401122130D01*
X29767011Y-401169750D01*
X29814630Y-401217369D01*
X29862250Y-401312607D01*
X29862250Y-401455464D01*
X29814630Y-401550702D01*
X29767011Y-401598321D01*
X29671773Y-401645940D01*
X29290821Y-401645940D01*
X30433678Y-402122130D02*
X30338440Y-402074511D01*
X30290821Y-402026892D01*
X30243202Y-401931654D01*
X30243202Y-401645940D01*
X30290821Y-401550702D01*
X30338440Y-401503083D01*
X30433678Y-401455464D01*
X30576535Y-401455464D01*
X30671773Y-401503083D01*
X30719392Y-401550702D01*
X30767011Y-401645940D01*
X30767011Y-401931654D01*
X30719392Y-402026892D01*
X30671773Y-402074511D01*
X30576535Y-402122130D01*
X30433678Y-402122130D01*
X31195583Y-401455464D02*
X31195583Y-402122130D01*
X31195583Y-401550702D02*
X31243202Y-401503083D01*
X31338440Y-401455464D01*
X31481297Y-401455464D01*
X31576535Y-401503083D01*
X31624154Y-401598321D01*
X31624154Y-402122130D01*
X32100345Y-402122130D02*
X32100345Y-401122130D01*
X32195583Y-401741178D02*
X32481297Y-402122130D01*
X32481297Y-401455464D02*
X32100345Y-401836416D01*
X33290821Y-402074511D02*
X33195583Y-402122130D01*
X33005107Y-402122130D01*
X32909869Y-402074511D01*
X32862250Y-401979273D01*
X32862250Y-401598321D01*
X32909869Y-401503083D01*
X33005107Y-401455464D01*
X33195583Y-401455464D01*
X33290821Y-401503083D01*
X33338440Y-401598321D01*
X33338440Y-401693559D01*
X32862250Y-401788797D01*
X23386059Y-404153083D02*
X23338440Y-404105464D01*
X23243202Y-403962607D01*
X23195583Y-403867369D01*
X23147964Y-403724511D01*
X23100345Y-403486416D01*
X23100345Y-403295940D01*
X23147964Y-403057845D01*
X23195583Y-402914988D01*
X23243202Y-402819750D01*
X23338440Y-402676892D01*
X23386059Y-402629273D01*
X23767011Y-403772130D02*
X23767011Y-402772130D01*
X24338440Y-403772130D01*
X24338440Y-402772130D01*
X24957488Y-403772130D02*
X24862250Y-403724511D01*
X24814630Y-403676892D01*
X24767011Y-403581654D01*
X24767011Y-403295940D01*
X24814630Y-403200702D01*
X24862250Y-403153083D01*
X24957488Y-403105464D01*
X25100345Y-403105464D01*
X25195583Y-403153083D01*
X25243202Y-403200702D01*
X25290821Y-403295940D01*
X25290821Y-403581654D01*
X25243202Y-403676892D01*
X25195583Y-403724511D01*
X25100345Y-403772130D01*
X24957488Y-403772130D01*
X25719392Y-403772130D02*
X25719392Y-402772130D01*
X26100345Y-402772130D01*
X26195583Y-402819750D01*
X26243202Y-402867369D01*
X26290821Y-402962607D01*
X26290821Y-403105464D01*
X26243202Y-403200702D01*
X26195583Y-403248321D01*
X26100345Y-403295940D01*
X25719392Y-403295940D01*
X27147964Y-403105464D02*
X27147964Y-403772130D01*
X26719392Y-403105464D02*
X26719392Y-403629273D01*
X26767011Y-403724511D01*
X26862250Y-403772130D01*
X27005107Y-403772130D01*
X27100345Y-403724511D01*
X27147964Y-403676892D01*
X27624154Y-403105464D02*
X27624154Y-403772130D01*
X27624154Y-403200702D02*
X27671773Y-403153083D01*
X27767011Y-403105464D01*
X27909869Y-403105464D01*
X28005107Y-403153083D01*
X28052726Y-403248321D01*
X28052726Y-403772130D01*
X28528916Y-403772130D02*
X28528916Y-402772130D01*
X29005107Y-403105464D02*
X29005107Y-403772130D01*
X29005107Y-403200702D02*
X29052726Y-403153083D01*
X29147964Y-403105464D01*
X29290821Y-403105464D01*
X29386059Y-403153083D01*
X29433678Y-403248321D01*
X29433678Y-403772130D01*
X30433678Y-403772130D02*
X29862250Y-403772130D01*
X30147964Y-403772130D02*
X30147964Y-402772130D01*
X30052726Y-402914988D01*
X29957488Y-403010226D01*
X29862250Y-403057845D01*
X31052726Y-402772130D02*
X31147964Y-402772130D01*
X31243202Y-402819750D01*
X31290821Y-402867369D01*
X31338440Y-402962607D01*
X31386059Y-403153083D01*
X31386059Y-403391178D01*
X31338440Y-403581654D01*
X31290821Y-403676892D01*
X31243202Y-403724511D01*
X31147964Y-403772130D01*
X31052726Y-403772130D01*
X30957488Y-403724511D01*
X30909869Y-403676892D01*
X30862250Y-403581654D01*
X30814630Y-403391178D01*
X30814630Y-403153083D01*
X30862250Y-402962607D01*
X30909869Y-402867369D01*
X30957488Y-402819750D01*
X31052726Y-402772130D01*
X31814630Y-403772130D02*
X31814630Y-402772130D01*
X32052726Y-402772130D01*
X32195583Y-402819750D01*
X32290821Y-402914988D01*
X32338440Y-403010226D01*
X32386059Y-403200702D01*
X32386059Y-403343559D01*
X32338440Y-403534035D01*
X32290821Y-403629273D01*
X32195583Y-403724511D01*
X32052726Y-403772130D01*
X31814630Y-403772130D01*
X32814630Y-403772130D02*
X32814630Y-403105464D01*
X32814630Y-402772130D02*
X32767011Y-402819750D01*
X32814630Y-402867369D01*
X32862250Y-402819750D01*
X32814630Y-402772130D01*
X32814630Y-402867369D01*
X33719392Y-403772130D02*
X33719392Y-402772130D01*
X33719392Y-403724511D02*
X33624154Y-403772130D01*
X33433678Y-403772130D01*
X33338440Y-403724511D01*
X33290821Y-403676892D01*
X33243202Y-403581654D01*
X33243202Y-403295940D01*
X33290821Y-403200702D01*
X33338440Y-403153083D01*
X33433678Y-403105464D01*
X33624154Y-403105464D01*
X33719392Y-403153083D01*
X34100345Y-404153083D02*
X34147964Y-404105464D01*
X34243202Y-403962607D01*
X34290821Y-403867369D01*
X34338440Y-403724511D01*
X34386059Y-403486416D01*
X34386059Y-403295940D01*
X34338440Y-403057845D01*
X34290821Y-402914988D01*
X34243202Y-402819750D01*
X34147964Y-402676892D01*
X34100345Y-402629273D01*
X23100345Y-405422130D02*
X23100345Y-404422130D01*
X23481297Y-404422130D01*
X23576535Y-404469750D01*
X23624154Y-404517369D01*
X23671773Y-404612607D01*
X23671773Y-404755464D01*
X23624154Y-404850702D01*
X23576535Y-404898321D01*
X23481297Y-404945940D01*
X23100345Y-404945940D01*
X24100345Y-405422130D02*
X24100345Y-404755464D01*
X24100345Y-404945940D02*
X24147964Y-404850702D01*
X24195583Y-404803083D01*
X24290821Y-404755464D01*
X24386059Y-404755464D01*
X24862250Y-405422130D02*
X24767011Y-405374511D01*
X24719392Y-405326892D01*
X24671773Y-405231654D01*
X24671773Y-404945940D01*
X24719392Y-404850702D01*
X24767011Y-404803083D01*
X24862250Y-404755464D01*
X25005107Y-404755464D01*
X25100345Y-404803083D01*
X25147964Y-404850702D01*
X25195583Y-404945940D01*
X25195583Y-405231654D01*
X25147964Y-405326892D01*
X25100345Y-405374511D01*
X25005107Y-405422130D01*
X24862250Y-405422130D01*
X25481297Y-404755464D02*
X25862250Y-404755464D01*
X25624154Y-404422130D02*
X25624154Y-405279273D01*
X25671773Y-405374511D01*
X25767011Y-405422130D01*
X25862250Y-405422130D01*
X26338440Y-405422130D02*
X26243202Y-405374511D01*
X26195583Y-405326892D01*
X26147964Y-405231654D01*
X26147964Y-404945940D01*
X26195583Y-404850702D01*
X26243202Y-404803083D01*
X26338440Y-404755464D01*
X26481297Y-404755464D01*
X26576535Y-404803083D01*
X26624154Y-404850702D01*
X26671773Y-404945940D01*
X26671773Y-405231654D01*
X26624154Y-405326892D01*
X26576535Y-405374511D01*
X26481297Y-405422130D01*
X26338440Y-405422130D01*
X26957488Y-404755464D02*
X27338440Y-404755464D01*
X27100345Y-404422130D02*
X27100345Y-405279273D01*
X27147964Y-405374511D01*
X27243202Y-405422130D01*
X27338440Y-405422130D01*
X27576535Y-404755464D02*
X27814630Y-405422130D01*
X28052726Y-404755464D02*
X27814630Y-405422130D01*
X27719392Y-405660226D01*
X27671773Y-405707845D01*
X27576535Y-405755464D01*
X28433678Y-404755464D02*
X28433678Y-405755464D01*
X28433678Y-404803083D02*
X28528916Y-404755464D01*
X28719392Y-404755464D01*
X28814630Y-404803083D01*
X28862250Y-404850702D01*
X28909869Y-404945940D01*
X28909869Y-405231654D01*
X28862250Y-405326892D01*
X28814630Y-405374511D01*
X28719392Y-405422130D01*
X28528916Y-405422130D01*
X28433678Y-405374511D01*
X29719392Y-405374511D02*
X29624154Y-405422130D01*
X29433678Y-405422130D01*
X29338440Y-405374511D01*
X29290821Y-405279273D01*
X29290821Y-404898321D01*
X29338440Y-404803083D01*
X29433678Y-404755464D01*
X29624154Y-404755464D01*
X29719392Y-404803083D01*
X29767011Y-404898321D01*
X29767011Y-404993559D01*
X29290821Y-405088797D01*
X30909869Y-404517369D02*
X30957488Y-404469750D01*
X31052726Y-404422130D01*
X31290821Y-404422130D01*
X31386059Y-404469750D01*
X31433678Y-404517369D01*
X31481297Y-404612607D01*
X31481297Y-404707845D01*
X31433678Y-404850702D01*
X30862250Y-405422130D01*
X31481297Y-405422130D01*
X32100345Y-404422130D02*
X32195583Y-404422130D01*
X32290821Y-404469750D01*
X32338440Y-404517369D01*
X32386059Y-404612607D01*
X32433678Y-404803083D01*
X32433678Y-405041178D01*
X32386059Y-405231654D01*
X32338440Y-405326892D01*
X32290821Y-405374511D01*
X32195583Y-405422130D01*
X32100345Y-405422130D01*
X32005107Y-405374511D01*
X31957488Y-405326892D01*
X31909869Y-405231654D01*
X31862250Y-405041178D01*
X31862250Y-404803083D01*
X31909869Y-404612607D01*
X31957488Y-404517369D01*
X32005107Y-404469750D01*
X32100345Y-404422130D01*
X32814630Y-404517369D02*
X32862250Y-404469750D01*
X32957488Y-404422130D01*
X33195583Y-404422130D01*
X33290821Y-404469750D01*
X33338440Y-404517369D01*
X33386059Y-404612607D01*
X33386059Y-404707845D01*
X33338440Y-404850702D01*
X32767011Y-405422130D01*
X33386059Y-405422130D01*
X34005107Y-404422130D02*
X34100345Y-404422130D01*
X34195583Y-404469750D01*
X34243202Y-404517369D01*
X34290821Y-404612607D01*
X34338440Y-404803083D01*
X34338440Y-405041178D01*
X34290821Y-405231654D01*
X34243202Y-405326892D01*
X34195583Y-405374511D01*
X34100345Y-405422130D01*
X34005107Y-405422130D01*
X33909869Y-405374511D01*
X33862250Y-405326892D01*
X33814630Y-405231654D01*
X33767011Y-405041178D01*
X33767011Y-404803083D01*
X33814630Y-404612607D01*
X33862250Y-404517369D01*
X33909869Y-404469750D01*
X34005107Y-404422130D01*
X34767011Y-405041178D02*
X35528916Y-405041178D01*
X36195583Y-404422130D02*
X36290821Y-404422130D01*
X36386059Y-404469750D01*
X36433678Y-404517369D01*
X36481297Y-404612607D01*
X36528916Y-404803083D01*
X36528916Y-405041178D01*
X36481297Y-405231654D01*
X36433678Y-405326892D01*
X36386059Y-405374511D01*
X36290821Y-405422130D01*
X36195583Y-405422130D01*
X36100345Y-405374511D01*
X36052726Y-405326892D01*
X36005107Y-405231654D01*
X35957488Y-405041178D01*
X35957488Y-404803083D01*
X36005107Y-404612607D01*
X36052726Y-404517369D01*
X36100345Y-404469750D01*
X36195583Y-404422130D01*
X36862250Y-404422130D02*
X37528916Y-404422130D01*
X37100345Y-405422130D01*
D11*
X20524000Y-395936000D02*
X21209000Y-395936000D01*
X20524000Y-396621000D02*
X20524000Y-395936000D01*
X22519000Y-396711000D02*
X24519000Y-396711000D01*
X22519000Y-396591000D02*
X24519000Y-396591000D01*
X22519000Y-396471000D02*
X24519000Y-396471000D01*
X24519000Y-396831000D02*
X22519000Y-396831000D01*
X24519000Y-396411000D02*
X24519000Y-396831000D01*
X22519000Y-396411000D02*
X24519000Y-396411000D01*
X22519000Y-397181000D02*
X21894000Y-397181000D01*
X22519000Y-396061000D02*
X22519000Y-397181000D01*
X21894000Y-396061000D02*
X22519000Y-396061000D01*
D10*
X22250666Y-394573380D02*
X22250666Y-395287666D01*
X22203047Y-395430523D01*
X22107809Y-395525761D01*
X21964952Y-395573380D01*
X21869714Y-395573380D01*
X22631619Y-394573380D02*
X23250666Y-394573380D01*
X22917333Y-394954333D01*
X23060190Y-394954333D01*
X23155428Y-395001952D01*
X23203047Y-395049571D01*
X23250666Y-395144809D01*
X23250666Y-395382904D01*
X23203047Y-395478142D01*
X23155428Y-395525761D01*
X23060190Y-395573380D01*
X22774476Y-395573380D01*
X22679238Y-395525761D01*
X22631619Y-395478142D01*
%LPC*%
D12*
X21209000Y-396621000D03*
M02*
