  0
SECTION
  2
HEADER
  9
$ACADVER
  1
AC1009
  9
$EXTMIN
 10
0.0
 20
0.0
 30
0.0
  9
$EXTMAX
 10
1000.0
 20
1000.0
 30
0.0
  9
$FILLMODE
 70
 0
  9
$SPLFRAME
 70
 1
  0
ENDSEC
  0
SECTION
  2
TABLES
  0
TABLE
  2
LAYER
 70
1
  0
LAYER
  2
0
 70
     0
 62
     7
  6
CONTINUOUS
  0
ENDTAB
  0
ENDSEC
  0
SECTION
  2
ENTITIES
  0
LINE
  8
0
 62
     0
 10
472.973
 20
130.433
 30
0.0
 11
473.364
 21
130.418
 31
0.0
  0
LINE
  8
0
 62
     0
 10
473.364
 20
130.418
 30
0.0
 11
473.752
 21
130.371
 31
0.0
  0
LINE
  8
0
 62
     0
 10
473.752
 20
130.371
 30
0.0
 11
474.14
 21
130.295
 31
0.0
  0
LINE
  8
0
 62
     0
 10
474.14
 20
130.295
 30
0.0
 11
474.518
 21
130.189
 31
0.0
  0
LINE
  8
0
 62
     0
 10
474.518
 20
130.189
 30
0.0
 11
474.885
 21
130.052
 31
0.0
  0
LINE
  8
0
 62
     0
 10
474.885
 20
130.052
 30
0.0
 11
475.241
 21
129.889
 31
0.0
  0
LINE
  8
0
 62
     0
 10
475.241
 20
129.889
 30
0.0
 11
475.583
 21
129.697
 31
0.0
  0
LINE
  8
0
 62
     0
 10
475.583
 20
129.697
 30
0.0
 11
475.911
 21
129.478
 31
0.0
  0
LINE
  8
0
 62
     0
 10
475.911
 20
129.478
 30
0.0
 11
476.218
 21
129.235
 31
0.0
  0
LINE
  8
0
 62
     0
 10
476.218
 20
129.235
 30
0.0
 11
476.508
 21
128.968
 31
0.0
  0
LINE
  8
0
 62
     0
 10
476.508
 20
128.968
 30
0.0
 11
476.772
 21
128.68
 31
0.0
  0
LINE
  8
0
 62
     0
 10
476.772
 20
128.68
 30
0.0
 11
477.016
 21
128.371
 31
0.0
  0
LINE
  8
0
 62
     0
 10
477.016
 20
128.371
 30
0.0
 11
477.234
 21
128.046
 31
0.0
  0
LINE
  8
0
 62
     0
 10
477.234
 20
128.046
 30
0.0
 11
477.428
 21
127.703
 31
0.0
  0
LINE
  8
0
 62
     0
 10
477.428
 20
127.703
 30
0.0
 11
477.591
 21
127.346
 31
0.0
  0
LINE
  8
0
 62
     0
 10
477.591
 20
127.346
 30
0.0
 11
477.725
 21
126.978
 31
0.0
  0
LINE
  8
0
 62
     0
 10
477.725
 20
126.978
 30
0.0
 11
477.83
 21
126.6
 31
0.0
  0
LINE
  8
0
 62
     0
 10
477.83
 20
126.6
 30
0.0
 11
477.908
 21
126.216
 31
0.0
  0
LINE
  8
0
 62
     0
 10
477.908
 20
126.216
 30
0.0
 11
477.957
 21
125.826
 31
0.0
  0
LINE
  8
0
 62
     0
 10
477.957
 20
125.826
 30
0.0
 11
477.972
 21
125.432
 31
0.0
  0
LINE
  8
0
 62
     0
 10
477.972
 20
125.432
 30
0.0
 11
477.972
 21
5.21864
 31
0.0
  0
LINE
  8
0
 62
     0
 10
477.972
 20
5.21864
 30
0.0
 11
477.957
 21
4.82865
 31
0.0
  0
LINE
  8
0
 62
     0
 10
477.957
 20
4.82865
 30
0.0
 11
477.908
 21
4.43727
 31
0.0
  0
LINE
  8
0
 62
     0
 10
477.908
 20
4.43727
 30
0.0
 11
477.83
 21
4.05282
 31
0.0
  0
LINE
  8
0
 62
     0
 10
477.83
 20
4.05282
 30
0.0
 11
477.725
 21
3.67386
 31
0.0
  0
LINE
  8
0
 62
     0
 10
477.725
 20
3.67386
 30
0.0
 11
477.591
 21
3.30591
 31
0.0
  0
LINE
  8
0
 62
     0
 10
477.591
 20
3.30591
 30
0.0
 11
477.428
 21
2.949
 31
0.0
  0
LINE
  8
0
 62
     0
 10
477.428
 20
2.949
 30
0.0
 11
477.234
 21
2.60725
 31
0.0
  0
LINE
  8
0
 62
     0
 10
477.234
 20
2.60725
 30
0.0
 11
477.016
 21
2.28065
 31
0.0
  0
LINE
  8
0
 62
     0
 10
477.016
 20
2.28065
 30
0.0
 11
476.772
 21
1.97197
 31
0.0
  0
LINE
  8
0
 62
     0
 10
476.772
 20
1.97197
 30
0.0
 11
476.508
 21
1.68396
 31
0.0
  0
LINE
  8
0
 62
     0
 10
476.508
 20
1.68396
 30
0.0
 11
476.218
 21
1.41662
 31
0.0
  0
LINE
  8
0
 62
     0
 10
476.218
 20
1.41662
 30
0.0
 11
475.911
 21
1.17409
 31
0.0
  0
LINE
  8
0
 62
     0
 10
475.911
 20
1.17409
 30
0.0
 11
475.583
 21
0.956359
 31
0.0
  0
LINE
  8
0
 62
     0
 10
475.583
 20
0.956359
 30
0.0
 11
475.241
 21
0.764812
 31
0.0
  0
LINE
  8
0
 62
     0
 10
475.241
 20
0.764812
 30
0.0
 11
474.885
 21
0.600826
 31
0.0
  0
LINE
  8
0
 62
     0
 10
474.885
 20
0.600826
 30
0.0
 11
474.518
 21
0.4644
 31
0.0
  0
LINE
  8
0
 62
     0
 10
474.518
 20
0.4644
 30
0.0
 11
474.14
 21
0.356912
 31
0.0
  0
LINE
  8
0
 62
     0
 10
474.14
 20
0.356912
 30
0.0
 11
473.752
 21
0.28112
 31
0.0
  0
LINE
  8
0
 62
     0
 10
473.752
 20
0.28112
 30
0.0
 11
473.364
 21
0.234267
 31
0.0
  0
LINE
  8
0
 62
     0
 10
473.364
 20
0.234267
 30
0.0
 11
472.973
 21
0.219108
 31
0.0
  0
LINE
  8
0
 62
     0
 10
472.973
 20
0.219108
 30
0.0
 11
5.09598
 21
0.219108
 31
0.0
  0
LINE
  8
0
 62
     0
 10
5.09598
 20
0.219108
 30
0.0
 11
4.70186
 21
0.234267
 31
0.0
  0
LINE
  8
0
 62
     0
 10
4.70186
 20
0.234267
 30
0.0
 11
4.3119
 21
0.28112
 31
0.0
  0
LINE
  8
0
 62
     0
 10
4.3119
 20
0.28112
 30
0.0
 11
3.9274
 21
0.356912
 31
0.0
  0
LINE
  8
0
 62
     0
 10
3.9274
 20
0.356912
 30
0.0
 11
3.54983
 21
0.4644
 31
0.0
  0
LINE
  8
0
 62
     0
 10
3.54983
 20
0.4644
 30
0.0
 11
3.18189
 21
0.600826
 31
0.0
  0
LINE
  8
0
 62
     0
 10
3.18189
 20
0.600826
 30
0.0
 11
2.82498
 21
0.764812
 31
0.0
  0
LINE
  8
0
 62
     0
 10
2.82498
 20
0.764812
 30
0.0
 11
2.48185
 21
0.956359
 31
0.0
  0
LINE
  8
0
 62
     0
 10
2.48185
 20
0.956359
 30
0.0
 11
2.15663
 21
1.17409
 31
0.0
  0
LINE
  8
0
 62
     0
 10
2.15663
 20
1.17409
 30
0.0
 11
1.84795
 21
1.41662
 31
0.0
  0
LINE
  8
0
 62
     0
 10
1.84795
 20
1.41662
 30
0.0
 11
1.55994
 21
1.68396
 31
0.0
  0
LINE
  8
0
 62
     0
 10
1.55994
 20
1.68396
 30
0.0
 11
1.2926
 21
1.97197
 31
0.0
  0
LINE
  8
0
 62
     0
 10
1.2926
 20
1.97197
 30
0.0
 11
1.05006
 21
2.28065
 31
0.0
  0
LINE
  8
0
 62
     0
 10
1.05006
 20
2.28065
 30
0.0
 11
0.830957
 21
2.60725
 31
0.0
  0
LINE
  8
0
 62
     0
 10
0.830957
 20
2.60725
 30
0.0
 11
0.63941
 21
2.949
 31
0.0
  0
LINE
  8
0
 62
     0
 10
0.63941
 20
2.949
 30
0.0
 11
0.475424
 21
3.30591
 31
0.0
  0
LINE
  8
0
 62
     0
 10
0.475424
 20
3.30591
 30
0.0
 11
0.338998
 21
3.67386
 31
0.0
  0
LINE
  8
0
 62
     0
 10
0.338998
 20
3.67386
 30
0.0
 11
0.232888
 21
4.05282
 31
0.0
  0
LINE
  8
0
 62
     0
 10
0.232888
 20
4.05282
 30
0.0
 11
0.157097
 21
4.43727
 31
0.0
  0
LINE
  8
0
 62
     0
 10
0.157097
 20
4.43727
 30
0.0
 11
0.110243
 21
4.82865
 31
0.0
  0
LINE
  8
0
 62
     0
 10
0.110243
 20
4.82865
 30
0.0
 11
0.0950846
 21
5.21864
 31
0.0
  0
LINE
  8
0
 62
     0
 10
0.0950846
 20
5.21864
 30
0.0
 11
0.0950846
 21
125.432
 31
0.0
  0
LINE
  8
0
 62
     0
 10
0.0950846
 20
125.432
 30
0.0
 11
0.110243
 21
125.826
 31
0.0
  0
LINE
  8
0
 62
     0
 10
0.110243
 20
125.826
 30
0.0
 11
0.157097
 21
126.216
 31
0.0
  0
LINE
  8
0
 62
     0
 10
0.157097
 20
126.216
 30
0.0
 11
0.232888
 21
126.6
 31
0.0
  0
LINE
  8
0
 62
     0
 10
0.232888
 20
126.6
 30
0.0
 11
0.338998
 21
126.978
 31
0.0
  0
LINE
  8
0
 62
     0
 10
0.338998
 20
126.978
 30
0.0
 11
0.475424
 21
127.346
 31
0.0
  0
LINE
  8
0
 62
     0
 10
0.475424
 20
127.346
 30
0.0
 11
0.63941
 21
127.703
 31
0.0
  0
LINE
  8
0
 62
     0
 10
0.63941
 20
127.703
 30
0.0
 11
0.830957
 21
128.046
 31
0.0
  0
LINE
  8
0
 62
     0
 10
0.830957
 20
128.046
 30
0.0
 11
1.05006
 21
128.371
 31
0.0
  0
LINE
  8
0
 62
     0
 10
1.05006
 20
128.371
 30
0.0
 11
1.2926
 21
128.68
 31
0.0
  0
LINE
  8
0
 62
     0
 10
1.2926
 20
128.68
 30
0.0
 11
1.55994
 21
128.968
 31
0.0
  0
LINE
  8
0
 62
     0
 10
1.55994
 20
128.968
 30
0.0
 11
1.84795
 21
129.235
 31
0.0
  0
LINE
  8
0
 62
     0
 10
1.84795
 20
129.235
 30
0.0
 11
2.15663
 21
129.478
 31
0.0
  0
LINE
  8
0
 62
     0
 10
2.15663
 20
129.478
 30
0.0
 11
2.48185
 21
129.697
 31
0.0
  0
LINE
  8
0
 62
     0
 10
2.48185
 20
129.697
 30
0.0
 11
2.82498
 21
129.889
 31
0.0
  0
LINE
  8
0
 62
     0
 10
2.82498
 20
129.889
 30
0.0
 11
3.18189
 21
130.052
 31
0.0
  0
LINE
  8
0
 62
     0
 10
3.18189
 20
130.052
 30
0.0
 11
3.54983
 21
130.189
 31
0.0
  0
LINE
  8
0
 62
     0
 10
3.54983
 20
130.189
 30
0.0
 11
3.9274
 21
130.295
 31
0.0
  0
LINE
  8
0
 62
     0
 10
3.9274
 20
130.295
 30
0.0
 11
4.3119
 21
130.371
 31
0.0
  0
LINE
  8
0
 62
     0
 10
4.3119
 20
130.371
 30
0.0
 11
4.70186
 21
130.418
 31
0.0
  0
LINE
  8
0
 62
     0
 10
4.70186
 20
130.418
 30
0.0
 11
5.09598
 21
130.433
 31
0.0
  0
LINE
  8
0
 62
     0
 10
5.09598
 20
130.433
 30
0.0
 11
472.973
 21
130.433
 31
0.0
  0
LINE
  8
0
 62
     0
 10
3.85576
 20
5.36469
 30
0.0
 11
3.54845
 21
5.20898
 31
0.0
  0
LINE
  8
0
 62
     0
 10
3.54845
 20
5.20898
 30
0.0
 11
3.30591
 21
4.96644
 31
0.0
  0
LINE
  8
0
 62
     0
 10
3.30591
 20
4.96644
 30
0.0
 11
3.14882
 21
4.65914
 31
0.0
  0
LINE
  8
0
 62
     0
 10
3.14882
 20
4.65914
 30
0.0
 11
3.09507
 21
4.31878
 31
0.0
  0
LINE
  8
0
 62
     0
 10
3.09507
 20
4.31878
 30
0.0
 11
3.14882
 21
3.97979
 31
0.0
  0
LINE
  8
0
 62
     0
 10
3.14882
 20
3.97979
 30
0.0
 11
3.30591
 21
3.67249
 31
0.0
  0
LINE
  8
0
 62
     0
 10
3.30591
 20
3.67249
 30
0.0
 11
3.54845
 21
3.42994
 31
0.0
  0
LINE
  8
0
 62
     0
 10
3.54845
 20
3.42994
 30
0.0
 11
3.85576
 21
3.27284
 31
0.0
  0
LINE
  8
0
 62
     0
 10
3.85576
 20
3.27284
 30
0.0
 11
4.19474
 21
3.2191
 31
0.0
  0
LINE
  8
0
 62
     0
 10
4.19474
 20
3.2191
 30
0.0
 11
4.53513
 21
3.27284
 31
0.0
  0
LINE
  8
0
 62
     0
 10
4.53513
 20
3.27284
 30
0.0
 11
4.84106
 21
3.42994
 31
0.0
  0
LINE
  8
0
 62
     0
 10
4.84106
 20
3.42994
 30
0.0
 11
5.08497
 21
3.67249
 31
0.0
  0
LINE
  8
0
 62
     0
 10
5.08497
 20
3.67249
 30
0.0
 11
5.24207
 21
3.97979
 31
0.0
  0
LINE
  8
0
 62
     0
 10
5.24207
 20
3.97979
 30
0.0
 11
5.29442
 21
4.31878
 31
0.0
  0
LINE
  8
0
 62
     0
 10
5.29442
 20
4.31878
 30
0.0
 11
5.24207
 21
4.65914
 31
0.0
  0
LINE
  8
0
 62
     0
 10
5.24207
 20
4.65914
 30
0.0
 11
5.08497
 21
4.96644
 31
0.0
  0
LINE
  8
0
 62
     0
 10
5.08497
 20
4.96644
 30
0.0
 11
4.84106
 21
5.20898
 31
0.0
  0
LINE
  8
0
 62
     0
 10
4.84106
 20
5.20898
 30
0.0
 11
4.53513
 21
5.36469
 31
0.0
  0
LINE
  8
0
 62
     0
 10
4.53513
 20
5.36469
 30
0.0
 11
4.19474
 21
5.41983
 31
0.0
  0
LINE
  8
0
 62
     0
 10
4.19474
 20
5.41983
 30
0.0
 11
3.85576
 21
5.36469
 31
0.0
  0
LINE
  8
0
 62
     0
 10
121.274
 20
5.36469
 30
0.0
 11
120.967
 21
5.20898
 31
0.0
  0
LINE
  8
0
 62
     0
 10
120.967
 20
5.20898
 30
0.0
 11
120.724
 21
4.96644
 31
0.0
  0
LINE
  8
0
 62
     0
 10
120.724
 20
4.96644
 30
0.0
 11
120.567
 21
4.65914
 31
0.0
  0
LINE
  8
0
 62
     0
 10
120.567
 20
4.65914
 30
0.0
 11
120.515
 21
4.31878
 31
0.0
  0
LINE
  8
0
 62
     0
 10
120.515
 20
4.31878
 30
0.0
 11
120.567
 21
3.97979
 31
0.0
  0
LINE
  8
0
 62
     0
 10
120.567
 20
3.97979
 30
0.0
 11
120.724
 21
3.67249
 31
0.0
  0
LINE
  8
0
 62
     0
 10
120.724
 20
3.67249
 30
0.0
 11
120.967
 21
3.42994
 31
0.0
  0
LINE
  8
0
 62
     0
 10
120.967
 20
3.42994
 30
0.0
 11
121.274
 21
3.27284
 31
0.0
  0
LINE
  8
0
 62
     0
 10
121.274
 20
3.27284
 30
0.0
 11
121.614
 21
3.2191
 31
0.0
  0
LINE
  8
0
 62
     0
 10
121.614
 20
3.2191
 30
0.0
 11
121.954
 21
3.27284
 31
0.0
  0
LINE
  8
0
 62
     0
 10
121.954
 20
3.27284
 30
0.0
 11
122.261
 21
3.42994
 31
0.0
  0
LINE
  8
0
 62
     0
 10
122.261
 20
3.42994
 30
0.0
 11
122.503
 21
3.67249
 31
0.0
  0
LINE
  8
0
 62
     0
 10
122.503
 20
3.67249
 30
0.0
 11
122.66
 21
3.97979
 31
0.0
  0
LINE
  8
0
 62
     0
 10
122.66
 20
3.97979
 30
0.0
 11
122.714
 21
4.31878
 31
0.0
  0
LINE
  8
0
 62
     0
 10
122.714
 20
4.31878
 30
0.0
 11
122.66
 21
4.65914
 31
0.0
  0
LINE
  8
0
 62
     0
 10
122.66
 20
4.65914
 30
0.0
 11
122.503
 21
4.96644
 31
0.0
  0
LINE
  8
0
 62
     0
 10
122.503
 20
4.96644
 30
0.0
 11
122.261
 21
5.20898
 31
0.0
  0
LINE
  8
0
 62
     0
 10
122.261
 20
5.20898
 30
0.0
 11
121.954
 21
5.36469
 31
0.0
  0
LINE
  8
0
 62
     0
 10
121.954
 20
5.36469
 30
0.0
 11
121.614
 21
5.41983
 31
0.0
  0
LINE
  8
0
 62
     0
 10
121.614
 20
5.41983
 30
0.0
 11
121.274
 21
5.36469
 31
0.0
  0
LINE
  8
0
 62
     0
 10
238.694
 20
5.36469
 30
0.0
 11
238.387
 21
5.20898
 31
0.0
  0
LINE
  8
0
 62
     0
 10
238.387
 20
5.20898
 30
0.0
 11
238.143
 21
4.96644
 31
0.0
  0
LINE
  8
0
 62
     0
 10
238.143
 20
4.96644
 30
0.0
 11
237.986
 21
4.65914
 31
0.0
  0
LINE
  8
0
 62
     0
 10
237.986
 20
4.65914
 30
0.0
 11
237.933
 21
4.31878
 31
0.0
  0
LINE
  8
0
 62
     0
 10
237.933
 20
4.31878
 30
0.0
 11
237.986
 21
3.97979
 31
0.0
  0
LINE
  8
0
 62
     0
 10
237.986
 20
3.97979
 30
0.0
 11
238.143
 21
3.67249
 31
0.0
  0
LINE
  8
0
 62
     0
 10
238.143
 20
3.67249
 30
0.0
 11
238.387
 21
3.42994
 31
0.0
  0
LINE
  8
0
 62
     0
 10
238.387
 20
3.42994
 30
0.0
 11
238.694
 21
3.27284
 31
0.0
  0
LINE
  8
0
 62
     0
 10
238.694
 20
3.27284
 30
0.0
 11
239.033
 21
3.2191
 31
0.0
  0
LINE
  8
0
 62
     0
 10
239.033
 20
3.2191
 30
0.0
 11
239.372
 21
3.27284
 31
0.0
  0
LINE
  8
0
 62
     0
 10
239.372
 20
3.27284
 30
0.0
 11
239.679
 21
3.42994
 31
0.0
  0
LINE
  8
0
 62
     0
 10
239.679
 20
3.42994
 30
0.0
 11
239.922
 21
3.67249
 31
0.0
  0
LINE
  8
0
 62
     0
 10
239.922
 20
3.67249
 30
0.0
 11
240.079
 21
3.97979
 31
0.0
  0
LINE
  8
0
 62
     0
 10
240.079
 20
3.97979
 30
0.0
 11
240.134
 21
4.31878
 31
0.0
  0
LINE
  8
0
 62
     0
 10
240.134
 20
4.31878
 30
0.0
 11
240.079
 21
4.65914
 31
0.0
  0
LINE
  8
0
 62
     0
 10
240.079
 20
4.65914
 30
0.0
 11
239.922
 21
4.96644
 31
0.0
  0
LINE
  8
0
 62
     0
 10
239.922
 20
4.96644
 30
0.0
 11
239.679
 21
5.20898
 31
0.0
  0
LINE
  8
0
 62
     0
 10
239.679
 20
5.20898
 30
0.0
 11
239.372
 21
5.36469
 31
0.0
  0
LINE
  8
0
 62
     0
 10
239.372
 20
5.36469
 30
0.0
 11
239.033
 21
5.41983
 31
0.0
  0
LINE
  8
0
 62
     0
 10
239.033
 20
5.41983
 30
0.0
 11
238.694
 21
5.36469
 31
0.0
  0
LINE
  8
0
 62
     0
 10
356.112
 20
5.36469
 30
0.0
 11
355.805
 21
5.20898
 31
0.0
  0
LINE
  8
0
 62
     0
 10
355.805
 20
5.20898
 30
0.0
 11
355.561
 21
4.96644
 31
0.0
  0
LINE
  8
0
 62
     0
 10
355.561
 20
4.96644
 30
0.0
 11
355.406
 21
4.65914
 31
0.0
  0
LINE
  8
0
 62
     0
 10
355.406
 20
4.65914
 30
0.0
 11
355.353
 21
4.31878
 31
0.0
  0
LINE
  8
0
 62
     0
 10
355.353
 20
4.31878
 30
0.0
 11
355.406
 21
3.97979
 31
0.0
  0
LINE
  8
0
 62
     0
 10
355.406
 20
3.97979
 30
0.0
 11
355.561
 21
3.67249
 31
0.0
  0
LINE
  8
0
 62
     0
 10
355.561
 20
3.67249
 30
0.0
 11
355.805
 21
3.42994
 31
0.0
  0
LINE
  8
0
 62
     0
 10
355.805
 20
3.42994
 30
0.0
 11
356.112
 21
3.27284
 31
0.0
  0
LINE
  8
0
 62
     0
 10
356.112
 20
3.27284
 30
0.0
 11
356.454
 21
3.2191
 31
0.0
  0
LINE
  8
0
 62
     0
 10
356.454
 20
3.2191
 30
0.0
 11
356.792
 21
3.27284
 31
0.0
  0
LINE
  8
0
 62
     0
 10
356.792
 20
3.27284
 30
0.0
 11
357.099
 21
3.42994
 31
0.0
  0
LINE
  8
0
 62
     0
 10
357.099
 20
3.42994
 30
0.0
 11
357.343
 21
3.67249
 31
0.0
  0
LINE
  8
0
 62
     0
 10
357.343
 20
3.67249
 30
0.0
 11
357.498
 21
3.97979
 31
0.0
  0
LINE
  8
0
 62
     0
 10
357.498
 20
3.97979
 30
0.0
 11
357.554
 21
4.31878
 31
0.0
  0
LINE
  8
0
 62
     0
 10
357.554
 20
4.31878
 30
0.0
 11
357.498
 21
4.65914
 31
0.0
  0
LINE
  8
0
 62
     0
 10
357.498
 20
4.65914
 30
0.0
 11
357.343
 21
4.96644
 31
0.0
  0
LINE
  8
0
 62
     0
 10
357.343
 20
4.96644
 30
0.0
 11
357.099
 21
5.20898
 31
0.0
  0
LINE
  8
0
 62
     0
 10
357.099
 20
5.20898
 30
0.0
 11
356.792
 21
5.36469
 31
0.0
  0
LINE
  8
0
 62
     0
 10
356.792
 20
5.36469
 30
0.0
 11
356.454
 21
5.41983
 31
0.0
  0
LINE
  8
0
 62
     0
 10
356.454
 20
5.41983
 30
0.0
 11
356.112
 21
5.36469
 31
0.0
  0
LINE
  8
0
 62
     0
 10
473.53
 20
5.36469
 30
0.0
 11
473.223
 21
5.20898
 31
0.0
  0
LINE
  8
0
 62
     0
 10
473.223
 20
5.20898
 30
0.0
 11
472.98
 21
4.96644
 31
0.0
  0
LINE
  8
0
 62
     0
 10
472.98
 20
4.96644
 30
0.0
 11
472.825
 21
4.65914
 31
0.0
  0
LINE
  8
0
 62
     0
 10
472.825
 20
4.65914
 30
0.0
 11
472.772
 21
4.31878
 31
0.0
  0
LINE
  8
0
 62
     0
 10
472.772
 20
4.31878
 30
0.0
 11
472.825
 21
3.97979
 31
0.0
  0
LINE
  8
0
 62
     0
 10
472.825
 20
3.97979
 30
0.0
 11
472.98
 21
3.67249
 31
0.0
  0
LINE
  8
0
 62
     0
 10
472.98
 20
3.67249
 30
0.0
 11
473.223
 21
3.42994
 31
0.0
  0
LINE
  8
0
 62
     0
 10
473.223
 20
3.42994
 30
0.0
 11
473.53
 21
3.27284
 31
0.0
  0
LINE
  8
0
 62
     0
 10
473.53
 20
3.27284
 30
0.0
 11
473.872
 21
3.2191
 31
0.0
  0
LINE
  8
0
 62
     0
 10
473.872
 20
3.2191
 30
0.0
 11
474.211
 21
3.27284
 31
0.0
  0
LINE
  8
0
 62
     0
 10
474.211
 20
3.27284
 30
0.0
 11
474.518
 21
3.42994
 31
0.0
  0
LINE
  8
0
 62
     0
 10
474.518
 20
3.42994
 30
0.0
 11
474.761
 21
3.67249
 31
0.0
  0
LINE
  8
0
 62
     0
 10
474.761
 20
3.67249
 30
0.0
 11
474.916
 21
3.97979
 31
0.0
  0
LINE
  8
0
 62
     0
 10
474.916
 20
3.97979
 30
0.0
 11
474.973
 21
4.31878
 31
0.0
  0
LINE
  8
0
 62
     0
 10
474.973
 20
4.31878
 30
0.0
 11
474.916
 21
4.65914
 31
0.0
  0
LINE
  8
0
 62
     0
 10
474.916
 20
4.65914
 30
0.0
 11
474.761
 21
4.96644
 31
0.0
  0
LINE
  8
0
 62
     0
 10
474.761
 20
4.96644
 30
0.0
 11
474.518
 21
5.20898
 31
0.0
  0
LINE
  8
0
 62
     0
 10
474.518
 20
5.20898
 30
0.0
 11
474.211
 21
5.36469
 31
0.0
  0
LINE
  8
0
 62
     0
 10
474.211
 20
5.36469
 30
0.0
 11
473.872
 21
5.41983
 31
0.0
  0
LINE
  8
0
 62
     0
 10
473.872
 20
5.41983
 30
0.0
 11
473.53
 21
5.36469
 31
0.0
  0
LINE
  8
0
 62
     0
 10
473.53
 20
127.379
 30
0.0
 11
473.223
 21
127.222
 31
0.0
  0
LINE
  8
0
 62
     0
 10
473.223
 20
127.222
 30
0.0
 11
472.98
 21
126.979
 31
0.0
  0
LINE
  8
0
 62
     0
 10
472.98
 20
126.979
 30
0.0
 11
472.825
 21
126.672
 31
0.0
  0
LINE
  8
0
 62
     0
 10
472.825
 20
126.672
 30
0.0
 11
472.772
 21
126.331
 31
0.0
  0
LINE
  8
0
 62
     0
 10
472.772
 20
126.331
 30
0.0
 11
472.825
 21
125.993
 31
0.0
  0
LINE
  8
0
 62
     0
 10
472.825
 20
125.993
 30
0.0
 11
472.98
 21
125.687
 31
0.0
  0
LINE
  8
0
 62
     0
 10
472.98
 20
125.687
 30
0.0
 11
473.223
 21
125.443
 31
0.0
  0
LINE
  8
0
 62
     0
 10
473.223
 20
125.443
 30
0.0
 11
473.53
 21
125.286
 31
0.0
  0
LINE
  8
0
 62
     0
 10
473.53
 20
125.286
 30
0.0
 11
473.872
 21
125.232
 31
0.0
  0
LINE
  8
0
 62
     0
 10
473.872
 20
125.232
 30
0.0
 11
474.211
 21
125.286
 31
0.0
  0
LINE
  8
0
 62
     0
 10
474.211
 20
125.286
 30
0.0
 11
474.518
 21
125.443
 31
0.0
  0
LINE
  8
0
 62
     0
 10
474.518
 20
125.443
 30
0.0
 11
474.761
 21
125.687
 31
0.0
  0
LINE
  8
0
 62
     0
 10
474.761
 20
125.687
 30
0.0
 11
474.916
 21
125.993
 31
0.0
  0
LINE
  8
0
 62
     0
 10
474.916
 20
125.993
 30
0.0
 11
474.973
 21
126.331
 31
0.0
  0
LINE
  8
0
 62
     0
 10
474.973
 20
126.331
 30
0.0
 11
474.916
 21
126.672
 31
0.0
  0
LINE
  8
0
 62
     0
 10
474.916
 20
126.672
 30
0.0
 11
474.761
 21
126.979
 31
0.0
  0
LINE
  8
0
 62
     0
 10
474.761
 20
126.979
 30
0.0
 11
474.518
 21
127.222
 31
0.0
  0
LINE
  8
0
 62
     0
 10
474.518
 20
127.222
 30
0.0
 11
474.211
 21
127.379
 31
0.0
  0
LINE
  8
0
 62
     0
 10
474.211
 20
127.379
 30
0.0
 11
473.872
 21
127.433
 31
0.0
  0
LINE
  8
0
 62
     0
 10
473.872
 20
127.433
 30
0.0
 11
473.53
 21
127.379
 31
0.0
  0
LINE
  8
0
 62
     0
 10
356.112
 20
127.379
 30
0.0
 11
355.805
 21
127.222
 31
0.0
  0
LINE
  8
0
 62
     0
 10
355.805
 20
127.222
 30
0.0
 11
355.561
 21
126.979
 31
0.0
  0
LINE
  8
0
 62
     0
 10
355.561
 20
126.979
 30
0.0
 11
355.406
 21
126.672
 31
0.0
  0
LINE
  8
0
 62
     0
 10
355.406
 20
126.672
 30
0.0
 11
355.353
 21
126.331
 31
0.0
  0
LINE
  8
0
 62
     0
 10
355.353
 20
126.331
 30
0.0
 11
355.406
 21
125.993
 31
0.0
  0
LINE
  8
0
 62
     0
 10
355.406
 20
125.993
 30
0.0
 11
355.561
 21
125.687
 31
0.0
  0
LINE
  8
0
 62
     0
 10
355.561
 20
125.687
 30
0.0
 11
355.805
 21
125.443
 31
0.0
  0
LINE
  8
0
 62
     0
 10
355.805
 20
125.443
 30
0.0
 11
356.112
 21
125.286
 31
0.0
  0
LINE
  8
0
 62
     0
 10
356.112
 20
125.286
 30
0.0
 11
356.454
 21
125.232
 31
0.0
  0
LINE
  8
0
 62
     0
 10
356.454
 20
125.232
 30
0.0
 11
356.792
 21
125.286
 31
0.0
  0
LINE
  8
0
 62
     0
 10
356.792
 20
125.286
 30
0.0
 11
357.099
 21
125.443
 31
0.0
  0
LINE
  8
0
 62
     0
 10
357.099
 20
125.443
 30
0.0
 11
357.343
 21
125.687
 31
0.0
  0
LINE
  8
0
 62
     0
 10
357.343
 20
125.687
 30
0.0
 11
357.498
 21
125.993
 31
0.0
  0
LINE
  8
0
 62
     0
 10
357.498
 20
125.993
 30
0.0
 11
357.554
 21
126.331
 31
0.0
  0
LINE
  8
0
 62
     0
 10
357.554
 20
126.331
 30
0.0
 11
357.498
 21
126.672
 31
0.0
  0
LINE
  8
0
 62
     0
 10
357.498
 20
126.672
 30
0.0
 11
357.343
 21
126.979
 31
0.0
  0
LINE
  8
0
 62
     0
 10
357.343
 20
126.979
 30
0.0
 11
357.099
 21
127.222
 31
0.0
  0
LINE
  8
0
 62
     0
 10
357.099
 20
127.222
 30
0.0
 11
356.792
 21
127.379
 31
0.0
  0
LINE
  8
0
 62
     0
 10
356.792
 20
127.379
 30
0.0
 11
356.454
 21
127.433
 31
0.0
  0
LINE
  8
0
 62
     0
 10
356.454
 20
127.433
 30
0.0
 11
356.112
 21
127.379
 31
0.0
  0
LINE
  8
0
 62
     0
 10
238.694
 20
127.379
 30
0.0
 11
238.387
 21
127.222
 31
0.0
  0
LINE
  8
0
 62
     0
 10
238.387
 20
127.222
 30
0.0
 11
238.143
 21
126.979
 31
0.0
  0
LINE
  8
0
 62
     0
 10
238.143
 20
126.979
 30
0.0
 11
237.986
 21
126.672
 31
0.0
  0
LINE
  8
0
 62
     0
 10
237.986
 20
126.672
 30
0.0
 11
237.933
 21
126.331
 31
0.0
  0
LINE
  8
0
 62
     0
 10
237.933
 20
126.331
 30
0.0
 11
237.986
 21
125.993
 31
0.0
  0
LINE
  8
0
 62
     0
 10
237.986
 20
125.993
 30
0.0
 11
238.143
 21
125.687
 31
0.0
  0
LINE
  8
0
 62
     0
 10
238.143
 20
125.687
 30
0.0
 11
238.387
 21
125.443
 31
0.0
  0
LINE
  8
0
 62
     0
 10
238.387
 20
125.443
 30
0.0
 11
238.694
 21
125.286
 31
0.0
  0
LINE
  8
0
 62
     0
 10
238.694
 20
125.286
 30
0.0
 11
239.033
 21
125.232
 31
0.0
  0
LINE
  8
0
 62
     0
 10
239.033
 20
125.232
 30
0.0
 11
239.372
 21
125.286
 31
0.0
  0
LINE
  8
0
 62
     0
 10
239.372
 20
125.286
 30
0.0
 11
239.679
 21
125.443
 31
0.0
  0
LINE
  8
0
 62
     0
 10
239.679
 20
125.443
 30
0.0
 11
239.922
 21
125.687
 31
0.0
  0
LINE
  8
0
 62
     0
 10
239.922
 20
125.687
 30
0.0
 11
240.079
 21
125.993
 31
0.0
  0
LINE
  8
0
 62
     0
 10
240.079
 20
125.993
 30
0.0
 11
240.134
 21
126.331
 31
0.0
  0
LINE
  8
0
 62
     0
 10
240.134
 20
126.331
 30
0.0
 11
240.079
 21
126.672
 31
0.0
  0
LINE
  8
0
 62
     0
 10
240.079
 20
126.672
 30
0.0
 11
239.922
 21
126.979
 31
0.0
  0
LINE
  8
0
 62
     0
 10
239.922
 20
126.979
 30
0.0
 11
239.679
 21
127.222
 31
0.0
  0
LINE
  8
0
 62
     0
 10
239.679
 20
127.222
 30
0.0
 11
239.372
 21
127.379
 31
0.0
  0
LINE
  8
0
 62
     0
 10
239.372
 20
127.379
 30
0.0
 11
239.033
 21
127.433
 31
0.0
  0
LINE
  8
0
 62
     0
 10
239.033
 20
127.433
 30
0.0
 11
238.694
 21
127.379
 31
0.0
  0
LINE
  8
0
 62
     0
 10
121.274
 20
127.379
 30
0.0
 11
120.967
 21
127.222
 31
0.0
  0
LINE
  8
0
 62
     0
 10
120.967
 20
127.222
 30
0.0
 11
120.724
 21
126.979
 31
0.0
  0
LINE
  8
0
 62
     0
 10
120.724
 20
126.979
 30
0.0
 11
120.567
 21
126.672
 31
0.0
  0
LINE
  8
0
 62
     0
 10
120.567
 20
126.672
 30
0.0
 11
120.515
 21
126.331
 31
0.0
  0
LINE
  8
0
 62
     0
 10
120.515
 20
126.331
 30
0.0
 11
120.567
 21
125.993
 31
0.0
  0
LINE
  8
0
 62
     0
 10
120.567
 20
125.993
 30
0.0
 11
120.724
 21
125.687
 31
0.0
  0
LINE
  8
0
 62
     0
 10
120.724
 20
125.687
 30
0.0
 11
120.967
 21
125.443
 31
0.0
  0
LINE
  8
0
 62
     0
 10
120.967
 20
125.443
 30
0.0
 11
121.274
 21
125.286
 31
0.0
  0
LINE
  8
0
 62
     0
 10
121.274
 20
125.286
 30
0.0
 11
121.614
 21
125.232
 31
0.0
  0
LINE
  8
0
 62
     0
 10
121.614
 20
125.232
 30
0.0
 11
121.954
 21
125.286
 31
0.0
  0
LINE
  8
0
 62
     0
 10
121.954
 20
125.286
 30
0.0
 11
122.261
 21
125.443
 31
0.0
  0
LINE
  8
0
 62
     0
 10
122.261
 20
125.443
 30
0.0
 11
122.503
 21
125.687
 31
0.0
  0
LINE
  8
0
 62
     0
 10
122.503
 20
125.687
 30
0.0
 11
122.66
 21
125.993
 31
0.0
  0
LINE
  8
0
 62
     0
 10
122.66
 20
125.993
 30
0.0
 11
122.714
 21
126.331
 31
0.0
  0
LINE
  8
0
 62
     0
 10
122.714
 20
126.331
 30
0.0
 11
122.66
 21
126.672
 31
0.0
  0
LINE
  8
0
 62
     0
 10
122.66
 20
126.672
 30
0.0
 11
122.503
 21
126.979
 31
0.0
  0
LINE
  8
0
 62
     0
 10
122.503
 20
126.979
 30
0.0
 11
122.261
 21
127.222
 31
0.0
  0
LINE
  8
0
 62
     0
 10
122.261
 20
127.222
 30
0.0
 11
121.954
 21
127.379
 31
0.0
  0
LINE
  8
0
 62
     0
 10
121.954
 20
127.379
 30
0.0
 11
121.614
 21
127.433
 31
0.0
  0
LINE
  8
0
 62
     0
 10
121.614
 20
127.433
 30
0.0
 11
121.274
 21
127.379
 31
0.0
  0
LINE
  8
0
 62
     0
 10
3.85576
 20
127.379
 30
0.0
 11
3.54845
 21
127.222
 31
0.0
  0
LINE
  8
0
 62
     0
 10
3.54845
 20
127.222
 30
0.0
 11
3.30591
 21
126.979
 31
0.0
  0
LINE
  8
0
 62
     0
 10
3.30591
 20
126.979
 30
0.0
 11
3.14882
 21
126.672
 31
0.0
  0
LINE
  8
0
 62
     0
 10
3.14882
 20
126.672
 30
0.0
 11
3.09507
 21
126.333
 31
0.0
  0
LINE
  8
0
 62
     0
 10
3.09507
 20
126.333
 30
0.0
 11
3.14882
 21
125.993
 31
0.0
  0
LINE
  8
0
 62
     0
 10
3.14882
 20
125.993
 30
0.0
 11
3.30591
 21
125.687
 31
0.0
  0
LINE
  8
0
 62
     0
 10
3.30591
 20
125.687
 30
0.0
 11
3.54845
 21
125.443
 31
0.0
  0
LINE
  8
0
 62
     0
 10
3.54845
 20
125.443
 30
0.0
 11
3.85576
 21
125.286
 31
0.0
  0
LINE
  8
0
 62
     0
 10
3.85576
 20
125.286
 30
0.0
 11
4.19474
 21
125.233
 31
0.0
  0
LINE
  8
0
 62
     0
 10
4.19474
 20
125.233
 30
0.0
 11
4.53513
 21
125.286
 31
0.0
  0
LINE
  8
0
 62
     0
 10
4.53513
 20
125.286
 30
0.0
 11
4.84106
 21
125.443
 31
0.0
  0
LINE
  8
0
 62
     0
 10
4.84106
 20
125.443
 30
0.0
 11
5.08497
 21
125.687
 31
0.0
  0
LINE
  8
0
 62
     0
 10
5.08497
 20
125.687
 30
0.0
 11
5.24207
 21
125.993
 31
0.0
  0
LINE
  8
0
 62
     0
 10
5.24207
 20
125.993
 30
0.0
 11
5.29442
 21
126.333
 31
0.0
  0
LINE
  8
0
 62
     0
 10
5.29442
 20
126.333
 30
0.0
 11
5.24207
 21
126.672
 31
0.0
  0
LINE
  8
0
 62
     0
 10
5.24207
 20
126.672
 30
0.0
 11
5.08497
 21
126.979
 31
0.0
  0
LINE
  8
0
 62
     0
 10
5.08497
 20
126.979
 30
0.0
 11
4.84106
 21
127.222
 31
0.0
  0
LINE
  8
0
 62
     0
 10
4.84106
 20
127.222
 30
0.0
 11
4.53513
 21
127.379
 31
0.0
  0
LINE
  8
0
 62
     0
 10
4.53513
 20
127.379
 30
0.0
 11
4.19474
 21
127.433
 31
0.0
  0
LINE
  8
0
 62
     0
 10
4.19474
 20
127.433
 30
0.0
 11
3.85576
 21
127.379
 31
0.0
  0
ENDSEC
  0
EOF
