  0
SECTION
  2
HEADER
  9
$ACADVER
  1
AC1009
  9
$EXTMIN
 10
0.0
 20
0.0
 30
0.0
  9
$EXTMAX
 10
1000.0
 20
1000.0
 30
0.0
  9
$FILLMODE
 70
 0
  9
$SPLFRAME
 70
 1
  0
ENDSEC
  0
SECTION
  2
TABLES
  0
TABLE
  2
LAYER
 70
1
  0
LAYER
  2
0
 70
     0
 62
     7
  6
CONTINUOUS
  0
ENDTAB
  0
ENDSEC
  0
SECTION
  2
ENTITIES
  0
LINE
  8
0
 62
     0
 10
472.973
 20
130.433
 30
0.0
 11
473.364
 21
130.418
 31
0.0
  0
LINE
  8
0
 62
     0
 10
473.364
 20
130.418
 30
0.0
 11
473.752
 21
130.371
 31
0.0
  0
LINE
  8
0
 62
     0
 10
473.752
 20
130.371
 30
0.0
 11
474.14
 21
130.295
 31
0.0
  0
LINE
  8
0
 62
     0
 10
474.14
 20
130.295
 30
0.0
 11
474.518
 21
130.189
 31
0.0
  0
LINE
  8
0
 62
     0
 10
474.518
 20
130.189
 30
0.0
 11
474.885
 21
130.052
 31
0.0
  0
LINE
  8
0
 62
     0
 10
474.885
 20
130.052
 30
0.0
 11
475.241
 21
129.889
 31
0.0
  0
LINE
  8
0
 62
     0
 10
475.241
 20
129.889
 30
0.0
 11
475.583
 21
129.697
 31
0.0
  0
LINE
  8
0
 62
     0
 10
475.583
 20
129.697
 30
0.0
 11
475.911
 21
129.478
 31
0.0
  0
LINE
  8
0
 62
     0
 10
475.911
 20
129.478
 30
0.0
 11
476.218
 21
129.235
 31
0.0
  0
LINE
  8
0
 62
     0
 10
476.218
 20
129.235
 30
0.0
 11
476.508
 21
128.968
 31
0.0
  0
LINE
  8
0
 62
     0
 10
476.508
 20
128.968
 30
0.0
 11
476.772
 21
128.68
 31
0.0
  0
LINE
  8
0
 62
     0
 10
476.772
 20
128.68
 30
0.0
 11
477.016
 21
128.371
 31
0.0
  0
LINE
  8
0
 62
     0
 10
477.016
 20
128.371
 30
0.0
 11
477.234
 21
128.046
 31
0.0
  0
LINE
  8
0
 62
     0
 10
477.234
 20
128.046
 30
0.0
 11
477.428
 21
127.703
 31
0.0
  0
LINE
  8
0
 62
     0
 10
477.428
 20
127.703
 30
0.0
 11
477.591
 21
127.346
 31
0.0
  0
LINE
  8
0
 62
     0
 10
477.591
 20
127.346
 30
0.0
 11
477.725
 21
126.978
 31
0.0
  0
LINE
  8
0
 62
     0
 10
477.725
 20
126.978
 30
0.0
 11
477.83
 21
126.6
 31
0.0
  0
LINE
  8
0
 62
     0
 10
477.83
 20
126.6
 30
0.0
 11
477.908
 21
126.216
 31
0.0
  0
LINE
  8
0
 62
     0
 10
477.908
 20
126.216
 30
0.0
 11
477.957
 21
125.826
 31
0.0
  0
LINE
  8
0
 62
     0
 10
477.957
 20
125.826
 30
0.0
 11
477.972
 21
125.432
 31
0.0
  0
LINE
  8
0
 62
     0
 10
477.972
 20
125.432
 30
0.0
 11
477.972
 21
5.21864
 31
0.0
  0
LINE
  8
0
 62
     0
 10
477.972
 20
5.21864
 30
0.0
 11
477.957
 21
4.82865
 31
0.0
  0
LINE
  8
0
 62
     0
 10
477.957
 20
4.82865
 30
0.0
 11
477.908
 21
4.43727
 31
0.0
  0
LINE
  8
0
 62
     0
 10
477.908
 20
4.43727
 30
0.0
 11
477.83
 21
4.05282
 31
0.0
  0
LINE
  8
0
 62
     0
 10
477.83
 20
4.05282
 30
0.0
 11
477.725
 21
3.67386
 31
0.0
  0
LINE
  8
0
 62
     0
 10
477.725
 20
3.67386
 30
0.0
 11
477.591
 21
3.30591
 31
0.0
  0
LINE
  8
0
 62
     0
 10
477.591
 20
3.30591
 30
0.0
 11
477.428
 21
2.949
 31
0.0
  0
LINE
  8
0
 62
     0
 10
477.428
 20
2.949
 30
0.0
 11
477.234
 21
2.60725
 31
0.0
  0
LINE
  8
0
 62
     0
 10
477.234
 20
2.60725
 30
0.0
 11
477.016
 21
2.28065
 31
0.0
  0
LINE
  8
0
 62
     0
 10
477.016
 20
2.28065
 30
0.0
 11
476.772
 21
1.97197
 31
0.0
  0
LINE
  8
0
 62
     0
 10
476.772
 20
1.97197
 30
0.0
 11
476.508
 21
1.68396
 31
0.0
  0
LINE
  8
0
 62
     0
 10
476.508
 20
1.68396
 30
0.0
 11
476.218
 21
1.41662
 31
0.0
  0
LINE
  8
0
 62
     0
 10
476.218
 20
1.41662
 30
0.0
 11
475.911
 21
1.17409
 31
0.0
  0
LINE
  8
0
 62
     0
 10
475.911
 20
1.17409
 30
0.0
 11
475.583
 21
0.956359
 31
0.0
  0
LINE
  8
0
 62
     0
 10
475.583
 20
0.956359
 30
0.0
 11
475.241
 21
0.764812
 31
0.0
  0
LINE
  8
0
 62
     0
 10
475.241
 20
0.764812
 30
0.0
 11
474.885
 21
0.600826
 31
0.0
  0
LINE
  8
0
 62
     0
 10
474.885
 20
0.600826
 30
0.0
 11
474.518
 21
0.4644
 31
0.0
  0
LINE
  8
0
 62
     0
 10
474.518
 20
0.4644
 30
0.0
 11
474.14
 21
0.356912
 31
0.0
  0
LINE
  8
0
 62
     0
 10
474.14
 20
0.356912
 30
0.0
 11
473.752
 21
0.28112
 31
0.0
  0
LINE
  8
0
 62
     0
 10
473.752
 20
0.28112
 30
0.0
 11
473.364
 21
0.234267
 31
0.0
  0
LINE
  8
0
 62
     0
 10
473.364
 20
0.234267
 30
0.0
 11
472.973
 21
0.219108
 31
0.0
  0
LINE
  8
0
 62
     0
 10
472.973
 20
0.219108
 30
0.0
 11
5.09598
 21
0.219108
 31
0.0
  0
LINE
  8
0
 62
     0
 10
5.09598
 20
0.219108
 30
0.0
 11
4.70186
 21
0.234267
 31
0.0
  0
LINE
  8
0
 62
     0
 10
4.70186
 20
0.234267
 30
0.0
 11
4.3119
 21
0.28112
 31
0.0
  0
LINE
  8
0
 62
     0
 10
4.3119
 20
0.28112
 30
0.0
 11
3.9274
 21
0.356912
 31
0.0
  0
LINE
  8
0
 62
     0
 10
3.9274
 20
0.356912
 30
0.0
 11
3.54983
 21
0.4644
 31
0.0
  0
LINE
  8
0
 62
     0
 10
3.54983
 20
0.4644
 30
0.0
 11
3.18189
 21
0.600826
 31
0.0
  0
LINE
  8
0
 62
     0
 10
3.18189
 20
0.600826
 30
0.0
 11
2.82498
 21
0.764812
 31
0.0
  0
LINE
  8
0
 62
     0
 10
2.82498
 20
0.764812
 30
0.0
 11
2.48185
 21
0.956359
 31
0.0
  0
LINE
  8
0
 62
     0
 10
2.48185
 20
0.956359
 30
0.0
 11
2.15663
 21
1.17409
 31
0.0
  0
LINE
  8
0
 62
     0
 10
2.15663
 20
1.17409
 30
0.0
 11
1.84795
 21
1.41662
 31
0.0
  0
LINE
  8
0
 62
     0
 10
1.84795
 20
1.41662
 30
0.0
 11
1.55994
 21
1.68396
 31
0.0
  0
LINE
  8
0
 62
     0
 10
1.55994
 20
1.68396
 30
0.0
 11
1.2926
 21
1.97197
 31
0.0
  0
LINE
  8
0
 62
     0
 10
1.2926
 20
1.97197
 30
0.0
 11
1.05006
 21
2.28065
 31
0.0
  0
LINE
  8
0
 62
     0
 10
1.05006
 20
2.28065
 30
0.0
 11
0.830957
 21
2.60725
 31
0.0
  0
LINE
  8
0
 62
     0
 10
0.830957
 20
2.60725
 30
0.0
 11
0.63941
 21
2.949
 31
0.0
  0
LINE
  8
0
 62
     0
 10
0.63941
 20
2.949
 30
0.0
 11
0.475424
 21
3.30591
 31
0.0
  0
LINE
  8
0
 62
     0
 10
0.475424
 20
3.30591
 30
0.0
 11
0.338998
 21
3.67386
 31
0.0
  0
LINE
  8
0
 62
     0
 10
0.338998
 20
3.67386
 30
0.0
 11
0.232888
 21
4.05282
 31
0.0
  0
LINE
  8
0
 62
     0
 10
0.232888
 20
4.05282
 30
0.0
 11
0.157097
 21
4.43727
 31
0.0
  0
LINE
  8
0
 62
     0
 10
0.157097
 20
4.43727
 30
0.0
 11
0.110243
 21
4.82865
 31
0.0
  0
LINE
  8
0
 62
     0
 10
0.110243
 20
4.82865
 30
0.0
 11
0.0950846
 21
5.21864
 31
0.0
  0
LINE
  8
0
 62
     0
 10
0.0950846
 20
5.21864
 30
0.0
 11
0.0950846
 21
125.432
 31
0.0
  0
LINE
  8
0
 62
     0
 10
0.0950846
 20
125.432
 30
0.0
 11
0.110243
 21
125.826
 31
0.0
  0
LINE
  8
0
 62
     0
 10
0.110243
 20
125.826
 30
0.0
 11
0.157097
 21
126.216
 31
0.0
  0
LINE
  8
0
 62
     0
 10
0.157097
 20
126.216
 30
0.0
 11
0.232888
 21
126.6
 31
0.0
  0
LINE
  8
0
 62
     0
 10
0.232888
 20
126.6
 30
0.0
 11
0.338998
 21
126.978
 31
0.0
  0
LINE
  8
0
 62
     0
 10
0.338998
 20
126.978
 30
0.0
 11
0.475424
 21
127.346
 31
0.0
  0
LINE
  8
0
 62
     0
 10
0.475424
 20
127.346
 30
0.0
 11
0.63941
 21
127.703
 31
0.0
  0
LINE
  8
0
 62
     0
 10
0.63941
 20
127.703
 30
0.0
 11
0.830957
 21
128.046
 31
0.0
  0
LINE
  8
0
 62
     0
 10
0.830957
 20
128.046
 30
0.0
 11
1.05006
 21
128.371
 31
0.0
  0
LINE
  8
0
 62
     0
 10
1.05006
 20
128.371
 30
0.0
 11
1.2926
 21
128.68
 31
0.0
  0
LINE
  8
0
 62
     0
 10
1.2926
 20
128.68
 30
0.0
 11
1.55994
 21
128.968
 31
0.0
  0
LINE
  8
0
 62
     0
 10
1.55994
 20
128.968
 30
0.0
 11
1.84795
 21
129.235
 31
0.0
  0
LINE
  8
0
 62
     0
 10
1.84795
 20
129.235
 30
0.0
 11
2.15663
 21
129.478
 31
0.0
  0
LINE
  8
0
 62
     0
 10
2.15663
 20
129.478
 30
0.0
 11
2.48185
 21
129.697
 31
0.0
  0
LINE
  8
0
 62
     0
 10
2.48185
 20
129.697
 30
0.0
 11
2.82498
 21
129.889
 31
0.0
  0
LINE
  8
0
 62
     0
 10
2.82498
 20
129.889
 30
0.0
 11
3.18189
 21
130.052
 31
0.0
  0
LINE
  8
0
 62
     0
 10
3.18189
 20
130.052
 30
0.0
 11
3.54983
 21
130.189
 31
0.0
  0
LINE
  8
0
 62
     0
 10
3.54983
 20
130.189
 30
0.0
 11
3.9274
 21
130.295
 31
0.0
  0
LINE
  8
0
 62
     0
 10
3.9274
 20
130.295
 30
0.0
 11
4.3119
 21
130.371
 31
0.0
  0
LINE
  8
0
 62
     0
 10
4.3119
 20
130.371
 30
0.0
 11
4.70186
 21
130.418
 31
0.0
  0
LINE
  8
0
 62
     0
 10
4.70186
 20
130.418
 30
0.0
 11
5.09598
 21
130.433
 31
0.0
  0
LINE
  8
0
 62
     0
 10
5.09598
 20
130.433
 30
0.0
 11
472.973
 21
130.433
 31
0.0
  0
LINE
  8
0
 62
     0
 10
3.85576
 20
5.36469
 30
0.0
 11
3.54845
 21
5.20898
 31
0.0
  0
LINE
  8
0
 62
     0
 10
3.54845
 20
5.20898
 30
0.0
 11
3.30591
 21
4.96644
 31
0.0
  0
LINE
  8
0
 62
     0
 10
3.30591
 20
4.96644
 30
0.0
 11
3.14882
 21
4.65914
 31
0.0
  0
LINE
  8
0
 62
     0
 10
3.14882
 20
4.65914
 30
0.0
 11
3.09507
 21
4.31878
 31
0.0
  0
LINE
  8
0
 62
     0
 10
3.09507
 20
4.31878
 30
0.0
 11
3.14882
 21
3.97979
 31
0.0
  0
LINE
  8
0
 62
     0
 10
3.14882
 20
3.97979
 30
0.0
 11
3.30591
 21
3.67249
 31
0.0
  0
LINE
  8
0
 62
     0
 10
3.30591
 20
3.67249
 30
0.0
 11
3.54845
 21
3.42994
 31
0.0
  0
LINE
  8
0
 62
     0
 10
3.54845
 20
3.42994
 30
0.0
 11
3.85576
 21
3.27284
 31
0.0
  0
LINE
  8
0
 62
     0
 10
3.85576
 20
3.27284
 30
0.0
 11
4.19474
 21
3.2191
 31
0.0
  0
LINE
  8
0
 62
     0
 10
4.19474
 20
3.2191
 30
0.0
 11
4.53513
 21
3.27284
 31
0.0
  0
LINE
  8
0
 62
     0
 10
4.53513
 20
3.27284
 30
0.0
 11
4.84106
 21
3.42994
 31
0.0
  0
LINE
  8
0
 62
     0
 10
4.84106
 20
3.42994
 30
0.0
 11
5.08497
 21
3.67249
 31
0.0
  0
LINE
  8
0
 62
     0
 10
5.08497
 20
3.67249
 30
0.0
 11
5.24207
 21
3.97979
 31
0.0
  0
LINE
  8
0
 62
     0
 10
5.24207
 20
3.97979
 30
0.0
 11
5.29442
 21
4.31878
 31
0.0
  0
LINE
  8
0
 62
     0
 10
5.29442
 20
4.31878
 30
0.0
 11
5.24207
 21
4.65914
 31
0.0
  0
LINE
  8
0
 62
     0
 10
5.24207
 20
4.65914
 30
0.0
 11
5.08497
 21
4.96644
 31
0.0
  0
LINE
  8
0
 62
     0
 10
5.08497
 20
4.96644
 30
0.0
 11
4.84106
 21
5.20898
 31
0.0
  0
LINE
  8
0
 62
     0
 10
4.84106
 20
5.20898
 30
0.0
 11
4.53513
 21
5.36469
 31
0.0
  0
LINE
  8
0
 62
     0
 10
4.53513
 20
5.36469
 30
0.0
 11
4.19474
 21
5.41983
 31
0.0
  0
LINE
  8
0
 62
     0
 10
4.19474
 20
5.41983
 30
0.0
 11
3.85576
 21
5.36469
 31
0.0
  0
LINE
  8
0
 62
     0
 10
121.274
 20
5.36469
 30
0.0
 11
120.967
 21
5.20898
 31
0.0
  0
LINE
  8
0
 62
     0
 10
120.967
 20
5.20898
 30
0.0
 11
120.724
 21
4.96644
 31
0.0
  0
LINE
  8
0
 62
     0
 10
120.724
 20
4.96644
 30
0.0
 11
120.567
 21
4.65914
 31
0.0
  0
LINE
  8
0
 62
     0
 10
120.567
 20
4.65914
 30
0.0
 11
120.515
 21
4.31878
 31
0.0
  0
LINE
  8
0
 62
     0
 10
120.515
 20
4.31878
 30
0.0
 11
120.567
 21
3.97979
 31
0.0
  0
LINE
  8
0
 62
     0
 10
120.567
 20
3.97979
 30
0.0
 11
120.724
 21
3.67249
 31
0.0
  0
LINE
  8
0
 62
     0
 10
120.724
 20
3.67249
 30
0.0
 11
120.967
 21
3.42994
 31
0.0
  0
LINE
  8
0
 62
     0
 10
120.967
 20
3.42994
 30
0.0
 11
121.274
 21
3.27284
 31
0.0
  0
LINE
  8
0
 62
     0
 10
121.274
 20
3.27284
 30
0.0
 11
121.614
 21
3.2191
 31
0.0
  0
LINE
  8
0
 62
     0
 10
121.614
 20
3.2191
 30
0.0
 11
121.954
 21
3.27284
 31
0.0
  0
LINE
  8
0
 62
     0
 10
121.954
 20
3.27284
 30
0.0
 11
122.261
 21
3.42994
 31
0.0
  0
LINE
  8
0
 62
     0
 10
122.261
 20
3.42994
 30
0.0
 11
122.503
 21
3.67249
 31
0.0
  0
LINE
  8
0
 62
     0
 10
122.503
 20
3.67249
 30
0.0
 11
122.66
 21
3.97979
 31
0.0
  0
LINE
  8
0
 62
     0
 10
122.66
 20
3.97979
 30
0.0
 11
122.714
 21
4.31878
 31
0.0
  0
LINE
  8
0
 62
     0
 10
122.714
 20
4.31878
 30
0.0
 11
122.66
 21
4.65914
 31
0.0
  0
LINE
  8
0
 62
     0
 10
122.66
 20
4.65914
 30
0.0
 11
122.503
 21
4.96644
 31
0.0
  0
LINE
  8
0
 62
     0
 10
122.503
 20
4.96644
 30
0.0
 11
122.261
 21
5.20898
 31
0.0
  0
LINE
  8
0
 62
     0
 10
122.261
 20
5.20898
 30
0.0
 11
121.954
 21
5.36469
 31
0.0
  0
LINE
  8
0
 62
     0
 10
121.954
 20
5.36469
 30
0.0
 11
121.614
 21
5.41983
 31
0.0
  0
LINE
  8
0
 62
     0
 10
121.614
 20
5.41983
 30
0.0
 11
121.274
 21
5.36469
 31
0.0
  0
LINE
  8
0
 62
     0
 10
238.694
 20
5.36469
 30
0.0
 11
238.387
 21
5.20898
 31
0.0
  0
LINE
  8
0
 62
     0
 10
238.387
 20
5.20898
 30
0.0
 11
238.143
 21
4.96644
 31
0.0
  0
LINE
  8
0
 62
     0
 10
238.143
 20
4.96644
 30
0.0
 11
237.986
 21
4.65914
 31
0.0
  0
LINE
  8
0
 62
     0
 10
237.986
 20
4.65914
 30
0.0
 11
237.933
 21
4.31878
 31
0.0
  0
LINE
  8
0
 62
     0
 10
237.933
 20
4.31878
 30
0.0
 11
237.986
 21
3.97979
 31
0.0
  0
LINE
  8
0
 62
     0
 10
237.986
 20
3.97979
 30
0.0
 11
238.143
 21
3.67249
 31
0.0
  0
LINE
  8
0
 62
     0
 10
238.143
 20
3.67249
 30
0.0
 11
238.387
 21
3.42994
 31
0.0
  0
LINE
  8
0
 62
     0
 10
238.387
 20
3.42994
 30
0.0
 11
238.694
 21
3.27284
 31
0.0
  0
LINE
  8
0
 62
     0
 10
238.694
 20
3.27284
 30
0.0
 11
239.033
 21
3.2191
 31
0.0
  0
LINE
  8
0
 62
     0
 10
239.033
 20
3.2191
 30
0.0
 11
239.372
 21
3.27284
 31
0.0
  0
LINE
  8
0
 62
     0
 10
239.372
 20
3.27284
 30
0.0
 11
239.679
 21
3.42994
 31
0.0
  0
LINE
  8
0
 62
     0
 10
239.679
 20
3.42994
 30
0.0
 11
239.922
 21
3.67249
 31
0.0
  0
LINE
  8
0
 62
     0
 10
239.922
 20
3.67249
 30
0.0
 11
240.079
 21
3.97979
 31
0.0
  0
LINE
  8
0
 62
     0
 10
240.079
 20
3.97979
 30
0.0
 11
240.134
 21
4.31878
 31
0.0
  0
LINE
  8
0
 62
     0
 10
240.134
 20
4.31878
 30
0.0
 11
240.079
 21
4.65914
 31
0.0
  0
LINE
  8
0
 62
     0
 10
240.079
 20
4.65914
 30
0.0
 11
239.922
 21
4.96644
 31
0.0
  0
LINE
  8
0
 62
     0
 10
239.922
 20
4.96644
 30
0.0
 11
239.679
 21
5.20898
 31
0.0
  0
LINE
  8
0
 62
     0
 10
239.679
 20
5.20898
 30
0.0
 11
239.372
 21
5.36469
 31
0.0
  0
LINE
  8
0
 62
     0
 10
239.372
 20
5.36469
 30
0.0
 11
239.033
 21
5.41983
 31
0.0
  0
LINE
  8
0
 62
     0
 10
239.033
 20
5.41983
 30
0.0
 11
238.694
 21
5.36469
 31
0.0
  0
LINE
  8
0
 62
     0
 10
356.112
 20
5.36469
 30
0.0
 11
355.805
 21
5.20898
 31
0.0
  0
LINE
  8
0
 62
     0
 10
355.805
 20
5.20898
 30
0.0
 11
355.561
 21
4.96644
 31
0.0
  0
LINE
  8
0
 62
     0
 10
355.561
 20
4.96644
 30
0.0
 11
355.406
 21
4.65914
 31
0.0
  0
LINE
  8
0
 62
     0
 10
355.406
 20
4.65914
 30
0.0
 11
355.353
 21
4.31878
 31
0.0
  0
LINE
  8
0
 62
     0
 10
355.353
 20
4.31878
 30
0.0
 11
355.406
 21
3.97979
 31
0.0
  0
LINE
  8
0
 62
     0
 10
355.406
 20
3.97979
 30
0.0
 11
355.561
 21
3.67249
 31
0.0
  0
LINE
  8
0
 62
     0
 10
355.561
 20
3.67249
 30
0.0
 11
355.805
 21
3.42994
 31
0.0
  0
LINE
  8
0
 62
     0
 10
355.805
 20
3.42994
 30
0.0
 11
356.112
 21
3.27284
 31
0.0
  0
LINE
  8
0
 62
     0
 10
356.112
 20
3.27284
 30
0.0
 11
356.454
 21
3.2191
 31
0.0
  0
LINE
  8
0
 62
     0
 10
356.454
 20
3.2191
 30
0.0
 11
356.792
 21
3.27284
 31
0.0
  0
LINE
  8
0
 62
     0
 10
356.792
 20
3.27284
 30
0.0
 11
357.099
 21
3.42994
 31
0.0
  0
LINE
  8
0
 62
     0
 10
357.099
 20
3.42994
 30
0.0
 11
357.343
 21
3.67249
 31
0.0
  0
LINE
  8
0
 62
     0
 10
357.343
 20
3.67249
 30
0.0
 11
357.498
 21
3.97979
 31
0.0
  0
LINE
  8
0
 62
     0
 10
357.498
 20
3.97979
 30
0.0
 11
357.554
 21
4.31878
 31
0.0
  0
LINE
  8
0
 62
     0
 10
357.554
 20
4.31878
 30
0.0
 11
357.498
 21
4.65914
 31
0.0
  0
LINE
  8
0
 62
     0
 10
357.498
 20
4.65914
 30
0.0
 11
357.343
 21
4.96644
 31
0.0
  0
LINE
  8
0
 62
     0
 10
357.343
 20
4.96644
 30
0.0
 11
357.099
 21
5.20898
 31
0.0
  0
LINE
  8
0
 62
     0
 10
357.099
 20
5.20898
 30
0.0
 11
356.792
 21
5.36469
 31
0.0
  0
LINE
  8
0
 62
     0
 10
356.792
 20
5.36469
 30
0.0
 11
356.454
 21
5.41983
 31
0.0
  0
LINE
  8
0
 62
     0
 10
356.454
 20
5.41983
 30
0.0
 11
356.112
 21
5.36469
 31
0.0
  0
LINE
  8
0
 62
     0
 10
473.53
 20
5.36469
 30
0.0
 11
473.223
 21
5.20898
 31
0.0
  0
LINE
  8
0
 62
     0
 10
473.223
 20
5.20898
 30
0.0
 11
472.98
 21
4.96644
 31
0.0
  0
LINE
  8
0
 62
     0
 10
472.98
 20
4.96644
 30
0.0
 11
472.825
 21
4.65914
 31
0.0
  0
LINE
  8
0
 62
     0
 10
472.825
 20
4.65914
 30
0.0
 11
472.772
 21
4.31878
 31
0.0
  0
LINE
  8
0
 62
     0
 10
472.772
 20
4.31878
 30
0.0
 11
472.825
 21
3.97979
 31
0.0
  0
LINE
  8
0
 62
     0
 10
472.825
 20
3.97979
 30
0.0
 11
472.98
 21
3.67249
 31
0.0
  0
LINE
  8
0
 62
     0
 10
472.98
 20
3.67249
 30
0.0
 11
473.223
 21
3.42994
 31
0.0
  0
LINE
  8
0
 62
     0
 10
473.223
 20
3.42994
 30
0.0
 11
473.53
 21
3.27284
 31
0.0
  0
LINE
  8
0
 62
     0
 10
473.53
 20
3.27284
 30
0.0
 11
473.872
 21
3.2191
 31
0.0
  0
LINE
  8
0
 62
     0
 10
473.872
 20
3.2191
 30
0.0
 11
474.211
 21
3.27284
 31
0.0
  0
LINE
  8
0
 62
     0
 10
474.211
 20
3.27284
 30
0.0
 11
474.518
 21
3.42994
 31
0.0
  0
LINE
  8
0
 62
     0
 10
474.518
 20
3.42994
 30
0.0
 11
474.761
 21
3.67249
 31
0.0
  0
LINE
  8
0
 62
     0
 10
474.761
 20
3.67249
 30
0.0
 11
474.916
 21
3.97979
 31
0.0
  0
LINE
  8
0
 62
     0
 10
474.916
 20
3.97979
 30
0.0
 11
474.973
 21
4.31878
 31
0.0
  0
LINE
  8
0
 62
     0
 10
474.973
 20
4.31878
 30
0.0
 11
474.916
 21
4.65914
 31
0.0
  0
LINE
  8
0
 62
     0
 10
474.916
 20
4.65914
 30
0.0
 11
474.761
 21
4.96644
 31
0.0
  0
LINE
  8
0
 62
     0
 10
474.761
 20
4.96644
 30
0.0
 11
474.518
 21
5.20898
 31
0.0
  0
LINE
  8
0
 62
     0
 10
474.518
 20
5.20898
 30
0.0
 11
474.211
 21
5.36469
 31
0.0
  0
LINE
  8
0
 62
     0
 10
474.211
 20
5.36469
 30
0.0
 11
473.872
 21
5.41983
 31
0.0
  0
LINE
  8
0
 62
     0
 10
473.872
 20
5.41983
 30
0.0
 11
473.53
 21
5.36469
 31
0.0
  0
LINE
  8
0
 62
     0
 10
258.327
 20
31.7459
 30
0.0
 11
258.327
 21
27.0454
 31
0.0
  0
LINE
  8
0
 62
     0
 10
258.327
 20
27.0454
 30
0.0
 11
256.6
 21
27.0454
 31
0.0
  0
LINE
  8
0
 62
     0
 10
256.6
 20
27.0454
 30
0.0
 11
256.6
 21
30.2755
 31
0.0
  0
LINE
  8
0
 62
     0
 10
256.6
 20
30.2755
 30
0.0
 11
250.052
 21
30.2755
 31
0.0
  0
LINE
  8
0
 62
     0
 10
250.052
 20
30.2755
 30
0.0
 11
250.052
 21
27.0454
 31
0.0
  0
LINE
  8
0
 62
     0
 10
250.052
 20
27.0454
 30
0.0
 11
249.227
 21
27.0454
 31
0.0
  0
LINE
  8
0
 62
     0
 10
249.227
 20
27.0454
 30
0.0
 11
249.227
 21
24.445
 31
0.0
  0
LINE
  8
0
 62
     0
 10
249.227
 20
24.445
 30
0.0
 11
250.052
 21
24.445
 31
0.0
  0
LINE
  8
0
 62
     0
 10
250.052
 20
24.445
 30
0.0
 11
250.052
 21
18.1749
 31
0.0
  0
LINE
  8
0
 62
     0
 10
250.052
 20
18.1749
 30
0.0
 11
251.776
 21
18.1749
 31
0.0
  0
LINE
  8
0
 62
     0
 10
251.776
 20
18.1749
 30
0.0
 11
251.776
 21
16.9747
 31
0.0
  0
LINE
  8
0
 62
     0
 10
251.776
 20
16.9747
 30
0.0
 11
254.876
 21
16.9747
 31
0.0
  0
LINE
  8
0
 62
     0
 10
254.876
 20
16.9747
 30
0.0
 11
254.876
 21
18.1749
 31
0.0
  0
LINE
  8
0
 62
     0
 10
254.876
 20
18.1749
 30
0.0
 11
256.6
 21
18.1749
 31
0.0
  0
LINE
  8
0
 62
     0
 10
256.6
 20
18.1749
 30
0.0
 11
256.6
 21
22.6453
 31
0.0
  0
LINE
  8
0
 62
     0
 10
256.6
 20
22.6453
 30
0.0
 11
258.327
 21
22.6453
 31
0.0
  0
LINE
  8
0
 62
     0
 10
258.327
 20
22.6453
 30
0.0
 11
258.327
 21
17.9448
 31
0.0
  0
LINE
  8
0
 62
     0
 10
258.327
 20
17.9448
 30
0.0
 11
272.127
 21
17.9448
 31
0.0
  0
LINE
  8
0
 62
     0
 10
272.127
 20
17.9448
 30
0.0
 11
272.127
 21
22.6453
 31
0.0
  0
LINE
  8
0
 62
     0
 10
272.127
 20
22.6453
 30
0.0
 11
273.852
 21
22.6453
 31
0.0
  0
LINE
  8
0
 62
     0
 10
273.852
 20
22.6453
 30
0.0
 11
273.852
 21
18.1749
 31
0.0
  0
LINE
  8
0
 62
     0
 10
273.852
 20
18.1749
 30
0.0
 11
275.576
 21
18.1749
 31
0.0
  0
LINE
  8
0
 62
     0
 10
275.576
 20
18.1749
 30
0.0
 11
275.576
 21
16.9747
 31
0.0
  0
LINE
  8
0
 62
     0
 10
275.576
 20
16.9747
 30
0.0
 11
278.676
 21
16.9747
 31
0.0
  0
LINE
  8
0
 62
     0
 10
278.676
 20
16.9747
 30
0.0
 11
278.676
 21
18.1749
 31
0.0
  0
LINE
  8
0
 62
     0
 10
278.676
 20
18.1749
 30
0.0
 11
280.402
 21
18.1749
 31
0.0
  0
LINE
  8
0
 62
     0
 10
280.402
 20
18.1749
 30
0.0
 11
280.402
 21
24.445
 31
0.0
  0
LINE
  8
0
 62
     0
 10
280.402
 20
24.445
 30
0.0
 11
281.226
 21
24.445
 31
0.0
  0
LINE
  8
0
 62
     0
 10
281.226
 20
24.445
 30
0.0
 11
281.226
 21
27.0454
 31
0.0
  0
LINE
  8
0
 62
     0
 10
281.226
 20
27.0454
 30
0.0
 11
280.402
 21
27.0454
 31
0.0
  0
LINE
  8
0
 62
     0
 10
280.402
 20
27.0454
 30
0.0
 11
280.402
 21
30.2755
 31
0.0
  0
LINE
  8
0
 62
     0
 10
280.402
 20
30.2755
 30
0.0
 11
273.852
 21
30.2755
 31
0.0
  0
LINE
  8
0
 62
     0
 10
273.852
 20
30.2755
 30
0.0
 11
273.852
 21
27.0454
 31
0.0
  0
LINE
  8
0
 62
     0
 10
273.852
 20
27.0454
 30
0.0
 11
272.127
 21
27.0454
 31
0.0
  0
LINE
  8
0
 62
     0
 10
272.127
 20
27.0454
 30
0.0
 11
272.127
 21
31.7459
 31
0.0
  0
LINE
  8
0
 62
     0
 10
272.127
 20
31.7459
 30
0.0
 11
258.327
 21
31.7459
 31
0.0
  0
LINE
  8
0
 62
     0
 10
210.702
 20
31.7459
 30
0.0
 11
210.702
 21
27.0454
 31
0.0
  0
LINE
  8
0
 62
     0
 10
210.702
 20
27.0454
 30
0.0
 11
208.977
 21
27.0454
 31
0.0
  0
LINE
  8
0
 62
     0
 10
208.977
 20
27.0454
 30
0.0
 11
208.977
 21
30.2755
 31
0.0
  0
LINE
  8
0
 62
     0
 10
208.977
 20
30.2755
 30
0.0
 11
202.427
 21
30.2755
 31
0.0
  0
LINE
  8
0
 62
     0
 10
202.427
 20
30.2755
 30
0.0
 11
202.427
 21
27.0454
 31
0.0
  0
LINE
  8
0
 62
     0
 10
202.427
 20
27.0454
 30
0.0
 11
201.602
 21
27.0454
 31
0.0
  0
LINE
  8
0
 62
     0
 10
201.602
 20
27.0454
 30
0.0
 11
201.602
 21
24.445
 31
0.0
  0
LINE
  8
0
 62
     0
 10
201.602
 20
24.445
 30
0.0
 11
202.427
 21
24.445
 31
0.0
  0
LINE
  8
0
 62
     0
 10
202.427
 20
24.445
 30
0.0
 11
202.427
 21
18.1749
 31
0.0
  0
LINE
  8
0
 62
     0
 10
202.427
 20
18.1749
 30
0.0
 11
204.151
 21
18.1749
 31
0.0
  0
LINE
  8
0
 62
     0
 10
204.151
 20
18.1749
 30
0.0
 11
204.151
 21
16.9747
 31
0.0
  0
LINE
  8
0
 62
     0
 10
204.151
 20
16.9747
 30
0.0
 11
207.251
 21
16.9747
 31
0.0
  0
LINE
  8
0
 62
     0
 10
207.251
 20
16.9747
 30
0.0
 11
207.251
 21
18.1749
 31
0.0
  0
LINE
  8
0
 62
     0
 10
207.251
 20
18.1749
 30
0.0
 11
208.977
 21
18.1749
 31
0.0
  0
LINE
  8
0
 62
     0
 10
208.977
 20
18.1749
 30
0.0
 11
208.977
 21
22.6453
 31
0.0
  0
LINE
  8
0
 62
     0
 10
208.977
 20
22.6453
 30
0.0
 11
210.702
 21
22.6453
 31
0.0
  0
LINE
  8
0
 62
     0
 10
210.702
 20
22.6453
 30
0.0
 11
210.702
 21
17.9448
 31
0.0
  0
LINE
  8
0
 62
     0
 10
210.702
 20
17.9448
 30
0.0
 11
224.502
 21
17.9448
 31
0.0
  0
LINE
  8
0
 62
     0
 10
224.502
 20
17.9448
 30
0.0
 11
224.502
 21
22.6453
 31
0.0
  0
LINE
  8
0
 62
     0
 10
224.502
 20
22.6453
 30
0.0
 11
226.227
 21
22.6453
 31
0.0
  0
LINE
  8
0
 62
     0
 10
226.227
 20
22.6453
 30
0.0
 11
226.227
 21
18.1749
 31
0.0
  0
LINE
  8
0
 62
     0
 10
226.227
 20
18.1749
 30
0.0
 11
227.951
 21
18.1749
 31
0.0
  0
LINE
  8
0
 62
     0
 10
227.951
 20
18.1749
 30
0.0
 11
227.951
 21
16.9747
 31
0.0
  0
LINE
  8
0
 62
     0
 10
227.951
 20
16.9747
 30
0.0
 11
231.051
 21
16.9747
 31
0.0
  0
LINE
  8
0
 62
     0
 10
231.051
 20
16.9747
 30
0.0
 11
231.051
 21
18.1749
 31
0.0
  0
LINE
  8
0
 62
     0
 10
231.051
 20
18.1749
 30
0.0
 11
232.777
 21
18.1749
 31
0.0
  0
LINE
  8
0
 62
     0
 10
232.777
 20
18.1749
 30
0.0
 11
232.777
 21
24.445
 31
0.0
  0
LINE
  8
0
 62
     0
 10
232.777
 20
24.445
 30
0.0
 11
233.601
 21
24.445
 31
0.0
  0
LINE
  8
0
 62
     0
 10
233.601
 20
24.445
 30
0.0
 11
233.601
 21
27.0454
 31
0.0
  0
LINE
  8
0
 62
     0
 10
233.601
 20
27.0454
 30
0.0
 11
232.777
 21
27.0454
 31
0.0
  0
LINE
  8
0
 62
     0
 10
232.777
 20
27.0454
 30
0.0
 11
232.777
 21
30.2755
 31
0.0
  0
LINE
  8
0
 62
     0
 10
232.777
 20
30.2755
 30
0.0
 11
226.227
 21
30.2755
 31
0.0
  0
LINE
  8
0
 62
     0
 10
226.227
 20
30.2755
 30
0.0
 11
226.227
 21
27.0454
 31
0.0
  0
LINE
  8
0
 62
     0
 10
226.227
 20
27.0454
 30
0.0
 11
224.502
 21
27.0454
 31
0.0
  0
LINE
  8
0
 62
     0
 10
224.502
 20
27.0454
 30
0.0
 11
224.502
 21
31.7459
 31
0.0
  0
LINE
  8
0
 62
     0
 10
224.502
 20
31.7459
 30
0.0
 11
210.702
 21
31.7459
 31
0.0
  0
LINE
  8
0
 62
     0
 10
446.447
 20
31.7459
 30
0.0
 11
460.244
 21
31.7459
 31
0.0
  0
LINE
  8
0
 62
     0
 10
460.244
 20
31.7459
 30
0.0
 11
460.244
 21
17.9448
 31
0.0
  0
LINE
  8
0
 62
     0
 10
460.244
 20
17.9448
 30
0.0
 11
446.447
 21
17.9448
 31
0.0
  0
LINE
  8
0
 62
     0
 10
446.447
 20
17.9448
 30
0.0
 11
446.447
 21
31.7459
 31
0.0
  0
LINE
  8
0
 62
     0
 10
427.397
 20
31.7459
 30
0.0
 11
441.194
 21
31.7459
 31
0.0
  0
LINE
  8
0
 62
     0
 10
441.194
 20
31.7459
 30
0.0
 11
441.194
 21
17.9448
 31
0.0
  0
LINE
  8
0
 62
     0
 10
441.194
 20
17.9448
 30
0.0
 11
427.397
 21
17.9448
 31
0.0
  0
LINE
  8
0
 62
     0
 10
427.397
 20
17.9448
 30
0.0
 11
427.397
 21
31.7459
 31
0.0
  0
LINE
  8
0
 62
     0
 10
408.347
 20
31.7459
 30
0.0
 11
422.144
 21
31.7459
 31
0.0
  0
LINE
  8
0
 62
     0
 10
422.144
 20
31.7459
 30
0.0
 11
422.144
 21
17.9448
 31
0.0
  0
LINE
  8
0
 62
     0
 10
422.144
 20
17.9448
 30
0.0
 11
408.347
 21
17.9448
 31
0.0
  0
LINE
  8
0
 62
     0
 10
408.347
 20
17.9448
 30
0.0
 11
408.347
 21
31.7459
 31
0.0
  0
LINE
  8
0
 62
     0
 10
322.621
 20
31.7459
 30
0.0
 11
336.421
 21
31.7459
 31
0.0
  0
LINE
  8
0
 62
     0
 10
336.421
 20
31.7459
 30
0.0
 11
336.421
 21
17.9448
 31
0.0
  0
LINE
  8
0
 62
     0
 10
336.421
 20
17.9448
 30
0.0
 11
322.621
 21
17.9448
 31
0.0
  0
LINE
  8
0
 62
     0
 10
322.621
 20
17.9448
 30
0.0
 11
322.621
 21
31.7459
 31
0.0
  0
LINE
  8
0
 62
     0
 10
296.427
 20
31.7459
 30
0.0
 11
310.227
 21
31.7459
 31
0.0
  0
LINE
  8
0
 62
     0
 10
310.227
 20
31.7459
 30
0.0
 11
310.227
 21
17.9448
 31
0.0
  0
LINE
  8
0
 62
     0
 10
310.227
 20
17.9448
 30
0.0
 11
296.427
 21
17.9448
 31
0.0
  0
LINE
  8
0
 62
     0
 10
296.427
 20
17.9448
 30
0.0
 11
296.427
 21
31.7459
 31
0.0
  0
LINE
  8
0
 62
     0
 10
167.838
 20
31.7459
 30
0.0
 11
181.638
 21
31.7459
 31
0.0
  0
LINE
  8
0
 62
     0
 10
181.638
 20
31.7459
 30
0.0
 11
181.638
 21
17.9448
 31
0.0
  0
LINE
  8
0
 62
     0
 10
181.638
 20
17.9448
 30
0.0
 11
167.838
 21
17.9448
 31
0.0
  0
LINE
  8
0
 62
     0
 10
167.838
 20
17.9448
 30
0.0
 11
167.838
 21
31.7459
 31
0.0
  0
LINE
  8
0
 62
     0
 10
141.646
 20
31.7459
 30
0.0
 11
155.446
 21
31.7459
 31
0.0
  0
LINE
  8
0
 62
     0
 10
155.446
 20
31.7459
 30
0.0
 11
155.446
 21
17.9448
 31
0.0
  0
LINE
  8
0
 62
     0
 10
155.446
 20
17.9448
 30
0.0
 11
141.646
 21
17.9448
 31
0.0
  0
LINE
  8
0
 62
     0
 10
141.646
 20
17.9448
 30
0.0
 11
141.646
 21
31.7459
 31
0.0
  0
LINE
  8
0
 62
     0
 10
36.8709
 20
31.7459
 30
0.0
 11
50.6691
 21
31.7459
 31
0.0
  0
LINE
  8
0
 62
     0
 10
50.6691
 20
31.7459
 30
0.0
 11
50.6691
 21
17.9448
 31
0.0
  0
LINE
  8
0
 62
     0
 10
50.6691
 20
17.9448
 30
0.0
 11
36.8709
 21
17.9448
 31
0.0
  0
LINE
  8
0
 62
     0
 10
36.8709
 20
17.9448
 30
0.0
 11
36.8709
 21
31.7459
 31
0.0
  0
LINE
  8
0
 62
     0
 10
17.8208
 20
31.7459
 30
0.0
 11
31.6205
 21
31.7459
 31
0.0
  0
LINE
  8
0
 62
     0
 10
31.6205
 20
31.7459
 30
0.0
 11
31.6205
 21
17.9448
 31
0.0
  0
LINE
  8
0
 62
     0
 10
31.6205
 20
17.9448
 30
0.0
 11
17.8208
 21
17.9448
 31
0.0
  0
LINE
  8
0
 62
     0
 10
17.8208
 20
17.9448
 30
0.0
 11
17.8208
 21
31.7459
 31
0.0
  0
LINE
  8
0
 62
     0
 10
115.452
 20
36.5069
 30
0.0
 11
129.252
 21
36.5069
 31
0.0
  0
LINE
  8
0
 62
     0
 10
129.252
 20
36.5069
 30
0.0
 11
129.252
 21
22.7073
 31
0.0
  0
LINE
  8
0
 62
     0
 10
129.252
 20
22.7073
 30
0.0
 11
115.452
 21
22.7073
 31
0.0
  0
LINE
  8
0
 62
     0
 10
115.452
 20
22.7073
 30
0.0
 11
115.452
 21
36.5069
 31
0.0
  0
LINE
  8
0
 62
     0
 10
379.772
 20
36.5083
 30
0.0
 11
393.569
 21
36.5083
 31
0.0
  0
LINE
  8
0
 62
     0
 10
393.569
 20
36.5083
 30
0.0
 11
393.569
 21
22.7073
 31
0.0
  0
LINE
  8
0
 62
     0
 10
393.569
 20
22.7073
 30
0.0
 11
379.772
 21
22.7073
 31
0.0
  0
LINE
  8
0
 62
     0
 10
379.772
 20
22.7073
 30
0.0
 11
379.772
 21
36.5083
 31
0.0
  0
LINE
  8
0
 62
     0
 10
351.196
 20
36.5083
 30
0.0
 11
364.994
 21
36.5083
 31
0.0
  0
LINE
  8
0
 62
     0
 10
364.994
 20
36.5083
 30
0.0
 11
364.994
 21
22.7073
 31
0.0
  0
LINE
  8
0
 62
     0
 10
364.994
 20
22.7073
 30
0.0
 11
351.196
 21
22.7073
 31
0.0
  0
LINE
  8
0
 62
     0
 10
351.196
 20
22.7073
 30
0.0
 11
351.196
 21
36.5083
 31
0.0
  0
LINE
  8
0
 62
     0
 10
91.6383
 20
36.5083
 30
0.0
 11
105.438
 21
36.5083
 31
0.0
  0
LINE
  8
0
 62
     0
 10
105.438
 20
36.5083
 30
0.0
 11
105.438
 21
22.7073
 31
0.0
  0
LINE
  8
0
 62
     0
 10
105.438
 20
22.7073
 30
0.0
 11
91.6383
 21
22.7073
 31
0.0
  0
LINE
  8
0
 62
     0
 10
91.6383
 20
22.7073
 30
0.0
 11
91.6383
 21
36.5083
 31
0.0
  0
LINE
  8
0
 62
     0
 10
65.4459
 20
36.5083
 30
0.0
 11
79.2455
 21
36.5083
 31
0.0
  0
LINE
  8
0
 62
     0
 10
79.2455
 20
36.5083
 30
0.0
 11
79.2455
 21
22.7073
 31
0.0
  0
LINE
  8
0
 62
     0
 10
79.2455
 20
22.7073
 30
0.0
 11
65.4459
 21
22.7073
 31
0.0
  0
LINE
  8
0
 62
     0
 10
65.4459
 20
22.7073
 30
0.0
 11
65.4459
 21
36.5083
 31
0.0
  0
LINE
  8
0
 62
     0
 10
427.397
 20
50.7958
 30
0.0
 11
441.194
 21
50.7958
 31
0.0
  0
LINE
  8
0
 62
     0
 10
441.194
 20
50.7958
 30
0.0
 11
441.194
 21
36.9947
 31
0.0
  0
LINE
  8
0
 62
     0
 10
441.194
 20
36.9947
 30
0.0
 11
427.397
 21
36.9947
 31
0.0
  0
LINE
  8
0
 62
     0
 10
427.397
 20
36.9947
 30
0.0
 11
427.397
 21
50.7958
 31
0.0
  0
LINE
  8
0
 62
     0
 10
17.8208
 20
50.7958
 30
0.0
 11
31.6205
 21
50.7958
 31
0.0
  0
LINE
  8
0
 62
     0
 10
31.6205
 20
50.7958
 30
0.0
 11
31.6205
 21
36.9947
 31
0.0
  0
LINE
  8
0
 62
     0
 10
31.6205
 20
36.9947
 30
0.0
 11
17.8208
 21
36.9947
 31
0.0
  0
LINE
  8
0
 62
     0
 10
17.8208
 20
36.9947
 30
0.0
 11
17.8208
 21
50.7958
 31
0.0
  0
LINE
  8
0
 62
     0
 10
58.3022
 20
55.5583
 30
0.0
 11
58.3022
 21
50.8579
 31
0.0
  0
LINE
  8
0
 62
     0
 10
58.3022
 20
50.8579
 30
0.0
 11
56.5767
 21
50.8579
 31
0.0
  0
LINE
  8
0
 62
     0
 10
56.5767
 20
50.8579
 30
0.0
 11
56.5767
 21
54.0879
 31
0.0
  0
LINE
  8
0
 62
     0
 10
56.5767
 20
54.0879
 30
0.0
 11
50.0271
 21
54.0879
 31
0.0
  0
LINE
  8
0
 62
     0
 10
50.0271
 20
54.0879
 30
0.0
 11
50.0271
 21
50.8579
 31
0.0
  0
LINE
  8
0
 62
     0
 10
50.0271
 20
50.8579
 30
0.0
 11
49.2016
 21
50.8579
 31
0.0
  0
LINE
  8
0
 62
     0
 10
49.2016
 20
50.8579
 30
0.0
 11
49.2016
 21
48.2575
 31
0.0
  0
LINE
  8
0
 62
     0
 10
49.2016
 20
48.2575
 30
0.0
 11
50.0271
 21
48.2575
 31
0.0
  0
LINE
  8
0
 62
     0
 10
50.0271
 20
48.2575
 30
0.0
 11
50.0271
 21
41.9876
 31
0.0
  0
LINE
  8
0
 62
     0
 10
50.0271
 20
41.9876
 30
0.0
 11
51.7507
 21
41.9876
 31
0.0
  0
LINE
  8
0
 62
     0
 10
51.7507
 20
41.9876
 30
0.0
 11
51.7507
 21
40.7871
 31
0.0
  0
LINE
  8
0
 62
     0
 10
51.7507
 20
40.7871
 30
0.0
 11
54.8513
 21
40.7871
 31
0.0
  0
LINE
  8
0
 62
     0
 10
54.8513
 20
40.7871
 30
0.0
 11
54.8513
 21
41.9876
 31
0.0
  0
LINE
  8
0
 62
     0
 10
54.8513
 20
41.9876
 30
0.0
 11
56.5767
 21
41.9876
 31
0.0
  0
LINE
  8
0
 62
     0
 10
56.5767
 20
41.9876
 30
0.0
 11
56.5767
 21
46.4577
 31
0.0
  0
LINE
  8
0
 62
     0
 10
56.5767
 20
46.4577
 30
0.0
 11
58.3022
 21
46.4577
 31
0.0
  0
LINE
  8
0
 62
     0
 10
58.3022
 20
46.4577
 30
0.0
 11
58.3022
 21
41.7572
 31
0.0
  0
LINE
  8
0
 62
     0
 10
58.3022
 20
41.7572
 30
0.0
 11
72.1018
 21
41.7572
 31
0.0
  0
LINE
  8
0
 62
     0
 10
72.1018
 20
41.7572
 30
0.0
 11
72.1018
 21
46.4577
 31
0.0
  0
LINE
  8
0
 62
     0
 10
72.1018
 20
46.4577
 30
0.0
 11
73.8269
 21
46.4577
 31
0.0
  0
LINE
  8
0
 62
     0
 10
73.8269
 20
46.4577
 30
0.0
 11
73.8269
 21
41.9876
 31
0.0
  0
LINE
  8
0
 62
     0
 10
73.8269
 20
41.9876
 30
0.0
 11
75.5509
 21
41.9876
 31
0.0
  0
LINE
  8
0
 62
     0
 10
75.5509
 20
41.9876
 30
0.0
 11
75.5509
 21
40.7871
 31
0.0
  0
LINE
  8
0
 62
     0
 10
75.5509
 20
40.7871
 30
0.0
 11
78.6515
 21
40.7871
 31
0.0
  0
LINE
  8
0
 62
     0
 10
78.6515
 20
40.7871
 30
0.0
 11
78.6515
 21
41.9876
 31
0.0
  0
LINE
  8
0
 62
     0
 10
78.6515
 20
41.9876
 30
0.0
 11
80.3769
 21
41.9876
 31
0.0
  0
LINE
  8
0
 62
     0
 10
80.3769
 20
41.9876
 30
0.0
 11
80.3769
 21
48.2575
 31
0.0
  0
LINE
  8
0
 62
     0
 10
80.3769
 20
48.2575
 30
0.0
 11
81.201
 21
48.2575
 31
0.0
  0
LINE
  8
0
 62
     0
 10
81.201
 20
48.2575
 30
0.0
 11
81.201
 21
50.8579
 31
0.0
  0
LINE
  8
0
 62
     0
 10
81.201
 20
50.8579
 30
0.0
 11
80.3769
 21
50.8579
 31
0.0
  0
LINE
  8
0
 62
     0
 10
80.3769
 20
50.8579
 30
0.0
 11
80.3769
 21
54.0879
 31
0.0
  0
LINE
  8
0
 62
     0
 10
80.3769
 20
54.0879
 30
0.0
 11
73.8269
 21
54.0879
 31
0.0
  0
LINE
  8
0
 62
     0
 10
73.8269
 20
54.0879
 30
0.0
 11
73.8269
 21
50.8579
 31
0.0
  0
LINE
  8
0
 62
     0
 10
73.8269
 20
50.8579
 30
0.0
 11
72.1018
 21
50.8579
 31
0.0
  0
LINE
  8
0
 62
     0
 10
72.1018
 20
50.8579
 30
0.0
 11
72.1018
 21
55.5583
 31
0.0
  0
LINE
  8
0
 62
     0
 10
72.1018
 20
55.5583
 30
0.0
 11
58.3022
 21
55.5583
 31
0.0
  0
LINE
  8
0
 62
     0
 10
396.438
 20
55.5583
 30
0.0
 11
410.238
 21
55.5583
 31
0.0
  0
LINE
  8
0
 62
     0
 10
410.238
 20
55.5583
 30
0.0
 11
410.238
 21
41.7572
 31
0.0
  0
LINE
  8
0
 62
     0
 10
410.238
 20
41.7572
 30
0.0
 11
396.438
 21
41.7572
 31
0.0
  0
LINE
  8
0
 62
     0
 10
396.438
 20
41.7572
 30
0.0
 11
396.438
 21
55.5583
 31
0.0
  0
LINE
  8
0
 62
     0
 10
370.247
 20
55.5583
 30
0.0
 11
384.044
 21
55.5583
 31
0.0
  0
LINE
  8
0
 62
     0
 10
384.044
 20
55.5583
 30
0.0
 11
384.044
 21
41.7572
 31
0.0
  0
LINE
  8
0
 62
     0
 10
384.044
 20
41.7572
 30
0.0
 11
370.247
 21
41.7572
 31
0.0
  0
LINE
  8
0
 62
     0
 10
370.247
 20
41.7572
 30
0.0
 11
370.247
 21
55.5583
 31
0.0
  0
LINE
  8
0
 62
     0
 10
351.196
 20
55.5583
 30
0.0
 11
364.994
 21
55.5583
 31
0.0
  0
LINE
  8
0
 62
     0
 10
364.994
 20
55.5583
 30
0.0
 11
364.994
 21
41.7572
 31
0.0
  0
LINE
  8
0
 62
     0
 10
364.994
 20
41.7572
 30
0.0
 11
351.196
 21
41.7572
 31
0.0
  0
LINE
  8
0
 62
     0
 10
351.196
 20
41.7572
 30
0.0
 11
351.196
 21
55.5583
 31
0.0
  0
LINE
  8
0
 62
     0
 10
332.146
 20
55.5583
 30
0.0
 11
345.946
 21
55.5583
 31
0.0
  0
LINE
  8
0
 62
     0
 10
345.946
 20
55.5583
 30
0.0
 11
345.946
 21
41.7572
 31
0.0
  0
LINE
  8
0
 62
     0
 10
345.946
 20
41.7572
 30
0.0
 11
332.146
 21
41.7572
 31
0.0
  0
LINE
  8
0
 62
     0
 10
332.146
 20
41.7572
 30
0.0
 11
332.146
 21
55.5583
 31
0.0
  0
LINE
  8
0
 62
     0
 10
313.096
 20
55.5583
 30
0.0
 11
326.896
 21
55.5583
 31
0.0
  0
LINE
  8
0
 62
     0
 10
326.896
 20
55.5583
 30
0.0
 11
326.896
 21
41.7572
 31
0.0
  0
LINE
  8
0
 62
     0
 10
326.896
 20
41.7572
 30
0.0
 11
313.096
 21
41.7572
 31
0.0
  0
LINE
  8
0
 62
     0
 10
313.096
 20
41.7572
 30
0.0
 11
313.096
 21
55.5583
 31
0.0
  0
LINE
  8
0
 62
     0
 10
294.046
 20
55.5583
 30
0.0
 11
307.846
 21
55.5583
 31
0.0
  0
LINE
  8
0
 62
     0
 10
307.846
 20
55.5583
 30
0.0
 11
307.846
 21
41.7572
 31
0.0
  0
LINE
  8
0
 62
     0
 10
307.846
 20
41.7572
 30
0.0
 11
294.046
 21
41.7572
 31
0.0
  0
LINE
  8
0
 62
     0
 10
294.046
 20
41.7572
 30
0.0
 11
294.046
 21
55.5583
 31
0.0
  0
LINE
  8
0
 62
     0
 10
274.996
 20
55.5583
 30
0.0
 11
288.796
 21
55.5583
 31
0.0
  0
LINE
  8
0
 62
     0
 10
288.796
 20
55.5583
 30
0.0
 11
288.796
 21
41.7572
 31
0.0
  0
LINE
  8
0
 62
     0
 10
288.796
 20
41.7572
 30
0.0
 11
274.996
 21
41.7572
 31
0.0
  0
LINE
  8
0
 62
     0
 10
274.996
 20
41.7572
 30
0.0
 11
274.996
 21
55.5583
 31
0.0
  0
LINE
  8
0
 62
     0
 10
251.182
 20
55.5583
 30
0.0
 11
264.983
 21
55.5583
 31
0.0
  0
LINE
  8
0
 62
     0
 10
264.983
 20
55.5583
 30
0.0
 11
264.983
 21
41.7572
 31
0.0
  0
LINE
  8
0
 62
     0
 10
264.983
 20
41.7572
 30
0.0
 11
251.182
 21
41.7572
 31
0.0
  0
LINE
  8
0
 62
     0
 10
251.182
 20
41.7572
 30
0.0
 11
251.182
 21
55.5583
 31
0.0
  0
LINE
  8
0
 62
     0
 10
232.132
 20
55.5583
 30
0.0
 11
245.933
 21
55.5583
 31
0.0
  0
LINE
  8
0
 62
     0
 10
245.933
 20
55.5583
 30
0.0
 11
245.933
 21
41.7572
 31
0.0
  0
LINE
  8
0
 62
     0
 10
245.933
 20
41.7572
 30
0.0
 11
232.132
 21
41.7572
 31
0.0
  0
LINE
  8
0
 62
     0
 10
232.132
 20
41.7572
 30
0.0
 11
232.132
 21
55.5583
 31
0.0
  0
LINE
  8
0
 62
     0
 10
213.082
 20
55.5583
 30
0.0
 11
226.883
 21
55.5583
 31
0.0
  0
LINE
  8
0
 62
     0
 10
226.883
 20
55.5583
 30
0.0
 11
226.883
 21
41.7572
 31
0.0
  0
LINE
  8
0
 62
     0
 10
226.883
 20
41.7572
 30
0.0
 11
213.082
 21
41.7572
 31
0.0
  0
LINE
  8
0
 62
     0
 10
213.082
 20
41.7572
 30
0.0
 11
213.082
 21
55.5583
 31
0.0
  0
LINE
  8
0
 62
     0
 10
189.271
 20
55.5583
 30
0.0
 11
203.071
 21
55.5583
 31
0.0
  0
LINE
  8
0
 62
     0
 10
203.071
 20
55.5583
 30
0.0
 11
203.071
 21
41.7572
 31
0.0
  0
LINE
  8
0
 62
     0
 10
203.071
 20
41.7572
 30
0.0
 11
189.271
 21
41.7572
 31
0.0
  0
LINE
  8
0
 62
     0
 10
189.271
 20
41.7572
 30
0.0
 11
189.271
 21
55.5583
 31
0.0
  0
LINE
  8
0
 62
     0
 10
170.221
 20
55.5583
 30
0.0
 11
184.021
 21
55.5583
 31
0.0
  0
LINE
  8
0
 62
     0
 10
184.021
 20
55.5583
 30
0.0
 11
184.021
 21
41.7572
 31
0.0
  0
LINE
  8
0
 62
     0
 10
184.021
 20
41.7572
 30
0.0
 11
170.221
 21
41.7572
 31
0.0
  0
LINE
  8
0
 62
     0
 10
170.221
 20
41.7572
 30
0.0
 11
170.221
 21
55.5583
 31
0.0
  0
LINE
  8
0
 62
     0
 10
151.171
 20
55.5583
 30
0.0
 11
164.971
 21
55.5583
 31
0.0
  0
LINE
  8
0
 62
     0
 10
164.971
 20
55.5583
 30
0.0
 11
164.971
 21
41.7572
 31
0.0
  0
LINE
  8
0
 62
     0
 10
164.971
 20
41.7572
 30
0.0
 11
151.171
 21
41.7572
 31
0.0
  0
LINE
  8
0
 62
     0
 10
151.171
 20
41.7572
 30
0.0
 11
151.171
 21
55.5583
 31
0.0
  0
LINE
  8
0
 62
     0
 10
132.121
 20
55.5583
 30
0.0
 11
145.921
 21
55.5583
 31
0.0
  0
LINE
  8
0
 62
     0
 10
145.921
 20
55.5583
 30
0.0
 11
145.921
 21
41.7572
 31
0.0
  0
LINE
  8
0
 62
     0
 10
145.921
 20
41.7572
 30
0.0
 11
132.121
 21
41.7572
 31
0.0
  0
LINE
  8
0
 62
     0
 10
132.121
 20
41.7572
 30
0.0
 11
132.121
 21
55.5583
 31
0.0
  0
LINE
  8
0
 62
     0
 10
113.071
 20
55.5583
 30
0.0
 11
126.871
 21
55.5583
 31
0.0
  0
LINE
  8
0
 62
     0
 10
126.871
 20
55.5583
 30
0.0
 11
126.871
 21
41.7572
 31
0.0
  0
LINE
  8
0
 62
     0
 10
126.871
 20
41.7572
 30
0.0
 11
113.071
 21
41.7572
 31
0.0
  0
LINE
  8
0
 62
     0
 10
113.071
 20
41.7572
 30
0.0
 11
113.071
 21
55.5583
 31
0.0
  0
LINE
  8
0
 62
     0
 10
94.0209
 20
55.5583
 30
0.0
 11
107.821
 21
55.5583
 31
0.0
  0
LINE
  8
0
 62
     0
 10
107.821
 20
55.5583
 30
0.0
 11
107.821
 21
41.7572
 31
0.0
  0
LINE
  8
0
 62
     0
 10
107.821
 20
41.7572
 30
0.0
 11
94.0209
 21
41.7572
 31
0.0
  0
LINE
  8
0
 62
     0
 10
94.0209
 20
41.7572
 30
0.0
 11
94.0209
 21
55.5583
 31
0.0
  0
LINE
  8
0
 62
     0
 10
63.0633
 20
74.6083
 30
0.0
 11
63.0633
 21
69.9079
 31
0.0
  0
LINE
  8
0
 62
     0
 10
63.0633
 20
69.9079
 30
0.0
 11
61.3378
 21
69.9079
 31
0.0
  0
LINE
  8
0
 62
     0
 10
61.3378
 20
69.9079
 30
0.0
 11
61.3378
 21
73.1379
 31
0.0
  0
LINE
  8
0
 62
     0
 10
61.3378
 20
73.1379
 30
0.0
 11
54.7882
 21
73.1379
 31
0.0
  0
LINE
  8
0
 62
     0
 10
54.7882
 20
73.1379
 30
0.0
 11
54.7882
 21
69.9079
 31
0.0
  0
LINE
  8
0
 62
     0
 10
54.7882
 20
69.9079
 30
0.0
 11
53.9641
 21
69.9079
 31
0.0
  0
LINE
  8
0
 62
     0
 10
53.9641
 20
69.9079
 30
0.0
 11
53.9641
 21
67.3075
 31
0.0
  0
LINE
  8
0
 62
     0
 10
53.9641
 20
67.3075
 30
0.0
 11
54.7882
 21
67.3075
 31
0.0
  0
LINE
  8
0
 62
     0
 10
54.7882
 20
67.3075
 30
0.0
 11
54.7882
 21
61.0376
 31
0.0
  0
LINE
  8
0
 62
     0
 10
54.7882
 20
61.0376
 30
0.0
 11
56.5132
 21
61.0376
 31
0.0
  0
LINE
  8
0
 62
     0
 10
56.5132
 20
61.0376
 30
0.0
 11
56.5132
 21
59.8371
 31
0.0
  0
LINE
  8
0
 62
     0
 10
56.5132
 20
59.8371
 30
0.0
 11
59.6138
 21
59.8371
 31
0.0
  0
LINE
  8
0
 62
     0
 10
59.6138
 20
59.8371
 30
0.0
 11
59.6138
 21
61.0376
 31
0.0
  0
LINE
  8
0
 62
     0
 10
59.6138
 20
61.0376
 30
0.0
 11
61.3378
 21
61.0376
 31
0.0
  0
LINE
  8
0
 62
     0
 10
61.3378
 20
61.0376
 30
0.0
 11
61.3378
 21
65.5077
 31
0.0
  0
LINE
  8
0
 62
     0
 10
61.3378
 20
65.5077
 30
0.0
 11
63.0633
 21
65.5077
 31
0.0
  0
LINE
  8
0
 62
     0
 10
63.0633
 20
65.5077
 30
0.0
 11
63.0633
 21
60.8072
 31
0.0
  0
LINE
  8
0
 62
     0
 10
63.0633
 20
60.8072
 30
0.0
 11
76.8629
 21
60.8072
 31
0.0
  0
LINE
  8
0
 62
     0
 10
76.8629
 20
60.8072
 30
0.0
 11
76.8629
 21
65.5077
 31
0.0
  0
LINE
  8
0
 62
     0
 10
76.8629
 20
65.5077
 30
0.0
 11
78.5883
 21
65.5077
 31
0.0
  0
LINE
  8
0
 62
     0
 10
78.5883
 20
65.5077
 30
0.0
 11
78.5883
 21
61.0376
 31
0.0
  0
LINE
  8
0
 62
     0
 10
78.5883
 20
61.0376
 30
0.0
 11
80.3134
 21
61.0376
 31
0.0
  0
LINE
  8
0
 62
     0
 10
80.3134
 20
61.0376
 30
0.0
 11
80.3134
 21
59.8371
 31
0.0
  0
LINE
  8
0
 62
     0
 10
80.3134
 20
59.8371
 30
0.0
 11
83.414
 21
59.8371
 31
0.0
  0
LINE
  8
0
 62
     0
 10
83.414
 20
59.8371
 30
0.0
 11
83.414
 21
61.0376
 31
0.0
  0
LINE
  8
0
 62
     0
 10
83.414
 20
61.0376
 30
0.0
 11
85.138
 21
61.0376
 31
0.0
  0
LINE
  8
0
 62
     0
 10
85.138
 20
61.0376
 30
0.0
 11
85.138
 21
67.3075
 31
0.0
  0
LINE
  8
0
 62
     0
 10
85.138
 20
67.3075
 30
0.0
 11
85.9635
 21
67.3075
 31
0.0
  0
LINE
  8
0
 62
     0
 10
85.9635
 20
67.3075
 30
0.0
 11
85.9635
 21
69.9079
 31
0.0
  0
LINE
  8
0
 62
     0
 10
85.9635
 20
69.9079
 30
0.0
 11
85.138
 21
69.9079
 31
0.0
  0
LINE
  8
0
 62
     0
 10
85.138
 20
69.9079
 30
0.0
 11
85.138
 21
73.1379
 31
0.0
  0
LINE
  8
0
 62
     0
 10
85.138
 20
73.1379
 30
0.0
 11
78.5883
 21
73.1379
 31
0.0
  0
LINE
  8
0
 62
     0
 10
78.5883
 20
73.1379
 30
0.0
 11
78.5883
 21
69.9079
 31
0.0
  0
LINE
  8
0
 62
     0
 10
78.5883
 20
69.9079
 30
0.0
 11
76.8629
 21
69.9079
 31
0.0
  0
LINE
  8
0
 62
     0
 10
76.8629
 20
69.9079
 30
0.0
 11
76.8629
 21
74.6083
 31
0.0
  0
LINE
  8
0
 62
     0
 10
76.8629
 20
74.6083
 30
0.0
 11
63.0633
 21
74.6083
 31
0.0
  0
LINE
  8
0
 62
     0
 10
415.488
 20
74.6083
 30
0.0
 11
429.288
 21
74.6083
 31
0.0
  0
LINE
  8
0
 62
     0
 10
429.288
 20
74.6083
 30
0.0
 11
429.288
 21
60.8072
 31
0.0
  0
LINE
  8
0
 62
     0
 10
429.288
 20
60.8072
 30
0.0
 11
415.488
 21
60.8072
 31
0.0
  0
LINE
  8
0
 62
     0
 10
415.488
 20
60.8072
 30
0.0
 11
415.488
 21
74.6083
 31
0.0
  0
LINE
  8
0
 62
     0
 10
389.297
 20
74.6083
 30
0.0
 11
403.094
 21
74.6083
 31
0.0
  0
LINE
  8
0
 62
     0
 10
403.094
 20
74.6083
 30
0.0
 11
403.094
 21
60.8072
 31
0.0
  0
LINE
  8
0
 62
     0
 10
403.094
 20
60.8072
 30
0.0
 11
389.297
 21
60.8072
 31
0.0
  0
LINE
  8
0
 62
     0
 10
389.297
 20
60.8072
 30
0.0
 11
389.297
 21
74.6083
 31
0.0
  0
LINE
  8
0
 62
     0
 10
370.247
 20
74.6083
 30
0.0
 11
384.044
 21
74.6083
 31
0.0
  0
LINE
  8
0
 62
     0
 10
384.044
 20
74.6083
 30
0.0
 11
384.044
 21
60.8072
 31
0.0
  0
LINE
  8
0
 62
     0
 10
384.044
 20
60.8072
 30
0.0
 11
370.247
 21
60.8072
 31
0.0
  0
LINE
  8
0
 62
     0
 10
370.247
 20
60.8072
 30
0.0
 11
370.247
 21
74.6083
 31
0.0
  0
LINE
  8
0
 62
     0
 10
351.196
 20
74.6083
 30
0.0
 11
364.994
 21
74.6083
 31
0.0
  0
LINE
  8
0
 62
     0
 10
364.994
 20
74.6083
 30
0.0
 11
364.994
 21
60.8072
 31
0.0
  0
LINE
  8
0
 62
     0
 10
364.994
 20
60.8072
 30
0.0
 11
351.196
 21
60.8072
 31
0.0
  0
LINE
  8
0
 62
     0
 10
351.196
 20
60.8072
 30
0.0
 11
351.196
 21
74.6083
 31
0.0
  0
LINE
  8
0
 62
     0
 10
332.146
 20
74.6083
 30
0.0
 11
345.946
 21
74.6083
 31
0.0
  0
LINE
  8
0
 62
     0
 10
345.946
 20
74.6083
 30
0.0
 11
345.946
 21
60.8072
 31
0.0
  0
LINE
  8
0
 62
     0
 10
345.946
 20
60.8072
 30
0.0
 11
332.146
 21
60.8072
 31
0.0
  0
LINE
  8
0
 62
     0
 10
332.146
 20
60.8072
 30
0.0
 11
332.146
 21
74.6083
 31
0.0
  0
LINE
  8
0
 62
     0
 10
313.096
 20
74.6083
 30
0.0
 11
326.896
 21
74.6083
 31
0.0
  0
LINE
  8
0
 62
     0
 10
326.896
 20
74.6083
 30
0.0
 11
326.896
 21
60.8072
 31
0.0
  0
LINE
  8
0
 62
     0
 10
326.896
 20
60.8072
 30
0.0
 11
313.096
 21
60.8072
 31
0.0
  0
LINE
  8
0
 62
     0
 10
313.096
 20
60.8072
 30
0.0
 11
313.096
 21
74.6083
 31
0.0
  0
LINE
  8
0
 62
     0
 10
294.046
 20
74.6083
 30
0.0
 11
307.846
 21
74.6083
 31
0.0
  0
LINE
  8
0
 62
     0
 10
307.846
 20
74.6083
 30
0.0
 11
307.846
 21
60.8072
 31
0.0
  0
LINE
  8
0
 62
     0
 10
307.846
 20
60.8072
 30
0.0
 11
294.046
 21
60.8072
 31
0.0
  0
LINE
  8
0
 62
     0
 10
294.046
 20
60.8072
 30
0.0
 11
294.046
 21
74.6083
 31
0.0
  0
LINE
  8
0
 62
     0
 10
274.996
 20
74.6083
 30
0.0
 11
288.796
 21
74.6083
 31
0.0
  0
LINE
  8
0
 62
     0
 10
288.796
 20
74.6083
 30
0.0
 11
288.796
 21
60.8072
 31
0.0
  0
LINE
  8
0
 62
     0
 10
288.796
 20
60.8072
 30
0.0
 11
274.996
 21
60.8072
 31
0.0
  0
LINE
  8
0
 62
     0
 10
274.996
 20
60.8072
 30
0.0
 11
274.996
 21
74.6083
 31
0.0
  0
LINE
  8
0
 62
     0
 10
251.182
 20
74.6083
 30
0.0
 11
264.983
 21
74.6083
 31
0.0
  0
LINE
  8
0
 62
     0
 10
264.983
 20
74.6083
 30
0.0
 11
264.983
 21
60.8072
 31
0.0
  0
LINE
  8
0
 62
     0
 10
264.983
 20
60.8072
 30
0.0
 11
251.182
 21
60.8072
 31
0.0
  0
LINE
  8
0
 62
     0
 10
251.182
 20
60.8072
 30
0.0
 11
251.182
 21
74.6083
 31
0.0
  0
LINE
  8
0
 62
     0
 10
232.132
 20
74.6083
 30
0.0
 11
245.933
 21
74.6083
 31
0.0
  0
LINE
  8
0
 62
     0
 10
245.933
 20
74.6083
 30
0.0
 11
245.933
 21
60.8072
 31
0.0
  0
LINE
  8
0
 62
     0
 10
245.933
 20
60.8072
 30
0.0
 11
232.132
 21
60.8072
 31
0.0
  0
LINE
  8
0
 62
     0
 10
232.132
 20
60.8072
 30
0.0
 11
232.132
 21
74.6083
 31
0.0
  0
LINE
  8
0
 62
     0
 10
213.082
 20
74.6083
 30
0.0
 11
226.883
 21
74.6083
 31
0.0
  0
LINE
  8
0
 62
     0
 10
226.883
 20
74.6083
 30
0.0
 11
226.883
 21
60.8072
 31
0.0
  0
LINE
  8
0
 62
     0
 10
226.883
 20
60.8072
 30
0.0
 11
213.082
 21
60.8072
 31
0.0
  0
LINE
  8
0
 62
     0
 10
213.082
 20
60.8072
 30
0.0
 11
213.082
 21
74.6083
 31
0.0
  0
LINE
  8
0
 62
     0
 10
189.271
 20
74.6083
 30
0.0
 11
203.071
 21
74.6083
 31
0.0
  0
LINE
  8
0
 62
     0
 10
203.071
 20
74.6083
 30
0.0
 11
203.071
 21
60.8072
 31
0.0
  0
LINE
  8
0
 62
     0
 10
203.071
 20
60.8072
 30
0.0
 11
189.271
 21
60.8072
 31
0.0
  0
LINE
  8
0
 62
     0
 10
189.271
 20
60.8072
 30
0.0
 11
189.271
 21
74.6083
 31
0.0
  0
LINE
  8
0
 62
     0
 10
170.221
 20
74.6083
 30
0.0
 11
184.021
 21
74.6083
 31
0.0
  0
LINE
  8
0
 62
     0
 10
184.021
 20
74.6083
 30
0.0
 11
184.021
 21
60.8072
 31
0.0
  0
LINE
  8
0
 62
     0
 10
184.021
 20
60.8072
 30
0.0
 11
170.221
 21
60.8072
 31
0.0
  0
LINE
  8
0
 62
     0
 10
170.221
 20
60.8072
 30
0.0
 11
170.221
 21
74.6083
 31
0.0
  0
LINE
  8
0
 62
     0
 10
151.171
 20
74.6083
 30
0.0
 11
164.971
 21
74.6083
 31
0.0
  0
LINE
  8
0
 62
     0
 10
164.971
 20
74.6083
 30
0.0
 11
164.971
 21
60.8072
 31
0.0
  0
LINE
  8
0
 62
     0
 10
164.971
 20
60.8072
 30
0.0
 11
151.171
 21
60.8072
 31
0.0
  0
LINE
  8
0
 62
     0
 10
151.171
 20
60.8072
 30
0.0
 11
151.171
 21
74.6083
 31
0.0
  0
LINE
  8
0
 62
     0
 10
132.121
 20
74.6083
 30
0.0
 11
145.921
 21
74.6083
 31
0.0
  0
LINE
  8
0
 62
     0
 10
145.921
 20
74.6083
 30
0.0
 11
145.921
 21
60.8072
 31
0.0
  0
LINE
  8
0
 62
     0
 10
145.921
 20
60.8072
 30
0.0
 11
132.121
 21
60.8072
 31
0.0
  0
LINE
  8
0
 62
     0
 10
132.121
 20
60.8072
 30
0.0
 11
132.121
 21
74.6083
 31
0.0
  0
LINE
  8
0
 62
     0
 10
113.071
 20
74.6083
 30
0.0
 11
126.871
 21
74.6083
 31
0.0
  0
LINE
  8
0
 62
     0
 10
126.871
 20
74.6083
 30
0.0
 11
126.871
 21
60.8072
 31
0.0
  0
LINE
  8
0
 62
     0
 10
126.871
 20
60.8072
 30
0.0
 11
113.071
 21
60.8072
 31
0.0
  0
LINE
  8
0
 62
     0
 10
113.071
 20
60.8072
 30
0.0
 11
113.071
 21
74.6083
 31
0.0
  0
LINE
  8
0
 62
     0
 10
94.0209
 20
74.6083
 30
0.0
 11
107.821
 21
74.6083
 31
0.0
  0
LINE
  8
0
 62
     0
 10
107.821
 20
74.6083
 30
0.0
 11
107.821
 21
60.8072
 31
0.0
  0
LINE
  8
0
 62
     0
 10
107.821
 20
60.8072
 30
0.0
 11
94.0209
 21
60.8072
 31
0.0
  0
LINE
  8
0
 62
     0
 10
94.0209
 20
60.8072
 30
0.0
 11
94.0209
 21
74.6083
 31
0.0
  0
LINE
  8
0
 62
     0
 10
20.202
 20
74.6083
 30
0.0
 11
34.0017
 21
74.6083
 31
0.0
  0
LINE
  8
0
 62
     0
 10
34.0017
 20
74.6083
 30
0.0
 11
34.0017
 21
60.8072
 31
0.0
  0
LINE
  8
0
 62
     0
 10
34.0017
 20
60.8072
 30
0.0
 11
20.202
 21
60.8072
 31
0.0
  0
LINE
  8
0
 62
     0
 10
20.202
 20
60.8072
 30
0.0
 11
20.202
 21
74.6083
 31
0.0
  0
LINE
  8
0
 62
     0
 10
450.564
 20
93.2339
 30
0.0
 11
450.564
 21
92.4084
 31
0.0
  0
LINE
  8
0
 62
     0
 10
450.564
 20
92.4084
 30
0.0
 11
444.292
 21
92.4084
 31
0.0
  0
LINE
  8
0
 62
     0
 10
444.292
 20
92.4084
 30
0.0
 11
444.292
 21
90.6833
 31
0.0
  0
LINE
  8
0
 62
     0
 10
444.292
 20
90.6833
 30
0.0
 11
443.092
 21
90.6833
 31
0.0
  0
LINE
  8
0
 62
     0
 10
443.092
 20
90.6833
 30
0.0
 11
443.092
 21
87.5841
 31
0.0
  0
LINE
  8
0
 62
     0
 10
443.092
 20
87.5841
 30
0.0
 11
444.292
 21
87.5841
 31
0.0
  0
LINE
  8
0
 62
     0
 10
444.292
 20
87.5841
 30
0.0
 11
444.292
 21
85.8587
 31
0.0
  0
LINE
  8
0
 62
     0
 10
444.292
 20
85.8587
 30
0.0
 11
448.765
 21
85.8587
 31
0.0
  0
LINE
  8
0
 62
     0
 10
448.765
 20
85.8587
 30
0.0
 11
448.765
 21
84.1319
 31
0.0
  0
LINE
  8
0
 62
     0
 10
448.765
 20
84.1319
 30
0.0
 11
444.063
 21
84.1319
 31
0.0
  0
LINE
  8
0
 62
     0
 10
444.063
 20
84.1319
 30
0.0
 11
444.063
 21
70.3337
 31
0.0
  0
LINE
  8
0
 62
     0
 10
444.063
 20
70.3337
 30
0.0
 11
448.765
 21
70.3337
 31
0.0
  0
LINE
  8
0
 62
     0
 10
448.765
 20
70.3337
 30
0.0
 11
448.765
 21
68.6082
 31
0.0
  0
LINE
  8
0
 62
     0
 10
448.765
 20
68.6082
 30
0.0
 11
444.292
 21
68.6082
 31
0.0
  0
LINE
  8
0
 62
     0
 10
444.292
 20
68.6082
 30
0.0
 11
444.292
 21
66.8817
 31
0.0
  0
LINE
  8
0
 62
     0
 10
444.292
 20
66.8817
 30
0.0
 11
443.092
 21
66.8817
 31
0.0
  0
LINE
  8
0
 62
     0
 10
443.092
 20
66.8817
 30
0.0
 11
443.092
 21
63.784
 31
0.0
  0
LINE
  8
0
 62
     0
 10
443.092
 20
63.784
 30
0.0
 11
444.292
 21
63.784
 31
0.0
  0
LINE
  8
0
 62
     0
 10
444.292
 20
63.784
 30
0.0
 11
444.292
 21
62.0571
 31
0.0
  0
LINE
  8
0
 62
     0
 10
444.292
 20
62.0571
 30
0.0
 11
450.564
 21
62.0571
 31
0.0
  0
LINE
  8
0
 62
     0
 10
450.564
 20
62.0571
 30
0.0
 11
450.564
 21
61.2331
 31
0.0
  0
LINE
  8
0
 62
     0
 10
450.564
 20
61.2331
 30
0.0
 11
453.164
 21
61.2331
 31
0.0
  0
LINE
  8
0
 62
     0
 10
453.164
 20
61.2331
 30
0.0
 11
453.164
 21
62.0571
 31
0.0
  0
LINE
  8
0
 62
     0
 10
453.164
 20
62.0571
 30
0.0
 11
456.392
 21
62.0571
 31
0.0
  0
LINE
  8
0
 62
     0
 10
456.392
 20
62.0571
 30
0.0
 11
456.392
 21
68.6082
 31
0.0
  0
LINE
  8
0
 62
     0
 10
456.392
 20
68.6082
 30
0.0
 11
453.164
 21
68.6082
 31
0.0
  0
LINE
  8
0
 62
     0
 10
453.164
 20
68.6082
 30
0.0
 11
453.164
 21
70.3337
 31
0.0
  0
LINE
  8
0
 62
     0
 10
453.164
 20
70.3337
 30
0.0
 11
457.863
 21
70.3337
 31
0.0
  0
LINE
  8
0
 62
     0
 10
457.863
 20
70.3337
 30
0.0
 11
457.863
 21
84.1319
 31
0.0
  0
LINE
  8
0
 62
     0
 10
457.863
 20
84.1319
 30
0.0
 11
453.164
 21
84.1319
 31
0.0
  0
LINE
  8
0
 62
     0
 10
453.164
 20
84.1319
 30
0.0
 11
453.164
 21
85.8587
 31
0.0
  0
LINE
  8
0
 62
     0
 10
453.164
 20
85.8587
 30
0.0
 11
456.392
 21
85.8587
 31
0.0
  0
LINE
  8
0
 62
     0
 10
456.392
 20
85.8587
 30
0.0
 11
456.392
 21
92.4084
 31
0.0
  0
LINE
  8
0
 62
     0
 10
456.392
 20
92.4084
 30
0.0
 11
453.164
 21
92.4084
 31
0.0
  0
LINE
  8
0
 62
     0
 10
453.164
 20
92.4084
 30
0.0
 11
453.164
 21
93.2339
 31
0.0
  0
LINE
  8
0
 62
     0
 10
453.164
 20
93.2339
 30
0.0
 11
450.564
 21
93.2339
 31
0.0
  0
LINE
  8
0
 62
     0
 10
417.872
 20
93.6569
 30
0.0
 11
431.669
 21
93.6569
 31
0.0
  0
LINE
  8
0
 62
     0
 10
431.669
 20
93.6569
 30
0.0
 11
431.669
 21
79.8587
 31
0.0
  0
LINE
  8
0
 62
     0
 10
431.669
 20
79.8587
 30
0.0
 11
417.872
 21
79.8587
 31
0.0
  0
LINE
  8
0
 62
     0
 10
417.872
 20
79.8587
 30
0.0
 11
417.872
 21
93.6569
 31
0.0
  0
LINE
  8
0
 62
     0
 10
394.056
 20
93.6569
 30
0.0
 11
407.857
 21
93.6569
 31
0.0
  0
LINE
  8
0
 62
     0
 10
407.857
 20
93.6569
 30
0.0
 11
407.857
 21
79.8587
 31
0.0
  0
LINE
  8
0
 62
     0
 10
407.857
 20
79.8587
 30
0.0
 11
394.056
 21
79.8587
 31
0.0
  0
LINE
  8
0
 62
     0
 10
394.056
 20
79.8587
 30
0.0
 11
394.056
 21
93.6569
 31
0.0
  0
LINE
  8
0
 62
     0
 10
370.247
 20
93.6569
 30
0.0
 11
384.044
 21
93.6569
 31
0.0
  0
LINE
  8
0
 62
     0
 10
384.044
 20
93.6569
 30
0.0
 11
384.044
 21
79.8587
 31
0.0
  0
LINE
  8
0
 62
     0
 10
384.044
 20
79.8587
 30
0.0
 11
370.247
 21
79.8587
 31
0.0
  0
LINE
  8
0
 62
     0
 10
370.247
 20
79.8587
 30
0.0
 11
370.247
 21
93.6569
 31
0.0
  0
LINE
  8
0
 62
     0
 10
351.196
 20
93.6569
 30
0.0
 11
364.994
 21
93.6569
 31
0.0
  0
LINE
  8
0
 62
     0
 10
364.994
 20
93.6569
 30
0.0
 11
364.994
 21
79.8587
 31
0.0
  0
LINE
  8
0
 62
     0
 10
364.994
 20
79.8587
 30
0.0
 11
351.196
 21
79.8587
 31
0.0
  0
LINE
  8
0
 62
     0
 10
351.196
 20
79.8587
 30
0.0
 11
351.196
 21
93.6569
 31
0.0
  0
LINE
  8
0
 62
     0
 10
332.146
 20
93.6569
 30
0.0
 11
345.946
 21
93.6569
 31
0.0
  0
LINE
  8
0
 62
     0
 10
345.946
 20
93.6569
 30
0.0
 11
345.946
 21
79.8587
 31
0.0
  0
LINE
  8
0
 62
     0
 10
345.946
 20
79.8587
 30
0.0
 11
332.146
 21
79.8587
 31
0.0
  0
LINE
  8
0
 62
     0
 10
332.146
 20
79.8587
 30
0.0
 11
332.146
 21
93.6569
 31
0.0
  0
LINE
  8
0
 62
     0
 10
313.096
 20
93.6569
 30
0.0
 11
326.896
 21
93.6569
 31
0.0
  0
LINE
  8
0
 62
     0
 10
326.896
 20
93.6569
 30
0.0
 11
326.896
 21
79.8587
 31
0.0
  0
LINE
  8
0
 62
     0
 10
326.896
 20
79.8587
 30
0.0
 11
313.096
 21
79.8587
 31
0.0
  0
LINE
  8
0
 62
     0
 10
313.096
 20
79.8587
 30
0.0
 11
313.096
 21
93.6569
 31
0.0
  0
LINE
  8
0
 62
     0
 10
294.046
 20
93.6569
 30
0.0
 11
307.846
 21
93.6569
 31
0.0
  0
LINE
  8
0
 62
     0
 10
307.846
 20
93.6569
 30
0.0
 11
307.846
 21
79.8587
 31
0.0
  0
LINE
  8
0
 62
     0
 10
307.846
 20
79.8587
 30
0.0
 11
294.046
 21
79.8587
 31
0.0
  0
LINE
  8
0
 62
     0
 10
294.046
 20
79.8587
 30
0.0
 11
294.046
 21
93.6569
 31
0.0
  0
LINE
  8
0
 62
     0
 10
274.996
 20
93.6569
 30
0.0
 11
288.796
 21
93.6569
 31
0.0
  0
LINE
  8
0
 62
     0
 10
288.796
 20
93.6569
 30
0.0
 11
288.796
 21
79.8587
 31
0.0
  0
LINE
  8
0
 62
     0
 10
288.796
 20
79.8587
 30
0.0
 11
274.996
 21
79.8587
 31
0.0
  0
LINE
  8
0
 62
     0
 10
274.996
 20
79.8587
 30
0.0
 11
274.996
 21
93.6569
 31
0.0
  0
LINE
  8
0
 62
     0
 10
251.182
 20
93.6569
 30
0.0
 11
264.983
 21
93.6569
 31
0.0
  0
LINE
  8
0
 62
     0
 10
264.983
 20
93.6569
 30
0.0
 11
264.983
 21
79.8587
 31
0.0
  0
LINE
  8
0
 62
     0
 10
264.983
 20
79.8587
 30
0.0
 11
251.182
 21
79.8587
 31
0.0
  0
LINE
  8
0
 62
     0
 10
251.182
 20
79.8587
 30
0.0
 11
251.182
 21
93.6569
 31
0.0
  0
LINE
  8
0
 62
     0
 10
232.132
 20
93.6569
 30
0.0
 11
245.933
 21
93.6569
 31
0.0
  0
LINE
  8
0
 62
     0
 10
245.933
 20
93.6569
 30
0.0
 11
245.933
 21
79.8587
 31
0.0
  0
LINE
  8
0
 62
     0
 10
245.933
 20
79.8587
 30
0.0
 11
232.132
 21
79.8587
 31
0.0
  0
LINE
  8
0
 62
     0
 10
232.132
 20
79.8587
 30
0.0
 11
232.132
 21
93.6569
 31
0.0
  0
LINE
  8
0
 62
     0
 10
213.082
 20
93.6569
 30
0.0
 11
226.883
 21
93.6569
 31
0.0
  0
LINE
  8
0
 62
     0
 10
226.883
 20
93.6569
 30
0.0
 11
226.883
 21
79.8587
 31
0.0
  0
LINE
  8
0
 62
     0
 10
226.883
 20
79.8587
 30
0.0
 11
213.082
 21
79.8587
 31
0.0
  0
LINE
  8
0
 62
     0
 10
213.082
 20
79.8587
 30
0.0
 11
213.082
 21
93.6569
 31
0.0
  0
LINE
  8
0
 62
     0
 10
189.271
 20
93.6569
 30
0.0
 11
203.071
 21
93.6569
 31
0.0
  0
LINE
  8
0
 62
     0
 10
203.071
 20
93.6569
 30
0.0
 11
203.071
 21
79.8587
 31
0.0
  0
LINE
  8
0
 62
     0
 10
203.071
 20
79.8587
 30
0.0
 11
189.271
 21
79.8587
 31
0.0
  0
LINE
  8
0
 62
     0
 10
189.271
 20
79.8587
 30
0.0
 11
189.271
 21
93.6569
 31
0.0
  0
LINE
  8
0
 62
     0
 10
170.221
 20
93.6569
 30
0.0
 11
184.021
 21
93.6569
 31
0.0
  0
LINE
  8
0
 62
     0
 10
184.021
 20
93.6569
 30
0.0
 11
184.021
 21
79.8587
 31
0.0
  0
LINE
  8
0
 62
     0
 10
184.021
 20
79.8587
 30
0.0
 11
170.221
 21
79.8587
 31
0.0
  0
LINE
  8
0
 62
     0
 10
170.221
 20
79.8587
 30
0.0
 11
170.221
 21
93.6569
 31
0.0
  0
LINE
  8
0
 62
     0
 10
151.171
 20
93.6569
 30
0.0
 11
164.971
 21
93.6569
 31
0.0
  0
LINE
  8
0
 62
     0
 10
164.971
 20
93.6569
 30
0.0
 11
164.971
 21
79.8587
 31
0.0
  0
LINE
  8
0
 62
     0
 10
164.971
 20
79.8587
 30
0.0
 11
151.171
 21
79.8587
 31
0.0
  0
LINE
  8
0
 62
     0
 10
151.171
 20
79.8587
 30
0.0
 11
151.171
 21
93.6569
 31
0.0
  0
LINE
  8
0
 62
     0
 10
132.121
 20
93.6569
 30
0.0
 11
145.921
 21
93.6569
 31
0.0
  0
LINE
  8
0
 62
     0
 10
145.921
 20
93.6569
 30
0.0
 11
145.921
 21
79.8587
 31
0.0
  0
LINE
  8
0
 62
     0
 10
145.921
 20
79.8587
 30
0.0
 11
132.121
 21
79.8587
 31
0.0
  0
LINE
  8
0
 62
     0
 10
132.121
 20
79.8587
 30
0.0
 11
132.121
 21
93.6569
 31
0.0
  0
LINE
  8
0
 62
     0
 10
113.071
 20
93.6569
 30
0.0
 11
126.871
 21
93.6569
 31
0.0
  0
LINE
  8
0
 62
     0
 10
126.871
 20
93.6569
 30
0.0
 11
126.871
 21
79.8587
 31
0.0
  0
LINE
  8
0
 62
     0
 10
126.871
 20
79.8587
 30
0.0
 11
113.071
 21
79.8587
 31
0.0
  0
LINE
  8
0
 62
     0
 10
113.071
 20
79.8587
 30
0.0
 11
113.071
 21
93.6569
 31
0.0
  0
LINE
  8
0
 62
     0
 10
94.0209
 20
93.6569
 30
0.0
 11
107.821
 21
93.6569
 31
0.0
  0
LINE
  8
0
 62
     0
 10
107.821
 20
93.6569
 30
0.0
 11
107.821
 21
79.8587
 31
0.0
  0
LINE
  8
0
 62
     0
 10
107.821
 20
79.8587
 30
0.0
 11
94.0209
 21
79.8587
 31
0.0
  0
LINE
  8
0
 62
     0
 10
94.0209
 20
79.8587
 30
0.0
 11
94.0209
 21
93.6569
 31
0.0
  0
LINE
  8
0
 62
     0
 10
70.207
 20
93.6569
 30
0.0
 11
84.008
 21
93.6569
 31
0.0
  0
LINE
  8
0
 62
     0
 10
84.008
 20
93.6569
 30
0.0
 11
84.008
 21
79.8587
 31
0.0
  0
LINE
  8
0
 62
     0
 10
84.008
 20
79.8587
 30
0.0
 11
70.207
 21
79.8587
 31
0.0
  0
LINE
  8
0
 62
     0
 10
70.207
 20
79.8587
 30
0.0
 11
70.207
 21
93.6569
 31
0.0
  0
LINE
  8
0
 62
     0
 10
41.632
 20
93.6569
 30
0.0
 11
55.433
 21
93.6569
 31
0.0
  0
LINE
  8
0
 62
     0
 10
55.433
 20
93.6569
 30
0.0
 11
55.433
 21
79.8587
 31
0.0
  0
LINE
  8
0
 62
     0
 10
55.433
 20
79.8587
 30
0.0
 11
41.632
 21
79.8587
 31
0.0
  0
LINE
  8
0
 62
     0
 10
41.632
 20
79.8587
 30
0.0
 11
41.632
 21
93.6569
 31
0.0
  0
LINE
  8
0
 62
     0
 10
17.8208
 20
93.6569
 30
0.0
 11
31.6205
 21
93.6569
 31
0.0
  0
LINE
  8
0
 62
     0
 10
31.6205
 20
93.6569
 30
0.0
 11
31.6205
 21
79.8587
 31
0.0
  0
LINE
  8
0
 62
     0
 10
31.6205
 20
79.8587
 30
0.0
 11
17.8208
 21
79.8587
 31
0.0
  0
LINE
  8
0
 62
     0
 10
17.8208
 20
79.8587
 30
0.0
 11
17.8208
 21
93.6569
 31
0.0
  0
LINE
  8
0
 62
     0
 10
398.822
 20
112.707
 30
0.0
 11
398.822
 21
108.008
 31
0.0
  0
LINE
  8
0
 62
     0
 10
398.822
 20
108.008
 30
0.0
 11
397.097
 21
108.008
 31
0.0
  0
LINE
  8
0
 62
     0
 10
397.097
 20
108.008
 30
0.0
 11
397.097
 21
111.236
 31
0.0
  0
LINE
  8
0
 62
     0
 10
397.097
 20
111.236
 30
0.0
 11
390.546
 21
111.236
 31
0.0
  0
LINE
  8
0
 62
     0
 10
390.546
 20
111.236
 30
0.0
 11
390.546
 21
108.008
 31
0.0
  0
LINE
  8
0
 62
     0
 10
390.546
 20
108.008
 30
0.0
 11
389.721
 21
108.008
 31
0.0
  0
LINE
  8
0
 62
     0
 10
389.721
 20
108.008
 30
0.0
 11
389.721
 21
105.408
 31
0.0
  0
LINE
  8
0
 62
     0
 10
389.721
 20
105.408
 30
0.0
 11
390.546
 21
105.408
 31
0.0
  0
LINE
  8
0
 62
     0
 10
390.546
 20
105.408
 30
0.0
 11
390.546
 21
99.1376
 31
0.0
  0
LINE
  8
0
 62
     0
 10
390.546
 20
99.1376
 30
0.0
 11
392.271
 21
99.1376
 31
0.0
  0
LINE
  8
0
 62
     0
 10
392.271
 20
99.1376
 30
0.0
 11
392.271
 21
97.9371
 31
0.0
  0
LINE
  8
0
 62
     0
 10
392.271
 20
97.9371
 30
0.0
 11
395.369
 21
97.9371
 31
0.0
  0
LINE
  8
0
 62
     0
 10
395.369
 20
97.9371
 30
0.0
 11
395.369
 21
99.1376
 31
0.0
  0
LINE
  8
0
 62
     0
 10
395.369
 20
99.1376
 30
0.0
 11
397.097
 21
99.1376
 31
0.0
  0
LINE
  8
0
 62
     0
 10
397.097
 20
99.1376
 30
0.0
 11
397.097
 21
103.608
 31
0.0
  0
LINE
  8
0
 62
     0
 10
397.097
 20
103.608
 30
0.0
 11
398.822
 21
103.608
 31
0.0
  0
LINE
  8
0
 62
     0
 10
398.822
 20
103.608
 30
0.0
 11
398.822
 21
98.9072
 31
0.0
  0
LINE
  8
0
 62
     0
 10
398.822
 20
98.9072
 30
0.0
 11
412.619
 21
98.9072
 31
0.0
  0
LINE
  8
0
 62
     0
 10
412.619
 20
98.9072
 30
0.0
 11
412.619
 21
103.608
 31
0.0
  0
LINE
  8
0
 62
     0
 10
412.619
 20
103.608
 30
0.0
 11
414.345
 21
103.608
 31
0.0
  0
LINE
  8
0
 62
     0
 10
414.345
 20
103.608
 30
0.0
 11
414.345
 21
99.1376
 31
0.0
  0
LINE
  8
0
 62
     0
 10
414.345
 20
99.1376
 30
0.0
 11
416.07
 21
99.1376
 31
0.0
  0
LINE
  8
0
 62
     0
 10
416.07
 20
99.1376
 30
0.0
 11
416.07
 21
97.9371
 31
0.0
  0
LINE
  8
0
 62
     0
 10
416.07
 20
97.9371
 30
0.0
 11
419.171
 21
97.9371
 31
0.0
  0
LINE
  8
0
 62
     0
 10
419.171
 20
97.9371
 30
0.0
 11
419.171
 21
99.1376
 31
0.0
  0
LINE
  8
0
 62
     0
 10
419.171
 20
99.1376
 30
0.0
 11
420.896
 21
99.1376
 31
0.0
  0
LINE
  8
0
 62
     0
 10
420.896
 20
99.1376
 30
0.0
 11
420.896
 21
105.408
 31
0.0
  0
LINE
  8
0
 62
     0
 10
420.896
 20
105.408
 30
0.0
 11
421.721
 21
105.408
 31
0.0
  0
LINE
  8
0
 62
     0
 10
421.721
 20
105.408
 30
0.0
 11
421.721
 21
108.008
 31
0.0
  0
LINE
  8
0
 62
     0
 10
421.721
 20
108.008
 30
0.0
 11
420.896
 21
108.008
 31
0.0
  0
LINE
  8
0
 62
     0
 10
420.896
 20
108.008
 30
0.0
 11
420.896
 21
111.236
 31
0.0
  0
LINE
  8
0
 62
     0
 10
420.896
 20
111.236
 30
0.0
 11
414.345
 21
111.236
 31
0.0
  0
LINE
  8
0
 62
     0
 10
414.345
 20
111.236
 30
0.0
 11
414.345
 21
108.008
 31
0.0
  0
LINE
  8
0
 62
     0
 10
414.345
 20
108.008
 30
0.0
 11
412.619
 21
108.008
 31
0.0
  0
LINE
  8
0
 62
     0
 10
412.619
 20
108.008
 30
0.0
 11
412.619
 21
112.707
 31
0.0
  0
LINE
  8
0
 62
     0
 10
412.619
 20
112.707
 30
0.0
 11
398.822
 21
112.707
 31
0.0
  0
LINE
  8
0
 62
     0
 10
46.3959
 20
112.707
 30
0.0
 11
46.3959
 21
108.008
 31
0.0
  0
LINE
  8
0
 62
     0
 10
46.3959
 20
108.008
 30
0.0
 11
44.6705
 21
108.008
 31
0.0
  0
LINE
  8
0
 62
     0
 10
44.6705
 20
108.008
 30
0.0
 11
44.6705
 21
111.236
 31
0.0
  0
LINE
  8
0
 62
     0
 10
44.6705
 20
111.236
 30
0.0
 11
38.1208
 21
111.236
 31
0.0
  0
LINE
  8
0
 62
     0
 10
38.1208
 20
111.236
 30
0.0
 11
38.1208
 21
108.008
 31
0.0
  0
LINE
  8
0
 62
     0
 10
38.1208
 20
108.008
 30
0.0
 11
37.2953
 21
108.008
 31
0.0
  0
LINE
  8
0
 62
     0
 10
37.2953
 20
108.008
 30
0.0
 11
37.2953
 21
105.408
 31
0.0
  0
LINE
  8
0
 62
     0
 10
37.2953
 20
105.408
 30
0.0
 11
38.1208
 21
105.408
 31
0.0
  0
LINE
  8
0
 62
     0
 10
38.1208
 20
105.408
 30
0.0
 11
38.1208
 21
99.1376
 31
0.0
  0
LINE
  8
0
 62
     0
 10
38.1208
 20
99.1376
 30
0.0
 11
39.8459
 21
99.1376
 31
0.0
  0
LINE
  8
0
 62
     0
 10
39.8459
 20
99.1376
 30
0.0
 11
39.8459
 21
97.9371
 31
0.0
  0
LINE
  8
0
 62
     0
 10
39.8459
 20
97.9371
 30
0.0
 11
42.9451
 21
97.9371
 31
0.0
  0
LINE
  8
0
 62
     0
 10
42.9451
 20
97.9371
 30
0.0
 11
42.9451
 21
99.1376
 31
0.0
  0
LINE
  8
0
 62
     0
 10
42.9451
 20
99.1376
 30
0.0
 11
44.6705
 21
99.1376
 31
0.0
  0
LINE
  8
0
 62
     0
 10
44.6705
 20
99.1376
 30
0.0
 11
44.6705
 21
103.608
 31
0.0
  0
LINE
  8
0
 62
     0
 10
44.6705
 20
103.608
 30
0.0
 11
46.3959
 21
103.608
 31
0.0
  0
LINE
  8
0
 62
     0
 10
46.3959
 20
103.608
 30
0.0
 11
46.3959
 21
98.9072
 31
0.0
  0
LINE
  8
0
 62
     0
 10
46.3959
 20
98.9072
 30
0.0
 11
60.1941
 21
98.9072
 31
0.0
  0
LINE
  8
0
 62
     0
 10
60.1941
 20
98.9072
 30
0.0
 11
60.1941
 21
103.608
 31
0.0
  0
LINE
  8
0
 62
     0
 10
60.1941
 20
103.608
 30
0.0
 11
61.9206
 21
103.608
 31
0.0
  0
LINE
  8
0
 62
     0
 10
61.9206
 20
103.608
 30
0.0
 11
61.9206
 21
99.1376
 31
0.0
  0
LINE
  8
0
 62
     0
 10
61.9206
 20
99.1376
 30
0.0
 11
63.6461
 21
99.1376
 31
0.0
  0
LINE
  8
0
 62
     0
 10
63.6461
 20
99.1376
 30
0.0
 11
63.6461
 21
97.9371
 31
0.0
  0
LINE
  8
0
 62
     0
 10
63.6461
 20
97.9371
 30
0.0
 11
66.7452
 21
97.9371
 31
0.0
  0
LINE
  8
0
 62
     0
 10
66.7452
 20
97.9371
 30
0.0
 11
66.7452
 21
99.1376
 31
0.0
  0
LINE
  8
0
 62
     0
 10
66.7452
 20
99.1376
 30
0.0
 11
68.4706
 21
99.1376
 31
0.0
  0
LINE
  8
0
 62
     0
 10
68.4706
 20
99.1376
 30
0.0
 11
68.4706
 21
105.408
 31
0.0
  0
LINE
  8
0
 62
     0
 10
68.4706
 20
105.408
 30
0.0
 11
69.2961
 21
105.408
 31
0.0
  0
LINE
  8
0
 62
     0
 10
69.2961
 20
105.408
 30
0.0
 11
69.2961
 21
108.008
 31
0.0
  0
LINE
  8
0
 62
     0
 10
69.2961
 20
108.008
 30
0.0
 11
68.4706
 21
108.008
 31
0.0
  0
LINE
  8
0
 62
     0
 10
68.4706
 20
108.008
 30
0.0
 11
68.4706
 21
111.236
 31
0.0
  0
LINE
  8
0
 62
     0
 10
68.4706
 20
111.236
 30
0.0
 11
61.9206
 21
111.236
 31
0.0
  0
LINE
  8
0
 62
     0
 10
61.9206
 20
111.236
 30
0.0
 11
61.9206
 21
108.008
 31
0.0
  0
LINE
  8
0
 62
     0
 10
61.9206
 20
108.008
 30
0.0
 11
60.1941
 21
108.008
 31
0.0
  0
LINE
  8
0
 62
     0
 10
60.1941
 20
108.008
 30
0.0
 11
60.1941
 21
112.707
 31
0.0
  0
LINE
  8
0
 62
     0
 10
60.1941
 20
112.707
 30
0.0
 11
46.3959
 21
112.707
 31
0.0
  0
LINE
  8
0
 62
     0
 10
446.447
 20
112.707
 30
0.0
 11
460.244
 21
112.707
 31
0.0
  0
LINE
  8
0
 62
     0
 10
460.244
 20
112.707
 30
0.0
 11
460.244
 21
98.9072
 31
0.0
  0
LINE
  8
0
 62
     0
 10
460.244
 20
98.9072
 30
0.0
 11
446.447
 21
98.9072
 31
0.0
  0
LINE
  8
0
 62
     0
 10
446.447
 20
98.9072
 30
0.0
 11
446.447
 21
112.707
 31
0.0
  0
LINE
  8
0
 62
     0
 10
427.397
 20
112.707
 30
0.0
 11
441.194
 21
112.707
 31
0.0
  0
LINE
  8
0
 62
     0
 10
441.194
 20
112.707
 30
0.0
 11
441.194
 21
98.9072
 31
0.0
  0
LINE
  8
0
 62
     0
 10
441.194
 20
98.9072
 30
0.0
 11
427.397
 21
98.9072
 31
0.0
  0
LINE
  8
0
 62
     0
 10
427.397
 20
98.9072
 30
0.0
 11
427.397
 21
112.707
 31
0.0
  0
LINE
  8
0
 62
     0
 10
370.247
 20
112.707
 30
0.0
 11
384.044
 21
112.707
 31
0.0
  0
LINE
  8
0
 62
     0
 10
384.044
 20
112.707
 30
0.0
 11
384.044
 21
98.9072
 31
0.0
  0
LINE
  8
0
 62
     0
 10
384.044
 20
98.9072
 30
0.0
 11
370.247
 21
98.9072
 31
0.0
  0
LINE
  8
0
 62
     0
 10
370.247
 20
98.9072
 30
0.0
 11
370.247
 21
112.707
 31
0.0
  0
LINE
  8
0
 62
     0
 10
351.196
 20
112.707
 30
0.0
 11
364.994
 21
112.707
 31
0.0
  0
LINE
  8
0
 62
     0
 10
364.994
 20
112.707
 30
0.0
 11
364.994
 21
98.9072
 31
0.0
  0
LINE
  8
0
 62
     0
 10
364.994
 20
98.9072
 30
0.0
 11
351.196
 21
98.9072
 31
0.0
  0
LINE
  8
0
 62
     0
 10
351.196
 20
98.9072
 30
0.0
 11
351.196
 21
112.707
 31
0.0
  0
LINE
  8
0
 62
     0
 10
332.146
 20
112.707
 30
0.0
 11
345.946
 21
112.707
 31
0.0
  0
LINE
  8
0
 62
     0
 10
345.946
 20
112.707
 30
0.0
 11
345.946
 21
98.9072
 31
0.0
  0
LINE
  8
0
 62
     0
 10
345.946
 20
98.9072
 30
0.0
 11
332.146
 21
98.9072
 31
0.0
  0
LINE
  8
0
 62
     0
 10
332.146
 20
98.9072
 30
0.0
 11
332.146
 21
112.707
 31
0.0
  0
LINE
  8
0
 62
     0
 10
313.096
 20
112.707
 30
0.0
 11
326.896
 21
112.707
 31
0.0
  0
LINE
  8
0
 62
     0
 10
326.896
 20
112.707
 30
0.0
 11
326.896
 21
98.9072
 31
0.0
  0
LINE
  8
0
 62
     0
 10
326.896
 20
98.9072
 30
0.0
 11
313.096
 21
98.9072
 31
0.0
  0
LINE
  8
0
 62
     0
 10
313.096
 20
98.9072
 30
0.0
 11
313.096
 21
112.707
 31
0.0
  0
LINE
  8
0
 62
     0
 10
294.046
 20
112.707
 30
0.0
 11
307.846
 21
112.707
 31
0.0
  0
LINE
  8
0
 62
     0
 10
307.846
 20
112.707
 30
0.0
 11
307.846
 21
98.9072
 31
0.0
  0
LINE
  8
0
 62
     0
 10
307.846
 20
98.9072
 30
0.0
 11
294.046
 21
98.9072
 31
0.0
  0
LINE
  8
0
 62
     0
 10
294.046
 20
98.9072
 30
0.0
 11
294.046
 21
112.707
 31
0.0
  0
LINE
  8
0
 62
     0
 10
274.996
 20
112.707
 30
0.0
 11
288.796
 21
112.707
 31
0.0
  0
LINE
  8
0
 62
     0
 10
288.796
 20
112.707
 30
0.0
 11
288.796
 21
98.9072
 31
0.0
  0
LINE
  8
0
 62
     0
 10
288.796
 20
98.9072
 30
0.0
 11
274.996
 21
98.9072
 31
0.0
  0
LINE
  8
0
 62
     0
 10
274.996
 20
98.9072
 30
0.0
 11
274.996
 21
112.707
 31
0.0
  0
LINE
  8
0
 62
     0
 10
251.182
 20
112.707
 30
0.0
 11
264.983
 21
112.707
 31
0.0
  0
LINE
  8
0
 62
     0
 10
264.983
 20
112.707
 30
0.0
 11
264.983
 21
98.9072
 31
0.0
  0
LINE
  8
0
 62
     0
 10
264.983
 20
98.9072
 30
0.0
 11
251.182
 21
98.9072
 31
0.0
  0
LINE
  8
0
 62
     0
 10
251.182
 20
98.9072
 30
0.0
 11
251.182
 21
112.707
 31
0.0
  0
LINE
  8
0
 62
     0
 10
232.132
 20
112.707
 30
0.0
 11
245.933
 21
112.707
 31
0.0
  0
LINE
  8
0
 62
     0
 10
245.933
 20
112.707
 30
0.0
 11
245.933
 21
98.9072
 31
0.0
  0
LINE
  8
0
 62
     0
 10
245.933
 20
98.9072
 30
0.0
 11
232.132
 21
98.9072
 31
0.0
  0
LINE
  8
0
 62
     0
 10
232.132
 20
98.9072
 30
0.0
 11
232.132
 21
112.707
 31
0.0
  0
LINE
  8
0
 62
     0
 10
213.082
 20
112.707
 30
0.0
 11
226.883
 21
112.707
 31
0.0
  0
LINE
  8
0
 62
     0
 10
226.883
 20
112.707
 30
0.0
 11
226.883
 21
98.9072
 31
0.0
  0
LINE
  8
0
 62
     0
 10
226.883
 20
98.9072
 30
0.0
 11
213.082
 21
98.9072
 31
0.0
  0
LINE
  8
0
 62
     0
 10
213.082
 20
98.9072
 30
0.0
 11
213.082
 21
112.707
 31
0.0
  0
LINE
  8
0
 62
     0
 10
189.271
 20
112.707
 30
0.0
 11
203.071
 21
112.707
 31
0.0
  0
LINE
  8
0
 62
     0
 10
203.071
 20
112.707
 30
0.0
 11
203.071
 21
98.9072
 31
0.0
  0
LINE
  8
0
 62
     0
 10
203.071
 20
98.9072
 30
0.0
 11
189.271
 21
98.9072
 31
0.0
  0
LINE
  8
0
 62
     0
 10
189.271
 20
98.9072
 30
0.0
 11
189.271
 21
112.707
 31
0.0
  0
LINE
  8
0
 62
     0
 10
170.221
 20
112.707
 30
0.0
 11
184.021
 21
112.707
 31
0.0
  0
LINE
  8
0
 62
     0
 10
184.021
 20
112.707
 30
0.0
 11
184.021
 21
98.9072
 31
0.0
  0
LINE
  8
0
 62
     0
 10
184.021
 20
98.9072
 30
0.0
 11
170.221
 21
98.9072
 31
0.0
  0
LINE
  8
0
 62
     0
 10
170.221
 20
98.9072
 30
0.0
 11
170.221
 21
112.707
 31
0.0
  0
LINE
  8
0
 62
     0
 10
151.171
 20
112.707
 30
0.0
 11
164.971
 21
112.707
 31
0.0
  0
LINE
  8
0
 62
     0
 10
164.971
 20
112.707
 30
0.0
 11
164.971
 21
98.9072
 31
0.0
  0
LINE
  8
0
 62
     0
 10
164.971
 20
98.9072
 30
0.0
 11
151.171
 21
98.9072
 31
0.0
  0
LINE
  8
0
 62
     0
 10
151.171
 20
98.9072
 30
0.0
 11
151.171
 21
112.707
 31
0.0
  0
LINE
  8
0
 62
     0
 10
132.121
 20
112.707
 30
0.0
 11
145.921
 21
112.707
 31
0.0
  0
LINE
  8
0
 62
     0
 10
145.921
 20
112.707
 30
0.0
 11
145.921
 21
98.9072
 31
0.0
  0
LINE
  8
0
 62
     0
 10
145.921
 20
98.9072
 30
0.0
 11
132.121
 21
98.9072
 31
0.0
  0
LINE
  8
0
 62
     0
 10
132.121
 20
98.9072
 30
0.0
 11
132.121
 21
112.707
 31
0.0
  0
LINE
  8
0
 62
     0
 10
113.071
 20
112.707
 30
0.0
 11
126.871
 21
112.707
 31
0.0
  0
LINE
  8
0
 62
     0
 10
126.871
 20
112.707
 30
0.0
 11
126.871
 21
98.9072
 31
0.0
  0
LINE
  8
0
 62
     0
 10
126.871
 20
98.9072
 30
0.0
 11
113.071
 21
98.9072
 31
0.0
  0
LINE
  8
0
 62
     0
 10
113.071
 20
98.9072
 30
0.0
 11
113.071
 21
112.707
 31
0.0
  0
LINE
  8
0
 62
     0
 10
94.0209
 20
112.707
 30
0.0
 11
107.821
 21
112.707
 31
0.0
  0
LINE
  8
0
 62
     0
 10
107.821
 20
112.707
 30
0.0
 11
107.821
 21
98.9072
 31
0.0
  0
LINE
  8
0
 62
     0
 10
107.821
 20
98.9072
 30
0.0
 11
94.0209
 21
98.9072
 31
0.0
  0
LINE
  8
0
 62
     0
 10
94.0209
 20
98.9072
 30
0.0
 11
94.0209
 21
112.707
 31
0.0
  0
LINE
  8
0
 62
     0
 10
74.9709
 20
112.707
 30
0.0
 11
88.7705
 21
112.707
 31
0.0
  0
LINE
  8
0
 62
     0
 10
88.7705
 20
112.707
 30
0.0
 11
88.7705
 21
98.9072
 31
0.0
  0
LINE
  8
0
 62
     0
 10
88.7705
 20
98.9072
 30
0.0
 11
74.9709
 21
98.9072
 31
0.0
  0
LINE
  8
0
 62
     0
 10
74.9709
 20
98.9072
 30
0.0
 11
74.9709
 21
112.707
 31
0.0
  0
LINE
  8
0
 62
     0
 10
17.8208
 20
112.707
 30
0.0
 11
31.6205
 21
112.707
 31
0.0
  0
LINE
  8
0
 62
     0
 10
31.6205
 20
112.707
 30
0.0
 11
31.6205
 21
98.9072
 31
0.0
  0
LINE
  8
0
 62
     0
 10
31.6205
 20
98.9072
 30
0.0
 11
17.8208
 21
98.9072
 31
0.0
  0
LINE
  8
0
 62
     0
 10
17.8208
 20
98.9072
 30
0.0
 11
17.8208
 21
112.707
 31
0.0
  0
LINE
  8
0
 62
     0
 10
473.53
 20
127.379
 30
0.0
 11
473.223
 21
127.222
 31
0.0
  0
LINE
  8
0
 62
     0
 10
473.223
 20
127.222
 30
0.0
 11
472.98
 21
126.979
 31
0.0
  0
LINE
  8
0
 62
     0
 10
472.98
 20
126.979
 30
0.0
 11
472.825
 21
126.672
 31
0.0
  0
LINE
  8
0
 62
     0
 10
472.825
 20
126.672
 30
0.0
 11
472.772
 21
126.331
 31
0.0
  0
LINE
  8
0
 62
     0
 10
472.772
 20
126.331
 30
0.0
 11
472.825
 21
125.993
 31
0.0
  0
LINE
  8
0
 62
     0
 10
472.825
 20
125.993
 30
0.0
 11
472.98
 21
125.687
 31
0.0
  0
LINE
  8
0
 62
     0
 10
472.98
 20
125.687
 30
0.0
 11
473.223
 21
125.443
 31
0.0
  0
LINE
  8
0
 62
     0
 10
473.223
 20
125.443
 30
0.0
 11
473.53
 21
125.286
 31
0.0
  0
LINE
  8
0
 62
     0
 10
473.53
 20
125.286
 30
0.0
 11
473.872
 21
125.232
 31
0.0
  0
LINE
  8
0
 62
     0
 10
473.872
 20
125.232
 30
0.0
 11
474.211
 21
125.286
 31
0.0
  0
LINE
  8
0
 62
     0
 10
474.211
 20
125.286
 30
0.0
 11
474.518
 21
125.443
 31
0.0
  0
LINE
  8
0
 62
     0
 10
474.518
 20
125.443
 30
0.0
 11
474.761
 21
125.687
 31
0.0
  0
LINE
  8
0
 62
     0
 10
474.761
 20
125.687
 30
0.0
 11
474.916
 21
125.993
 31
0.0
  0
LINE
  8
0
 62
     0
 10
474.916
 20
125.993
 30
0.0
 11
474.973
 21
126.331
 31
0.0
  0
LINE
  8
0
 62
     0
 10
474.973
 20
126.331
 30
0.0
 11
474.916
 21
126.672
 31
0.0
  0
LINE
  8
0
 62
     0
 10
474.916
 20
126.672
 30
0.0
 11
474.761
 21
126.979
 31
0.0
  0
LINE
  8
0
 62
     0
 10
474.761
 20
126.979
 30
0.0
 11
474.518
 21
127.222
 31
0.0
  0
LINE
  8
0
 62
     0
 10
474.518
 20
127.222
 30
0.0
 11
474.211
 21
127.379
 31
0.0
  0
LINE
  8
0
 62
     0
 10
474.211
 20
127.379
 30
0.0
 11
473.872
 21
127.433
 31
0.0
  0
LINE
  8
0
 62
     0
 10
473.872
 20
127.433
 30
0.0
 11
473.53
 21
127.379
 31
0.0
  0
LINE
  8
0
 62
     0
 10
356.112
 20
127.379
 30
0.0
 11
355.805
 21
127.222
 31
0.0
  0
LINE
  8
0
 62
     0
 10
355.805
 20
127.222
 30
0.0
 11
355.561
 21
126.979
 31
0.0
  0
LINE
  8
0
 62
     0
 10
355.561
 20
126.979
 30
0.0
 11
355.406
 21
126.672
 31
0.0
  0
LINE
  8
0
 62
     0
 10
355.406
 20
126.672
 30
0.0
 11
355.353
 21
126.331
 31
0.0
  0
LINE
  8
0
 62
     0
 10
355.353
 20
126.331
 30
0.0
 11
355.406
 21
125.993
 31
0.0
  0
LINE
  8
0
 62
     0
 10
355.406
 20
125.993
 30
0.0
 11
355.561
 21
125.687
 31
0.0
  0
LINE
  8
0
 62
     0
 10
355.561
 20
125.687
 30
0.0
 11
355.805
 21
125.443
 31
0.0
  0
LINE
  8
0
 62
     0
 10
355.805
 20
125.443
 30
0.0
 11
356.112
 21
125.286
 31
0.0
  0
LINE
  8
0
 62
     0
 10
356.112
 20
125.286
 30
0.0
 11
356.454
 21
125.232
 31
0.0
  0
LINE
  8
0
 62
     0
 10
356.454
 20
125.232
 30
0.0
 11
356.792
 21
125.286
 31
0.0
  0
LINE
  8
0
 62
     0
 10
356.792
 20
125.286
 30
0.0
 11
357.099
 21
125.443
 31
0.0
  0
LINE
  8
0
 62
     0
 10
357.099
 20
125.443
 30
0.0
 11
357.343
 21
125.687
 31
0.0
  0
LINE
  8
0
 62
     0
 10
357.343
 20
125.687
 30
0.0
 11
357.498
 21
125.993
 31
0.0
  0
LINE
  8
0
 62
     0
 10
357.498
 20
125.993
 30
0.0
 11
357.554
 21
126.331
 31
0.0
  0
LINE
  8
0
 62
     0
 10
357.554
 20
126.331
 30
0.0
 11
357.498
 21
126.672
 31
0.0
  0
LINE
  8
0
 62
     0
 10
357.498
 20
126.672
 30
0.0
 11
357.343
 21
126.979
 31
0.0
  0
LINE
  8
0
 62
     0
 10
357.343
 20
126.979
 30
0.0
 11
357.099
 21
127.222
 31
0.0
  0
LINE
  8
0
 62
     0
 10
357.099
 20
127.222
 30
0.0
 11
356.792
 21
127.379
 31
0.0
  0
LINE
  8
0
 62
     0
 10
356.792
 20
127.379
 30
0.0
 11
356.454
 21
127.433
 31
0.0
  0
LINE
  8
0
 62
     0
 10
356.454
 20
127.433
 30
0.0
 11
356.112
 21
127.379
 31
0.0
  0
LINE
  8
0
 62
     0
 10
238.694
 20
127.379
 30
0.0
 11
238.387
 21
127.222
 31
0.0
  0
LINE
  8
0
 62
     0
 10
238.387
 20
127.222
 30
0.0
 11
238.143
 21
126.979
 31
0.0
  0
LINE
  8
0
 62
     0
 10
238.143
 20
126.979
 30
0.0
 11
237.986
 21
126.672
 31
0.0
  0
LINE
  8
0
 62
     0
 10
237.986
 20
126.672
 30
0.0
 11
237.933
 21
126.331
 31
0.0
  0
LINE
  8
0
 62
     0
 10
237.933
 20
126.331
 30
0.0
 11
237.986
 21
125.993
 31
0.0
  0
LINE
  8
0
 62
     0
 10
237.986
 20
125.993
 30
0.0
 11
238.143
 21
125.687
 31
0.0
  0
LINE
  8
0
 62
     0
 10
238.143
 20
125.687
 30
0.0
 11
238.387
 21
125.443
 31
0.0
  0
LINE
  8
0
 62
     0
 10
238.387
 20
125.443
 30
0.0
 11
238.694
 21
125.286
 31
0.0
  0
LINE
  8
0
 62
     0
 10
238.694
 20
125.286
 30
0.0
 11
239.033
 21
125.232
 31
0.0
  0
LINE
  8
0
 62
     0
 10
239.033
 20
125.232
 30
0.0
 11
239.372
 21
125.286
 31
0.0
  0
LINE
  8
0
 62
     0
 10
239.372
 20
125.286
 30
0.0
 11
239.679
 21
125.443
 31
0.0
  0
LINE
  8
0
 62
     0
 10
239.679
 20
125.443
 30
0.0
 11
239.922
 21
125.687
 31
0.0
  0
LINE
  8
0
 62
     0
 10
239.922
 20
125.687
 30
0.0
 11
240.079
 21
125.993
 31
0.0
  0
LINE
  8
0
 62
     0
 10
240.079
 20
125.993
 30
0.0
 11
240.134
 21
126.331
 31
0.0
  0
LINE
  8
0
 62
     0
 10
240.134
 20
126.331
 30
0.0
 11
240.079
 21
126.672
 31
0.0
  0
LINE
  8
0
 62
     0
 10
240.079
 20
126.672
 30
0.0
 11
239.922
 21
126.979
 31
0.0
  0
LINE
  8
0
 62
     0
 10
239.922
 20
126.979
 30
0.0
 11
239.679
 21
127.222
 31
0.0
  0
LINE
  8
0
 62
     0
 10
239.679
 20
127.222
 30
0.0
 11
239.372
 21
127.379
 31
0.0
  0
LINE
  8
0
 62
     0
 10
239.372
 20
127.379
 30
0.0
 11
239.033
 21
127.433
 31
0.0
  0
LINE
  8
0
 62
     0
 10
239.033
 20
127.433
 30
0.0
 11
238.694
 21
127.379
 31
0.0
  0
LINE
  8
0
 62
     0
 10
121.274
 20
127.379
 30
0.0
 11
120.967
 21
127.222
 31
0.0
  0
LINE
  8
0
 62
     0
 10
120.967
 20
127.222
 30
0.0
 11
120.724
 21
126.979
 31
0.0
  0
LINE
  8
0
 62
     0
 10
120.724
 20
126.979
 30
0.0
 11
120.567
 21
126.672
 31
0.0
  0
LINE
  8
0
 62
     0
 10
120.567
 20
126.672
 30
0.0
 11
120.515
 21
126.331
 31
0.0
  0
LINE
  8
0
 62
     0
 10
120.515
 20
126.331
 30
0.0
 11
120.567
 21
125.993
 31
0.0
  0
LINE
  8
0
 62
     0
 10
120.567
 20
125.993
 30
0.0
 11
120.724
 21
125.687
 31
0.0
  0
LINE
  8
0
 62
     0
 10
120.724
 20
125.687
 30
0.0
 11
120.967
 21
125.443
 31
0.0
  0
LINE
  8
0
 62
     0
 10
120.967
 20
125.443
 30
0.0
 11
121.274
 21
125.286
 31
0.0
  0
LINE
  8
0
 62
     0
 10
121.274
 20
125.286
 30
0.0
 11
121.614
 21
125.232
 31
0.0
  0
LINE
  8
0
 62
     0
 10
121.614
 20
125.232
 30
0.0
 11
121.954
 21
125.286
 31
0.0
  0
LINE
  8
0
 62
     0
 10
121.954
 20
125.286
 30
0.0
 11
122.261
 21
125.443
 31
0.0
  0
LINE
  8
0
 62
     0
 10
122.261
 20
125.443
 30
0.0
 11
122.503
 21
125.687
 31
0.0
  0
LINE
  8
0
 62
     0
 10
122.503
 20
125.687
 30
0.0
 11
122.66
 21
125.993
 31
0.0
  0
LINE
  8
0
 62
     0
 10
122.66
 20
125.993
 30
0.0
 11
122.714
 21
126.331
 31
0.0
  0
LINE
  8
0
 62
     0
 10
122.714
 20
126.331
 30
0.0
 11
122.66
 21
126.672
 31
0.0
  0
LINE
  8
0
 62
     0
 10
122.66
 20
126.672
 30
0.0
 11
122.503
 21
126.979
 31
0.0
  0
LINE
  8
0
 62
     0
 10
122.503
 20
126.979
 30
0.0
 11
122.261
 21
127.222
 31
0.0
  0
LINE
  8
0
 62
     0
 10
122.261
 20
127.222
 30
0.0
 11
121.954
 21
127.379
 31
0.0
  0
LINE
  8
0
 62
     0
 10
121.954
 20
127.379
 30
0.0
 11
121.614
 21
127.433
 31
0.0
  0
LINE
  8
0
 62
     0
 10
121.614
 20
127.433
 30
0.0
 11
121.274
 21
127.379
 31
0.0
  0
LINE
  8
0
 62
     0
 10
3.85576
 20
127.379
 30
0.0
 11
3.54845
 21
127.222
 31
0.0
  0
LINE
  8
0
 62
     0
 10
3.54845
 20
127.222
 30
0.0
 11
3.30591
 21
126.979
 31
0.0
  0
LINE
  8
0
 62
     0
 10
3.30591
 20
126.979
 30
0.0
 11
3.14882
 21
126.672
 31
0.0
  0
LINE
  8
0
 62
     0
 10
3.14882
 20
126.672
 30
0.0
 11
3.09507
 21
126.333
 31
0.0
  0
LINE
  8
0
 62
     0
 10
3.09507
 20
126.333
 30
0.0
 11
3.14882
 21
125.993
 31
0.0
  0
LINE
  8
0
 62
     0
 10
3.14882
 20
125.993
 30
0.0
 11
3.30591
 21
125.687
 31
0.0
  0
LINE
  8
0
 62
     0
 10
3.30591
 20
125.687
 30
0.0
 11
3.54845
 21
125.443
 31
0.0
  0
LINE
  8
0
 62
     0
 10
3.54845
 20
125.443
 30
0.0
 11
3.85576
 21
125.286
 31
0.0
  0
LINE
  8
0
 62
     0
 10
3.85576
 20
125.286
 30
0.0
 11
4.19474
 21
125.233
 31
0.0
  0
LINE
  8
0
 62
     0
 10
4.19474
 20
125.233
 30
0.0
 11
4.53513
 21
125.286
 31
0.0
  0
LINE
  8
0
 62
     0
 10
4.53513
 20
125.286
 30
0.0
 11
4.84106
 21
125.443
 31
0.0
  0
LINE
  8
0
 62
     0
 10
4.84106
 20
125.443
 30
0.0
 11
5.08497
 21
125.687
 31
0.0
  0
LINE
  8
0
 62
     0
 10
5.08497
 20
125.687
 30
0.0
 11
5.24207
 21
125.993
 31
0.0
  0
LINE
  8
0
 62
     0
 10
5.24207
 20
125.993
 30
0.0
 11
5.29442
 21
126.333
 31
0.0
  0
LINE
  8
0
 62
     0
 10
5.29442
 20
126.333
 30
0.0
 11
5.24207
 21
126.672
 31
0.0
  0
LINE
  8
0
 62
     0
 10
5.24207
 20
126.672
 30
0.0
 11
5.08497
 21
126.979
 31
0.0
  0
LINE
  8
0
 62
     0
 10
5.08497
 20
126.979
 30
0.0
 11
4.84106
 21
127.222
 31
0.0
  0
LINE
  8
0
 62
     0
 10
4.84106
 20
127.222
 30
0.0
 11
4.53513
 21
127.379
 31
0.0
  0
LINE
  8
0
 62
     0
 10
4.53513
 20
127.379
 30
0.0
 11
4.19474
 21
127.433
 31
0.0
  0
LINE
  8
0
 62
     0
 10
4.19474
 20
127.433
 30
0.0
 11
3.85576
 21
127.379
 31
0.0
  0
ENDSEC
  0
EOF
