G04 #@! TF.GenerationSoftware,KiCad,Pcbnew,(5.1.6)-1*
G04 #@! TF.CreationDate,2020-07-14T12:30:16-04:00*
G04 #@! TF.ProjectId,railroad-keyboard-pcb-only,7261696c-726f-4616-942d-6b6579626f61,rev?*
G04 #@! TF.SameCoordinates,Original*
G04 #@! TF.FileFunction,Legend,Top*
G04 #@! TF.FilePolarity,Positive*
%FSLAX46Y46*%
G04 Gerber Fmt 4.6, Leading zero omitted, Abs format (unit mm)*
G04 Created by KiCad (PCBNEW (5.1.6)-1) date 2020-07-14 12:30:16*
%MOMM*%
%LPD*%
G01*
G04 APERTURE LIST*
%ADD10C,0.150000*%
%ADD11C,1.300000*%
%ADD12C,2.200000*%
%ADD13C,1.850000*%
%ADD14C,4.087800*%
%ADD15C,3.148000*%
%ADD16O,1.700000X2.100000*%
%ADD17C,0.900000*%
%ADD18O,1.308000X2.516000*%
G04 APERTURE END LIST*
D10*
X431976773Y-305730130D02*
X431643440Y-305253940D01*
X431405345Y-305730130D02*
X431405345Y-304730130D01*
X431786297Y-304730130D01*
X431881535Y-304777750D01*
X431929154Y-304825369D01*
X431976773Y-304920607D01*
X431976773Y-305063464D01*
X431929154Y-305158702D01*
X431881535Y-305206321D01*
X431786297Y-305253940D01*
X431405345Y-305253940D01*
X432833916Y-305730130D02*
X432833916Y-305206321D01*
X432786297Y-305111083D01*
X432691059Y-305063464D01*
X432500583Y-305063464D01*
X432405345Y-305111083D01*
X432833916Y-305682511D02*
X432738678Y-305730130D01*
X432500583Y-305730130D01*
X432405345Y-305682511D01*
X432357726Y-305587273D01*
X432357726Y-305492035D01*
X432405345Y-305396797D01*
X432500583Y-305349178D01*
X432738678Y-305349178D01*
X432833916Y-305301559D01*
X433310107Y-305730130D02*
X433310107Y-305063464D01*
X433310107Y-304730130D02*
X433262488Y-304777750D01*
X433310107Y-304825369D01*
X433357726Y-304777750D01*
X433310107Y-304730130D01*
X433310107Y-304825369D01*
X433929154Y-305730130D02*
X433833916Y-305682511D01*
X433786297Y-305587273D01*
X433786297Y-304730130D01*
X434310107Y-305730130D02*
X434310107Y-305063464D01*
X434310107Y-305253940D02*
X434357726Y-305158702D01*
X434405345Y-305111083D01*
X434500583Y-305063464D01*
X434595821Y-305063464D01*
X435072011Y-305730130D02*
X434976773Y-305682511D01*
X434929154Y-305634892D01*
X434881535Y-305539654D01*
X434881535Y-305253940D01*
X434929154Y-305158702D01*
X434976773Y-305111083D01*
X435072011Y-305063464D01*
X435214869Y-305063464D01*
X435310107Y-305111083D01*
X435357726Y-305158702D01*
X435405345Y-305253940D01*
X435405345Y-305539654D01*
X435357726Y-305634892D01*
X435310107Y-305682511D01*
X435214869Y-305730130D01*
X435072011Y-305730130D01*
X436262488Y-305730130D02*
X436262488Y-305206321D01*
X436214869Y-305111083D01*
X436119630Y-305063464D01*
X435929154Y-305063464D01*
X435833916Y-305111083D01*
X436262488Y-305682511D02*
X436167250Y-305730130D01*
X435929154Y-305730130D01*
X435833916Y-305682511D01*
X435786297Y-305587273D01*
X435786297Y-305492035D01*
X435833916Y-305396797D01*
X435929154Y-305349178D01*
X436167250Y-305349178D01*
X436262488Y-305301559D01*
X437167250Y-305730130D02*
X437167250Y-304730130D01*
X437167250Y-305682511D02*
X437072011Y-305730130D01*
X436881535Y-305730130D01*
X436786297Y-305682511D01*
X436738678Y-305634892D01*
X436691059Y-305539654D01*
X436691059Y-305253940D01*
X436738678Y-305158702D01*
X436786297Y-305111083D01*
X436881535Y-305063464D01*
X437072011Y-305063464D01*
X437167250Y-305111083D01*
X438405345Y-305730130D02*
X438405345Y-304730130D01*
X438786297Y-304730130D01*
X438881535Y-304777750D01*
X438929154Y-304825369D01*
X438976773Y-304920607D01*
X438976773Y-305063464D01*
X438929154Y-305158702D01*
X438881535Y-305206321D01*
X438786297Y-305253940D01*
X438405345Y-305253940D01*
X439976773Y-305634892D02*
X439929154Y-305682511D01*
X439786297Y-305730130D01*
X439691059Y-305730130D01*
X439548202Y-305682511D01*
X439452964Y-305587273D01*
X439405345Y-305492035D01*
X439357726Y-305301559D01*
X439357726Y-305158702D01*
X439405345Y-304968226D01*
X439452964Y-304872988D01*
X439548202Y-304777750D01*
X439691059Y-304730130D01*
X439786297Y-304730130D01*
X439929154Y-304777750D01*
X439976773Y-304825369D01*
X440738678Y-305206321D02*
X440881535Y-305253940D01*
X440929154Y-305301559D01*
X440976773Y-305396797D01*
X440976773Y-305539654D01*
X440929154Y-305634892D01*
X440881535Y-305682511D01*
X440786297Y-305730130D01*
X440405345Y-305730130D01*
X440405345Y-304730130D01*
X440738678Y-304730130D01*
X440833916Y-304777750D01*
X440881535Y-304825369D01*
X440929154Y-304920607D01*
X440929154Y-305015845D01*
X440881535Y-305111083D01*
X440833916Y-305158702D01*
X440738678Y-305206321D01*
X440405345Y-305206321D01*
X431310107Y-306380130D02*
X431548202Y-307380130D01*
X431738678Y-306665845D01*
X431929154Y-307380130D01*
X432167250Y-306380130D01*
X432548202Y-307284892D02*
X432595821Y-307332511D01*
X432548202Y-307380130D01*
X432500583Y-307332511D01*
X432548202Y-307284892D01*
X432548202Y-307380130D01*
X433738678Y-307094416D02*
X434214869Y-307094416D01*
X433643440Y-307380130D02*
X433976773Y-306380130D01*
X434310107Y-307380130D01*
X434786297Y-307380130D02*
X434691059Y-307332511D01*
X434643440Y-307237273D01*
X434643440Y-306380130D01*
X435548202Y-307332511D02*
X435452964Y-307380130D01*
X435262488Y-307380130D01*
X435167250Y-307332511D01*
X435119630Y-307237273D01*
X435119630Y-306856321D01*
X435167250Y-306761083D01*
X435262488Y-306713464D01*
X435452964Y-306713464D01*
X435548202Y-306761083D01*
X435595821Y-306856321D01*
X435595821Y-306951559D01*
X435119630Y-307046797D01*
X435929154Y-307380130D02*
X436452964Y-306713464D01*
X435929154Y-306713464D02*
X436452964Y-307380130D01*
X438167250Y-307380130D02*
X437833916Y-306903940D01*
X437595821Y-307380130D02*
X437595821Y-306380130D01*
X437976773Y-306380130D01*
X438072011Y-306427750D01*
X438119630Y-306475369D01*
X438167250Y-306570607D01*
X438167250Y-306713464D01*
X438119630Y-306808702D01*
X438072011Y-306856321D01*
X437976773Y-306903940D01*
X437595821Y-306903940D01*
X438738678Y-307380130D02*
X438643440Y-307332511D01*
X438595821Y-307284892D01*
X438548202Y-307189654D01*
X438548202Y-306903940D01*
X438595821Y-306808702D01*
X438643440Y-306761083D01*
X438738678Y-306713464D01*
X438881535Y-306713464D01*
X438976773Y-306761083D01*
X439024392Y-306808702D01*
X439072011Y-306903940D01*
X439072011Y-307189654D01*
X439024392Y-307284892D01*
X438976773Y-307332511D01*
X438881535Y-307380130D01*
X438738678Y-307380130D01*
X439500583Y-306713464D02*
X439500583Y-307380130D01*
X439500583Y-306808702D02*
X439548202Y-306761083D01*
X439643440Y-306713464D01*
X439786297Y-306713464D01*
X439881535Y-306761083D01*
X439929154Y-306856321D01*
X439929154Y-307380130D01*
X440405345Y-307380130D02*
X440405345Y-306380130D01*
X440500583Y-306999178D02*
X440786297Y-307380130D01*
X440786297Y-306713464D02*
X440405345Y-307094416D01*
X441595821Y-307332511D02*
X441500583Y-307380130D01*
X441310107Y-307380130D01*
X441214869Y-307332511D01*
X441167250Y-307237273D01*
X441167250Y-306856321D01*
X441214869Y-306761083D01*
X441310107Y-306713464D01*
X441500583Y-306713464D01*
X441595821Y-306761083D01*
X441643440Y-306856321D01*
X441643440Y-306951559D01*
X441167250Y-307046797D01*
X431691059Y-309411083D02*
X431643440Y-309363464D01*
X431548202Y-309220607D01*
X431500583Y-309125369D01*
X431452964Y-308982511D01*
X431405345Y-308744416D01*
X431405345Y-308553940D01*
X431452964Y-308315845D01*
X431500583Y-308172988D01*
X431548202Y-308077750D01*
X431643440Y-307934892D01*
X431691059Y-307887273D01*
X432072011Y-309030130D02*
X432072011Y-308030130D01*
X432643440Y-309030130D01*
X432643440Y-308030130D01*
X433262488Y-309030130D02*
X433167250Y-308982511D01*
X433119630Y-308934892D01*
X433072011Y-308839654D01*
X433072011Y-308553940D01*
X433119630Y-308458702D01*
X433167250Y-308411083D01*
X433262488Y-308363464D01*
X433405345Y-308363464D01*
X433500583Y-308411083D01*
X433548202Y-308458702D01*
X433595821Y-308553940D01*
X433595821Y-308839654D01*
X433548202Y-308934892D01*
X433500583Y-308982511D01*
X433405345Y-309030130D01*
X433262488Y-309030130D01*
X434024392Y-309030130D02*
X434024392Y-308030130D01*
X434405345Y-308030130D01*
X434500583Y-308077750D01*
X434548202Y-308125369D01*
X434595821Y-308220607D01*
X434595821Y-308363464D01*
X434548202Y-308458702D01*
X434500583Y-308506321D01*
X434405345Y-308553940D01*
X434024392Y-308553940D01*
X435452964Y-308363464D02*
X435452964Y-309030130D01*
X435024392Y-308363464D02*
X435024392Y-308887273D01*
X435072011Y-308982511D01*
X435167250Y-309030130D01*
X435310107Y-309030130D01*
X435405345Y-308982511D01*
X435452964Y-308934892D01*
X435929154Y-308363464D02*
X435929154Y-309030130D01*
X435929154Y-308458702D02*
X435976773Y-308411083D01*
X436072011Y-308363464D01*
X436214869Y-308363464D01*
X436310107Y-308411083D01*
X436357726Y-308506321D01*
X436357726Y-309030130D01*
X436833916Y-309030130D02*
X436833916Y-308030130D01*
X437310107Y-308363464D02*
X437310107Y-309030130D01*
X437310107Y-308458702D02*
X437357726Y-308411083D01*
X437452964Y-308363464D01*
X437595821Y-308363464D01*
X437691059Y-308411083D01*
X437738678Y-308506321D01*
X437738678Y-309030130D01*
X438738678Y-309030130D02*
X438167250Y-309030130D01*
X438452964Y-309030130D02*
X438452964Y-308030130D01*
X438357726Y-308172988D01*
X438262488Y-308268226D01*
X438167250Y-308315845D01*
X439357726Y-308030130D02*
X439452964Y-308030130D01*
X439548202Y-308077750D01*
X439595821Y-308125369D01*
X439643440Y-308220607D01*
X439691059Y-308411083D01*
X439691059Y-308649178D01*
X439643440Y-308839654D01*
X439595821Y-308934892D01*
X439548202Y-308982511D01*
X439452964Y-309030130D01*
X439357726Y-309030130D01*
X439262488Y-308982511D01*
X439214869Y-308934892D01*
X439167250Y-308839654D01*
X439119630Y-308649178D01*
X439119630Y-308411083D01*
X439167250Y-308220607D01*
X439214869Y-308125369D01*
X439262488Y-308077750D01*
X439357726Y-308030130D01*
X440119630Y-309030130D02*
X440119630Y-308030130D01*
X440357726Y-308030130D01*
X440500583Y-308077750D01*
X440595821Y-308172988D01*
X440643440Y-308268226D01*
X440691059Y-308458702D01*
X440691059Y-308601559D01*
X440643440Y-308792035D01*
X440595821Y-308887273D01*
X440500583Y-308982511D01*
X440357726Y-309030130D01*
X440119630Y-309030130D01*
X441119630Y-309030130D02*
X441119630Y-308363464D01*
X441119630Y-308030130D02*
X441072011Y-308077750D01*
X441119630Y-308125369D01*
X441167250Y-308077750D01*
X441119630Y-308030130D01*
X441119630Y-308125369D01*
X442024392Y-309030130D02*
X442024392Y-308030130D01*
X442024392Y-308982511D02*
X441929154Y-309030130D01*
X441738678Y-309030130D01*
X441643440Y-308982511D01*
X441595821Y-308934892D01*
X441548202Y-308839654D01*
X441548202Y-308553940D01*
X441595821Y-308458702D01*
X441643440Y-308411083D01*
X441738678Y-308363464D01*
X441929154Y-308363464D01*
X442024392Y-308411083D01*
X442405345Y-309411083D02*
X442452964Y-309363464D01*
X442548202Y-309220607D01*
X442595821Y-309125369D01*
X442643440Y-308982511D01*
X442691059Y-308744416D01*
X442691059Y-308553940D01*
X442643440Y-308315845D01*
X442595821Y-308172988D01*
X442548202Y-308077750D01*
X442452964Y-307934892D01*
X442405345Y-307887273D01*
X431405345Y-310680130D02*
X431405345Y-309680130D01*
X431786297Y-309680130D01*
X431881535Y-309727750D01*
X431929154Y-309775369D01*
X431976773Y-309870607D01*
X431976773Y-310013464D01*
X431929154Y-310108702D01*
X431881535Y-310156321D01*
X431786297Y-310203940D01*
X431405345Y-310203940D01*
X432405345Y-310680130D02*
X432405345Y-310013464D01*
X432405345Y-310203940D02*
X432452964Y-310108702D01*
X432500583Y-310061083D01*
X432595821Y-310013464D01*
X432691059Y-310013464D01*
X433167250Y-310680130D02*
X433072011Y-310632511D01*
X433024392Y-310584892D01*
X432976773Y-310489654D01*
X432976773Y-310203940D01*
X433024392Y-310108702D01*
X433072011Y-310061083D01*
X433167250Y-310013464D01*
X433310107Y-310013464D01*
X433405345Y-310061083D01*
X433452964Y-310108702D01*
X433500583Y-310203940D01*
X433500583Y-310489654D01*
X433452964Y-310584892D01*
X433405345Y-310632511D01*
X433310107Y-310680130D01*
X433167250Y-310680130D01*
X433786297Y-310013464D02*
X434167250Y-310013464D01*
X433929154Y-309680130D02*
X433929154Y-310537273D01*
X433976773Y-310632511D01*
X434072011Y-310680130D01*
X434167250Y-310680130D01*
X434643440Y-310680130D02*
X434548202Y-310632511D01*
X434500583Y-310584892D01*
X434452964Y-310489654D01*
X434452964Y-310203940D01*
X434500583Y-310108702D01*
X434548202Y-310061083D01*
X434643440Y-310013464D01*
X434786297Y-310013464D01*
X434881535Y-310061083D01*
X434929154Y-310108702D01*
X434976773Y-310203940D01*
X434976773Y-310489654D01*
X434929154Y-310584892D01*
X434881535Y-310632511D01*
X434786297Y-310680130D01*
X434643440Y-310680130D01*
X435262488Y-310013464D02*
X435643440Y-310013464D01*
X435405345Y-309680130D02*
X435405345Y-310537273D01*
X435452964Y-310632511D01*
X435548202Y-310680130D01*
X435643440Y-310680130D01*
X435881535Y-310013464D02*
X436119630Y-310680130D01*
X436357726Y-310013464D02*
X436119630Y-310680130D01*
X436024392Y-310918226D01*
X435976773Y-310965845D01*
X435881535Y-311013464D01*
X436738678Y-310013464D02*
X436738678Y-311013464D01*
X436738678Y-310061083D02*
X436833916Y-310013464D01*
X437024392Y-310013464D01*
X437119630Y-310061083D01*
X437167250Y-310108702D01*
X437214869Y-310203940D01*
X437214869Y-310489654D01*
X437167250Y-310584892D01*
X437119630Y-310632511D01*
X437024392Y-310680130D01*
X436833916Y-310680130D01*
X436738678Y-310632511D01*
X438024392Y-310632511D02*
X437929154Y-310680130D01*
X437738678Y-310680130D01*
X437643440Y-310632511D01*
X437595821Y-310537273D01*
X437595821Y-310156321D01*
X437643440Y-310061083D01*
X437738678Y-310013464D01*
X437929154Y-310013464D01*
X438024392Y-310061083D01*
X438072011Y-310156321D01*
X438072011Y-310251559D01*
X437595821Y-310346797D01*
X439214869Y-309775369D02*
X439262488Y-309727750D01*
X439357726Y-309680130D01*
X439595821Y-309680130D01*
X439691059Y-309727750D01*
X439738678Y-309775369D01*
X439786297Y-309870607D01*
X439786297Y-309965845D01*
X439738678Y-310108702D01*
X439167250Y-310680130D01*
X439786297Y-310680130D01*
X440405345Y-309680130D02*
X440500583Y-309680130D01*
X440595821Y-309727750D01*
X440643440Y-309775369D01*
X440691059Y-309870607D01*
X440738678Y-310061083D01*
X440738678Y-310299178D01*
X440691059Y-310489654D01*
X440643440Y-310584892D01*
X440595821Y-310632511D01*
X440500583Y-310680130D01*
X440405345Y-310680130D01*
X440310107Y-310632511D01*
X440262488Y-310584892D01*
X440214869Y-310489654D01*
X440167250Y-310299178D01*
X440167250Y-310061083D01*
X440214869Y-309870607D01*
X440262488Y-309775369D01*
X440310107Y-309727750D01*
X440405345Y-309680130D01*
X441119630Y-309775369D02*
X441167250Y-309727750D01*
X441262488Y-309680130D01*
X441500583Y-309680130D01*
X441595821Y-309727750D01*
X441643440Y-309775369D01*
X441691059Y-309870607D01*
X441691059Y-309965845D01*
X441643440Y-310108702D01*
X441072011Y-310680130D01*
X441691059Y-310680130D01*
X442310107Y-309680130D02*
X442405345Y-309680130D01*
X442500583Y-309727750D01*
X442548202Y-309775369D01*
X442595821Y-309870607D01*
X442643440Y-310061083D01*
X442643440Y-310299178D01*
X442595821Y-310489654D01*
X442548202Y-310584892D01*
X442500583Y-310632511D01*
X442405345Y-310680130D01*
X442310107Y-310680130D01*
X442214869Y-310632511D01*
X442167250Y-310584892D01*
X442119630Y-310489654D01*
X442072011Y-310299178D01*
X442072011Y-310061083D01*
X442119630Y-309870607D01*
X442167250Y-309775369D01*
X442214869Y-309727750D01*
X442310107Y-309680130D01*
X443072011Y-310299178D02*
X443833916Y-310299178D01*
X444500583Y-309680130D02*
X444595821Y-309680130D01*
X444691059Y-309727750D01*
X444738678Y-309775369D01*
X444786297Y-309870607D01*
X444833916Y-310061083D01*
X444833916Y-310299178D01*
X444786297Y-310489654D01*
X444738678Y-310584892D01*
X444691059Y-310632511D01*
X444595821Y-310680130D01*
X444500583Y-310680130D01*
X444405345Y-310632511D01*
X444357726Y-310584892D01*
X444310107Y-310489654D01*
X444262488Y-310299178D01*
X444262488Y-310061083D01*
X444310107Y-309870607D01*
X444357726Y-309775369D01*
X444405345Y-309727750D01*
X444500583Y-309680130D01*
X445167250Y-309680130D02*
X445833916Y-309680130D01*
X445405345Y-310680130D01*
X25830773Y-302809130D02*
X25497440Y-302332940D01*
X25259345Y-302809130D02*
X25259345Y-301809130D01*
X25640297Y-301809130D01*
X25735535Y-301856750D01*
X25783154Y-301904369D01*
X25830773Y-301999607D01*
X25830773Y-302142464D01*
X25783154Y-302237702D01*
X25735535Y-302285321D01*
X25640297Y-302332940D01*
X25259345Y-302332940D01*
X26687916Y-302809130D02*
X26687916Y-302285321D01*
X26640297Y-302190083D01*
X26545059Y-302142464D01*
X26354583Y-302142464D01*
X26259345Y-302190083D01*
X26687916Y-302761511D02*
X26592678Y-302809130D01*
X26354583Y-302809130D01*
X26259345Y-302761511D01*
X26211726Y-302666273D01*
X26211726Y-302571035D01*
X26259345Y-302475797D01*
X26354583Y-302428178D01*
X26592678Y-302428178D01*
X26687916Y-302380559D01*
X27164107Y-302809130D02*
X27164107Y-302142464D01*
X27164107Y-301809130D02*
X27116488Y-301856750D01*
X27164107Y-301904369D01*
X27211726Y-301856750D01*
X27164107Y-301809130D01*
X27164107Y-301904369D01*
X27783154Y-302809130D02*
X27687916Y-302761511D01*
X27640297Y-302666273D01*
X27640297Y-301809130D01*
X28164107Y-302809130D02*
X28164107Y-302142464D01*
X28164107Y-302332940D02*
X28211726Y-302237702D01*
X28259345Y-302190083D01*
X28354583Y-302142464D01*
X28449821Y-302142464D01*
X28926011Y-302809130D02*
X28830773Y-302761511D01*
X28783154Y-302713892D01*
X28735535Y-302618654D01*
X28735535Y-302332940D01*
X28783154Y-302237702D01*
X28830773Y-302190083D01*
X28926011Y-302142464D01*
X29068869Y-302142464D01*
X29164107Y-302190083D01*
X29211726Y-302237702D01*
X29259345Y-302332940D01*
X29259345Y-302618654D01*
X29211726Y-302713892D01*
X29164107Y-302761511D01*
X29068869Y-302809130D01*
X28926011Y-302809130D01*
X30116488Y-302809130D02*
X30116488Y-302285321D01*
X30068869Y-302190083D01*
X29973630Y-302142464D01*
X29783154Y-302142464D01*
X29687916Y-302190083D01*
X30116488Y-302761511D02*
X30021250Y-302809130D01*
X29783154Y-302809130D01*
X29687916Y-302761511D01*
X29640297Y-302666273D01*
X29640297Y-302571035D01*
X29687916Y-302475797D01*
X29783154Y-302428178D01*
X30021250Y-302428178D01*
X30116488Y-302380559D01*
X31021250Y-302809130D02*
X31021250Y-301809130D01*
X31021250Y-302761511D02*
X30926011Y-302809130D01*
X30735535Y-302809130D01*
X30640297Y-302761511D01*
X30592678Y-302713892D01*
X30545059Y-302618654D01*
X30545059Y-302332940D01*
X30592678Y-302237702D01*
X30640297Y-302190083D01*
X30735535Y-302142464D01*
X30926011Y-302142464D01*
X31021250Y-302190083D01*
X32259345Y-302809130D02*
X32259345Y-301809130D01*
X32640297Y-301809130D01*
X32735535Y-301856750D01*
X32783154Y-301904369D01*
X32830773Y-301999607D01*
X32830773Y-302142464D01*
X32783154Y-302237702D01*
X32735535Y-302285321D01*
X32640297Y-302332940D01*
X32259345Y-302332940D01*
X33830773Y-302713892D02*
X33783154Y-302761511D01*
X33640297Y-302809130D01*
X33545059Y-302809130D01*
X33402202Y-302761511D01*
X33306964Y-302666273D01*
X33259345Y-302571035D01*
X33211726Y-302380559D01*
X33211726Y-302237702D01*
X33259345Y-302047226D01*
X33306964Y-301951988D01*
X33402202Y-301856750D01*
X33545059Y-301809130D01*
X33640297Y-301809130D01*
X33783154Y-301856750D01*
X33830773Y-301904369D01*
X34592678Y-302285321D02*
X34735535Y-302332940D01*
X34783154Y-302380559D01*
X34830773Y-302475797D01*
X34830773Y-302618654D01*
X34783154Y-302713892D01*
X34735535Y-302761511D01*
X34640297Y-302809130D01*
X34259345Y-302809130D01*
X34259345Y-301809130D01*
X34592678Y-301809130D01*
X34687916Y-301856750D01*
X34735535Y-301904369D01*
X34783154Y-301999607D01*
X34783154Y-302094845D01*
X34735535Y-302190083D01*
X34687916Y-302237702D01*
X34592678Y-302285321D01*
X34259345Y-302285321D01*
X25164107Y-303459130D02*
X25402202Y-304459130D01*
X25592678Y-303744845D01*
X25783154Y-304459130D01*
X26021250Y-303459130D01*
X26402202Y-304363892D02*
X26449821Y-304411511D01*
X26402202Y-304459130D01*
X26354583Y-304411511D01*
X26402202Y-304363892D01*
X26402202Y-304459130D01*
X27592678Y-304173416D02*
X28068869Y-304173416D01*
X27497440Y-304459130D02*
X27830773Y-303459130D01*
X28164107Y-304459130D01*
X28640297Y-304459130D02*
X28545059Y-304411511D01*
X28497440Y-304316273D01*
X28497440Y-303459130D01*
X29402202Y-304411511D02*
X29306964Y-304459130D01*
X29116488Y-304459130D01*
X29021250Y-304411511D01*
X28973630Y-304316273D01*
X28973630Y-303935321D01*
X29021250Y-303840083D01*
X29116488Y-303792464D01*
X29306964Y-303792464D01*
X29402202Y-303840083D01*
X29449821Y-303935321D01*
X29449821Y-304030559D01*
X28973630Y-304125797D01*
X29783154Y-304459130D02*
X30306964Y-303792464D01*
X29783154Y-303792464D02*
X30306964Y-304459130D01*
X32021250Y-304459130D02*
X31687916Y-303982940D01*
X31449821Y-304459130D02*
X31449821Y-303459130D01*
X31830773Y-303459130D01*
X31926011Y-303506750D01*
X31973630Y-303554369D01*
X32021250Y-303649607D01*
X32021250Y-303792464D01*
X31973630Y-303887702D01*
X31926011Y-303935321D01*
X31830773Y-303982940D01*
X31449821Y-303982940D01*
X32592678Y-304459130D02*
X32497440Y-304411511D01*
X32449821Y-304363892D01*
X32402202Y-304268654D01*
X32402202Y-303982940D01*
X32449821Y-303887702D01*
X32497440Y-303840083D01*
X32592678Y-303792464D01*
X32735535Y-303792464D01*
X32830773Y-303840083D01*
X32878392Y-303887702D01*
X32926011Y-303982940D01*
X32926011Y-304268654D01*
X32878392Y-304363892D01*
X32830773Y-304411511D01*
X32735535Y-304459130D01*
X32592678Y-304459130D01*
X33354583Y-303792464D02*
X33354583Y-304459130D01*
X33354583Y-303887702D02*
X33402202Y-303840083D01*
X33497440Y-303792464D01*
X33640297Y-303792464D01*
X33735535Y-303840083D01*
X33783154Y-303935321D01*
X33783154Y-304459130D01*
X34259345Y-304459130D02*
X34259345Y-303459130D01*
X34354583Y-304078178D02*
X34640297Y-304459130D01*
X34640297Y-303792464D02*
X34259345Y-304173416D01*
X35449821Y-304411511D02*
X35354583Y-304459130D01*
X35164107Y-304459130D01*
X35068869Y-304411511D01*
X35021250Y-304316273D01*
X35021250Y-303935321D01*
X35068869Y-303840083D01*
X35164107Y-303792464D01*
X35354583Y-303792464D01*
X35449821Y-303840083D01*
X35497440Y-303935321D01*
X35497440Y-304030559D01*
X35021250Y-304125797D01*
X25545059Y-306490083D02*
X25497440Y-306442464D01*
X25402202Y-306299607D01*
X25354583Y-306204369D01*
X25306964Y-306061511D01*
X25259345Y-305823416D01*
X25259345Y-305632940D01*
X25306964Y-305394845D01*
X25354583Y-305251988D01*
X25402202Y-305156750D01*
X25497440Y-305013892D01*
X25545059Y-304966273D01*
X25926011Y-306109130D02*
X25926011Y-305109130D01*
X26497440Y-306109130D01*
X26497440Y-305109130D01*
X27116488Y-306109130D02*
X27021250Y-306061511D01*
X26973630Y-306013892D01*
X26926011Y-305918654D01*
X26926011Y-305632940D01*
X26973630Y-305537702D01*
X27021250Y-305490083D01*
X27116488Y-305442464D01*
X27259345Y-305442464D01*
X27354583Y-305490083D01*
X27402202Y-305537702D01*
X27449821Y-305632940D01*
X27449821Y-305918654D01*
X27402202Y-306013892D01*
X27354583Y-306061511D01*
X27259345Y-306109130D01*
X27116488Y-306109130D01*
X27878392Y-306109130D02*
X27878392Y-305109130D01*
X28259345Y-305109130D01*
X28354583Y-305156750D01*
X28402202Y-305204369D01*
X28449821Y-305299607D01*
X28449821Y-305442464D01*
X28402202Y-305537702D01*
X28354583Y-305585321D01*
X28259345Y-305632940D01*
X27878392Y-305632940D01*
X29306964Y-305442464D02*
X29306964Y-306109130D01*
X28878392Y-305442464D02*
X28878392Y-305966273D01*
X28926011Y-306061511D01*
X29021250Y-306109130D01*
X29164107Y-306109130D01*
X29259345Y-306061511D01*
X29306964Y-306013892D01*
X29783154Y-305442464D02*
X29783154Y-306109130D01*
X29783154Y-305537702D02*
X29830773Y-305490083D01*
X29926011Y-305442464D01*
X30068869Y-305442464D01*
X30164107Y-305490083D01*
X30211726Y-305585321D01*
X30211726Y-306109130D01*
X30687916Y-306109130D02*
X30687916Y-305109130D01*
X31164107Y-305442464D02*
X31164107Y-306109130D01*
X31164107Y-305537702D02*
X31211726Y-305490083D01*
X31306964Y-305442464D01*
X31449821Y-305442464D01*
X31545059Y-305490083D01*
X31592678Y-305585321D01*
X31592678Y-306109130D01*
X32592678Y-306109130D02*
X32021250Y-306109130D01*
X32306964Y-306109130D02*
X32306964Y-305109130D01*
X32211726Y-305251988D01*
X32116488Y-305347226D01*
X32021250Y-305394845D01*
X33211726Y-305109130D02*
X33306964Y-305109130D01*
X33402202Y-305156750D01*
X33449821Y-305204369D01*
X33497440Y-305299607D01*
X33545059Y-305490083D01*
X33545059Y-305728178D01*
X33497440Y-305918654D01*
X33449821Y-306013892D01*
X33402202Y-306061511D01*
X33306964Y-306109130D01*
X33211726Y-306109130D01*
X33116488Y-306061511D01*
X33068869Y-306013892D01*
X33021250Y-305918654D01*
X32973630Y-305728178D01*
X32973630Y-305490083D01*
X33021250Y-305299607D01*
X33068869Y-305204369D01*
X33116488Y-305156750D01*
X33211726Y-305109130D01*
X33973630Y-306109130D02*
X33973630Y-305109130D01*
X34211726Y-305109130D01*
X34354583Y-305156750D01*
X34449821Y-305251988D01*
X34497440Y-305347226D01*
X34545059Y-305537702D01*
X34545059Y-305680559D01*
X34497440Y-305871035D01*
X34449821Y-305966273D01*
X34354583Y-306061511D01*
X34211726Y-306109130D01*
X33973630Y-306109130D01*
X34973630Y-306109130D02*
X34973630Y-305442464D01*
X34973630Y-305109130D02*
X34926011Y-305156750D01*
X34973630Y-305204369D01*
X35021250Y-305156750D01*
X34973630Y-305109130D01*
X34973630Y-305204369D01*
X35878392Y-306109130D02*
X35878392Y-305109130D01*
X35878392Y-306061511D02*
X35783154Y-306109130D01*
X35592678Y-306109130D01*
X35497440Y-306061511D01*
X35449821Y-306013892D01*
X35402202Y-305918654D01*
X35402202Y-305632940D01*
X35449821Y-305537702D01*
X35497440Y-305490083D01*
X35592678Y-305442464D01*
X35783154Y-305442464D01*
X35878392Y-305490083D01*
X36259345Y-306490083D02*
X36306964Y-306442464D01*
X36402202Y-306299607D01*
X36449821Y-306204369D01*
X36497440Y-306061511D01*
X36545059Y-305823416D01*
X36545059Y-305632940D01*
X36497440Y-305394845D01*
X36449821Y-305251988D01*
X36402202Y-305156750D01*
X36306964Y-305013892D01*
X36259345Y-304966273D01*
X25259345Y-307759130D02*
X25259345Y-306759130D01*
X25640297Y-306759130D01*
X25735535Y-306806750D01*
X25783154Y-306854369D01*
X25830773Y-306949607D01*
X25830773Y-307092464D01*
X25783154Y-307187702D01*
X25735535Y-307235321D01*
X25640297Y-307282940D01*
X25259345Y-307282940D01*
X26259345Y-307759130D02*
X26259345Y-307092464D01*
X26259345Y-307282940D02*
X26306964Y-307187702D01*
X26354583Y-307140083D01*
X26449821Y-307092464D01*
X26545059Y-307092464D01*
X27021250Y-307759130D02*
X26926011Y-307711511D01*
X26878392Y-307663892D01*
X26830773Y-307568654D01*
X26830773Y-307282940D01*
X26878392Y-307187702D01*
X26926011Y-307140083D01*
X27021250Y-307092464D01*
X27164107Y-307092464D01*
X27259345Y-307140083D01*
X27306964Y-307187702D01*
X27354583Y-307282940D01*
X27354583Y-307568654D01*
X27306964Y-307663892D01*
X27259345Y-307711511D01*
X27164107Y-307759130D01*
X27021250Y-307759130D01*
X27640297Y-307092464D02*
X28021250Y-307092464D01*
X27783154Y-306759130D02*
X27783154Y-307616273D01*
X27830773Y-307711511D01*
X27926011Y-307759130D01*
X28021250Y-307759130D01*
X28497440Y-307759130D02*
X28402202Y-307711511D01*
X28354583Y-307663892D01*
X28306964Y-307568654D01*
X28306964Y-307282940D01*
X28354583Y-307187702D01*
X28402202Y-307140083D01*
X28497440Y-307092464D01*
X28640297Y-307092464D01*
X28735535Y-307140083D01*
X28783154Y-307187702D01*
X28830773Y-307282940D01*
X28830773Y-307568654D01*
X28783154Y-307663892D01*
X28735535Y-307711511D01*
X28640297Y-307759130D01*
X28497440Y-307759130D01*
X29116488Y-307092464D02*
X29497440Y-307092464D01*
X29259345Y-306759130D02*
X29259345Y-307616273D01*
X29306964Y-307711511D01*
X29402202Y-307759130D01*
X29497440Y-307759130D01*
X29735535Y-307092464D02*
X29973630Y-307759130D01*
X30211726Y-307092464D02*
X29973630Y-307759130D01*
X29878392Y-307997226D01*
X29830773Y-308044845D01*
X29735535Y-308092464D01*
X30592678Y-307092464D02*
X30592678Y-308092464D01*
X30592678Y-307140083D02*
X30687916Y-307092464D01*
X30878392Y-307092464D01*
X30973630Y-307140083D01*
X31021250Y-307187702D01*
X31068869Y-307282940D01*
X31068869Y-307568654D01*
X31021250Y-307663892D01*
X30973630Y-307711511D01*
X30878392Y-307759130D01*
X30687916Y-307759130D01*
X30592678Y-307711511D01*
X31878392Y-307711511D02*
X31783154Y-307759130D01*
X31592678Y-307759130D01*
X31497440Y-307711511D01*
X31449821Y-307616273D01*
X31449821Y-307235321D01*
X31497440Y-307140083D01*
X31592678Y-307092464D01*
X31783154Y-307092464D01*
X31878392Y-307140083D01*
X31926011Y-307235321D01*
X31926011Y-307330559D01*
X31449821Y-307425797D01*
X33068869Y-306854369D02*
X33116488Y-306806750D01*
X33211726Y-306759130D01*
X33449821Y-306759130D01*
X33545059Y-306806750D01*
X33592678Y-306854369D01*
X33640297Y-306949607D01*
X33640297Y-307044845D01*
X33592678Y-307187702D01*
X33021250Y-307759130D01*
X33640297Y-307759130D01*
X34259345Y-306759130D02*
X34354583Y-306759130D01*
X34449821Y-306806750D01*
X34497440Y-306854369D01*
X34545059Y-306949607D01*
X34592678Y-307140083D01*
X34592678Y-307378178D01*
X34545059Y-307568654D01*
X34497440Y-307663892D01*
X34449821Y-307711511D01*
X34354583Y-307759130D01*
X34259345Y-307759130D01*
X34164107Y-307711511D01*
X34116488Y-307663892D01*
X34068869Y-307568654D01*
X34021250Y-307378178D01*
X34021250Y-307140083D01*
X34068869Y-306949607D01*
X34116488Y-306854369D01*
X34164107Y-306806750D01*
X34259345Y-306759130D01*
X34973630Y-306854369D02*
X35021250Y-306806750D01*
X35116488Y-306759130D01*
X35354583Y-306759130D01*
X35449821Y-306806750D01*
X35497440Y-306854369D01*
X35545059Y-306949607D01*
X35545059Y-307044845D01*
X35497440Y-307187702D01*
X34926011Y-307759130D01*
X35545059Y-307759130D01*
X36164107Y-306759130D02*
X36259345Y-306759130D01*
X36354583Y-306806750D01*
X36402202Y-306854369D01*
X36449821Y-306949607D01*
X36497440Y-307140083D01*
X36497440Y-307378178D01*
X36449821Y-307568654D01*
X36402202Y-307663892D01*
X36354583Y-307711511D01*
X36259345Y-307759130D01*
X36164107Y-307759130D01*
X36068869Y-307711511D01*
X36021250Y-307663892D01*
X35973630Y-307568654D01*
X35926011Y-307378178D01*
X35926011Y-307140083D01*
X35973630Y-306949607D01*
X36021250Y-306854369D01*
X36068869Y-306806750D01*
X36164107Y-306759130D01*
X36926011Y-307378178D02*
X37687916Y-307378178D01*
X38354583Y-306759130D02*
X38449821Y-306759130D01*
X38545059Y-306806750D01*
X38592678Y-306854369D01*
X38640297Y-306949607D01*
X38687916Y-307140083D01*
X38687916Y-307378178D01*
X38640297Y-307568654D01*
X38592678Y-307663892D01*
X38545059Y-307711511D01*
X38449821Y-307759130D01*
X38354583Y-307759130D01*
X38259345Y-307711511D01*
X38211726Y-307663892D01*
X38164107Y-307568654D01*
X38116488Y-307378178D01*
X38116488Y-307140083D01*
X38164107Y-306949607D01*
X38211726Y-306854369D01*
X38259345Y-306806750D01*
X38354583Y-306759130D01*
X39021250Y-306759130D02*
X39687916Y-306759130D01*
X39259345Y-307759130D01*
%LPC*%
D11*
G04 #@! TO.C,SW1*
X18375000Y-239709000D03*
D12*
X21875000Y-243409000D03*
D13*
X20875000Y-240919000D03*
X15875000Y-240919000D03*
D12*
X14865000Y-243409000D03*
G04 #@! TD*
D14*
G04 #@! TO.C,MX9*
X390525000Y-247650000D03*
D13*
X385445000Y-247650000D03*
X395605000Y-247650000D03*
D15*
X378618750Y-240665000D03*
X402431250Y-240665000D03*
D14*
X378618750Y-255905000D03*
X402431250Y-255905000D03*
G04 #@! TD*
G04 #@! TO.C,MX500_alt2*
X28575000Y-247650000D03*
D13*
X23495000Y-247650000D03*
X33655000Y-247650000D03*
G04 #@! TD*
D14*
G04 #@! TO.C,MX100_alt1*
X47625000Y-247650000D03*
D13*
X52705000Y-247650000D03*
X42545000Y-247650000D03*
G04 #@! TD*
D16*
G04 #@! TO.C,U2*
X426325000Y-245468000D03*
D17*
X428625000Y-240868000D03*
X428625000Y-247868000D03*
D16*
X426325000Y-242468000D03*
X426325000Y-249468000D03*
X430925000Y-250568000D03*
G04 #@! TD*
D14*
G04 #@! TO.C,MX104*
X204787500Y-247650000D03*
D13*
X199707500Y-247650000D03*
X209867500Y-247650000D03*
G04 #@! TD*
D14*
G04 #@! TO.C,MX100*
X38100000Y-247650000D03*
D13*
X33020000Y-247650000D03*
X43180000Y-247650000D03*
D15*
X26193750Y-240665000D03*
X50006250Y-240665000D03*
D14*
X26193750Y-255905000D03*
X50006250Y-255905000D03*
G04 #@! TD*
G04 #@! TO.C,MX508*
X361950000Y-285750000D03*
D13*
X356870000Y-285750000D03*
X367030000Y-285750000D03*
G04 #@! TD*
D11*
G04 #@! TO.C,J1*
X190932000Y-244913000D03*
X192532000Y-244913000D03*
X194132000Y-244913000D03*
X191732000Y-243713000D03*
X193332000Y-243713000D03*
D18*
X196182000Y-239863000D03*
X188882000Y-239863000D03*
G04 #@! TD*
D14*
G04 #@! TO.C,MX410*
X427513750Y-264287000D03*
X427513750Y-288163000D03*
D15*
X442753750Y-264287000D03*
X442753750Y-288163000D03*
D13*
X435768750Y-281305000D03*
X435768750Y-271145000D03*
D14*
X435768750Y-276225000D03*
G04 #@! TD*
G04 #@! TO.C,MX305*
X242887500Y-266700000D03*
D13*
X237807500Y-266700000D03*
X247967500Y-266700000D03*
G04 #@! TD*
D14*
G04 #@! TO.C,MX306*
X285750000Y-266700000D03*
D13*
X280670000Y-266700000D03*
X290830000Y-266700000D03*
G04 #@! TD*
D14*
G04 #@! TO.C,MX808*
X342900000Y-323850000D03*
D13*
X337820000Y-323850000D03*
X347980000Y-323850000D03*
G04 #@! TD*
D14*
G04 #@! TO.C,MX102*
X123825000Y-247650000D03*
D13*
X118745000Y-247650000D03*
X128905000Y-247650000D03*
G04 #@! TD*
D14*
G04 #@! TO.C,MX801*
X57150000Y-323850000D03*
D13*
X52070000Y-323850000D03*
X62230000Y-323850000D03*
G04 #@! TD*
D14*
G04 #@! TO.C,MX601*
X50006250Y-304800000D03*
D13*
X44926250Y-304800000D03*
X55086250Y-304800000D03*
D15*
X38100000Y-297815000D03*
X61912500Y-297815000D03*
D14*
X38100000Y-313055000D03*
X61912500Y-313055000D03*
G04 #@! TD*
G04 #@! TO.C,MX904*
X202406250Y-328612500D03*
D13*
X197326250Y-328612500D03*
X207486250Y-328612500D03*
D15*
X190500000Y-321627500D03*
X214312500Y-321627500D03*
D14*
X190500000Y-336867500D03*
X214312500Y-336867500D03*
G04 #@! TD*
G04 #@! TO.C,MX906*
X288131250Y-328612500D03*
D13*
X283051250Y-328612500D03*
X293211250Y-328612500D03*
G04 #@! TD*
D14*
G04 #@! TO.C,MX903*
X159543750Y-328612500D03*
D13*
X154463750Y-328612500D03*
X164623750Y-328612500D03*
G04 #@! TD*
D14*
G04 #@! TO.C,MX609*
X388143750Y-304800000D03*
D13*
X383063750Y-304800000D03*
X393223750Y-304800000D03*
G04 #@! TD*
D14*
G04 #@! TO.C,MX509*
X407193750Y-285750000D03*
D13*
X402113750Y-285750000D03*
X412273750Y-285750000D03*
G04 #@! TD*
D14*
G04 #@! TO.C,MX400*
X11906250Y-285750000D03*
D13*
X6826250Y-285750000D03*
X16986250Y-285750000D03*
G04 #@! TD*
D14*
G04 #@! TO.C,MX901*
X83343750Y-323850000D03*
D13*
X78263750Y-323850000D03*
X88423750Y-323850000D03*
G04 #@! TD*
D14*
G04 #@! TO.C,MX802*
X107156250Y-323850000D03*
D13*
X102076250Y-323850000D03*
X112236250Y-323850000D03*
G04 #@! TD*
D14*
G04 #@! TO.C,MX908*
X371475000Y-323850000D03*
D13*
X366395000Y-323850000D03*
X376555000Y-323850000D03*
G04 #@! TD*
D14*
G04 #@! TO.C,MX300*
X33337500Y-266700000D03*
D13*
X28257500Y-266700000D03*
X38417500Y-266700000D03*
G04 #@! TD*
D14*
G04 #@! TO.C,MX209*
X385762500Y-266700000D03*
D13*
X380682500Y-266700000D03*
X390842500Y-266700000D03*
G04 #@! TD*
D14*
G04 #@! TO.C,MX201*
X61912500Y-266700000D03*
D13*
X56832500Y-266700000D03*
X66992500Y-266700000D03*
G04 #@! TD*
D14*
G04 #@! TO.C,MX905*
X250031250Y-328612500D03*
D13*
X244951250Y-328612500D03*
X255111250Y-328612500D03*
D15*
X238125000Y-321627500D03*
X261937500Y-321627500D03*
D14*
X238125000Y-336867500D03*
X261937500Y-336867500D03*
G04 #@! TD*
G04 #@! TO.C,MX401*
X54768750Y-285750000D03*
D13*
X49688750Y-285750000D03*
X59848750Y-285750000D03*
D15*
X42862500Y-278765000D03*
X66675000Y-278765000D03*
D14*
X42862500Y-294005000D03*
X66675000Y-294005000D03*
G04 #@! TD*
G04 #@! TO.C,MX602*
X104775000Y-304800000D03*
D13*
X99695000Y-304800000D03*
X109855000Y-304800000D03*
G04 #@! TD*
D14*
G04 #@! TO.C,MX702*
X123825000Y-304800000D03*
D13*
X118745000Y-304800000D03*
X128905000Y-304800000D03*
G04 #@! TD*
D14*
G04 #@! TO.C,MX502*
X123825000Y-285750000D03*
D13*
X118745000Y-285750000D03*
X128905000Y-285750000D03*
G04 #@! TD*
D14*
G04 #@! TO.C,MX909*
X419100000Y-328612500D03*
D13*
X414020000Y-328612500D03*
X424180000Y-328612500D03*
G04 #@! TD*
D14*
G04 #@! TO.C,MX907*
X314325000Y-328612500D03*
D13*
X309245000Y-328612500D03*
X319405000Y-328612500D03*
G04 #@! TD*
D14*
G04 #@! TO.C,MX902*
X133350000Y-328612500D03*
D13*
X128270000Y-328612500D03*
X138430000Y-328612500D03*
G04 #@! TD*
D14*
G04 #@! TO.C,MX900*
X28575000Y-328612500D03*
D13*
X23495000Y-328612500D03*
X33655000Y-328612500D03*
G04 #@! TD*
D14*
G04 #@! TO.C,MX810*
X438150000Y-328612500D03*
D13*
X433070000Y-328612500D03*
X443230000Y-328612500D03*
G04 #@! TD*
D14*
G04 #@! TO.C,MX809*
X400050000Y-328612500D03*
D13*
X394970000Y-328612500D03*
X405130000Y-328612500D03*
G04 #@! TD*
D14*
G04 #@! TO.C,MX800*
X9525000Y-328612500D03*
D13*
X4445000Y-328612500D03*
X14605000Y-328612500D03*
G04 #@! TD*
D14*
G04 #@! TO.C,MX709*
X419100000Y-309562500D03*
D13*
X414020000Y-309562500D03*
X424180000Y-309562500D03*
G04 #@! TD*
D14*
G04 #@! TO.C,MX708*
X361950000Y-304800000D03*
D13*
X356870000Y-304800000D03*
X367030000Y-304800000D03*
G04 #@! TD*
D14*
G04 #@! TO.C,MX707*
X323850000Y-304800000D03*
D13*
X318770000Y-304800000D03*
X328930000Y-304800000D03*
G04 #@! TD*
D14*
G04 #@! TO.C,MX706*
X285750000Y-304800000D03*
D13*
X280670000Y-304800000D03*
X290830000Y-304800000D03*
G04 #@! TD*
D14*
G04 #@! TO.C,MX705*
X242887500Y-304800000D03*
D13*
X237807500Y-304800000D03*
X247967500Y-304800000D03*
G04 #@! TD*
D14*
G04 #@! TO.C,MX704*
X204787500Y-304800000D03*
D13*
X199707500Y-304800000D03*
X209867500Y-304800000D03*
G04 #@! TD*
D14*
G04 #@! TO.C,MX703*
X161925000Y-304800000D03*
D13*
X156845000Y-304800000D03*
X167005000Y-304800000D03*
G04 #@! TD*
D14*
G04 #@! TO.C,MX701*
X85725000Y-304800000D03*
D13*
X80645000Y-304800000D03*
X90805000Y-304800000D03*
G04 #@! TD*
D14*
G04 #@! TO.C,MX608*
X342900000Y-304800000D03*
D13*
X337820000Y-304800000D03*
X347980000Y-304800000D03*
G04 #@! TD*
D14*
G04 #@! TO.C,MX607*
X304800000Y-304800000D03*
D13*
X299720000Y-304800000D03*
X309880000Y-304800000D03*
G04 #@! TD*
D14*
G04 #@! TO.C,MX606*
X266700000Y-304800000D03*
D13*
X261620000Y-304800000D03*
X271780000Y-304800000D03*
G04 #@! TD*
D14*
G04 #@! TO.C,MX605*
X223837500Y-304800000D03*
D13*
X218757500Y-304800000D03*
X228917500Y-304800000D03*
G04 #@! TD*
D14*
G04 #@! TO.C,MX604*
X180975000Y-304800000D03*
D13*
X175895000Y-304800000D03*
X186055000Y-304800000D03*
G04 #@! TD*
D14*
G04 #@! TO.C,MX603*
X142875000Y-304800000D03*
D13*
X137795000Y-304800000D03*
X147955000Y-304800000D03*
G04 #@! TD*
D14*
G04 #@! TO.C,MX600*
X9525000Y-309562500D03*
D13*
X4445000Y-309562500D03*
X14605000Y-309562500D03*
G04 #@! TD*
D14*
G04 #@! TO.C,MX507*
X323850000Y-285750000D03*
D13*
X318770000Y-285750000D03*
X328930000Y-285750000D03*
G04 #@! TD*
D14*
G04 #@! TO.C,MX506*
X285750000Y-285750000D03*
D13*
X280670000Y-285750000D03*
X290830000Y-285750000D03*
G04 #@! TD*
D14*
G04 #@! TO.C,MX505*
X242887500Y-285750000D03*
D13*
X237807500Y-285750000D03*
X247967500Y-285750000D03*
G04 #@! TD*
D14*
G04 #@! TO.C,MX504*
X204787500Y-285750000D03*
D13*
X209867500Y-285750000D03*
X199707500Y-285750000D03*
G04 #@! TD*
D14*
G04 #@! TO.C,MX503*
X161925000Y-285750000D03*
D13*
X156845000Y-285750000D03*
X167005000Y-285750000D03*
G04 #@! TD*
D14*
G04 #@! TO.C,MX501*
X85725000Y-285750000D03*
D13*
X80645000Y-285750000D03*
X90805000Y-285750000D03*
G04 #@! TD*
D14*
G04 #@! TO.C,MX409*
X381000000Y-285750000D03*
D13*
X375920000Y-285750000D03*
X386080000Y-285750000D03*
G04 #@! TD*
D14*
G04 #@! TO.C,MX408*
X342900000Y-285750000D03*
D13*
X337820000Y-285750000D03*
X347980000Y-285750000D03*
G04 #@! TD*
D14*
G04 #@! TO.C,MX407*
X304800000Y-285750000D03*
D13*
X299720000Y-285750000D03*
X309880000Y-285750000D03*
G04 #@! TD*
D14*
G04 #@! TO.C,MX406*
X266700000Y-285750000D03*
D13*
X261620000Y-285750000D03*
X271780000Y-285750000D03*
G04 #@! TD*
D14*
G04 #@! TO.C,MX405*
X223837500Y-285750000D03*
D13*
X218757500Y-285750000D03*
X228917500Y-285750000D03*
G04 #@! TD*
D14*
G04 #@! TO.C,MX404*
X180975000Y-285750000D03*
D13*
X186055000Y-285750000D03*
X175895000Y-285750000D03*
G04 #@! TD*
D14*
G04 #@! TO.C,MX403*
X142875000Y-285750000D03*
D13*
X137795000Y-285750000D03*
X147955000Y-285750000D03*
G04 #@! TD*
D14*
G04 #@! TO.C,MX402*
X104775000Y-285750000D03*
D13*
X99695000Y-285750000D03*
X109855000Y-285750000D03*
G04 #@! TD*
D14*
G04 #@! TO.C,MX309*
X409575000Y-266700000D03*
D13*
X404495000Y-266700000D03*
X414655000Y-266700000D03*
G04 #@! TD*
D14*
G04 #@! TO.C,MX307*
X323850000Y-266700000D03*
D13*
X318770000Y-266700000D03*
X328930000Y-266700000D03*
G04 #@! TD*
D14*
G04 #@! TO.C,MX304*
X204787500Y-266700000D03*
D13*
X199707500Y-266700000D03*
X209867500Y-266700000D03*
G04 #@! TD*
D14*
G04 #@! TO.C,MX303*
X161925000Y-266700000D03*
D13*
X156845000Y-266700000D03*
X167005000Y-266700000D03*
G04 #@! TD*
D14*
G04 #@! TO.C,MX302*
X123825000Y-266700000D03*
D13*
X118745000Y-266700000D03*
X128905000Y-266700000D03*
G04 #@! TD*
D14*
G04 #@! TO.C,MX301*
X85725000Y-266700000D03*
D13*
X80645000Y-266700000D03*
X90805000Y-266700000D03*
G04 #@! TD*
D14*
G04 #@! TO.C,MX208*
X342900000Y-266700000D03*
D13*
X337820000Y-266700000D03*
X347980000Y-266700000D03*
G04 #@! TD*
D14*
G04 #@! TO.C,MX207*
X304800000Y-266700000D03*
D13*
X299720000Y-266700000D03*
X309880000Y-266700000D03*
G04 #@! TD*
D14*
G04 #@! TO.C,MX206*
X266700000Y-266700000D03*
D13*
X261620000Y-266700000D03*
X271780000Y-266700000D03*
G04 #@! TD*
D14*
G04 #@! TO.C,MX205*
X223837500Y-266700000D03*
D13*
X218757500Y-266700000D03*
X228917500Y-266700000D03*
G04 #@! TD*
D14*
G04 #@! TO.C,MX204*
X180975000Y-266700000D03*
D13*
X175895000Y-266700000D03*
X186055000Y-266700000D03*
G04 #@! TD*
D14*
G04 #@! TO.C,MX203*
X142875000Y-266700000D03*
D13*
X137795000Y-266700000D03*
X147955000Y-266700000D03*
G04 #@! TD*
D14*
G04 #@! TO.C,MX202*
X104775000Y-266700000D03*
D13*
X99695000Y-266700000D03*
X109855000Y-266700000D03*
G04 #@! TD*
D14*
G04 #@! TO.C,MX200*
X9525000Y-266700000D03*
D13*
X4445000Y-266700000D03*
X14605000Y-266700000D03*
G04 #@! TD*
D14*
G04 #@! TO.C,MX109*
X419100000Y-247650000D03*
D13*
X424180000Y-247650000D03*
X414020000Y-247650000D03*
G04 #@! TD*
D14*
G04 #@! TO.C,MX108*
X361950000Y-247650000D03*
D13*
X356870000Y-247650000D03*
X367030000Y-247650000D03*
G04 #@! TD*
D14*
G04 #@! TO.C,MX107*
X323850000Y-247650000D03*
D13*
X318770000Y-247650000D03*
X328930000Y-247650000D03*
G04 #@! TD*
D14*
G04 #@! TO.C,MX106*
X285750000Y-247650000D03*
D13*
X280670000Y-247650000D03*
X290830000Y-247650000D03*
G04 #@! TD*
D14*
G04 #@! TO.C,MX105*
X242887500Y-247650000D03*
D13*
X237807500Y-247650000D03*
X247967500Y-247650000D03*
G04 #@! TD*
D14*
G04 #@! TO.C,MX103*
X161925000Y-247650000D03*
D13*
X156845000Y-247650000D03*
X167005000Y-247650000D03*
G04 #@! TD*
D14*
G04 #@! TO.C,MX101*
X85725000Y-247650000D03*
D13*
X80645000Y-247650000D03*
X90805000Y-247650000D03*
G04 #@! TD*
D14*
G04 #@! TO.C,MX10*
X438150000Y-247650000D03*
D13*
X433070000Y-247650000D03*
X443230000Y-247650000D03*
G04 #@! TD*
D14*
G04 #@! TO.C,MX8*
X342900000Y-247650000D03*
D13*
X337820000Y-247650000D03*
X347980000Y-247650000D03*
G04 #@! TD*
D14*
G04 #@! TO.C,MX7*
X304800000Y-247650000D03*
D13*
X299720000Y-247650000D03*
X309880000Y-247650000D03*
G04 #@! TD*
D14*
G04 #@! TO.C,MX6*
X266700000Y-247650000D03*
D13*
X261620000Y-247650000D03*
X271780000Y-247650000D03*
G04 #@! TD*
D14*
G04 #@! TO.C,MX5*
X223837500Y-247650000D03*
D13*
X218757500Y-247650000D03*
X228917500Y-247650000D03*
G04 #@! TD*
D14*
G04 #@! TO.C,MX4*
X180975000Y-247650000D03*
D13*
X175895000Y-247650000D03*
X186055000Y-247650000D03*
G04 #@! TD*
D14*
G04 #@! TO.C,MX3*
X142875000Y-247650000D03*
D13*
X137795000Y-247650000D03*
X147955000Y-247650000D03*
G04 #@! TD*
D14*
G04 #@! TO.C,MX2*
X104775000Y-247650000D03*
D13*
X99695000Y-247650000D03*
X109855000Y-247650000D03*
G04 #@! TD*
D14*
G04 #@! TO.C,MX1*
X66675000Y-247650000D03*
D13*
X61595000Y-247650000D03*
X71755000Y-247650000D03*
G04 #@! TD*
D14*
G04 #@! TO.C,MX0*
X9525000Y-247650000D03*
D13*
X4445000Y-247650000D03*
X14605000Y-247650000D03*
G04 #@! TD*
D14*
G04 #@! TO.C,MX308*
X361950000Y-266700000D03*
D13*
X356870000Y-266700000D03*
X367030000Y-266700000D03*
G04 #@! TD*
M02*
