G04 #@! TF.GenerationSoftware,KiCad,Pcbnew,(5.1.6)-1*
G04 #@! TF.CreationDate,2020-07-14T12:30:16-04:00*
G04 #@! TF.ProjectId,railroad-keyboard-pcb-only,7261696c-726f-4616-942d-6b6579626f61,rev?*
G04 #@! TF.SameCoordinates,Original*
G04 #@! TF.FileFunction,Soldermask,Top*
G04 #@! TF.FilePolarity,Negative*
%FSLAX46Y46*%
G04 Gerber Fmt 4.6, Leading zero omitted, Abs format (unit mm)*
G04 Created by KiCad (PCBNEW (5.1.6)-1) date 2020-07-14 12:30:16*
%MOMM*%
%LPD*%
G01*
G04 APERTURE LIST*
%ADD10C,1.300000*%
%ADD11C,2.200000*%
%ADD12C,1.850000*%
%ADD13C,4.087800*%
%ADD14C,3.148000*%
%ADD15O,1.700000X2.100000*%
%ADD16C,0.900000*%
%ADD17O,1.308000X2.516000*%
G04 APERTURE END LIST*
D10*
G04 #@! TO.C,SW1*
X18375000Y-239709000D03*
D11*
X21875000Y-243409000D03*
D12*
X20875000Y-240919000D03*
X15875000Y-240919000D03*
D11*
X14865000Y-243409000D03*
G04 #@! TD*
D13*
G04 #@! TO.C,MX9*
X390525000Y-247650000D03*
D12*
X385445000Y-247650000D03*
X395605000Y-247650000D03*
D14*
X378618750Y-240665000D03*
X402431250Y-240665000D03*
D13*
X378618750Y-255905000D03*
X402431250Y-255905000D03*
G04 #@! TD*
G04 #@! TO.C,MX500_alt2*
X28575000Y-247650000D03*
D12*
X23495000Y-247650000D03*
X33655000Y-247650000D03*
G04 #@! TD*
D13*
G04 #@! TO.C,MX100_alt1*
X47625000Y-247650000D03*
D12*
X52705000Y-247650000D03*
X42545000Y-247650000D03*
G04 #@! TD*
D15*
G04 #@! TO.C,U2*
X426325000Y-245468000D03*
D16*
X428625000Y-240868000D03*
X428625000Y-247868000D03*
D15*
X426325000Y-242468000D03*
X426325000Y-249468000D03*
X430925000Y-250568000D03*
G04 #@! TD*
D13*
G04 #@! TO.C,MX104*
X204787500Y-247650000D03*
D12*
X199707500Y-247650000D03*
X209867500Y-247650000D03*
G04 #@! TD*
D13*
G04 #@! TO.C,MX100*
X38100000Y-247650000D03*
D12*
X33020000Y-247650000D03*
X43180000Y-247650000D03*
D14*
X26193750Y-240665000D03*
X50006250Y-240665000D03*
D13*
X26193750Y-255905000D03*
X50006250Y-255905000D03*
G04 #@! TD*
G04 #@! TO.C,MX508*
X361950000Y-285750000D03*
D12*
X356870000Y-285750000D03*
X367030000Y-285750000D03*
G04 #@! TD*
D10*
G04 #@! TO.C,J1*
X190932000Y-244913000D03*
X192532000Y-244913000D03*
X194132000Y-244913000D03*
X191732000Y-243713000D03*
X193332000Y-243713000D03*
D17*
X196182000Y-239863000D03*
X188882000Y-239863000D03*
G04 #@! TD*
D13*
G04 #@! TO.C,MX410*
X427513750Y-264287000D03*
X427513750Y-288163000D03*
D14*
X442753750Y-264287000D03*
X442753750Y-288163000D03*
D12*
X435768750Y-281305000D03*
X435768750Y-271145000D03*
D13*
X435768750Y-276225000D03*
G04 #@! TD*
G04 #@! TO.C,MX305*
X242887500Y-266700000D03*
D12*
X237807500Y-266700000D03*
X247967500Y-266700000D03*
G04 #@! TD*
D13*
G04 #@! TO.C,MX306*
X285750000Y-266700000D03*
D12*
X280670000Y-266700000D03*
X290830000Y-266700000D03*
G04 #@! TD*
D13*
G04 #@! TO.C,MX808*
X342900000Y-323850000D03*
D12*
X337820000Y-323850000D03*
X347980000Y-323850000D03*
G04 #@! TD*
D13*
G04 #@! TO.C,MX102*
X123825000Y-247650000D03*
D12*
X118745000Y-247650000D03*
X128905000Y-247650000D03*
G04 #@! TD*
D13*
G04 #@! TO.C,MX801*
X57150000Y-323850000D03*
D12*
X52070000Y-323850000D03*
X62230000Y-323850000D03*
G04 #@! TD*
D13*
G04 #@! TO.C,MX601*
X50006250Y-304800000D03*
D12*
X44926250Y-304800000D03*
X55086250Y-304800000D03*
D14*
X38100000Y-297815000D03*
X61912500Y-297815000D03*
D13*
X38100000Y-313055000D03*
X61912500Y-313055000D03*
G04 #@! TD*
G04 #@! TO.C,MX904*
X202406250Y-328612500D03*
D12*
X197326250Y-328612500D03*
X207486250Y-328612500D03*
D14*
X190500000Y-321627500D03*
X214312500Y-321627500D03*
D13*
X190500000Y-336867500D03*
X214312500Y-336867500D03*
G04 #@! TD*
G04 #@! TO.C,MX906*
X288131250Y-328612500D03*
D12*
X283051250Y-328612500D03*
X293211250Y-328612500D03*
G04 #@! TD*
D13*
G04 #@! TO.C,MX903*
X159543750Y-328612500D03*
D12*
X154463750Y-328612500D03*
X164623750Y-328612500D03*
G04 #@! TD*
D13*
G04 #@! TO.C,MX609*
X388143750Y-304800000D03*
D12*
X383063750Y-304800000D03*
X393223750Y-304800000D03*
G04 #@! TD*
D13*
G04 #@! TO.C,MX509*
X407193750Y-285750000D03*
D12*
X402113750Y-285750000D03*
X412273750Y-285750000D03*
G04 #@! TD*
D13*
G04 #@! TO.C,MX400*
X11906250Y-285750000D03*
D12*
X6826250Y-285750000D03*
X16986250Y-285750000D03*
G04 #@! TD*
D13*
G04 #@! TO.C,MX901*
X83343750Y-323850000D03*
D12*
X78263750Y-323850000D03*
X88423750Y-323850000D03*
G04 #@! TD*
D13*
G04 #@! TO.C,MX802*
X107156250Y-323850000D03*
D12*
X102076250Y-323850000D03*
X112236250Y-323850000D03*
G04 #@! TD*
D13*
G04 #@! TO.C,MX908*
X371475000Y-323850000D03*
D12*
X366395000Y-323850000D03*
X376555000Y-323850000D03*
G04 #@! TD*
D13*
G04 #@! TO.C,MX300*
X33337500Y-266700000D03*
D12*
X28257500Y-266700000D03*
X38417500Y-266700000D03*
G04 #@! TD*
D13*
G04 #@! TO.C,MX209*
X385762500Y-266700000D03*
D12*
X380682500Y-266700000D03*
X390842500Y-266700000D03*
G04 #@! TD*
D13*
G04 #@! TO.C,MX201*
X61912500Y-266700000D03*
D12*
X56832500Y-266700000D03*
X66992500Y-266700000D03*
G04 #@! TD*
D13*
G04 #@! TO.C,MX905*
X250031250Y-328612500D03*
D12*
X244951250Y-328612500D03*
X255111250Y-328612500D03*
D14*
X238125000Y-321627500D03*
X261937500Y-321627500D03*
D13*
X238125000Y-336867500D03*
X261937500Y-336867500D03*
G04 #@! TD*
G04 #@! TO.C,MX401*
X54768750Y-285750000D03*
D12*
X49688750Y-285750000D03*
X59848750Y-285750000D03*
D14*
X42862500Y-278765000D03*
X66675000Y-278765000D03*
D13*
X42862500Y-294005000D03*
X66675000Y-294005000D03*
G04 #@! TD*
G04 #@! TO.C,MX602*
X104775000Y-304800000D03*
D12*
X99695000Y-304800000D03*
X109855000Y-304800000D03*
G04 #@! TD*
D13*
G04 #@! TO.C,MX702*
X123825000Y-304800000D03*
D12*
X118745000Y-304800000D03*
X128905000Y-304800000D03*
G04 #@! TD*
D13*
G04 #@! TO.C,MX502*
X123825000Y-285750000D03*
D12*
X118745000Y-285750000D03*
X128905000Y-285750000D03*
G04 #@! TD*
D13*
G04 #@! TO.C,MX909*
X419100000Y-328612500D03*
D12*
X414020000Y-328612500D03*
X424180000Y-328612500D03*
G04 #@! TD*
D13*
G04 #@! TO.C,MX907*
X314325000Y-328612500D03*
D12*
X309245000Y-328612500D03*
X319405000Y-328612500D03*
G04 #@! TD*
D13*
G04 #@! TO.C,MX902*
X133350000Y-328612500D03*
D12*
X128270000Y-328612500D03*
X138430000Y-328612500D03*
G04 #@! TD*
D13*
G04 #@! TO.C,MX900*
X28575000Y-328612500D03*
D12*
X23495000Y-328612500D03*
X33655000Y-328612500D03*
G04 #@! TD*
D13*
G04 #@! TO.C,MX810*
X438150000Y-328612500D03*
D12*
X433070000Y-328612500D03*
X443230000Y-328612500D03*
G04 #@! TD*
D13*
G04 #@! TO.C,MX809*
X400050000Y-328612500D03*
D12*
X394970000Y-328612500D03*
X405130000Y-328612500D03*
G04 #@! TD*
D13*
G04 #@! TO.C,MX800*
X9525000Y-328612500D03*
D12*
X4445000Y-328612500D03*
X14605000Y-328612500D03*
G04 #@! TD*
D13*
G04 #@! TO.C,MX709*
X419100000Y-309562500D03*
D12*
X414020000Y-309562500D03*
X424180000Y-309562500D03*
G04 #@! TD*
D13*
G04 #@! TO.C,MX708*
X361950000Y-304800000D03*
D12*
X356870000Y-304800000D03*
X367030000Y-304800000D03*
G04 #@! TD*
D13*
G04 #@! TO.C,MX707*
X323850000Y-304800000D03*
D12*
X318770000Y-304800000D03*
X328930000Y-304800000D03*
G04 #@! TD*
D13*
G04 #@! TO.C,MX706*
X285750000Y-304800000D03*
D12*
X280670000Y-304800000D03*
X290830000Y-304800000D03*
G04 #@! TD*
D13*
G04 #@! TO.C,MX705*
X242887500Y-304800000D03*
D12*
X237807500Y-304800000D03*
X247967500Y-304800000D03*
G04 #@! TD*
D13*
G04 #@! TO.C,MX704*
X204787500Y-304800000D03*
D12*
X199707500Y-304800000D03*
X209867500Y-304800000D03*
G04 #@! TD*
D13*
G04 #@! TO.C,MX703*
X161925000Y-304800000D03*
D12*
X156845000Y-304800000D03*
X167005000Y-304800000D03*
G04 #@! TD*
D13*
G04 #@! TO.C,MX701*
X85725000Y-304800000D03*
D12*
X80645000Y-304800000D03*
X90805000Y-304800000D03*
G04 #@! TD*
D13*
G04 #@! TO.C,MX608*
X342900000Y-304800000D03*
D12*
X337820000Y-304800000D03*
X347980000Y-304800000D03*
G04 #@! TD*
D13*
G04 #@! TO.C,MX607*
X304800000Y-304800000D03*
D12*
X299720000Y-304800000D03*
X309880000Y-304800000D03*
G04 #@! TD*
D13*
G04 #@! TO.C,MX606*
X266700000Y-304800000D03*
D12*
X261620000Y-304800000D03*
X271780000Y-304800000D03*
G04 #@! TD*
D13*
G04 #@! TO.C,MX605*
X223837500Y-304800000D03*
D12*
X218757500Y-304800000D03*
X228917500Y-304800000D03*
G04 #@! TD*
D13*
G04 #@! TO.C,MX604*
X180975000Y-304800000D03*
D12*
X175895000Y-304800000D03*
X186055000Y-304800000D03*
G04 #@! TD*
D13*
G04 #@! TO.C,MX603*
X142875000Y-304800000D03*
D12*
X137795000Y-304800000D03*
X147955000Y-304800000D03*
G04 #@! TD*
D13*
G04 #@! TO.C,MX600*
X9525000Y-309562500D03*
D12*
X4445000Y-309562500D03*
X14605000Y-309562500D03*
G04 #@! TD*
D13*
G04 #@! TO.C,MX507*
X323850000Y-285750000D03*
D12*
X318770000Y-285750000D03*
X328930000Y-285750000D03*
G04 #@! TD*
D13*
G04 #@! TO.C,MX506*
X285750000Y-285750000D03*
D12*
X280670000Y-285750000D03*
X290830000Y-285750000D03*
G04 #@! TD*
D13*
G04 #@! TO.C,MX505*
X242887500Y-285750000D03*
D12*
X237807500Y-285750000D03*
X247967500Y-285750000D03*
G04 #@! TD*
D13*
G04 #@! TO.C,MX504*
X204787500Y-285750000D03*
D12*
X209867500Y-285750000D03*
X199707500Y-285750000D03*
G04 #@! TD*
D13*
G04 #@! TO.C,MX503*
X161925000Y-285750000D03*
D12*
X156845000Y-285750000D03*
X167005000Y-285750000D03*
G04 #@! TD*
D13*
G04 #@! TO.C,MX501*
X85725000Y-285750000D03*
D12*
X80645000Y-285750000D03*
X90805000Y-285750000D03*
G04 #@! TD*
D13*
G04 #@! TO.C,MX409*
X381000000Y-285750000D03*
D12*
X375920000Y-285750000D03*
X386080000Y-285750000D03*
G04 #@! TD*
D13*
G04 #@! TO.C,MX408*
X342900000Y-285750000D03*
D12*
X337820000Y-285750000D03*
X347980000Y-285750000D03*
G04 #@! TD*
D13*
G04 #@! TO.C,MX407*
X304800000Y-285750000D03*
D12*
X299720000Y-285750000D03*
X309880000Y-285750000D03*
G04 #@! TD*
D13*
G04 #@! TO.C,MX406*
X266700000Y-285750000D03*
D12*
X261620000Y-285750000D03*
X271780000Y-285750000D03*
G04 #@! TD*
D13*
G04 #@! TO.C,MX405*
X223837500Y-285750000D03*
D12*
X218757500Y-285750000D03*
X228917500Y-285750000D03*
G04 #@! TD*
D13*
G04 #@! TO.C,MX404*
X180975000Y-285750000D03*
D12*
X186055000Y-285750000D03*
X175895000Y-285750000D03*
G04 #@! TD*
D13*
G04 #@! TO.C,MX403*
X142875000Y-285750000D03*
D12*
X137795000Y-285750000D03*
X147955000Y-285750000D03*
G04 #@! TD*
D13*
G04 #@! TO.C,MX402*
X104775000Y-285750000D03*
D12*
X99695000Y-285750000D03*
X109855000Y-285750000D03*
G04 #@! TD*
D13*
G04 #@! TO.C,MX309*
X409575000Y-266700000D03*
D12*
X404495000Y-266700000D03*
X414655000Y-266700000D03*
G04 #@! TD*
D13*
G04 #@! TO.C,MX307*
X323850000Y-266700000D03*
D12*
X318770000Y-266700000D03*
X328930000Y-266700000D03*
G04 #@! TD*
D13*
G04 #@! TO.C,MX304*
X204787500Y-266700000D03*
D12*
X199707500Y-266700000D03*
X209867500Y-266700000D03*
G04 #@! TD*
D13*
G04 #@! TO.C,MX303*
X161925000Y-266700000D03*
D12*
X156845000Y-266700000D03*
X167005000Y-266700000D03*
G04 #@! TD*
D13*
G04 #@! TO.C,MX302*
X123825000Y-266700000D03*
D12*
X118745000Y-266700000D03*
X128905000Y-266700000D03*
G04 #@! TD*
D13*
G04 #@! TO.C,MX301*
X85725000Y-266700000D03*
D12*
X80645000Y-266700000D03*
X90805000Y-266700000D03*
G04 #@! TD*
D13*
G04 #@! TO.C,MX208*
X342900000Y-266700000D03*
D12*
X337820000Y-266700000D03*
X347980000Y-266700000D03*
G04 #@! TD*
D13*
G04 #@! TO.C,MX207*
X304800000Y-266700000D03*
D12*
X299720000Y-266700000D03*
X309880000Y-266700000D03*
G04 #@! TD*
D13*
G04 #@! TO.C,MX206*
X266700000Y-266700000D03*
D12*
X261620000Y-266700000D03*
X271780000Y-266700000D03*
G04 #@! TD*
D13*
G04 #@! TO.C,MX205*
X223837500Y-266700000D03*
D12*
X218757500Y-266700000D03*
X228917500Y-266700000D03*
G04 #@! TD*
D13*
G04 #@! TO.C,MX204*
X180975000Y-266700000D03*
D12*
X175895000Y-266700000D03*
X186055000Y-266700000D03*
G04 #@! TD*
D13*
G04 #@! TO.C,MX203*
X142875000Y-266700000D03*
D12*
X137795000Y-266700000D03*
X147955000Y-266700000D03*
G04 #@! TD*
D13*
G04 #@! TO.C,MX202*
X104775000Y-266700000D03*
D12*
X99695000Y-266700000D03*
X109855000Y-266700000D03*
G04 #@! TD*
D13*
G04 #@! TO.C,MX200*
X9525000Y-266700000D03*
D12*
X4445000Y-266700000D03*
X14605000Y-266700000D03*
G04 #@! TD*
D13*
G04 #@! TO.C,MX109*
X419100000Y-247650000D03*
D12*
X424180000Y-247650000D03*
X414020000Y-247650000D03*
G04 #@! TD*
D13*
G04 #@! TO.C,MX108*
X361950000Y-247650000D03*
D12*
X356870000Y-247650000D03*
X367030000Y-247650000D03*
G04 #@! TD*
D13*
G04 #@! TO.C,MX107*
X323850000Y-247650000D03*
D12*
X318770000Y-247650000D03*
X328930000Y-247650000D03*
G04 #@! TD*
D13*
G04 #@! TO.C,MX106*
X285750000Y-247650000D03*
D12*
X280670000Y-247650000D03*
X290830000Y-247650000D03*
G04 #@! TD*
D13*
G04 #@! TO.C,MX105*
X242887500Y-247650000D03*
D12*
X237807500Y-247650000D03*
X247967500Y-247650000D03*
G04 #@! TD*
D13*
G04 #@! TO.C,MX103*
X161925000Y-247650000D03*
D12*
X156845000Y-247650000D03*
X167005000Y-247650000D03*
G04 #@! TD*
D13*
G04 #@! TO.C,MX101*
X85725000Y-247650000D03*
D12*
X80645000Y-247650000D03*
X90805000Y-247650000D03*
G04 #@! TD*
D13*
G04 #@! TO.C,MX10*
X438150000Y-247650000D03*
D12*
X433070000Y-247650000D03*
X443230000Y-247650000D03*
G04 #@! TD*
D13*
G04 #@! TO.C,MX8*
X342900000Y-247650000D03*
D12*
X337820000Y-247650000D03*
X347980000Y-247650000D03*
G04 #@! TD*
D13*
G04 #@! TO.C,MX7*
X304800000Y-247650000D03*
D12*
X299720000Y-247650000D03*
X309880000Y-247650000D03*
G04 #@! TD*
D13*
G04 #@! TO.C,MX6*
X266700000Y-247650000D03*
D12*
X261620000Y-247650000D03*
X271780000Y-247650000D03*
G04 #@! TD*
D13*
G04 #@! TO.C,MX5*
X223837500Y-247650000D03*
D12*
X218757500Y-247650000D03*
X228917500Y-247650000D03*
G04 #@! TD*
D13*
G04 #@! TO.C,MX4*
X180975000Y-247650000D03*
D12*
X175895000Y-247650000D03*
X186055000Y-247650000D03*
G04 #@! TD*
D13*
G04 #@! TO.C,MX3*
X142875000Y-247650000D03*
D12*
X137795000Y-247650000D03*
X147955000Y-247650000D03*
G04 #@! TD*
D13*
G04 #@! TO.C,MX2*
X104775000Y-247650000D03*
D12*
X99695000Y-247650000D03*
X109855000Y-247650000D03*
G04 #@! TD*
D13*
G04 #@! TO.C,MX1*
X66675000Y-247650000D03*
D12*
X61595000Y-247650000D03*
X71755000Y-247650000D03*
G04 #@! TD*
D13*
G04 #@! TO.C,MX0*
X9525000Y-247650000D03*
D12*
X4445000Y-247650000D03*
X14605000Y-247650000D03*
G04 #@! TD*
D13*
G04 #@! TO.C,MX308*
X361950000Y-266700000D03*
D12*
X356870000Y-266700000D03*
X367030000Y-266700000D03*
G04 #@! TD*
M02*
