G04 #@! TF.GenerationSoftware,KiCad,Pcbnew,(5.1.6)-1*
G04 #@! TF.CreationDate,2020-07-14T12:30:16-04:00*
G04 #@! TF.ProjectId,railroad-keyboard-pcb-only,7261696c-726f-4616-942d-6b6579626f61,rev?*
G04 #@! TF.SameCoordinates,Original*
G04 #@! TF.FileFunction,Soldermask,Bot*
G04 #@! TF.FilePolarity,Negative*
%FSLAX46Y46*%
G04 Gerber Fmt 4.6, Leading zero omitted, Abs format (unit mm)*
G04 Created by KiCad (PCBNEW (5.1.6)-1) date 2020-07-14 12:30:16*
%MOMM*%
%LPD*%
G01*
G04 APERTURE LIST*
%ADD10C,1.300000*%
%ADD11C,2.200000*%
%ADD12C,1.850000*%
%ADD13C,2.350000*%
%ADD14C,4.087800*%
%ADD15C,3.148000*%
%ADD16R,1.300000X1.000000*%
%ADD17O,1.700000X2.100000*%
%ADD18C,0.900000*%
%ADD19O,1.308000X2.516000*%
%ADD20R,1.300000X1.500000*%
%ADD21R,0.650000X1.600000*%
%ADD22R,1.600000X0.650000*%
%ADD23R,1.000000X1.300000*%
G04 APERTURE END LIST*
D10*
G04 #@! TO.C,SW1*
X18375000Y-239709000D03*
D11*
X21875000Y-243409000D03*
D12*
X20875000Y-240919000D03*
X15875000Y-240919000D03*
D11*
X14865000Y-243409000D03*
G04 #@! TD*
D13*
G04 #@! TO.C,MX9*
X393065000Y-242570000D03*
D14*
X390525000Y-247650000D03*
D13*
X386715000Y-245110000D03*
D12*
X385445000Y-247650000D03*
X395605000Y-247650000D03*
D15*
X378618750Y-240665000D03*
X402431250Y-240665000D03*
D14*
X378618750Y-255905000D03*
X402431250Y-255905000D03*
G04 #@! TD*
D13*
G04 #@! TO.C,MX500_alt2*
X31115000Y-242570000D03*
D14*
X28575000Y-247650000D03*
D13*
X24765000Y-245110000D03*
D12*
X23495000Y-247650000D03*
X33655000Y-247650000D03*
G04 #@! TD*
D13*
G04 #@! TO.C,MX100_alt1*
X45085000Y-252730000D03*
D14*
X47625000Y-247650000D03*
D13*
X51435000Y-250190000D03*
D12*
X52705000Y-247650000D03*
X42545000Y-247650000D03*
G04 #@! TD*
D16*
G04 #@! TO.C,D500*
X20859750Y-290069000D03*
X20859750Y-293369000D03*
G04 #@! TD*
D17*
G04 #@! TO.C,U2*
X426325000Y-245468000D03*
D18*
X428625000Y-240868000D03*
X428625000Y-247868000D03*
D17*
X426325000Y-242468000D03*
X426325000Y-249468000D03*
X430925000Y-250568000D03*
G04 #@! TD*
D13*
G04 #@! TO.C,MX104*
X207327500Y-242570000D03*
D14*
X204787500Y-247650000D03*
D13*
X200977500Y-245110000D03*
D12*
X199707500Y-247650000D03*
X209867500Y-247650000D03*
G04 #@! TD*
D13*
G04 #@! TO.C,MX100*
X40640000Y-242570000D03*
D14*
X38100000Y-247650000D03*
D13*
X34290000Y-245110000D03*
D12*
X33020000Y-247650000D03*
X43180000Y-247650000D03*
D15*
X26193750Y-240665000D03*
X50006250Y-240665000D03*
D14*
X26193750Y-255905000D03*
X50006250Y-255905000D03*
G04 #@! TD*
G04 #@! TO.C,R8*
G36*
G01*
X409040250Y-250219500D02*
X408077750Y-250219500D01*
G75*
G02*
X407809000Y-249950750I0J268750D01*
G01*
X407809000Y-249413250D01*
G75*
G02*
X408077750Y-249144500I268750J0D01*
G01*
X409040250Y-249144500D01*
G75*
G02*
X409309000Y-249413250I0J-268750D01*
G01*
X409309000Y-249950750D01*
G75*
G02*
X409040250Y-250219500I-268750J0D01*
G01*
G37*
G36*
G01*
X409040250Y-252094500D02*
X408077750Y-252094500D01*
G75*
G02*
X407809000Y-251825750I0J268750D01*
G01*
X407809000Y-251288250D01*
G75*
G02*
X408077750Y-251019500I268750J0D01*
G01*
X409040250Y-251019500D01*
G75*
G02*
X409309000Y-251288250I0J-268750D01*
G01*
X409309000Y-251825750D01*
G75*
G02*
X409040250Y-252094500I-268750J0D01*
G01*
G37*
G04 #@! TD*
G04 #@! TO.C,R7*
G36*
G01*
X406373250Y-250249500D02*
X405410750Y-250249500D01*
G75*
G02*
X405142000Y-249980750I0J268750D01*
G01*
X405142000Y-249443250D01*
G75*
G02*
X405410750Y-249174500I268750J0D01*
G01*
X406373250Y-249174500D01*
G75*
G02*
X406642000Y-249443250I0J-268750D01*
G01*
X406642000Y-249980750D01*
G75*
G02*
X406373250Y-250249500I-268750J0D01*
G01*
G37*
G36*
G01*
X406373250Y-252124500D02*
X405410750Y-252124500D01*
G75*
G02*
X405142000Y-251855750I0J268750D01*
G01*
X405142000Y-251318250D01*
G75*
G02*
X405410750Y-251049500I268750J0D01*
G01*
X406373250Y-251049500D01*
G75*
G02*
X406642000Y-251318250I0J-268750D01*
G01*
X406642000Y-251855750D01*
G75*
G02*
X406373250Y-252124500I-268750J0D01*
G01*
G37*
G04 #@! TD*
G04 #@! TO.C,R6*
G36*
G01*
X195768250Y-285014750D02*
X195768250Y-285977250D01*
G75*
G02*
X195499500Y-286246000I-268750J0D01*
G01*
X194962000Y-286246000D01*
G75*
G02*
X194693250Y-285977250I0J268750D01*
G01*
X194693250Y-285014750D01*
G75*
G02*
X194962000Y-284746000I268750J0D01*
G01*
X195499500Y-284746000D01*
G75*
G02*
X195768250Y-285014750I0J-268750D01*
G01*
G37*
G36*
G01*
X197643250Y-285014750D02*
X197643250Y-285977250D01*
G75*
G02*
X197374500Y-286246000I-268750J0D01*
G01*
X196837000Y-286246000D01*
G75*
G02*
X196568250Y-285977250I0J268750D01*
G01*
X196568250Y-285014750D01*
G75*
G02*
X196837000Y-284746000I268750J0D01*
G01*
X197374500Y-284746000D01*
G75*
G02*
X197643250Y-285014750I0J-268750D01*
G01*
G37*
G04 #@! TD*
G04 #@! TO.C,R5*
G36*
G01*
X186335750Y-243145500D02*
X187298250Y-243145500D01*
G75*
G02*
X187567000Y-243414250I0J-268750D01*
G01*
X187567000Y-243951750D01*
G75*
G02*
X187298250Y-244220500I-268750J0D01*
G01*
X186335750Y-244220500D01*
G75*
G02*
X186067000Y-243951750I0J268750D01*
G01*
X186067000Y-243414250D01*
G75*
G02*
X186335750Y-243145500I268750J0D01*
G01*
G37*
G36*
G01*
X186335750Y-241270500D02*
X187298250Y-241270500D01*
G75*
G02*
X187567000Y-241539250I0J-268750D01*
G01*
X187567000Y-242076750D01*
G75*
G02*
X187298250Y-242345500I-268750J0D01*
G01*
X186335750Y-242345500D01*
G75*
G02*
X186067000Y-242076750I0J268750D01*
G01*
X186067000Y-241539250D01*
G75*
G02*
X186335750Y-241270500I268750J0D01*
G01*
G37*
G04 #@! TD*
D13*
G04 #@! TO.C,MX508*
X364490000Y-280670000D03*
D14*
X361950000Y-285750000D03*
D13*
X358140000Y-283210000D03*
D12*
X356870000Y-285750000D03*
X367030000Y-285750000D03*
G04 #@! TD*
D10*
G04 #@! TO.C,J1*
X190932000Y-244913000D03*
X192532000Y-244913000D03*
X194132000Y-244913000D03*
X191732000Y-243713000D03*
X193332000Y-243713000D03*
D19*
X196182000Y-239863000D03*
X188882000Y-239863000D03*
G04 #@! TD*
G04 #@! TO.C,C8*
G36*
G01*
X186486750Y-240384250D02*
X186486750Y-239421750D01*
G75*
G02*
X186755500Y-239153000I268750J0D01*
G01*
X187293000Y-239153000D01*
G75*
G02*
X187561750Y-239421750I0J-268750D01*
G01*
X187561750Y-240384250D01*
G75*
G02*
X187293000Y-240653000I-268750J0D01*
G01*
X186755500Y-240653000D01*
G75*
G02*
X186486750Y-240384250I0J268750D01*
G01*
G37*
G36*
G01*
X184611750Y-240384250D02*
X184611750Y-239421750D01*
G75*
G02*
X184880500Y-239153000I268750J0D01*
G01*
X185418000Y-239153000D01*
G75*
G02*
X185686750Y-239421750I0J-268750D01*
G01*
X185686750Y-240384250D01*
G75*
G02*
X185418000Y-240653000I-268750J0D01*
G01*
X184880500Y-240653000D01*
G75*
G02*
X184611750Y-240384250I0J268750D01*
G01*
G37*
G04 #@! TD*
G04 #@! TO.C,C7*
G36*
G01*
X176027000Y-280856500D02*
X175064500Y-280856500D01*
G75*
G02*
X174795750Y-280587750I0J268750D01*
G01*
X174795750Y-280050250D01*
G75*
G02*
X175064500Y-279781500I268750J0D01*
G01*
X176027000Y-279781500D01*
G75*
G02*
X176295750Y-280050250I0J-268750D01*
G01*
X176295750Y-280587750D01*
G75*
G02*
X176027000Y-280856500I-268750J0D01*
G01*
G37*
G36*
G01*
X176027000Y-282731500D02*
X175064500Y-282731500D01*
G75*
G02*
X174795750Y-282462750I0J268750D01*
G01*
X174795750Y-281925250D01*
G75*
G02*
X175064500Y-281656500I268750J0D01*
G01*
X176027000Y-281656500D01*
G75*
G02*
X176295750Y-281925250I0J-268750D01*
G01*
X176295750Y-282462750D01*
G75*
G02*
X176027000Y-282731500I-268750J0D01*
G01*
G37*
G04 #@! TD*
G04 #@! TO.C,C6*
G36*
G01*
X177985500Y-276830500D02*
X178948000Y-276830500D01*
G75*
G02*
X179216750Y-277099250I0J-268750D01*
G01*
X179216750Y-277636750D01*
G75*
G02*
X178948000Y-277905500I-268750J0D01*
G01*
X177985500Y-277905500D01*
G75*
G02*
X177716750Y-277636750I0J268750D01*
G01*
X177716750Y-277099250D01*
G75*
G02*
X177985500Y-276830500I268750J0D01*
G01*
G37*
G36*
G01*
X177985500Y-274955500D02*
X178948000Y-274955500D01*
G75*
G02*
X179216750Y-275224250I0J-268750D01*
G01*
X179216750Y-275761750D01*
G75*
G02*
X178948000Y-276030500I-268750J0D01*
G01*
X177985500Y-276030500D01*
G75*
G02*
X177716750Y-275761750I0J268750D01*
G01*
X177716750Y-275224250D01*
G75*
G02*
X177985500Y-274955500I268750J0D01*
G01*
G37*
G04 #@! TD*
G04 #@! TO.C,C5*
G36*
G01*
X182123000Y-280856500D02*
X181160500Y-280856500D01*
G75*
G02*
X180891750Y-280587750I0J268750D01*
G01*
X180891750Y-280050250D01*
G75*
G02*
X181160500Y-279781500I268750J0D01*
G01*
X182123000Y-279781500D01*
G75*
G02*
X182391750Y-280050250I0J-268750D01*
G01*
X182391750Y-280587750D01*
G75*
G02*
X182123000Y-280856500I-268750J0D01*
G01*
G37*
G36*
G01*
X182123000Y-282731500D02*
X181160500Y-282731500D01*
G75*
G02*
X180891750Y-282462750I0J268750D01*
G01*
X180891750Y-281925250D01*
G75*
G02*
X181160500Y-281656500I268750J0D01*
G01*
X182123000Y-281656500D01*
G75*
G02*
X182391750Y-281925250I0J-268750D01*
G01*
X182391750Y-282462750D01*
G75*
G02*
X182123000Y-282731500I-268750J0D01*
G01*
G37*
G04 #@! TD*
G04 #@! TO.C,C4*
G36*
G01*
X178948000Y-280826500D02*
X177985500Y-280826500D01*
G75*
G02*
X177716750Y-280557750I0J268750D01*
G01*
X177716750Y-280020250D01*
G75*
G02*
X177985500Y-279751500I268750J0D01*
G01*
X178948000Y-279751500D01*
G75*
G02*
X179216750Y-280020250I0J-268750D01*
G01*
X179216750Y-280557750D01*
G75*
G02*
X178948000Y-280826500I-268750J0D01*
G01*
G37*
G36*
G01*
X178948000Y-282701500D02*
X177985500Y-282701500D01*
G75*
G02*
X177716750Y-282432750I0J268750D01*
G01*
X177716750Y-281895250D01*
G75*
G02*
X177985500Y-281626500I268750J0D01*
G01*
X178948000Y-281626500D01*
G75*
G02*
X179216750Y-281895250I0J-268750D01*
G01*
X179216750Y-282432750D01*
G75*
G02*
X178948000Y-282701500I-268750J0D01*
G01*
G37*
G04 #@! TD*
G04 #@! TO.C,C3*
G36*
G01*
X181128750Y-278227500D02*
X182091250Y-278227500D01*
G75*
G02*
X182360000Y-278496250I0J-268750D01*
G01*
X182360000Y-279033750D01*
G75*
G02*
X182091250Y-279302500I-268750J0D01*
G01*
X181128750Y-279302500D01*
G75*
G02*
X180860000Y-279033750I0J268750D01*
G01*
X180860000Y-278496250D01*
G75*
G02*
X181128750Y-278227500I268750J0D01*
G01*
G37*
G36*
G01*
X181128750Y-276352500D02*
X182091250Y-276352500D01*
G75*
G02*
X182360000Y-276621250I0J-268750D01*
G01*
X182360000Y-277158750D01*
G75*
G02*
X182091250Y-277427500I-268750J0D01*
G01*
X181128750Y-277427500D01*
G75*
G02*
X180860000Y-277158750I0J268750D01*
G01*
X180860000Y-276621250D01*
G75*
G02*
X181128750Y-276352500I268750J0D01*
G01*
G37*
G04 #@! TD*
G04 #@! TO.C,C2*
G36*
G01*
X189584250Y-266221500D02*
X188621750Y-266221500D01*
G75*
G02*
X188353000Y-265952750I0J268750D01*
G01*
X188353000Y-265415250D01*
G75*
G02*
X188621750Y-265146500I268750J0D01*
G01*
X189584250Y-265146500D01*
G75*
G02*
X189853000Y-265415250I0J-268750D01*
G01*
X189853000Y-265952750D01*
G75*
G02*
X189584250Y-266221500I-268750J0D01*
G01*
G37*
G36*
G01*
X189584250Y-268096500D02*
X188621750Y-268096500D01*
G75*
G02*
X188353000Y-267827750I0J268750D01*
G01*
X188353000Y-267290250D01*
G75*
G02*
X188621750Y-267021500I268750J0D01*
G01*
X189584250Y-267021500D01*
G75*
G02*
X189853000Y-267290250I0J-268750D01*
G01*
X189853000Y-267827750D01*
G75*
G02*
X189584250Y-268096500I-268750J0D01*
G01*
G37*
G04 #@! TD*
G04 #@! TO.C,C1*
G36*
G01*
X191545500Y-262662750D02*
X191545500Y-263625250D01*
G75*
G02*
X191276750Y-263894000I-268750J0D01*
G01*
X190739250Y-263894000D01*
G75*
G02*
X190470500Y-263625250I0J268750D01*
G01*
X190470500Y-262662750D01*
G75*
G02*
X190739250Y-262394000I268750J0D01*
G01*
X191276750Y-262394000D01*
G75*
G02*
X191545500Y-262662750I0J-268750D01*
G01*
G37*
G36*
G01*
X193420500Y-262662750D02*
X193420500Y-263625250D01*
G75*
G02*
X193151750Y-263894000I-268750J0D01*
G01*
X192614250Y-263894000D01*
G75*
G02*
X192345500Y-263625250I0J268750D01*
G01*
X192345500Y-262662750D01*
G75*
G02*
X192614250Y-262394000I268750J0D01*
G01*
X193151750Y-262394000D01*
G75*
G02*
X193420500Y-262662750I0J-268750D01*
G01*
G37*
G04 #@! TD*
D14*
G04 #@! TO.C,MX410*
X427513750Y-264287000D03*
X427513750Y-288163000D03*
D15*
X442753750Y-264287000D03*
X442753750Y-288163000D03*
D12*
X435768750Y-281305000D03*
X435768750Y-271145000D03*
D13*
X438308750Y-272415000D03*
D14*
X435768750Y-276225000D03*
D13*
X440848750Y-278765000D03*
G04 #@! TD*
G04 #@! TO.C,MX305*
X245427500Y-261620000D03*
D14*
X242887500Y-266700000D03*
D13*
X239077500Y-264160000D03*
D12*
X237807500Y-266700000D03*
X247967500Y-266700000D03*
G04 #@! TD*
D13*
G04 #@! TO.C,MX306*
X288290000Y-261620000D03*
D14*
X285750000Y-266700000D03*
D13*
X281940000Y-264160000D03*
D12*
X280670000Y-266700000D03*
X290830000Y-266700000D03*
G04 #@! TD*
D13*
G04 #@! TO.C,MX808*
X345440000Y-318770000D03*
D14*
X342900000Y-323850000D03*
D13*
X339090000Y-321310000D03*
D12*
X337820000Y-323850000D03*
X347980000Y-323850000D03*
G04 #@! TD*
D13*
G04 #@! TO.C,MX102*
X126365000Y-242570000D03*
D14*
X123825000Y-247650000D03*
D13*
X120015000Y-245110000D03*
D12*
X118745000Y-247650000D03*
X128905000Y-247650000D03*
G04 #@! TD*
D13*
G04 #@! TO.C,MX801*
X59690000Y-318770000D03*
D14*
X57150000Y-323850000D03*
D13*
X53340000Y-321310000D03*
D12*
X52070000Y-323850000D03*
X62230000Y-323850000D03*
G04 #@! TD*
D13*
G04 #@! TO.C,MX601*
X52546250Y-299720000D03*
D14*
X50006250Y-304800000D03*
D13*
X46196250Y-302260000D03*
D12*
X44926250Y-304800000D03*
X55086250Y-304800000D03*
D15*
X38100000Y-297815000D03*
X61912500Y-297815000D03*
D14*
X38100000Y-313055000D03*
X61912500Y-313055000D03*
G04 #@! TD*
D13*
G04 #@! TO.C,MX904*
X204946250Y-323532500D03*
D14*
X202406250Y-328612500D03*
D13*
X198596250Y-326072500D03*
D12*
X197326250Y-328612500D03*
X207486250Y-328612500D03*
D15*
X190500000Y-321627500D03*
X214312500Y-321627500D03*
D14*
X190500000Y-336867500D03*
X214312500Y-336867500D03*
G04 #@! TD*
D13*
G04 #@! TO.C,MX906*
X290671250Y-323532500D03*
D14*
X288131250Y-328612500D03*
D13*
X284321250Y-326072500D03*
D12*
X283051250Y-328612500D03*
X293211250Y-328612500D03*
G04 #@! TD*
D13*
G04 #@! TO.C,MX903*
X162083750Y-323532500D03*
D14*
X159543750Y-328612500D03*
D13*
X155733750Y-326072500D03*
D12*
X154463750Y-328612500D03*
X164623750Y-328612500D03*
G04 #@! TD*
D13*
G04 #@! TO.C,MX609*
X390683750Y-299720000D03*
D14*
X388143750Y-304800000D03*
D13*
X384333750Y-302260000D03*
D12*
X383063750Y-304800000D03*
X393223750Y-304800000D03*
G04 #@! TD*
D13*
G04 #@! TO.C,MX509*
X409733750Y-280670000D03*
D14*
X407193750Y-285750000D03*
D13*
X403383750Y-283210000D03*
D12*
X402113750Y-285750000D03*
X412273750Y-285750000D03*
G04 #@! TD*
D13*
G04 #@! TO.C,MX400*
X14446250Y-280670000D03*
D14*
X11906250Y-285750000D03*
D13*
X8096250Y-283210000D03*
D12*
X6826250Y-285750000D03*
X16986250Y-285750000D03*
G04 #@! TD*
D13*
G04 #@! TO.C,MX901*
X85883750Y-318770000D03*
D14*
X83343750Y-323850000D03*
D13*
X79533750Y-321310000D03*
D12*
X78263750Y-323850000D03*
X88423750Y-323850000D03*
G04 #@! TD*
D13*
G04 #@! TO.C,MX802*
X109696250Y-318770000D03*
D14*
X107156250Y-323850000D03*
D13*
X103346250Y-321310000D03*
D12*
X102076250Y-323850000D03*
X112236250Y-323850000D03*
G04 #@! TD*
D13*
G04 #@! TO.C,MX908*
X374015000Y-318770000D03*
D14*
X371475000Y-323850000D03*
D13*
X367665000Y-321310000D03*
D12*
X366395000Y-323850000D03*
X376555000Y-323850000D03*
G04 #@! TD*
D13*
G04 #@! TO.C,MX300*
X35877500Y-261620000D03*
D14*
X33337500Y-266700000D03*
D13*
X29527500Y-264160000D03*
D12*
X28257500Y-266700000D03*
X38417500Y-266700000D03*
G04 #@! TD*
D13*
G04 #@! TO.C,MX209*
X388302500Y-261620000D03*
D14*
X385762500Y-266700000D03*
D13*
X381952500Y-264160000D03*
D12*
X380682500Y-266700000D03*
X390842500Y-266700000D03*
G04 #@! TD*
D13*
G04 #@! TO.C,MX201*
X64452500Y-261620000D03*
D14*
X61912500Y-266700000D03*
D13*
X58102500Y-264160000D03*
D12*
X56832500Y-266700000D03*
X66992500Y-266700000D03*
G04 #@! TD*
D13*
G04 #@! TO.C,MX905*
X252571250Y-323532500D03*
D14*
X250031250Y-328612500D03*
D13*
X246221250Y-326072500D03*
D12*
X244951250Y-328612500D03*
X255111250Y-328612500D03*
D15*
X238125000Y-321627500D03*
X261937500Y-321627500D03*
D14*
X238125000Y-336867500D03*
X261937500Y-336867500D03*
G04 #@! TD*
D13*
G04 #@! TO.C,MX401*
X57308750Y-280670000D03*
D14*
X54768750Y-285750000D03*
D13*
X50958750Y-283210000D03*
D12*
X49688750Y-285750000D03*
X59848750Y-285750000D03*
D15*
X42862500Y-278765000D03*
X66675000Y-278765000D03*
D14*
X42862500Y-294005000D03*
X66675000Y-294005000D03*
G04 #@! TD*
D13*
G04 #@! TO.C,MX602*
X107315000Y-299720000D03*
D14*
X104775000Y-304800000D03*
D13*
X100965000Y-302260000D03*
D12*
X99695000Y-304800000D03*
X109855000Y-304800000D03*
G04 #@! TD*
D13*
G04 #@! TO.C,MX702*
X126365000Y-299720000D03*
D14*
X123825000Y-304800000D03*
D13*
X120015000Y-302260000D03*
D12*
X118745000Y-304800000D03*
X128905000Y-304800000D03*
G04 #@! TD*
D13*
G04 #@! TO.C,MX502*
X126365000Y-280670000D03*
D14*
X123825000Y-285750000D03*
D13*
X120015000Y-283210000D03*
D12*
X118745000Y-285750000D03*
X128905000Y-285750000D03*
G04 #@! TD*
D13*
G04 #@! TO.C,MX909*
X421640000Y-323532500D03*
D14*
X419100000Y-328612500D03*
D13*
X415290000Y-326072500D03*
D12*
X414020000Y-328612500D03*
X424180000Y-328612500D03*
G04 #@! TD*
D13*
G04 #@! TO.C,MX907*
X316865000Y-323532500D03*
D14*
X314325000Y-328612500D03*
D13*
X310515000Y-326072500D03*
D12*
X309245000Y-328612500D03*
X319405000Y-328612500D03*
G04 #@! TD*
D13*
G04 #@! TO.C,MX902*
X135890000Y-323532500D03*
D14*
X133350000Y-328612500D03*
D13*
X129540000Y-326072500D03*
D12*
X128270000Y-328612500D03*
X138430000Y-328612500D03*
G04 #@! TD*
D13*
G04 #@! TO.C,MX900*
X31115000Y-323532500D03*
D14*
X28575000Y-328612500D03*
D13*
X24765000Y-326072500D03*
D12*
X23495000Y-328612500D03*
X33655000Y-328612500D03*
G04 #@! TD*
D13*
G04 #@! TO.C,MX810*
X440690000Y-323532500D03*
D14*
X438150000Y-328612500D03*
D13*
X434340000Y-326072500D03*
D12*
X433070000Y-328612500D03*
X443230000Y-328612500D03*
G04 #@! TD*
D13*
G04 #@! TO.C,MX809*
X402590000Y-323532500D03*
D14*
X400050000Y-328612500D03*
D13*
X396240000Y-326072500D03*
D12*
X394970000Y-328612500D03*
X405130000Y-328612500D03*
G04 #@! TD*
D13*
G04 #@! TO.C,MX800*
X12065000Y-323532500D03*
D14*
X9525000Y-328612500D03*
D13*
X5715000Y-326072500D03*
D12*
X4445000Y-328612500D03*
X14605000Y-328612500D03*
G04 #@! TD*
D13*
G04 #@! TO.C,MX709*
X421640000Y-304482500D03*
D14*
X419100000Y-309562500D03*
D13*
X415290000Y-307022500D03*
D12*
X414020000Y-309562500D03*
X424180000Y-309562500D03*
G04 #@! TD*
D13*
G04 #@! TO.C,MX708*
X364490000Y-299720000D03*
D14*
X361950000Y-304800000D03*
D13*
X358140000Y-302260000D03*
D12*
X356870000Y-304800000D03*
X367030000Y-304800000D03*
G04 #@! TD*
D13*
G04 #@! TO.C,MX707*
X326390000Y-299720000D03*
D14*
X323850000Y-304800000D03*
D13*
X320040000Y-302260000D03*
D12*
X318770000Y-304800000D03*
X328930000Y-304800000D03*
G04 #@! TD*
D13*
G04 #@! TO.C,MX706*
X288290000Y-299720000D03*
D14*
X285750000Y-304800000D03*
D13*
X281940000Y-302260000D03*
D12*
X280670000Y-304800000D03*
X290830000Y-304800000D03*
G04 #@! TD*
D13*
G04 #@! TO.C,MX705*
X245427500Y-299720000D03*
D14*
X242887500Y-304800000D03*
D13*
X239077500Y-302260000D03*
D12*
X237807500Y-304800000D03*
X247967500Y-304800000D03*
G04 #@! TD*
D13*
G04 #@! TO.C,MX704*
X207327500Y-299720000D03*
D14*
X204787500Y-304800000D03*
D13*
X200977500Y-302260000D03*
D12*
X199707500Y-304800000D03*
X209867500Y-304800000D03*
G04 #@! TD*
D13*
G04 #@! TO.C,MX703*
X164465000Y-299720000D03*
D14*
X161925000Y-304800000D03*
D13*
X158115000Y-302260000D03*
D12*
X156845000Y-304800000D03*
X167005000Y-304800000D03*
G04 #@! TD*
D13*
G04 #@! TO.C,MX701*
X88265000Y-299720000D03*
D14*
X85725000Y-304800000D03*
D13*
X81915000Y-302260000D03*
D12*
X80645000Y-304800000D03*
X90805000Y-304800000D03*
G04 #@! TD*
D13*
G04 #@! TO.C,MX608*
X345440000Y-299720000D03*
D14*
X342900000Y-304800000D03*
D13*
X339090000Y-302260000D03*
D12*
X337820000Y-304800000D03*
X347980000Y-304800000D03*
G04 #@! TD*
D13*
G04 #@! TO.C,MX607*
X307340000Y-299720000D03*
D14*
X304800000Y-304800000D03*
D13*
X300990000Y-302260000D03*
D12*
X299720000Y-304800000D03*
X309880000Y-304800000D03*
G04 #@! TD*
D13*
G04 #@! TO.C,MX606*
X269240000Y-299720000D03*
D14*
X266700000Y-304800000D03*
D13*
X262890000Y-302260000D03*
D12*
X261620000Y-304800000D03*
X271780000Y-304800000D03*
G04 #@! TD*
D13*
G04 #@! TO.C,MX605*
X226377500Y-299720000D03*
D14*
X223837500Y-304800000D03*
D13*
X220027500Y-302260000D03*
D12*
X218757500Y-304800000D03*
X228917500Y-304800000D03*
G04 #@! TD*
D13*
G04 #@! TO.C,MX604*
X183515000Y-299720000D03*
D14*
X180975000Y-304800000D03*
D13*
X177165000Y-302260000D03*
D12*
X175895000Y-304800000D03*
X186055000Y-304800000D03*
G04 #@! TD*
D13*
G04 #@! TO.C,MX603*
X145415000Y-299720000D03*
D14*
X142875000Y-304800000D03*
D13*
X139065000Y-302260000D03*
D12*
X137795000Y-304800000D03*
X147955000Y-304800000D03*
G04 #@! TD*
D13*
G04 #@! TO.C,MX600*
X12065000Y-304482500D03*
D14*
X9525000Y-309562500D03*
D13*
X5715000Y-307022500D03*
D12*
X4445000Y-309562500D03*
X14605000Y-309562500D03*
G04 #@! TD*
D13*
G04 #@! TO.C,MX507*
X326390000Y-280670000D03*
D14*
X323850000Y-285750000D03*
D13*
X320040000Y-283210000D03*
D12*
X318770000Y-285750000D03*
X328930000Y-285750000D03*
G04 #@! TD*
D13*
G04 #@! TO.C,MX506*
X288290000Y-280670000D03*
D14*
X285750000Y-285750000D03*
D13*
X281940000Y-283210000D03*
D12*
X280670000Y-285750000D03*
X290830000Y-285750000D03*
G04 #@! TD*
D13*
G04 #@! TO.C,MX505*
X245427500Y-280670000D03*
D14*
X242887500Y-285750000D03*
D13*
X239077500Y-283210000D03*
D12*
X237807500Y-285750000D03*
X247967500Y-285750000D03*
G04 #@! TD*
D13*
G04 #@! TO.C,MX504*
X202247500Y-290830000D03*
D14*
X204787500Y-285750000D03*
D13*
X208597500Y-288290000D03*
D12*
X209867500Y-285750000D03*
X199707500Y-285750000D03*
G04 #@! TD*
D13*
G04 #@! TO.C,MX503*
X164465000Y-280670000D03*
D14*
X161925000Y-285750000D03*
D13*
X158115000Y-283210000D03*
D12*
X156845000Y-285750000D03*
X167005000Y-285750000D03*
G04 #@! TD*
D13*
G04 #@! TO.C,MX501*
X88265000Y-280670000D03*
D14*
X85725000Y-285750000D03*
D13*
X81915000Y-283210000D03*
D12*
X80645000Y-285750000D03*
X90805000Y-285750000D03*
G04 #@! TD*
D13*
G04 #@! TO.C,MX409*
X383540000Y-280670000D03*
D14*
X381000000Y-285750000D03*
D13*
X377190000Y-283210000D03*
D12*
X375920000Y-285750000D03*
X386080000Y-285750000D03*
G04 #@! TD*
D13*
G04 #@! TO.C,MX408*
X345440000Y-280670000D03*
D14*
X342900000Y-285750000D03*
D13*
X339090000Y-283210000D03*
D12*
X337820000Y-285750000D03*
X347980000Y-285750000D03*
G04 #@! TD*
D13*
G04 #@! TO.C,MX407*
X307340000Y-280670000D03*
D14*
X304800000Y-285750000D03*
D13*
X300990000Y-283210000D03*
D12*
X299720000Y-285750000D03*
X309880000Y-285750000D03*
G04 #@! TD*
D13*
G04 #@! TO.C,MX406*
X269240000Y-280670000D03*
D14*
X266700000Y-285750000D03*
D13*
X262890000Y-283210000D03*
D12*
X261620000Y-285750000D03*
X271780000Y-285750000D03*
G04 #@! TD*
D13*
G04 #@! TO.C,MX405*
X226377500Y-280670000D03*
D14*
X223837500Y-285750000D03*
D13*
X220027500Y-283210000D03*
D12*
X218757500Y-285750000D03*
X228917500Y-285750000D03*
G04 #@! TD*
D13*
G04 #@! TO.C,MX404*
X178435000Y-290830000D03*
D14*
X180975000Y-285750000D03*
D13*
X184785000Y-288290000D03*
D12*
X186055000Y-285750000D03*
X175895000Y-285750000D03*
G04 #@! TD*
D13*
G04 #@! TO.C,MX403*
X145415000Y-280670000D03*
D14*
X142875000Y-285750000D03*
D13*
X139065000Y-283210000D03*
D12*
X137795000Y-285750000D03*
X147955000Y-285750000D03*
G04 #@! TD*
D13*
G04 #@! TO.C,MX402*
X107315000Y-280670000D03*
D14*
X104775000Y-285750000D03*
D13*
X100965000Y-283210000D03*
D12*
X99695000Y-285750000D03*
X109855000Y-285750000D03*
G04 #@! TD*
D13*
G04 #@! TO.C,MX309*
X412115000Y-261620000D03*
D14*
X409575000Y-266700000D03*
D13*
X405765000Y-264160000D03*
D12*
X404495000Y-266700000D03*
X414655000Y-266700000D03*
G04 #@! TD*
D13*
G04 #@! TO.C,MX307*
X326390000Y-261620000D03*
D14*
X323850000Y-266700000D03*
D13*
X320040000Y-264160000D03*
D12*
X318770000Y-266700000D03*
X328930000Y-266700000D03*
G04 #@! TD*
D13*
G04 #@! TO.C,MX304*
X207327500Y-261620000D03*
D14*
X204787500Y-266700000D03*
D13*
X200977500Y-264160000D03*
D12*
X199707500Y-266700000D03*
X209867500Y-266700000D03*
G04 #@! TD*
D13*
G04 #@! TO.C,MX303*
X164465000Y-261620000D03*
D14*
X161925000Y-266700000D03*
D13*
X158115000Y-264160000D03*
D12*
X156845000Y-266700000D03*
X167005000Y-266700000D03*
G04 #@! TD*
D13*
G04 #@! TO.C,MX302*
X126365000Y-261620000D03*
D14*
X123825000Y-266700000D03*
D13*
X120015000Y-264160000D03*
D12*
X118745000Y-266700000D03*
X128905000Y-266700000D03*
G04 #@! TD*
D13*
G04 #@! TO.C,MX301*
X88265000Y-261620000D03*
D14*
X85725000Y-266700000D03*
D13*
X81915000Y-264160000D03*
D12*
X80645000Y-266700000D03*
X90805000Y-266700000D03*
G04 #@! TD*
D13*
G04 #@! TO.C,MX208*
X345440000Y-261620000D03*
D14*
X342900000Y-266700000D03*
D13*
X339090000Y-264160000D03*
D12*
X337820000Y-266700000D03*
X347980000Y-266700000D03*
G04 #@! TD*
D13*
G04 #@! TO.C,MX207*
X307340000Y-261620000D03*
D14*
X304800000Y-266700000D03*
D13*
X300990000Y-264160000D03*
D12*
X299720000Y-266700000D03*
X309880000Y-266700000D03*
G04 #@! TD*
D13*
G04 #@! TO.C,MX206*
X269240000Y-261620000D03*
D14*
X266700000Y-266700000D03*
D13*
X262890000Y-264160000D03*
D12*
X261620000Y-266700000D03*
X271780000Y-266700000D03*
G04 #@! TD*
D13*
G04 #@! TO.C,MX205*
X226377500Y-261620000D03*
D14*
X223837500Y-266700000D03*
D13*
X220027500Y-264160000D03*
D12*
X218757500Y-266700000D03*
X228917500Y-266700000D03*
G04 #@! TD*
D13*
G04 #@! TO.C,MX204*
X183515000Y-261620000D03*
D14*
X180975000Y-266700000D03*
D13*
X177165000Y-264160000D03*
D12*
X175895000Y-266700000D03*
X186055000Y-266700000D03*
G04 #@! TD*
D13*
G04 #@! TO.C,MX203*
X145415000Y-261620000D03*
D14*
X142875000Y-266700000D03*
D13*
X139065000Y-264160000D03*
D12*
X137795000Y-266700000D03*
X147955000Y-266700000D03*
G04 #@! TD*
D13*
G04 #@! TO.C,MX202*
X107315000Y-261620000D03*
D14*
X104775000Y-266700000D03*
D13*
X100965000Y-264160000D03*
D12*
X99695000Y-266700000D03*
X109855000Y-266700000D03*
G04 #@! TD*
D13*
G04 #@! TO.C,MX200*
X12065000Y-261620000D03*
D14*
X9525000Y-266700000D03*
D13*
X5715000Y-264160000D03*
D12*
X4445000Y-266700000D03*
X14605000Y-266700000D03*
G04 #@! TD*
D13*
G04 #@! TO.C,MX109*
X416560000Y-252730000D03*
D14*
X419100000Y-247650000D03*
D13*
X422910000Y-250190000D03*
D12*
X424180000Y-247650000D03*
X414020000Y-247650000D03*
G04 #@! TD*
D13*
G04 #@! TO.C,MX108*
X364490000Y-242570000D03*
D14*
X361950000Y-247650000D03*
D13*
X358140000Y-245110000D03*
D12*
X356870000Y-247650000D03*
X367030000Y-247650000D03*
G04 #@! TD*
D13*
G04 #@! TO.C,MX107*
X326390000Y-242570000D03*
D14*
X323850000Y-247650000D03*
D13*
X320040000Y-245110000D03*
D12*
X318770000Y-247650000D03*
X328930000Y-247650000D03*
G04 #@! TD*
D13*
G04 #@! TO.C,MX106*
X288290000Y-242570000D03*
D14*
X285750000Y-247650000D03*
D13*
X281940000Y-245110000D03*
D12*
X280670000Y-247650000D03*
X290830000Y-247650000D03*
G04 #@! TD*
D13*
G04 #@! TO.C,MX105*
X245427500Y-242570000D03*
D14*
X242887500Y-247650000D03*
D13*
X239077500Y-245110000D03*
D12*
X237807500Y-247650000D03*
X247967500Y-247650000D03*
G04 #@! TD*
D13*
G04 #@! TO.C,MX103*
X164465000Y-242570000D03*
D14*
X161925000Y-247650000D03*
D13*
X158115000Y-245110000D03*
D12*
X156845000Y-247650000D03*
X167005000Y-247650000D03*
G04 #@! TD*
D13*
G04 #@! TO.C,MX101*
X88265000Y-242570000D03*
D14*
X85725000Y-247650000D03*
D13*
X81915000Y-245110000D03*
D12*
X80645000Y-247650000D03*
X90805000Y-247650000D03*
G04 #@! TD*
D13*
G04 #@! TO.C,MX10*
X440690000Y-242570000D03*
D14*
X438150000Y-247650000D03*
D13*
X434340000Y-245110000D03*
D12*
X433070000Y-247650000D03*
X443230000Y-247650000D03*
G04 #@! TD*
D13*
G04 #@! TO.C,MX8*
X345440000Y-242570000D03*
D14*
X342900000Y-247650000D03*
D13*
X339090000Y-245110000D03*
D12*
X337820000Y-247650000D03*
X347980000Y-247650000D03*
G04 #@! TD*
D13*
G04 #@! TO.C,MX7*
X307340000Y-242570000D03*
D14*
X304800000Y-247650000D03*
D13*
X300990000Y-245110000D03*
D12*
X299720000Y-247650000D03*
X309880000Y-247650000D03*
G04 #@! TD*
D13*
G04 #@! TO.C,MX6*
X269240000Y-242570000D03*
D14*
X266700000Y-247650000D03*
D13*
X262890000Y-245110000D03*
D12*
X261620000Y-247650000D03*
X271780000Y-247650000D03*
G04 #@! TD*
D13*
G04 #@! TO.C,MX5*
X226377500Y-242570000D03*
D14*
X223837500Y-247650000D03*
D13*
X220027500Y-245110000D03*
D12*
X218757500Y-247650000D03*
X228917500Y-247650000D03*
G04 #@! TD*
D13*
G04 #@! TO.C,MX4*
X183515000Y-242570000D03*
D14*
X180975000Y-247650000D03*
D13*
X177165000Y-245110000D03*
D12*
X175895000Y-247650000D03*
X186055000Y-247650000D03*
G04 #@! TD*
D13*
G04 #@! TO.C,MX3*
X145415000Y-242570000D03*
D14*
X142875000Y-247650000D03*
D13*
X139065000Y-245110000D03*
D12*
X137795000Y-247650000D03*
X147955000Y-247650000D03*
G04 #@! TD*
D13*
G04 #@! TO.C,MX2*
X107315000Y-242570000D03*
D14*
X104775000Y-247650000D03*
D13*
X100965000Y-245110000D03*
D12*
X99695000Y-247650000D03*
X109855000Y-247650000D03*
G04 #@! TD*
D13*
G04 #@! TO.C,MX1*
X69215000Y-242570000D03*
D14*
X66675000Y-247650000D03*
D13*
X62865000Y-245110000D03*
D12*
X61595000Y-247650000D03*
X71755000Y-247650000D03*
G04 #@! TD*
D13*
G04 #@! TO.C,MX0*
X12065000Y-242570000D03*
D14*
X9525000Y-247650000D03*
D13*
X5715000Y-245110000D03*
D12*
X4445000Y-247650000D03*
X14605000Y-247650000D03*
G04 #@! TD*
D13*
G04 #@! TO.C,MX308*
X364490000Y-261620000D03*
D14*
X361950000Y-266700000D03*
D13*
X358140000Y-264160000D03*
D12*
X356870000Y-266700000D03*
X367030000Y-266700000D03*
G04 #@! TD*
G04 #@! TO.C,F1*
G36*
G01*
X189250000Y-247811000D02*
X187940000Y-247811000D01*
G75*
G02*
X187670000Y-247541000I0J270000D01*
G01*
X187670000Y-246731000D01*
G75*
G02*
X187940000Y-246461000I270000J0D01*
G01*
X189250000Y-246461000D01*
G75*
G02*
X189520000Y-246731000I0J-270000D01*
G01*
X189520000Y-247541000D01*
G75*
G02*
X189250000Y-247811000I-270000J0D01*
G01*
G37*
G36*
G01*
X189250000Y-250611000D02*
X187940000Y-250611000D01*
G75*
G02*
X187670000Y-250341000I0J270000D01*
G01*
X187670000Y-249531000D01*
G75*
G02*
X187940000Y-249261000I270000J0D01*
G01*
X189250000Y-249261000D01*
G75*
G02*
X189520000Y-249531000I0J-270000D01*
G01*
X189520000Y-250341000D01*
G75*
G02*
X189250000Y-250611000I-270000J0D01*
G01*
G37*
G04 #@! TD*
G04 #@! TO.C,R3*
G36*
G01*
X191997250Y-250473500D02*
X191034750Y-250473500D01*
G75*
G02*
X190766000Y-250204750I0J268750D01*
G01*
X190766000Y-249667250D01*
G75*
G02*
X191034750Y-249398500I268750J0D01*
G01*
X191997250Y-249398500D01*
G75*
G02*
X192266000Y-249667250I0J-268750D01*
G01*
X192266000Y-250204750D01*
G75*
G02*
X191997250Y-250473500I-268750J0D01*
G01*
G37*
G36*
G01*
X191997250Y-252348500D02*
X191034750Y-252348500D01*
G75*
G02*
X190766000Y-252079750I0J268750D01*
G01*
X190766000Y-251542250D01*
G75*
G02*
X191034750Y-251273500I268750J0D01*
G01*
X191997250Y-251273500D01*
G75*
G02*
X192266000Y-251542250I0J-268750D01*
G01*
X192266000Y-252079750D01*
G75*
G02*
X191997250Y-252348500I-268750J0D01*
G01*
G37*
G04 #@! TD*
G04 #@! TO.C,R2*
G36*
G01*
X194156250Y-250473500D02*
X193193750Y-250473500D01*
G75*
G02*
X192925000Y-250204750I0J268750D01*
G01*
X192925000Y-249667250D01*
G75*
G02*
X193193750Y-249398500I268750J0D01*
G01*
X194156250Y-249398500D01*
G75*
G02*
X194425000Y-249667250I0J-268750D01*
G01*
X194425000Y-250204750D01*
G75*
G02*
X194156250Y-250473500I-268750J0D01*
G01*
G37*
G36*
G01*
X194156250Y-252348500D02*
X193193750Y-252348500D01*
G75*
G02*
X192925000Y-252079750I0J268750D01*
G01*
X192925000Y-251542250D01*
G75*
G02*
X193193750Y-251273500I268750J0D01*
G01*
X194156250Y-251273500D01*
G75*
G02*
X194425000Y-251542250I0J-268750D01*
G01*
X194425000Y-252079750D01*
G75*
G02*
X194156250Y-252348500I-268750J0D01*
G01*
G37*
G04 #@! TD*
D20*
G04 #@! TO.C,Y1*
X191047000Y-265473000D03*
X191047000Y-267673000D03*
X192747000Y-267673000D03*
X192747000Y-265473000D03*
G04 #@! TD*
D21*
G04 #@! TO.C,U1*
X188786000Y-281925000D03*
X189586000Y-281925000D03*
X190386000Y-281925000D03*
X191186000Y-281925000D03*
X191986000Y-281925000D03*
X192786000Y-281925000D03*
X193586000Y-281925000D03*
X194386000Y-281925000D03*
X195186000Y-281925000D03*
X195986000Y-281925000D03*
X196786000Y-281925000D03*
D22*
X198486000Y-280225000D03*
X198486000Y-279425000D03*
X198486000Y-278625000D03*
X198486000Y-277825000D03*
X198486000Y-277025000D03*
X198486000Y-276225000D03*
X198486000Y-275425000D03*
X198486000Y-274625000D03*
X198486000Y-273825000D03*
X198486000Y-273025000D03*
X198486000Y-272225000D03*
D21*
X196786000Y-270525000D03*
X195986000Y-270525000D03*
X195186000Y-270525000D03*
X194386000Y-270525000D03*
X193586000Y-270525000D03*
X192786000Y-270525000D03*
X191986000Y-270525000D03*
X191186000Y-270525000D03*
X190386000Y-270525000D03*
X189586000Y-270525000D03*
X188786000Y-270525000D03*
D22*
X187086000Y-272225000D03*
X187086000Y-273025000D03*
X187086000Y-273825000D03*
X187086000Y-274625000D03*
X187086000Y-275425000D03*
X187086000Y-276225000D03*
X187086000Y-277025000D03*
X187086000Y-277825000D03*
X187086000Y-278625000D03*
X187086000Y-279425000D03*
X187086000Y-280225000D03*
G04 #@! TD*
G04 #@! TO.C,R4*
G36*
G01*
X201046000Y-280953500D02*
X200083500Y-280953500D01*
G75*
G02*
X199814750Y-280684750I0J268750D01*
G01*
X199814750Y-280147250D01*
G75*
G02*
X200083500Y-279878500I268750J0D01*
G01*
X201046000Y-279878500D01*
G75*
G02*
X201314750Y-280147250I0J-268750D01*
G01*
X201314750Y-280684750D01*
G75*
G02*
X201046000Y-280953500I-268750J0D01*
G01*
G37*
G36*
G01*
X201046000Y-282828500D02*
X200083500Y-282828500D01*
G75*
G02*
X199814750Y-282559750I0J268750D01*
G01*
X199814750Y-282022250D01*
G75*
G02*
X200083500Y-281753500I268750J0D01*
G01*
X201046000Y-281753500D01*
G75*
G02*
X201314750Y-282022250I0J-268750D01*
G01*
X201314750Y-282559750D01*
G75*
G02*
X201046000Y-282828500I-268750J0D01*
G01*
G37*
G04 #@! TD*
G04 #@! TO.C,R1*
G36*
G01*
X184885250Y-269983000D02*
X183922750Y-269983000D01*
G75*
G02*
X183654000Y-269714250I0J268750D01*
G01*
X183654000Y-269176750D01*
G75*
G02*
X183922750Y-268908000I268750J0D01*
G01*
X184885250Y-268908000D01*
G75*
G02*
X185154000Y-269176750I0J-268750D01*
G01*
X185154000Y-269714250D01*
G75*
G02*
X184885250Y-269983000I-268750J0D01*
G01*
G37*
G36*
G01*
X184885250Y-271858000D02*
X183922750Y-271858000D01*
G75*
G02*
X183654000Y-271589250I0J268750D01*
G01*
X183654000Y-271051750D01*
G75*
G02*
X183922750Y-270783000I268750J0D01*
G01*
X184885250Y-270783000D01*
G75*
G02*
X185154000Y-271051750I0J-268750D01*
G01*
X185154000Y-271589250D01*
G75*
G02*
X184885250Y-271858000I-268750J0D01*
G01*
G37*
G04 #@! TD*
D16*
G04 #@! TO.C,D909*
X421640000Y-333185500D03*
X421640000Y-336485500D03*
G04 #@! TD*
G04 #@! TO.C,D908*
X374015000Y-328487500D03*
X374015000Y-331787500D03*
G04 #@! TD*
G04 #@! TO.C,D907*
X316865000Y-331598000D03*
X316865000Y-334898000D03*
G04 #@! TD*
G04 #@! TO.C,D906*
X290703000Y-331598000D03*
X290703000Y-334898000D03*
G04 #@! TD*
G04 #@! TO.C,D905*
X252603000Y-331598000D03*
X252603000Y-334898000D03*
G04 #@! TD*
G04 #@! TO.C,D904*
X204978000Y-331598000D03*
X204978000Y-334898000D03*
G04 #@! TD*
G04 #@! TO.C,D903*
X162083750Y-331598000D03*
X162083750Y-334898000D03*
G04 #@! TD*
G04 #@! TO.C,D902*
X135794750Y-331597000D03*
X135794750Y-334897000D03*
G04 #@! TD*
G04 #@! TO.C,D901*
X85852000Y-328487500D03*
X85852000Y-331787500D03*
G04 #@! TD*
G04 #@! TO.C,D900*
X31115000Y-331724000D03*
X31115000Y-335024000D03*
G04 #@! TD*
G04 #@! TO.C,D810*
X440817000Y-331725000D03*
X440817000Y-335025000D03*
G04 #@! TD*
G04 #@! TO.C,D809*
X402590000Y-331598000D03*
X402590000Y-334898000D03*
G04 #@! TD*
G04 #@! TO.C,D808*
X345567000Y-326899000D03*
X345567000Y-330199000D03*
G04 #@! TD*
G04 #@! TO.C,D802*
X109632750Y-326771000D03*
X109632750Y-330071000D03*
G04 #@! TD*
G04 #@! TO.C,D801*
X59690000Y-326899000D03*
X59690000Y-330199000D03*
G04 #@! TD*
G04 #@! TO.C,D800*
X12065000Y-331725000D03*
X12065000Y-335025000D03*
G04 #@! TD*
G04 #@! TO.C,D709*
X421640000Y-314136500D03*
X421640000Y-317436500D03*
G04 #@! TD*
G04 #@! TO.C,D708*
X364490000Y-309436500D03*
X364490000Y-312736500D03*
G04 #@! TD*
G04 #@! TO.C,D707*
X326390000Y-309436500D03*
X326390000Y-312736500D03*
G04 #@! TD*
G04 #@! TO.C,D706*
X288290000Y-309309500D03*
X288290000Y-312609500D03*
G04 #@! TD*
G04 #@! TO.C,D705*
X245491000Y-309309500D03*
X245491000Y-312609500D03*
G04 #@! TD*
G04 #@! TO.C,D704*
X207391000Y-309309500D03*
X207391000Y-312609500D03*
G04 #@! TD*
G04 #@! TO.C,D703*
X164496750Y-309436500D03*
X164496750Y-312736500D03*
G04 #@! TD*
G04 #@! TO.C,D702*
X126396750Y-309436500D03*
X126396750Y-312736500D03*
G04 #@! TD*
G04 #@! TO.C,D701*
X88138000Y-309436500D03*
X88138000Y-312736500D03*
G04 #@! TD*
G04 #@! TO.C,D609*
X390779000Y-307849000D03*
X390779000Y-311149000D03*
G04 #@! TD*
G04 #@! TO.C,D608*
X345440000Y-307849000D03*
X345440000Y-311149000D03*
G04 #@! TD*
G04 #@! TO.C,D607*
X307340000Y-307722000D03*
X307340000Y-311022000D03*
G04 #@! TD*
G04 #@! TO.C,D606*
X269240000Y-307722000D03*
X269240000Y-311022000D03*
G04 #@! TD*
G04 #@! TO.C,D605*
X226441000Y-307722000D03*
X226441000Y-311022000D03*
G04 #@! TD*
G04 #@! TO.C,D604*
X183515000Y-307850000D03*
X183515000Y-311150000D03*
G04 #@! TD*
G04 #@! TO.C,D603*
X145288000Y-307849000D03*
X145288000Y-311149000D03*
G04 #@! TD*
G04 #@! TO.C,D602*
X107219750Y-307849000D03*
X107219750Y-311149000D03*
G04 #@! TD*
G04 #@! TO.C,D601*
X52451000Y-307722000D03*
X52451000Y-311022000D03*
G04 #@! TD*
G04 #@! TO.C,D600*
X12065000Y-312803000D03*
X12065000Y-316103000D03*
G04 #@! TD*
G04 #@! TO.C,D509*
X409702000Y-290512500D03*
X409702000Y-293812500D03*
G04 #@! TD*
G04 #@! TO.C,D508*
X364490000Y-290513500D03*
X364490000Y-293813500D03*
G04 #@! TD*
G04 #@! TO.C,D507*
X326390000Y-290513500D03*
X326390000Y-293813500D03*
G04 #@! TD*
G04 #@! TO.C,D506*
X288544000Y-290513500D03*
X288544000Y-293813500D03*
G04 #@! TD*
G04 #@! TO.C,D505*
X245491000Y-290513500D03*
X245491000Y-293813500D03*
G04 #@! TD*
G04 #@! TO.C,D504*
X212979000Y-290387500D03*
X212979000Y-293687500D03*
G04 #@! TD*
G04 #@! TO.C,D503*
X164465000Y-290386500D03*
X164465000Y-293686500D03*
G04 #@! TD*
G04 #@! TO.C,D502*
X126396750Y-290513500D03*
X126396750Y-293813500D03*
G04 #@! TD*
G04 #@! TO.C,D501*
X88519000Y-290386500D03*
X88519000Y-293686500D03*
G04 #@! TD*
G04 #@! TO.C,D410*
X435768750Y-288798000D03*
X435768750Y-292098000D03*
G04 #@! TD*
G04 #@! TO.C,D409*
X383540000Y-288926000D03*
X383540000Y-292226000D03*
G04 #@! TD*
G04 #@! TO.C,D408*
X345440000Y-288926000D03*
X345440000Y-292226000D03*
G04 #@! TD*
G04 #@! TO.C,D407*
X307340000Y-288926000D03*
X307340000Y-292226000D03*
G04 #@! TD*
G04 #@! TO.C,D406*
X269494000Y-288926000D03*
X269494000Y-292226000D03*
G04 #@! TD*
G04 #@! TO.C,D405*
X226441000Y-288926000D03*
X226441000Y-292226000D03*
G04 #@! TD*
G04 #@! TO.C,D404*
X174879000Y-288800000D03*
X174879000Y-292100000D03*
G04 #@! TD*
G04 #@! TO.C,D403*
X145542000Y-288799000D03*
X145542000Y-292099000D03*
G04 #@! TD*
G04 #@! TO.C,D402*
X107442000Y-288799000D03*
X107442000Y-292099000D03*
G04 #@! TD*
G04 #@! TO.C,D401*
X57404000Y-288927000D03*
X57404000Y-292227000D03*
G04 #@! TD*
G04 #@! TO.C,D400*
X14351000Y-288418000D03*
X14351000Y-291718000D03*
G04 #@! TD*
G04 #@! TO.C,D309*
X412115000Y-271336500D03*
X412115000Y-274636500D03*
G04 #@! TD*
G04 #@! TO.C,D308*
X364490000Y-271209500D03*
X364490000Y-274509500D03*
G04 #@! TD*
G04 #@! TO.C,D307*
X326390000Y-271336500D03*
X326390000Y-274636500D03*
G04 #@! TD*
G04 #@! TO.C,D306*
X288290000Y-271336500D03*
X288290000Y-274636500D03*
G04 #@! TD*
G04 #@! TO.C,D305*
X245364000Y-271336500D03*
X245364000Y-274636500D03*
G04 #@! TD*
G04 #@! TO.C,D304*
X213233000Y-271337500D03*
X213233000Y-274637500D03*
G04 #@! TD*
G04 #@! TO.C,D303*
X164465000Y-271464500D03*
X164465000Y-274764500D03*
G04 #@! TD*
G04 #@! TO.C,D302*
X126492000Y-271336500D03*
X126492000Y-274636500D03*
G04 #@! TD*
G04 #@! TO.C,D301*
X88392000Y-271336500D03*
X88392000Y-274636500D03*
G04 #@! TD*
G04 #@! TO.C,D300*
X35941000Y-271336500D03*
X35941000Y-274636500D03*
G04 #@! TD*
G04 #@! TO.C,D209*
X388366000Y-269749000D03*
X388366000Y-273049000D03*
G04 #@! TD*
G04 #@! TO.C,D208*
X345440000Y-269749000D03*
X345440000Y-273049000D03*
G04 #@! TD*
G04 #@! TO.C,D207*
X307340000Y-269749000D03*
X307340000Y-273049000D03*
G04 #@! TD*
G04 #@! TO.C,D206*
X269113000Y-269749000D03*
X269113000Y-273049000D03*
G04 #@! TD*
G04 #@! TO.C,D205*
X226314000Y-269749000D03*
X226314000Y-273049000D03*
G04 #@! TD*
G04 #@! TO.C,D204*
X175897000Y-261620000D03*
X175897000Y-258320000D03*
G04 #@! TD*
G04 #@! TO.C,D203*
X145542000Y-269749000D03*
X145542000Y-273049000D03*
G04 #@! TD*
G04 #@! TO.C,D202*
X107442000Y-269749000D03*
X107442000Y-273049000D03*
G04 #@! TD*
G04 #@! TO.C,D201*
X64643000Y-269749000D03*
X64643000Y-273049000D03*
G04 #@! TD*
G04 #@! TO.C,D200*
X12065000Y-269749000D03*
X12065000Y-273049000D03*
G04 #@! TD*
G04 #@! TO.C,D109*
X413131000Y-253367000D03*
X413131000Y-256667000D03*
G04 #@! TD*
G04 #@! TO.C,D108*
X364490000Y-251841000D03*
X364490000Y-255141000D03*
G04 #@! TD*
G04 #@! TO.C,D107*
X326390000Y-251843000D03*
X326390000Y-255143000D03*
G04 #@! TD*
G04 #@! TO.C,D106*
X288290000Y-251841000D03*
X288290000Y-255141000D03*
G04 #@! TD*
G04 #@! TO.C,D105*
X245491000Y-251841000D03*
X245491000Y-255141000D03*
G04 #@! TD*
G04 #@! TO.C,D104*
X207391000Y-251841000D03*
X207391000Y-255141000D03*
G04 #@! TD*
G04 #@! TO.C,D103*
X164465000Y-252287500D03*
X164465000Y-255587500D03*
G04 #@! TD*
G04 #@! TO.C,D102*
X126492000Y-252286500D03*
X126492000Y-255586500D03*
G04 #@! TD*
G04 #@! TO.C,D101*
X88265000Y-252159500D03*
X88265000Y-255459500D03*
G04 #@! TD*
G04 #@! TO.C,D100*
X40640000Y-253081250D03*
X40640000Y-256381250D03*
G04 #@! TD*
G04 #@! TO.C,D10*
X440690000Y-251081000D03*
X440690000Y-254381000D03*
G04 #@! TD*
G04 #@! TO.C,D9*
X393573000Y-249936000D03*
X393573000Y-253236000D03*
G04 #@! TD*
G04 #@! TO.C,D8*
X345440000Y-250571000D03*
X345440000Y-253871000D03*
G04 #@! TD*
G04 #@! TO.C,D7*
X307340000Y-250698000D03*
X307340000Y-253998000D03*
G04 #@! TD*
G04 #@! TO.C,D6*
X269240000Y-250699000D03*
X269240000Y-253999000D03*
G04 #@! TD*
G04 #@! TO.C,D5*
X226441000Y-250698000D03*
X226441000Y-253998000D03*
G04 #@! TD*
G04 #@! TO.C,D4*
X175260000Y-250573000D03*
X175260000Y-253873000D03*
G04 #@! TD*
G04 #@! TO.C,D3*
X145415000Y-250699000D03*
X145415000Y-253999000D03*
G04 #@! TD*
G04 #@! TO.C,D2*
X107315000Y-250699000D03*
X107315000Y-253999000D03*
G04 #@! TD*
G04 #@! TO.C,D1*
X69215000Y-250698000D03*
X69215000Y-253998000D03*
G04 #@! TD*
D23*
G04 #@! TO.C,D0*
X12700000Y-250825000D03*
X16000000Y-250825000D03*
G04 #@! TD*
M02*
