M48
; DRILL file {KiCad (5.1.6)-1} date 07/09/20 12:42:02
; FORMAT={-:-/ absolute / inch / decimal}
; #@! TF.CreationDate,2020-07-09T12:42:02-04:00
; #@! TF.GenerationSoftware,Kicad,Pcbnew,(5.1.6)-1
; #@! TF.FileFunction,Plated,1,2,PTH
FMAT,2
INCH
T1C0.0157
T2C0.0276
T3C0.0354
T4C0.0579
%
G90
G05
T1
X0.8213Y-11.36
X3.225Y-10.1212
X4.725Y-10.7812
X6.225Y-10.7513
X6.4763Y-10.875
X6.5812Y-10.8
X6.6212Y-10.125
X6.6513Y-11.305
X6.7512Y-9.425
X6.7512Y-10.875
X7.1312Y-9.94
X7.2612Y-10.54
X7.2612Y-12.44
X7.2662Y-10.81
X7.2962Y-10.845
X7.3016Y-11.0204
X7.3712Y-9.94
X7.3712Y-10.315
X7.3763Y-12.695
X7.4062Y-12.56
X7.4263Y-10.97
X7.4562Y-10.94
X7.5263Y-11.23
X7.55Y-9.965
X7.555Y-9.75
X7.5562Y-11.275
X7.5912Y-11.32
X7.6Y-9.77
X7.6212Y-11.275
X7.64Y-9.9664
X7.6513Y-11.17
X7.6863Y-10.51
X7.7012Y-12.285
X7.7138Y-10.7175
X7.7149Y-10.54
X7.7151Y-10.985
X7.7162Y-11.17
X7.7461Y-10.7501
X7.7462Y-11.02
X7.7462Y-12.25
X7.7512Y-9.995
X7.7512Y-10.56
X7.7812Y-10.06
X7.7812Y-11.17
X7.8099Y-10.165
X7.8113Y-10.6
X7.8312Y-11.565
X7.8563Y-10.65
X8.2713Y-10.815
X8.2762Y-10.94
X8.3163Y-10.845
X8.3262Y-10.905
X8.3562Y-10.875
X8.3812Y-11.625
X8.3812Y-12.45
X8.4362Y-10.16
X8.4562Y-11.005
X8.4584Y-11.5072
X8.4812Y-10.2
X8.4838Y-10.8125
X8.4863Y-11.18
X8.5312Y-10.25
X8.6625Y-10.7762
X10.35Y-10.1638
X11.85Y-10.2012
X13.35Y-10.2338
X14.85Y-11.6188
X16.5Y-10.88
X17.2562Y-12.56
T2
X7.517Y-9.6422
X7.5485Y-9.595
X7.58Y-9.6422
X7.6115Y-9.595
X7.643Y-9.6422
T4
X8.6625Y-11.15
X8.9125Y-11.05
X7.9125Y-10.4
X8.1625Y-10.3
X7.025Y-11.45
X7.275Y-11.35
X6.225Y-11.9
X6.475Y-11.8
X0.225Y-12.8375
X0.475Y-12.7375
X11.1Y-11.9
X11.35Y-11.8
X7.8187Y-12.8375
X8.0687Y-12.7375
X6.975Y-10.4
X7.225Y-10.3
X16.3Y-9.65
X16.4Y-9.9
X6.1312Y-12.8375
X6.3812Y-12.7375
X5.475Y-10.4
X5.725Y-10.3
X16.35Y-12.8375
X16.6Y-12.7375
X13.35Y-9.65
X13.6Y-9.55
X6.225Y-11.15
X6.475Y-11.05
X12.6Y-10.4
X12.85Y-10.3
X3.225Y-11.15
X3.475Y-11.05
X14.1Y-11.9
X14.35Y-11.8
X9.4125Y-11.9
X9.6625Y-11.8
X4.725Y-9.65
X4.975Y-9.55
X17.2562Y-10.725
X17.3562Y-10.975
X3.225Y-10.4
X3.475Y-10.3
X5.1Y-12.8375
X5.35Y-12.7375
X2.1Y-12.65
X2.35Y-12.55
X13.35Y-10.4
X13.6Y-10.3
X1.1625Y-10.4
X1.4125Y-10.3
X0.3187Y-11.15
X0.5687Y-11.05
X3.975Y-9.65
X4.225Y-9.55
X0.225Y-9.65
X0.475Y-9.55
X7.9625Y-11.45
X8.2125Y-11.35
X14.85Y-11.15
X15.1Y-11.05
X15.6Y-12.8375
X15.85Y-12.7375
X6.975Y-11.9
X7.225Y-11.8
X1.8187Y-11.9
X2.0688Y-11.8
X1.775Y-9.95
X2.025Y-9.85
X4.725Y-10.4
X4.975Y-10.3
X12.225Y-12.8375
X12.475Y-12.7375
X6.225Y-10.4
X6.475Y-10.3
X15.8812Y-11.15
X16.1312Y-11.05
X3.1313Y-12.65
X3.3813Y-12.55
X11.85Y-9.65
X12.1Y-9.55
X10.35Y-9.65
X10.6Y-9.55
X9.4125Y-11.15
X9.6625Y-11.05
X0.225Y-12.0875
X0.475Y-11.9875
X0.975Y-12.8375
X1.225Y-12.7375
X10.35Y-11.9
X10.6Y-11.8
X13.35Y-12.65
X13.6Y-12.55
X15.225Y-9.65
X15.475Y-9.55
X3.225Y-9.65
X3.475Y-9.55
X4.725Y-11.15
X4.975Y-11.05
X10.35Y-10.4
X10.6Y-10.3
X15.1312Y-11.9
X15.3812Y-11.8
X14.1Y-10.4
X14.35Y-10.3
X4.725Y-11.9
X4.975Y-11.8
X12.6Y-11.15
X12.85Y-11.05
X15.975Y-10.4
X16.225Y-10.3
X3.225Y-11.9
X3.475Y-11.8
X12.6Y-11.9
X12.85Y-11.8
X8.6625Y-11.9
X8.9125Y-11.8
X9.4125Y-10.4
X9.6625Y-10.3
X9.4125Y-9.65
X9.6625Y-9.55
X11.1Y-10.4
X11.35Y-10.3
X0.975Y-9.65
X1.225Y-9.55
X6.225Y-9.65
X6.475Y-9.55
X2.0063Y-11.15
X2.2563Y-11.05
X3.975Y-10.4
X4.225Y-10.3
X3.975Y-11.9
X4.225Y-11.8
X2.475Y-9.65
X2.725Y-9.55
X15.0375Y-10.4
X15.2875Y-10.3
X6.975Y-9.65
X7.225Y-9.55
X14.1Y-11.15
X14.35Y-11.05
X17.35Y-9.6
X17.45Y-9.85
X10.35Y-11.15
X10.6Y-11.05
X11.1Y-11.15
X11.35Y-11.05
X3.975Y-11.15
X4.225Y-11.05
X7.9125Y-11.9
X8.1625Y-11.8
X5.475Y-11.9
X5.725Y-11.8
X11.85Y-11.9
X12.1Y-11.8
X1.35Y-9.65
X1.6Y-9.55
X12.6Y-9.65
X12.85Y-9.55
X11.1Y-9.65
X11.35Y-9.55
X9.6937Y-12.8375
X9.9437Y-12.7375
X8.6625Y-10.4
X8.9125Y-10.3
X4.0687Y-12.65
X4.3187Y-12.55
X8.6625Y-9.65
X8.9125Y-9.55
X5.475Y-9.65
X5.725Y-9.55
X13.35Y-11.15
X13.6Y-11.05
X11.85Y-11.15
X12.1Y-11.05
X5.475Y-11.15
X5.725Y-11.05
X16.35Y-12.0875
X16.6Y-11.9875
X17.1Y-12.8375
X17.35Y-12.7375
X13.35Y-11.9
X13.6Y-11.8
X11.1937Y-12.8375
X11.4437Y-12.7375
X7.9125Y-9.65
X8.1625Y-9.55
X14.1Y-9.65
X14.35Y-9.55
X11.85Y-10.4
X12.1Y-10.3
X2.2875Y-10.4
X2.5375Y-10.3
X0.225Y-10.4
X0.475Y-10.3
X14.475Y-12.65
X14.725Y-12.55
T2
G00X7.4363Y-9.4198
M15
G01X7.4363Y-9.467
M16
G05
G00X7.7237Y-9.4198
M15
G01X7.7237Y-9.467
M16
G05
T3
G00X16.7844Y-9.509
M15
G01X16.7844Y-9.4932
M16
G05
G00X16.7844Y-9.6271
M15
G01X16.7844Y-9.6113
M16
G05
G00X16.7844Y-9.7846
M15
G01X16.7844Y-9.7688
M16
G05
G00X16.9656Y-9.8279
M15
G01X16.9656Y-9.8121
M16
G05
T0
M30
