M48
; DRILL file {KiCad (5.1.6)-1} date 07/09/20 10:41:55
; FORMAT={-:-/ absolute / inch / decimal}
; #@! TF.CreationDate,2020-07-09T10:41:55-04:00
; #@! TF.GenerationSoftware,Kicad,Pcbnew,(5.1.6)-1
; #@! TF.FileFunction,NonPlated,1,2,NPTH
FMAT,2
INCH
T1C0.0315
T2C0.0689
T3C0.1200
T4C0.1570
%
G90
G05
T1
X16.875Y-9.4381
X16.875Y-9.7137
T2
X8.6125Y-12.0
X9.0125Y-12.0
X14.425Y-12.75
X14.825Y-12.75
X9.3625Y-10.5
X9.7625Y-10.5
X4.675Y-9.75
X5.075Y-9.75
X3.175Y-9.75
X3.575Y-9.75
X1.3Y-9.75
X1.7Y-9.75
X15.175Y-9.75
X15.575Y-9.75
X8.6125Y-9.75
X9.0125Y-9.75
X13.3Y-10.5
X13.7Y-10.5
X14.05Y-11.25
X14.45Y-11.25
X0.925Y-9.75
X1.325Y-9.75
X0.175Y-9.75
X0.575Y-9.75
X4.675Y-10.5
X5.075Y-10.5
X3.175Y-10.5
X3.575Y-10.5
X14.05Y-12.0
X14.45Y-12.0
X13.3Y-11.25
X13.7Y-11.25
X3.925Y-12.0
X4.325Y-12.0
X13.3Y-12.0
X13.7Y-12.0
X15.8312Y-11.25
X16.2312Y-11.25
X7.7687Y-12.9375
X8.1687Y-12.9375
X12.55Y-9.75
X12.95Y-9.75
X11.05Y-10.5
X11.45Y-10.5
X13.3Y-9.75
X13.7Y-9.75
X5.425Y-10.5
X5.825Y-10.5
X2.425Y-9.75
X2.825Y-9.75
X3.925Y-11.25
X4.325Y-11.25
X7.8625Y-9.75
X8.2625Y-9.75
X5.425Y-11.25
X5.825Y-11.25
X4.675Y-12.0
X5.075Y-12.0
X11.05Y-11.25
X11.45Y-11.25
X16.3Y-12.1875
X16.7Y-12.1875
X14.8Y-11.25
X15.2Y-11.25
X3.175Y-12.0
X3.575Y-12.0
X7.8625Y-11.25
X8.2625Y-11.25
X3.0812Y-12.75
X3.4812Y-12.75
X6.0812Y-12.9375
X6.4813Y-12.9375
X4.0187Y-12.75
X4.4188Y-12.75
X11.8Y-9.75
X12.2Y-9.75
X11.05Y-9.75
X11.45Y-9.75
X6.175Y-10.5
X6.575Y-10.5
X3.925Y-10.5
X4.325Y-10.5
X6.925Y-11.25
X7.325Y-11.25
X6.175Y-12.0
X6.575Y-12.0
X8.6125Y-11.25
X9.0125Y-11.25
X12.175Y-12.9375
X12.575Y-12.9375
X6.175Y-11.25
X6.575Y-11.25
X9.3625Y-12.0
X9.7625Y-12.0
X11.8Y-11.25
X12.2Y-11.25
X11.1437Y-12.9375
X11.5437Y-12.9375
X15.0812Y-12.0
X15.4812Y-12.0
X1.9563Y-11.25
X2.3562Y-11.25
X14.05Y-10.5
X14.45Y-10.5
X17.1562Y-10.675
X17.1562Y-11.075
X0.175Y-10.5
X0.575Y-10.5
X12.55Y-10.5
X12.95Y-10.5
X16.5Y-9.55
X16.5Y-9.95
X7.8625Y-12.0
X8.2625Y-12.0
X11.8Y-12.0
X12.2Y-12.0
X15.55Y-12.9375
X15.95Y-12.9375
X9.3625Y-11.25
X9.7625Y-11.25
X4.675Y-11.25
X5.075Y-11.25
X5.425Y-12.0
X5.825Y-12.0
X0.2687Y-11.25
X0.6687Y-11.25
X13.3Y-12.75
X13.7Y-12.75
X9.6437Y-12.9375
X10.0437Y-12.9375
X14.05Y-9.75
X14.45Y-9.75
X10.3Y-9.75
X10.7Y-9.75
X10.3Y-10.5
X10.7Y-10.5
X15.925Y-10.5
X16.325Y-10.5
X12.55Y-12.0
X12.95Y-12.0
X3.175Y-11.25
X3.575Y-11.25
X17.05Y-12.9375
X17.45Y-12.9375
X6.925Y-12.0
X7.325Y-12.0
X0.175Y-12.9375
X0.575Y-12.9375
X10.3Y-12.0
X10.7Y-12.0
X14.9875Y-10.5
X15.3875Y-10.5
X2.05Y-12.75
X2.45Y-12.75
X9.3625Y-9.75
X9.7625Y-9.75
X2.2375Y-10.5
X2.6375Y-10.5
X3.925Y-9.75
X4.325Y-9.75
X17.25Y-9.55
X17.25Y-9.95
X11.8Y-10.5
X12.2Y-10.5
X6.925Y-10.5
X7.325Y-10.5
X0.925Y-12.9375
X1.325Y-12.9375
X10.3Y-11.25
X10.7Y-11.25
X16.3Y-12.9375
X16.7Y-12.9375
X12.55Y-11.25
X12.95Y-11.25
X1.1125Y-10.5
X1.5125Y-10.5
X1.7688Y-12.0
X2.1687Y-12.0
X5.425Y-9.75
X5.825Y-9.75
X1.675Y-9.75
X2.075Y-9.75
X6.925Y-9.75
X7.325Y-9.75
X6.175Y-9.75
X6.575Y-9.75
X7.8625Y-10.5
X8.2625Y-10.5
X8.6125Y-10.5
X9.0125Y-10.5
X5.05Y-12.9375
X5.45Y-12.9375
X0.175Y-12.1875
X0.575Y-12.1875
X11.05Y-12.0
X11.45Y-12.0
T3
X1.0312Y-9.475
X1.9688Y-9.475
X14.9062Y-9.475
X15.8438Y-9.475
X7.5Y-12.6625
X8.4375Y-12.6625
X1.6875Y-10.975
X2.625Y-10.975
X17.4312Y-10.405
X17.4312Y-11.345
X9.375Y-12.6625
X10.3125Y-12.6625
X1.5Y-11.725
X2.4375Y-11.725
T4
X3.375Y-11.25
X17.25Y-12.9375
X7.125Y-12.0
X0.375Y-12.9375
X10.5Y-12.0
X15.1875Y-10.5
X2.25Y-12.75
X9.5625Y-9.75
X2.4375Y-10.5
X4.125Y-9.75
X17.25Y-9.75
X12.0Y-10.5
X7.125Y-10.5
X1.125Y-12.9375
X10.5Y-11.25
X16.5Y-12.9375
X12.75Y-11.25
X1.3125Y-10.5
X1.5Y-12.325
X1.9688Y-12.0
X2.4375Y-12.325
X5.625Y-9.75
X1.875Y-9.75
X7.125Y-9.75
X6.375Y-9.75
X8.0625Y-10.5
X8.8125Y-10.5
X5.25Y-12.9375
X0.375Y-12.1875
X11.25Y-12.0
X8.8125Y-12.0
X14.625Y-12.75
X9.5625Y-10.5
X4.875Y-9.75
X3.375Y-9.75
X1.0312Y-10.075
X1.5Y-9.75
X1.9688Y-10.075
X14.9062Y-10.075
X15.375Y-9.75
X15.8438Y-10.075
X8.8125Y-9.75
X13.5Y-10.5
X14.25Y-11.25
X1.125Y-9.75
X0.375Y-9.75
X4.875Y-10.5
X3.375Y-10.5
X14.25Y-12.0
X13.5Y-11.25
X4.125Y-12.0
X13.5Y-12.0
X16.0312Y-11.25
X7.5Y-13.2625
X7.9688Y-12.9375
X8.4375Y-13.2625
X12.75Y-9.75
X11.25Y-10.5
X13.5Y-9.75
X5.625Y-10.5
X2.625Y-9.75
X4.125Y-11.25
X8.0625Y-9.75
X5.625Y-11.25
X4.875Y-12.0
X11.25Y-11.25
X16.5Y-12.1875
X15.0Y-11.25
X3.375Y-12.0
X8.0625Y-11.25
X3.2812Y-12.75
X6.2812Y-12.9375
X4.2188Y-12.75
X12.0Y-9.75
X11.25Y-9.75
X6.375Y-10.5
X4.125Y-10.5
X7.125Y-11.25
X6.375Y-12.0
X8.8125Y-11.25
X12.375Y-12.9375
X6.375Y-11.25
X9.5625Y-12.0
X12.0Y-11.25
X11.3438Y-12.9375
X15.2812Y-12.0
X1.6875Y-11.575
X2.1562Y-11.25
X2.625Y-11.575
X14.25Y-10.5
X16.8313Y-10.405
X16.8313Y-11.345
X17.1562Y-10.875
X0.375Y-10.5
X12.75Y-10.5
X16.5Y-9.75
X8.0625Y-12.0
X12.0Y-12.0
X15.75Y-12.9375
X9.5625Y-11.25
X4.875Y-11.25
X5.625Y-12.0
X0.4688Y-11.25
X13.5Y-12.75
X9.375Y-13.2625
X9.8438Y-12.9375
X10.3125Y-13.2625
X14.25Y-9.75
X10.5Y-9.75
X10.5Y-10.5
X16.125Y-10.5
X12.75Y-12.0
T0
M30
