%TF.GenerationSoftware,KiCad,Pcbnew,(5.1.6)-1*%
%TF.CreationDate,2020-07-08T00:30:10-04:00*%
%TF.ProjectId,railroad-keyboard-switch-plate,7261696c-726f-4616-942d-6b6579626f61,rev?*%
%TF.SameCoordinates,Original*%
%TF.FileFunction,Legend,Top*%
%TF.FilePolarity,Positive*%
%FSLAX46Y46*%
G04 Gerber Fmt 4.6, Leading zero omitted, Abs format (unit mm)*
G04 Created by KiCad (PCBNEW (5.1.6)-1) date 2020-07-08 00:30:10*
%MOMM*%
%LPD*%
G01*
G04 APERTURE LIST*
%ADD10C,0.150000*%
G04 APERTURE END LIST*
%TO.C,REF\u002A\u002A*%
D10*
X305657416Y-345613380D02*
X305324083Y-345137190D01*
X305085988Y-345613380D02*
X305085988Y-344613380D01*
X305466940Y-344613380D01*
X305562178Y-344661000D01*
X305609797Y-344708619D01*
X305657416Y-344803857D01*
X305657416Y-344946714D01*
X305609797Y-345041952D01*
X305562178Y-345089571D01*
X305466940Y-345137190D01*
X305085988Y-345137190D01*
X306085988Y-345089571D02*
X306419321Y-345089571D01*
X306562178Y-345613380D02*
X306085988Y-345613380D01*
X306085988Y-344613380D01*
X306562178Y-344613380D01*
X307324083Y-345089571D02*
X306990750Y-345089571D01*
X306990750Y-345613380D02*
X306990750Y-344613380D01*
X307466940Y-344613380D01*
X307990750Y-344613380D02*
X307990750Y-344851476D01*
X307752654Y-344756238D02*
X307990750Y-344851476D01*
X308228845Y-344756238D01*
X307847892Y-345041952D02*
X307990750Y-344851476D01*
X308133607Y-345041952D01*
X308752654Y-344613380D02*
X308752654Y-344851476D01*
X308514559Y-344756238D02*
X308752654Y-344851476D01*
X308990750Y-344756238D01*
X308609797Y-345041952D02*
X308752654Y-344851476D01*
X308895511Y-345041952D01*
X305530416Y-455849380D02*
X305197083Y-455373190D01*
X304958988Y-455849380D02*
X304958988Y-454849380D01*
X305339940Y-454849380D01*
X305435178Y-454897000D01*
X305482797Y-454944619D01*
X305530416Y-455039857D01*
X305530416Y-455182714D01*
X305482797Y-455277952D01*
X305435178Y-455325571D01*
X305339940Y-455373190D01*
X304958988Y-455373190D01*
X305958988Y-455325571D02*
X306292321Y-455325571D01*
X306435178Y-455849380D02*
X305958988Y-455849380D01*
X305958988Y-454849380D01*
X306435178Y-454849380D01*
X307197083Y-455325571D02*
X306863750Y-455325571D01*
X306863750Y-455849380D02*
X306863750Y-454849380D01*
X307339940Y-454849380D01*
X307863750Y-454849380D02*
X307863750Y-455087476D01*
X307625654Y-454992238D02*
X307863750Y-455087476D01*
X308101845Y-454992238D01*
X307720892Y-455277952D02*
X307863750Y-455087476D01*
X308006607Y-455277952D01*
X308625654Y-454849380D02*
X308625654Y-455087476D01*
X308387559Y-454992238D02*
X308625654Y-455087476D01*
X308863750Y-454992238D01*
X308482797Y-455277952D02*
X308625654Y-455087476D01*
X308768511Y-455277952D01*
X146907416Y-345486380D02*
X146574083Y-345010190D01*
X146335988Y-345486380D02*
X146335988Y-344486380D01*
X146716940Y-344486380D01*
X146812178Y-344534000D01*
X146859797Y-344581619D01*
X146907416Y-344676857D01*
X146907416Y-344819714D01*
X146859797Y-344914952D01*
X146812178Y-344962571D01*
X146716940Y-345010190D01*
X146335988Y-345010190D01*
X147335988Y-344962571D02*
X147669321Y-344962571D01*
X147812178Y-345486380D02*
X147335988Y-345486380D01*
X147335988Y-344486380D01*
X147812178Y-344486380D01*
X148574083Y-344962571D02*
X148240750Y-344962571D01*
X148240750Y-345486380D02*
X148240750Y-344486380D01*
X148716940Y-344486380D01*
X149240750Y-344486380D02*
X149240750Y-344724476D01*
X149002654Y-344629238D02*
X149240750Y-344724476D01*
X149478845Y-344629238D01*
X149097892Y-344914952D02*
X149240750Y-344724476D01*
X149383607Y-344914952D01*
X150002654Y-344486380D02*
X150002654Y-344724476D01*
X149764559Y-344629238D02*
X150002654Y-344724476D01*
X150240750Y-344629238D01*
X149859797Y-344914952D02*
X150002654Y-344724476D01*
X150145511Y-344914952D01*
X146780416Y-455722380D02*
X146447083Y-455246190D01*
X146208988Y-455722380D02*
X146208988Y-454722380D01*
X146589940Y-454722380D01*
X146685178Y-454770000D01*
X146732797Y-454817619D01*
X146780416Y-454912857D01*
X146780416Y-455055714D01*
X146732797Y-455150952D01*
X146685178Y-455198571D01*
X146589940Y-455246190D01*
X146208988Y-455246190D01*
X147208988Y-455198571D02*
X147542321Y-455198571D01*
X147685178Y-455722380D02*
X147208988Y-455722380D01*
X147208988Y-454722380D01*
X147685178Y-454722380D01*
X148447083Y-455198571D02*
X148113750Y-455198571D01*
X148113750Y-455722380D02*
X148113750Y-454722380D01*
X148589940Y-454722380D01*
X149113750Y-454722380D02*
X149113750Y-454960476D01*
X148875654Y-454865238D02*
X149113750Y-454960476D01*
X149351845Y-454865238D01*
X148970892Y-455150952D02*
X149113750Y-454960476D01*
X149256607Y-455150952D01*
X149875654Y-454722380D02*
X149875654Y-454960476D01*
X149637559Y-454865238D02*
X149875654Y-454960476D01*
X150113750Y-454865238D01*
X149732797Y-455150952D02*
X149875654Y-454960476D01*
X150018511Y-455150952D01*
X73247416Y-345486380D02*
X72914083Y-345010190D01*
X72675988Y-345486380D02*
X72675988Y-344486380D01*
X73056940Y-344486380D01*
X73152178Y-344534000D01*
X73199797Y-344581619D01*
X73247416Y-344676857D01*
X73247416Y-344819714D01*
X73199797Y-344914952D01*
X73152178Y-344962571D01*
X73056940Y-345010190D01*
X72675988Y-345010190D01*
X73675988Y-344962571D02*
X74009321Y-344962571D01*
X74152178Y-345486380D02*
X73675988Y-345486380D01*
X73675988Y-344486380D01*
X74152178Y-344486380D01*
X74914083Y-344962571D02*
X74580750Y-344962571D01*
X74580750Y-345486380D02*
X74580750Y-344486380D01*
X75056940Y-344486380D01*
X75580750Y-344486380D02*
X75580750Y-344724476D01*
X75342654Y-344629238D02*
X75580750Y-344724476D01*
X75818845Y-344629238D01*
X75437892Y-344914952D02*
X75580750Y-344724476D01*
X75723607Y-344914952D01*
X76342654Y-344486380D02*
X76342654Y-344724476D01*
X76104559Y-344629238D02*
X76342654Y-344724476D01*
X76580750Y-344629238D01*
X76199797Y-344914952D02*
X76342654Y-344724476D01*
X76485511Y-344914952D01*
X73120416Y-455722380D02*
X72787083Y-455246190D01*
X72548988Y-455722380D02*
X72548988Y-454722380D01*
X72929940Y-454722380D01*
X73025178Y-454770000D01*
X73072797Y-454817619D01*
X73120416Y-454912857D01*
X73120416Y-455055714D01*
X73072797Y-455150952D01*
X73025178Y-455198571D01*
X72929940Y-455246190D01*
X72548988Y-455246190D01*
X73548988Y-455198571D02*
X73882321Y-455198571D01*
X74025178Y-455722380D02*
X73548988Y-455722380D01*
X73548988Y-454722380D01*
X74025178Y-454722380D01*
X74787083Y-455198571D02*
X74453750Y-455198571D01*
X74453750Y-455722380D02*
X74453750Y-454722380D01*
X74929940Y-454722380D01*
X75453750Y-454722380D02*
X75453750Y-454960476D01*
X75215654Y-454865238D02*
X75453750Y-454960476D01*
X75691845Y-454865238D01*
X75310892Y-455150952D02*
X75453750Y-454960476D01*
X75596607Y-455150952D01*
X76215654Y-454722380D02*
X76215654Y-454960476D01*
X75977559Y-454865238D02*
X76215654Y-454960476D01*
X76453750Y-454865238D01*
X76072797Y-455150952D02*
X76215654Y-454960476D01*
X76358511Y-455150952D01*
X380587416Y-345613380D02*
X380254083Y-345137190D01*
X380015988Y-345613380D02*
X380015988Y-344613380D01*
X380396940Y-344613380D01*
X380492178Y-344661000D01*
X380539797Y-344708619D01*
X380587416Y-344803857D01*
X380587416Y-344946714D01*
X380539797Y-345041952D01*
X380492178Y-345089571D01*
X380396940Y-345137190D01*
X380015988Y-345137190D01*
X381015988Y-345089571D02*
X381349321Y-345089571D01*
X381492178Y-345613380D02*
X381015988Y-345613380D01*
X381015988Y-344613380D01*
X381492178Y-344613380D01*
X382254083Y-345089571D02*
X381920750Y-345089571D01*
X381920750Y-345613380D02*
X381920750Y-344613380D01*
X382396940Y-344613380D01*
X382920750Y-344613380D02*
X382920750Y-344851476D01*
X382682654Y-344756238D02*
X382920750Y-344851476D01*
X383158845Y-344756238D01*
X382777892Y-345041952D02*
X382920750Y-344851476D01*
X383063607Y-345041952D01*
X383682654Y-344613380D02*
X383682654Y-344851476D01*
X383444559Y-344756238D02*
X383682654Y-344851476D01*
X383920750Y-344756238D01*
X383539797Y-345041952D02*
X383682654Y-344851476D01*
X383825511Y-345041952D01*
X380460416Y-455849380D02*
X380127083Y-455373190D01*
X379888988Y-455849380D02*
X379888988Y-454849380D01*
X380269940Y-454849380D01*
X380365178Y-454897000D01*
X380412797Y-454944619D01*
X380460416Y-455039857D01*
X380460416Y-455182714D01*
X380412797Y-455277952D01*
X380365178Y-455325571D01*
X380269940Y-455373190D01*
X379888988Y-455373190D01*
X380888988Y-455325571D02*
X381222321Y-455325571D01*
X381365178Y-455849380D02*
X380888988Y-455849380D01*
X380888988Y-454849380D01*
X381365178Y-454849380D01*
X382127083Y-455325571D02*
X381793750Y-455325571D01*
X381793750Y-455849380D02*
X381793750Y-454849380D01*
X382269940Y-454849380D01*
X382793750Y-454849380D02*
X382793750Y-455087476D01*
X382555654Y-454992238D02*
X382793750Y-455087476D01*
X383031845Y-454992238D01*
X382650892Y-455277952D02*
X382793750Y-455087476D01*
X382936607Y-455277952D01*
X383555654Y-454849380D02*
X383555654Y-455087476D01*
X383317559Y-454992238D02*
X383555654Y-455087476D01*
X383793750Y-454992238D01*
X383412797Y-455277952D02*
X383555654Y-455087476D01*
X383698511Y-455277952D01*
X228187416Y-345613380D02*
X227854083Y-345137190D01*
X227615988Y-345613380D02*
X227615988Y-344613380D01*
X227996940Y-344613380D01*
X228092178Y-344661000D01*
X228139797Y-344708619D01*
X228187416Y-344803857D01*
X228187416Y-344946714D01*
X228139797Y-345041952D01*
X228092178Y-345089571D01*
X227996940Y-345137190D01*
X227615988Y-345137190D01*
X228615988Y-345089571D02*
X228949321Y-345089571D01*
X229092178Y-345613380D02*
X228615988Y-345613380D01*
X228615988Y-344613380D01*
X229092178Y-344613380D01*
X229854083Y-345089571D02*
X229520750Y-345089571D01*
X229520750Y-345613380D02*
X229520750Y-344613380D01*
X229996940Y-344613380D01*
X230520750Y-344613380D02*
X230520750Y-344851476D01*
X230282654Y-344756238D02*
X230520750Y-344851476D01*
X230758845Y-344756238D01*
X230377892Y-345041952D02*
X230520750Y-344851476D01*
X230663607Y-345041952D01*
X231282654Y-344613380D02*
X231282654Y-344851476D01*
X231044559Y-344756238D02*
X231282654Y-344851476D01*
X231520750Y-344756238D01*
X231139797Y-345041952D02*
X231282654Y-344851476D01*
X231425511Y-345041952D01*
X228060416Y-455849380D02*
X227727083Y-455373190D01*
X227488988Y-455849380D02*
X227488988Y-454849380D01*
X227869940Y-454849380D01*
X227965178Y-454897000D01*
X228012797Y-454944619D01*
X228060416Y-455039857D01*
X228060416Y-455182714D01*
X228012797Y-455277952D01*
X227965178Y-455325571D01*
X227869940Y-455373190D01*
X227488988Y-455373190D01*
X228488988Y-455325571D02*
X228822321Y-455325571D01*
X228965178Y-455849380D02*
X228488988Y-455849380D01*
X228488988Y-454849380D01*
X228965178Y-454849380D01*
X229727083Y-455325571D02*
X229393750Y-455325571D01*
X229393750Y-455849380D02*
X229393750Y-454849380D01*
X229869940Y-454849380D01*
X230393750Y-454849380D02*
X230393750Y-455087476D01*
X230155654Y-454992238D02*
X230393750Y-455087476D01*
X230631845Y-454992238D01*
X230250892Y-455277952D02*
X230393750Y-455087476D01*
X230536607Y-455277952D01*
X231155654Y-454849380D02*
X231155654Y-455087476D01*
X230917559Y-454992238D02*
X231155654Y-455087476D01*
X231393750Y-454992238D01*
X231012797Y-455277952D02*
X231155654Y-455087476D01*
X231298511Y-455277952D01*
X-5492583Y-346502380D02*
X-5825916Y-346026190D01*
X-6064011Y-346502380D02*
X-6064011Y-345502380D01*
X-5683059Y-345502380D01*
X-5587821Y-345550000D01*
X-5540202Y-345597619D01*
X-5492583Y-345692857D01*
X-5492583Y-345835714D01*
X-5540202Y-345930952D01*
X-5587821Y-345978571D01*
X-5683059Y-346026190D01*
X-6064011Y-346026190D01*
X-5064011Y-345978571D02*
X-4730678Y-345978571D01*
X-4587821Y-346502380D02*
X-5064011Y-346502380D01*
X-5064011Y-345502380D01*
X-4587821Y-345502380D01*
X-3825916Y-345978571D02*
X-4159250Y-345978571D01*
X-4159250Y-346502380D02*
X-4159250Y-345502380D01*
X-3683059Y-345502380D01*
X-3159250Y-345502380D02*
X-3159250Y-345740476D01*
X-3397345Y-345645238D02*
X-3159250Y-345740476D01*
X-2921154Y-345645238D01*
X-3302107Y-345930952D02*
X-3159250Y-345740476D01*
X-3016392Y-345930952D01*
X-2397345Y-345502380D02*
X-2397345Y-345740476D01*
X-2635440Y-345645238D02*
X-2397345Y-345740476D01*
X-2159250Y-345645238D01*
X-2540202Y-345930952D02*
X-2397345Y-345740476D01*
X-2254488Y-345930952D01*
X-5619583Y-455722380D02*
X-5952916Y-455246190D01*
X-6191011Y-455722380D02*
X-6191011Y-454722380D01*
X-5810059Y-454722380D01*
X-5714821Y-454770000D01*
X-5667202Y-454817619D01*
X-5619583Y-454912857D01*
X-5619583Y-455055714D01*
X-5667202Y-455150952D01*
X-5714821Y-455198571D01*
X-5810059Y-455246190D01*
X-6191011Y-455246190D01*
X-5191011Y-455198571D02*
X-4857678Y-455198571D01*
X-4714821Y-455722380D02*
X-5191011Y-455722380D01*
X-5191011Y-454722380D01*
X-4714821Y-454722380D01*
X-3952916Y-455198571D02*
X-4286250Y-455198571D01*
X-4286250Y-455722380D02*
X-4286250Y-454722380D01*
X-3810059Y-454722380D01*
X-3286250Y-454722380D02*
X-3286250Y-454960476D01*
X-3524345Y-454865238D02*
X-3286250Y-454960476D01*
X-3048154Y-454865238D01*
X-3429107Y-455150952D02*
X-3286250Y-454960476D01*
X-3143392Y-455150952D01*
X-2524345Y-454722380D02*
X-2524345Y-454960476D01*
X-2762440Y-454865238D02*
X-2524345Y-454960476D01*
X-2286250Y-454865238D01*
X-2667202Y-455150952D02*
X-2524345Y-454960476D01*
X-2381488Y-455150952D01*
X450437416Y-346502380D02*
X450104083Y-346026190D01*
X449865988Y-346502380D02*
X449865988Y-345502380D01*
X450246940Y-345502380D01*
X450342178Y-345550000D01*
X450389797Y-345597619D01*
X450437416Y-345692857D01*
X450437416Y-345835714D01*
X450389797Y-345930952D01*
X450342178Y-345978571D01*
X450246940Y-346026190D01*
X449865988Y-346026190D01*
X450865988Y-345978571D02*
X451199321Y-345978571D01*
X451342178Y-346502380D02*
X450865988Y-346502380D01*
X450865988Y-345502380D01*
X451342178Y-345502380D01*
X452104083Y-345978571D02*
X451770750Y-345978571D01*
X451770750Y-346502380D02*
X451770750Y-345502380D01*
X452246940Y-345502380D01*
X452770750Y-345502380D02*
X452770750Y-345740476D01*
X452532654Y-345645238D02*
X452770750Y-345740476D01*
X453008845Y-345645238D01*
X452627892Y-345930952D02*
X452770750Y-345740476D01*
X452913607Y-345930952D01*
X453532654Y-345502380D02*
X453532654Y-345740476D01*
X453294559Y-345645238D02*
X453532654Y-345740476D01*
X453770750Y-345645238D01*
X453389797Y-345930952D02*
X453532654Y-345740476D01*
X453675511Y-345930952D01*
X450310416Y-455722380D02*
X449977083Y-455246190D01*
X449738988Y-455722380D02*
X449738988Y-454722380D01*
X450119940Y-454722380D01*
X450215178Y-454770000D01*
X450262797Y-454817619D01*
X450310416Y-454912857D01*
X450310416Y-455055714D01*
X450262797Y-455150952D01*
X450215178Y-455198571D01*
X450119940Y-455246190D01*
X449738988Y-455246190D01*
X450738988Y-455198571D02*
X451072321Y-455198571D01*
X451215178Y-455722380D02*
X450738988Y-455722380D01*
X450738988Y-454722380D01*
X451215178Y-454722380D01*
X451977083Y-455198571D02*
X451643750Y-455198571D01*
X451643750Y-455722380D02*
X451643750Y-454722380D01*
X452119940Y-454722380D01*
X452643750Y-454722380D02*
X452643750Y-454960476D01*
X452405654Y-454865238D02*
X452643750Y-454960476D01*
X452881845Y-454865238D01*
X452500892Y-455150952D02*
X452643750Y-454960476D01*
X452786607Y-455150952D01*
X453405654Y-454722380D02*
X453405654Y-454960476D01*
X453167559Y-454865238D02*
X453405654Y-454960476D01*
X453643750Y-454865238D01*
X453262797Y-455150952D02*
X453405654Y-454960476D01*
X453548511Y-455150952D01*
%TD*%
M02*
