<?xml version="1.0" encoding="UTF-8" standalone="no"?>
<svg
   xmlns:dc="http://purl.org/dc/elements/1.1/"
   xmlns:cc="http://creativecommons.org/ns#"
   xmlns:rdf="http://www.w3.org/1999/02/22-rdf-syntax-ns#"
   xmlns:svg="http://www.w3.org/2000/svg"
   xmlns="http://www.w3.org/2000/svg"
   xmlns:sodipodi="http://sodipodi.sourceforge.net/DTD/sodipodi-0.dtd"
   xmlns:inkscape="http://www.inkscape.org/namespaces/inkscape"
   version="1.0"
   width="1280.000000pt"
   height="707.000000pt"
   viewBox="0 0 1280.000000 707.000000"
   preserveAspectRatio="xMidYMid meet"
   id="svg204"
   sodipodi:docname="public-domain-train.svg"
   inkscape:version="0.92.4 (5da689c313, 2019-01-14)"
   inkscape:export-filename="./public-domain-train.png"
   inkscape:export-xdpi="96"
   inkscape:export-ydpi="96">
  <defs
     id="defs208" />
  <sodipodi:namedview
     pagecolor="#ffffff"
     bordercolor="#666666"
     borderopacity="1"
     objecttolerance="10"
     gridtolerance="10"
     guidetolerance="10"
     inkscape:pageopacity="0"
     inkscape:pageshadow="2"
     inkscape:window-width="1920"
     inkscape:window-height="1017"
     id="namedview206"
     showgrid="false"
     inkscape:zoom="0.49884174"
     inkscape:cx="494.91104"
     inkscape:cy="440.62214"
     inkscape:window-x="-8"
     inkscape:window-y="828"
     inkscape:window-maximized="1"
     inkscape:current-layer="svg204" />
  <metadata
     id="metadata2">
Created by potrace 1.15, written by Peter Selinger 2001-2017
<rdf:RDF>
  <cc:Work
     rdf:about="">
    <dc:format>image/svg+xml</dc:format>
    <dc:type
       rdf:resource="http://purl.org/dc/dcmitype/StillImage" />
    <dc:title />
  </cc:Work>
</rdf:RDF>
</metadata>
  <g
     transform="translate(0.000000,707.000000) scale(0.100000,-0.100000)"
     fill="#000000"
     stroke="none"
     id="g202">
    <path
       d="M3715 7060 c-113 -17 -184 -51 -172 -83 26 -68 55 -243 74 -449 4 -43 3 -48 -15 -48 -29 0 -45 25 -37 60 l7 30 -55 0 c-81 0 -177 -40 -177 -75 0 -9 15 -7 58 11 73 30 132 32 132 5 0 -16 -17 -25 -82 -46 -46 -15 -98 -36 -116 -48 -40 -27 -72 -90 -72 -143 -1 -105 -20 -178 -80 -298 -47 -94 -62 -135 -67 -182 l-6 -62 -81 -17 c-186 -38 -302 -69 -321 -85 -11 -10 -30 -21 -42 -24 -12 -4 -38 -25 -57 -47 -35 -38 -37 -39 -89 -33 -29 3 -64 1 -80 -5 -26 -10 -27 -12 -13 -33 11 -19 11 -30 2 -60 -11 -35 -80 -116 -127 -149 -18 -12 -23 -27 -27 -77 -4 -51 -1 -66 17 -91 25 -34 27 -18 -32 -211 -48 -157 -67 -253 -77 -395 -10 -154 2 -329 35 -490 15 -70 25 -128 23 -130 -2 -1 -30 1 -63 6 -87 13 -404 1 -432 -17 -15 -9 -56 -14 -125 -15 -57 -1 -128 -4 -158 -7 l-55 -7 -3 -47 -3 -46 51 -11 c28 -6 83 -11 122 -11 l70 0 -6 -27 c-23 -94 -27 -103 -47 -103 -28 0 -35 -27 -13 -51 16 -17 16 -22 4 -29 -8 -6 -18 -10 -21 -10 -14 0 -18 -31 -8 -53 8 -17 2 -50 -26 -147 -29 -101 -164 -630 -189 -742 l-6 -28 -118 0 c-84 0 -125 4 -146 15 -33 18 -82 20 -92 4 -4 -7 -22 -9 -50 -4 -40 6 -44 4 -50 -19 -9 -37 2 -47 45 -40 l38 6 6 -62 c10 -89 9 -138 -3 -145 -5 -3 -10 -33 -10 -66 l0 -59 -90 0 c-82 0 -107 -8 -80 -25 16 -10 12 -157 -5 -179 -21 -28 -20 -203 0 -230 10 -13 15 -44 15 -92 l0 -71 31 -7 c17 -3 127 -6 244 -6 l212 0 6 51 c7 60 29 89 67 89 37 0 52 -21 58 -81 5 -55 11 -61 66 -69 31 -4 41 -10 47 -30 10 -34 38 -488 43 -687 l3 -162 -26 -24 c-14 -14 -44 -36 -67 -50 -41 -25 -54 -47 -73 -123 -19 -73 -29 -77 -229 -85 -97 -4 -271 -11 -387 -14 -116 -4 -223 -11 -240 -17 -16 -5 -75 -18 -130 -28 -55 -10 -138 -25 -183 -34 -46 -8 -113 -16 -148 -18 l-64 -2 0 -44 0 -44 48 6 c26 3 240 28 477 56 692 79 738 83 749 54 8 -22 8 -22 -12 -33 -34 -18 -817 -109 -1125 -130 -120 -8 -157 -18 -157 -43 0 -13 369 -1 565 18 147 15 511 59 570 70 28 5 34 1 70 -53 64 -93 79 -95 530 -63 154 11 341 20 416 20 187 0 352 14 634 55 132 19 576 77 987 129 573 73 755 93 780 85 46 -13 84 -11 97 5 9 10 3 19 -28 39 -37 25 -81 94 -81 130 0 31 -20 27 -117 -21 l-98 -49 -300 -22 c-165 -12 -354 -26 -420 -31 -66 -5 -190 -15 -275 -21 -131 -9 -167 -16 -232 -41 -43 -16 -82 -27 -87 -24 -8 5 1 73 15 118 7 24 57 38 134 38 42 0 71 5 77 13 6 6 27 84 48 172 54 228 72 269 96 208 11 -31 7 -66 -27 -208 -13 -55 -24 -116 -24 -135 0 -34 3 -36 45 -49 40 -12 48 -11 77 6 l33 19 12 137 c17 204 50 295 90 254 15 -15 15 -24 0 -121 -9 -57 -15 -111 -12 -119 4 -8 29 -18 63 -23 48 -8 57 -12 60 -32 3 -21 0 -22 -61 -22 -69 0 -81 -8 -66 -47 5 -15 14 -21 23 -17 9 3 23 -1 31 -10 21 -20 69 -21 89 -1 16 17 22 55 31 195 6 111 20 170 40 170 25 0 34 -34 28 -117 l-6 -81 34 -31 c28 -26 32 -32 19 -41 -8 -5 -27 -10 -42 -10 -24 0 -26 -3 -19 -27 6 -24 15 -29 67 -40 32 -7 71 -12 85 -13 l26 0 7 114 c4 63 6 149 5 190 -2 82 2 96 26 76 12 -10 15 -40 16 -154 2 -182 5 -196 49 -212 45 -16 92 -17 125 -2 23 10 34 28 18 28 -5 0 -15 4 -23 10 -12 7 -12 12 4 29 14 16 19 41 22 118 7 153 14 203 29 203 19 0 24 -20 35 -148 13 -148 19 -178 36 -193 11 -9 18 -8 29 1 9 7 27 10 44 7 17 -4 36 -1 46 7 19 14 19 73 -1 399 -7 103 -6 107 13 107 19 0 21 8 27 118 10 184 26 300 43 314 10 8 44 12 88 12 l73 -1 -5 38 c-6 43 12 99 32 99 20 0 65 -59 97 -127 56 -118 72 -229 72 -488 0 -298 -23 -442 -91 -579 l-25 -49 69 7 c37 4 122 11 188 16 66 6 185 19 265 31 119 18 153 19 193 10 35 -8 54 -8 69 0 20 11 19 12 -10 42 -50 51 -79 136 -107 310 -5 28 -10 37 -21 33 -9 -3 -14 1 -14 12 0 34 18 45 81 53 80 9 109 37 109 104 0 40 -2 45 -22 45 -33 0 -68 11 -68 20 0 5 24 16 54 24 179 52 289 273 256 513 -27 201 -102 334 -253 450 -31 24 -55 49 -52 54 10 14 63 11 98 -7 47 -25 138 -98 168 -136 23 -31 98 -161 144 -252 11 -22 25 -41 31 -43 11 -4 34 144 55 357 17 169 17 591 0 660 -44 179 -141 284 -336 365 -37 16 -38 18 -18 25 25 10 52 4 138 -32 103 -44 105 -44 105 -9 0 42 9 61 31 61 15 0 19 -7 19 -33 0 -33 2 -34 84 -65 45 -18 87 -32 93 -32 6 0 7 20 3 50 -4 28 -4 50 -2 50 15 0 31 -42 32 -82 0 -44 3 -49 43 -77 50 -34 77 -70 77 -103 0 -21 -1 -21 -29 6 -18 17 -36 26 -45 23 -24 -10 -19 -26 19 -64 29 -29 39 -34 64 -28 38 8 71 -31 71 -86 0 -37 2 -39 31 -39 26 0 30 3 24 18 -24 57 -18 63 40 35 19 -9 38 -14 41 -10 3 3 8 34 10 69 5 69 -2 85 -49 106 -27 11 -28 15 -25 72 4 72 21 80 28 13 4 -42 8 -48 29 -51 15 -3 30 3 38 14 14 19 18 131 5 151 -5 8 -44 12 -124 11 -120 0 -172 12 -149 35 8 8 79 13 214 15 l202 4 1 -42 1 -42 -48 4 -49 5 0 -41 c0 -23 -4 -58 -9 -78 -9 -38 -7 -42 36 -108 34 -51 4 -88 -32 -37 -13 19 -17 20 -25 7 -16 -25 -7 -54 22 -67 14 -7 31 -26 36 -42 11 -32 45 -56 68 -47 9 4 14 21 14 56 0 36 4 50 14 50 16 0 26 -30 26 -82 0 -35 2 -38 29 -38 15 0 49 -3 75 -6 l46 -7 0 -42 c0 -49 10 -55 98 -55 l52 0 0 106 c0 80 3 105 13 102 6 -3 13 -23 15 -46 2 -23 7 -42 13 -42 5 0 9 -36 9 -80 0 -44 2 -80 4 -80 3 0 17 5 31 10 39 15 69 3 83 -32 6 -16 16 -27 21 -23 16 9 13 -12 -9 -83 -14 -44 -20 -92 -20 -154 0 -80 -2 -89 -17 -86 -14 3 -18 14 -18 48 0 38 -3 45 -21 48 -27 4 -54 -22 -54 -53 0 -13 9 -75 20 -138 10 -63 20 -137 22 -166 2 -28 4 -51 6 -51 1 0 44 16 93 35 50 19 101 35 113 35 39 0 51 16 49 67 -1 31 -7 51 -19 60 -11 8 -15 20 -10 37 6 24 -20 96 -34 96 -9 0 -20 -77 -20 -134 0 -61 -10 -86 -32 -86 -18 0 -19 5 -13 78 10 124 25 214 45 283 24 77 24 79 6 79 -8 0 -21 -19 -30 -42 -19 -50 -37 -173 -29 -194 3 -9 -1 -14 -12 -14 -14 0 -16 6 -11 32 10 49 34 244 42 336 8 94 24 93 24 0 0 -57 0 -58 29 -58 18 0 40 11 59 30 54 51 98 36 142 -50 19 -38 19 -41 4 -65 -20 -30 -24 -28 -33 17 -6 28 -11 33 -40 36 -18 2 -39 -2 -47 -9 -23 -19 -64 -105 -64 -135 0 -21 25 -97 107 -324 4 -11 7 -12 10 -2 3 6 -2 40 -11 75 -21 86 -56 285 -55 316 l0 26 10 -24 c5 -13 23 -101 40 -195 30 -170 48 -235 34 -121 -21 171 -22 191 -12 203 14 17 22 6 23 -31 2 -137 3 -145 24 -140 19 5 20 0 20 -75 0 -69 2 -80 18 -84 16 -4 20 -19 25 -89 4 -46 7 -126 7 -176 0 -51 4 -93 8 -93 5 0 16 8 25 18 22 25 22 86 -3 246 -22 143 -25 196 -10 196 13 0 36 -85 54 -195 8 -49 20 -103 26 -120 6 -16 16 -97 21 -180 4 -82 11 -162 14 -176 8 -37 -23 -200 -42 -221 -44 -50 -54 0 -29 152 22 133 30 256 17 264 -14 9 -19 -15 -31 -174 -10 -118 -42 -320 -56 -341 -10 -17 76 -21 265 -16 149 5 221 3 300 -9 57 -8 105 -13 108 -11 2 3 -6 23 -18 46 -24 47 -24 46 13 55 30 7 54 -11 64 -49 7 -29 55 -42 97 -26 24 9 27 15 21 38 -9 38 -23 53 -48 53 -35 0 -66 12 -66 24 1 6 10 22 21 35 19 23 20 23 39 6 16 -14 23 -16 32 -7 20 20 26 14 33 -28 10 -60 30 -77 102 -84 65 -7 85 3 63 29 -19 23 -5 43 39 55 48 13 51 27 15 69 -23 27 -24 31 -7 31 10 0 31 -7 47 -15 35 -18 36 -18 36 -1 0 8 -23 28 -51 46 -48 29 -51 33 -45 63 6 33 38 67 62 67 22 0 17 16 -22 77 -34 53 -35 57 -18 70 10 7 23 13 30 13 14 0 45 191 37 238 -5 27 -9 32 -34 32 -28 0 -29 -1 -29 -55 0 -40 -4 -55 -14 -55 -25 0 -32 251 -10 357 2 13 9 23 14 23 6 0 10 -37 10 -88 0 -49 2 -91 5 -94 3 -3 17 -3 30 0 25 4 25 6 25 109 0 94 2 104 17 99 52 -20 111 -24 253 -16 85 5 157 7 161 5 3 -3 9 -37 11 -76 4 -52 10 -74 22 -81 39 -22 -5 -28 -200 -28 l-204 0 0 -59 0 -58 71 -7 c75 -8 93 -22 70 -58 -9 -15 -8 -28 9 -65 11 -25 20 -47 20 -49 0 -2 -13 -4 -29 -4 -24 0 -29 -5 -35 -31 -3 -17 -6 -53 -6 -80 0 -48 -1 -49 -30 -49 -35 0 -35 -1 -14 -41 12 -23 14 -47 8 -102 -6 -66 -9 -74 -42 -103 l-35 -30 23 -42 c33 -59 56 -63 97 -18 23 25 32 43 28 56 -9 29 71 72 126 68 39 -3 44 -7 66 -47 28 -54 52 -81 70 -81 17 0 33 41 26 68 -6 25 24 37 72 28 24 -5 43 -1 69 14 48 29 134 29 182 1 46 -27 58 -26 84 6 18 23 21 36 16 70 -3 24 -9 63 -12 88 -5 36 -4 44 7 40 28 -11 69 -82 69 -119 0 -38 20 -56 60 -56 65 0 122 70 166 203 l27 81 -28 49 c-30 53 -27 73 6 38 29 -30 40 -15 28 37 -11 49 -6 62 22 62 12 0 19 -7 19 -20 0 -23 3 -23 48 -11 39 12 34 -2 -7 -19 -37 -15 -60 -72 -41 -95 9 -10 10 -32 6 -66 -6 -42 -4 -53 10 -64 15 -11 13 -16 -24 -53 -39 -39 -62 -86 -48 -99 3 -3 24 0 46 7 37 12 41 11 74 -14 35 -26 52 -33 42 -17 -5 8 -7 113 -3 201 0 14 -3 43 -7 65 -8 40 -8 40 12 20 25 -25 45 -97 44 -154 -1 -48 13 -85 29 -75 6 3 51 10 100 14 78 6 93 10 118 34 l28 27 17 -25 c16 -25 87 -53 106 -41 15 9 12 43 -6 69 -23 37 2 44 37 10 16 -15 31 -26 33 -23 2 2 0 24 -4 49 -5 25 -9 101 -8 170 1 118 1 121 8 49 8 -79 31 -164 58 -212 30 -52 45 -21 17 34 -15 28 -14 32 4 54 11 15 17 34 14 45 -8 30 3 25 63 -32 63 -59 79 -58 103 5 17 45 9 67 -24 67 -30 0 -32 11 -4 28 14 9 18 19 14 32 -4 14 -2 20 9 20 12 0 16 11 16 50 0 38 4 50 15 50 11 0 15 -12 15 -45 0 -38 3 -45 20 -45 11 0 20 -4 20 -8 0 -5 -9 -17 -20 -27 -14 -13 -20 -31 -20 -62 0 -44 7 -52 27 -32 14 14 33 3 33 -20 0 -25 20 -81 30 -81 4 0 13 20 20 45 11 40 10 53 -9 111 -19 58 -20 68 -7 78 8 6 16 27 18 46 2 28 9 37 31 44 29 10 57 1 64 -21 2 -6 -13 -32 -33 -58 -29 -38 -34 -53 -29 -74 4 -14 10 -71 14 -126 l6 -99 38 -9 c20 -5 44 -6 52 -3 25 9 17 34 -12 38 -21 2 -29 10 -35 36 -8 28 -5 38 17 64 22 26 26 40 24 83 -3 62 4 75 39 75 23 0 24 -1 9 -12 -14 -11 -15 -22 -7 -78 8 -54 7 -67 -5 -76 -18 -14 -19 -38 -2 -52 6 -5 33 -13 60 -16 45 -7 47 -6 47 18 0 14 -6 30 -12 36 -7 5 -24 19 -38 30 -24 20 -25 20 -6 35 18 14 22 13 43 -7 15 -14 34 -21 59 -20 20 1 49 -5 64 -13 26 -13 60 -12 60 3 0 3 -12 18 -26 33 -14 15 -23 32 -20 38 12 19 23 12 45 -24 23 -39 61 -61 87 -51 15 6 15 9 -6 31 l-23 25 26 0 c20 0 33 -10 54 -41 24 -36 29 -39 38 -24 56 94 65 105 91 105 l26 0 -21 -34 c-12 -18 -21 -41 -21 -50 0 -37 107 -49 140 -16 11 11 20 25 20 30 0 20 65 11 78 -11 11 -16 16 -18 27 -9 8 7 28 10 44 8 27 -4 29 -2 35 36 l7 40 30 -36 c32 -40 86 -63 124 -54 16 4 22 11 18 24 -5 19 49 86 61 75 3 -3 6 -24 6 -45 0 -38 0 -38 41 -38 41 0 41 1 36 30 -6 29 6 50 18 30 12 -20 54 -11 71 15 32 49 47 49 131 5 77 -40 114 -47 182 -34 17 4 31 10 31 15 0 4 -35 25 -77 45 -43 20 -80 38 -82 40 -2 2 -6 29 -10 60 -7 71 -26 81 -35 20 -7 -47 -18 -56 -69 -56 -56 0 -60 8 -52 102 9 111 4 125 -48 135 -45 9 -54 25 -56 97 -1 22 -9 48 -18 59 -15 15 -19 42 -21 143 -4 123 -4 124 -33 148 -16 14 -29 27 -29 30 0 12 46 5 64 -9 11 -8 24 -15 28 -15 5 0 6 46 4 103 -2 56 -5 141 -5 190 -1 119 -6 123 -147 132 -60 3 -149 15 -197 26 -117 25 -127 25 -127 -6 0 -13 -5 -47 -11 -75 -9 -44 -14 -50 -36 -50 -26 0 -26 0 -19 68 33 347 30 428 -14 452 -20 11 -20 6 -20 -217 1 -125 5 -289 10 -363 16 -220 25 -720 13 -720 -6 0 -12 95 -16 253 -4 138 -16 376 -27 527 -12 151 -25 341 -29 423 -7 131 -10 150 -29 170 -12 13 -22 30 -22 39 0 9 -7 18 -15 22 -12 4 -15 -4 -15 -44 0 -38 4 -50 15 -50 13 0 15 -23 15 -147 0 -174 12 -344 44 -658 14 -126 27 -314 31 -417 6 -180 5 -188 -13 -188 -17 0 -20 13 -30 133 -7 72 -12 171 -12 218 0 124 -12 269 -21 269 -5 0 -9 -121 -9 -270 l0 -270 -34 0 c-19 0 -37 4 -41 9 -3 6 -8 52 -12 103 -5 79 -2 105 17 173 21 73 22 93 16 225 l-6 146 26 -1 c39 0 41 22 5 42 -27 16 -31 23 -31 63 0 25 -5 164 -11 310 -11 260 -11 266 9 310 17 38 19 48 8 64 -37 57 -50 1 -51 -209 -1 -456 -6 -726 -14 -721 -4 3 -11 36 -14 73 -7 77 9 799 19 838 4 18 2 25 -9 25 -11 0 -16 -17 -21 -62 -14 -143 -26 -581 -26 -995 0 -243 -3 -448 -6 -457 -3 -9 -16 -16 -29 -16 -20 0 -23 6 -29 61 -3 34 -6 375 -6 758 0 383 -4 689 -9 681 -14 -26 -29 -678 -31 -1370 l0 -125 -61 -19 c-45 -14 -63 -16 -72 -7 -6 6 -23 11 -37 11 l-27 0 -7 133 c-4 72 -9 317 -11 542 -5 562 -16 975 -26 1002 -7 18 -4 25 12 33 35 19 18 44 -39 56 -60 14 -70 6 -57 -43 3 -15 6 -136 6 -269 -1 -147 3 -253 9 -270 11 -29 1 -44 -31 -44 -15 0 -17 35 -21 325 -3 198 -9 330 -15 336 -5 5 -50 27 -99 48 -59 26 -93 46 -101 62 -19 36 -5 41 41 14 24 -14 50 -25 59 -25 32 0 17 20 -33 45 -27 14 -50 30 -50 35 0 5 -10 19 -22 30 -17 16 -31 20 -53 16 -35 -7 -51 2 -117 69 -41 40 -52 47 -76 42 -20 -4 -40 1 -68 18 -47 30 -54 30 -54 7 0 -12 18 -28 49 -45 27 -15 51 -34 55 -42 3 -8 4 -15 2 -15 -11 0 -287 152 -396 218 -69 42 -150 86 -180 98 -38 16 -56 29 -58 43 -2 12 2 21 8 21 6 0 84 -44 173 -98 246 -149 316 -185 324 -166 3 9 -1 22 -8 29 -8 7 -97 61 -199 120 -102 59 -205 120 -230 135 -45 28 -48 29 -312 43 -185 9 -272 18 -282 27 -9 7 -16 27 -16 44 0 18 -7 41 -15 52 -8 10 -15 17 -15 14 0 -3 -2 -94 -3 -202 l-3 -198 34 -16 c19 -9 64 -26 101 -38 79 -27 99 -54 84 -114 -6 -22 -6 -68 -1 -112 22 -191 26 -222 35 -231 5 -5 74 -26 153 -46 l145 -38 -2 -544 -1 -543 -31 -29 c-27 -24 -31 -35 -31 -78 0 -47 2 -51 24 -51 33 0 36 -8 22 -50 l-11 -35 -515 -5 c-283 -3 -520 -3 -527 -2 -9 3 -11 62 -10 230 2 228 -7 726 -23 1337 -6 236 -13 346 -24 385 -8 30 -12 57 -10 59 2 3 18 -5 34 -17 35 -27 76 -28 89 -4 5 9 12 34 16 54 l7 37 -88 3 -88 3 -10 33 c-6 21 -15 32 -27 32 -17 0 -19 9 -19 104 0 71 -4 107 -12 114 -7 6 -56 27 -108 48 -52 21 -104 48 -116 61 -12 13 -35 26 -53 29 l-31 7 0 -94 1 -94 20 25 c15 18 19 33 16 57 -6 35 15 48 27 18 3 -9 25 -24 49 -34 27 -12 46 -27 50 -40 3 -12 13 -21 25 -21 32 0 38 -41 34 -237 -4 -203 -10 -216 -58 -143 l-27 41 7 154 c5 128 4 155 -7 155 -11 0 -16 -25 -20 -97 -7 -115 4 -226 27 -270 13 -26 16 -63 16 -183 0 -127 2 -150 15 -150 12 0 15 18 15 100 0 81 3 100 15 100 11 0 15 -21 17 -107 2 -74 7 -108 16 -111 9 -3 12 26 12 122 0 77 4 126 10 126 6 0 10 -70 10 -189 0 -163 2 -190 16 -195 22 -8 34 1 34 27 0 28 16 54 27 43 4 -4 8 -92 9 -194 0 -103 4 -300 9 -439 l8 -252 26 -3 26 -3 -3 -199 c-1 -110 -5 -202 -8 -205 -16 -17 -24 41 -24 187 0 159 0 163 -22 171 -13 4 -103 19 -202 31 -167 22 -198 31 -208 60 -2 7 -14 7 -36 -1 -18 -6 -35 -9 -38 -7 -2 3 -8 358 -13 789 -5 431 -12 791 -14 799 -3 8 -8 90 -12 183 -7 192 -13 184 87 137 34 -16 70 -30 79 -30 9 0 67 -25 130 -56 77 -39 132 -59 169 -63 30 -4 60 -10 66 -14 7 -4 15 0 18 9 4 11 13 14 30 10 31 -8 57 19 28 28 -11 4 -22 15 -25 25 -5 22 -92 75 -107 66 -16 -10 -3 -23 48 -50 50 -26 41 -33 -16 -13 -30 11 -35 10 -50 -8 l-17 -21 -52 23 c-29 13 -53 30 -53 38 0 8 21 21 50 31 27 9 50 20 50 24 0 10 -100 64 -106 58 -3 -3 -1 -14 5 -25 17 -32 14 -35 -33 -28 -36 6 -46 4 -54 -10 -9 -15 -14 -15 -75 5 -71 24 -76 35 -27 63 34 19 39 42 13 53 -10 4 -53 9 -95 12 l-77 6 -26 53 c-29 60 -72 101 -151 145 -55 31 -74 49 -54 49 6 0 153 -72 327 -160 174 -88 317 -159 317 -158 1 2 12 23 24 48 l23 45 -6 -58 -5 -57 46 -28 c25 -15 66 -42 89 -59 36 -28 44 -30 49 -16 7 18 8 16 -21 32 -19 9 -23 20 -23 56 0 113 -37 185 -96 185 -23 0 -24 2 -24 90 0 103 10 116 59 81 16 -12 33 -21 38 -21 4 0 46 -22 93 -50 47 -28 93 -50 103 -50 11 0 72 -25 136 -55 115 -54 167 -68 159 -42 -4 13 -232 130 -458 235 -166 77 -199 82 -582 82 -217 0 -276 -3 -314 -16 -25 -8 -52 -13 -60 -10 -8 3 -14 1 -14 -3 0 -5 16 -13 35 -18 23 -5 32 -12 27 -20 -5 -8 -38 0 -117 32 -124 50 -287 100 -485 151 -74 19 -136 36 -138 38 -1 2 -6 35 -9 74 -5 64 -8 71 -29 75 -33 6 -42 -9 -46 -73 -4 -66 -9 -68 -115 -50 -48 9 -73 17 -73 26 0 8 -12 22 -27 31 -24 16 -50 18 -233 16 -199 -3 -206 -2 -232 20 l-28 22 15 55 c8 30 15 73 15 95 l0 40 -45 0 -45 0 7 -66 c3 -37 3 -78 -1 -92 -5 -23 -9 -24 -51 -19 -55 6 -60 -10 -16 -52 24 -23 34 -26 63 -21 25 5 38 2 47 -9 18 -21 8 -44 -21 -48 -22 -3 -23 -9 -31 -102 -9 -111 -6 -126 23 -126 18 0 20 6 20 73 0 81 4 91 30 77 24 -13 29 -77 17 -210 -4 -58 -8 -118 -8 -133 2 -39 -16 -67 -42 -67 -13 0 -49 16 -82 35 -32 20 -69 38 -82 41 -30 8 -36 19 -35 63 1 30 -5 42 -39 73 l-40 36 6 64 c14 161 24 451 18 526 -7 92 -12 97 -70 61 l-34 -21 7 44 c8 51 16 58 67 58 26 0 37 4 37 15 0 11 -12 15 -45 15 -38 0 -45 3 -45 19 0 30 -21 37 -41 13 -17 -21 -23 -22 -264 -22 l-246 0 3 -67 c3 -67 3 -68 42 -89 39 -22 63 -50 52 -61 -3 -3 -17 4 -31 15 -27 22 -76 34 -204 51 -44 6 -82 6 -91 1 -11 -6 -24 -4 -39 7 l-23 15 33 34 c27 28 31 38 23 52 -9 13 -61 34 -104 41 -3 1 15 18 40 39 l44 39 -12 41 c-16 51 -56 85 -95 79 -33 -4 -46 15 -27 38 21 25 60 17 101 -20 45 -40 59 -44 59 -14 0 33 -16 55 -77 104 l-57 47 -137 -4 c-133 -3 -139 -4 -166 -29 -15 -15 -50 -36 -78 -48 -27 -12 -72 -43 -98 -69 -83 -80 -117 -170 -117 -309 0 -84 -12 -106 -30 -58 -13 35 -48 34 -52 -2 -3 -26 -7 -28 -58 -33 -64 -7 -100 -24 -100 -48 0 -26 29 -62 50 -62 10 0 21 -4 24 -9 10 -15 -6 -43 -20 -37 -7 3 -15 2 -18 -2 -8 -14 68 -77 151 -127 99 -59 145 -94 122 -95 -13 0 -141 76 -291 173 -9 6 -20 8 -24 4 -10 -10 13 -33 54 -54 82 -41 172 -98 177 -111 8 -21 -28 -6 -104 43 -36 23 -74 45 -85 49 -17 6 -18 5 -4 -16 8 -13 44 -39 79 -58 77 -41 115 -68 108 -74 -6 -7 -113 36 -133 53 -10 8 -28 11 -46 7 -24 -4 -30 -2 -30 12 0 10 -14 36 -30 59 -26 36 -29 45 -20 69 6 16 8 39 5 52 -4 18 -1 25 15 29 11 3 20 11 20 18 0 19 -45 27 -106 19 l-54 -6 0 55 c0 57 -8 67 -50 67 -22 0 -30 -19 -30 -76 0 -43 -1 -44 -31 -44 l-31 0 7 108 c9 126 -3 178 -65 302 -45 90 -56 126 -70 245 -6 49 -20 109 -31 134 l-19 43 23 -14 c40 -27 57 -71 71 -189 8 -63 19 -126 25 -140 8 -21 77 -133 113 -184 16 -23 18 7 3 69 -16 73 -12 151 12 220 7 21 13 63 13 94 0 30 5 72 12 93 8 29 8 45 0 63 -9 21 -6 34 23 87 18 35 32 66 29 70 -2 4 -18 4 -34 -1 -16 -5 -32 -5 -34 -2 -2 4 -7 32 -11 62 -6 46 -4 59 13 80 33 43 35 65 7 98 -38 45 -33 57 33 76 74 21 84 20 115 -4 33 -27 65 -25 102 4 26 22 28 26 15 39 -9 8 -55 19 -107 25 -62 7 -114 21 -162 41 -61 27 -79 31 -158 30 -48 -1 -110 -5 -138 -9z m-29 -856 c6 -88 14 -166 19 -173 8 -14 7 -14 -36 8 -30 15 -39 44 -39 127 0 29 -4 64 -10 78 -5 14 -6 27 -1 30 4 3 6 26 5 51 -3 45 -2 46 24 43 l27 -3 11 -161z m-317 1 c-12 -135 -30 -201 -65 -238 -14 -16 -28 -26 -31 -24 -2 3 7 32 21 64 15 35 32 108 42 179 19 141 22 150 34 138 5 -5 5 -53 -1 -119z m361 -260 c7 -8 25 -15 41 -15 29 0 59 -22 59 -44 0 -10 -38 -12 -167 -9 -161 4 -220 9 -211 18 2 3 51 12 109 21 57 9 113 23 124 30 25 18 30 17 45 -1z m2071 -122 l49 -26 0 -86 c0 -105 -8 -121 -44 -98 -16 11 -23 23 -20 32 4 8 1 15 -5 15 -7 0 -11 26 -11 73 0 49 -5 80 -16 95 -20 28 -12 28 47 -5z m-2516 -28 c39 -8 128 -17 198 -21 l128 -7 -3 -31 c-3 -30 -1 -31 37 -34 54 -4 64 -16 37 -45 -12 -13 -22 -27 -22 -32 0 -4 29 -5 65 -1 40 4 65 3 65 -3 0 -6 16 -13 35 -17 39 -7 37 4 40 -152 1 -74 -2 -105 -11 -113 -10 -8 -75 -8 -226 0 -117 5 -238 8 -269 4 -31 -3 -87 -2 -123 2 l-66 7 0 66 c0 37 3 96 6 132 6 62 9 67 43 90 l36 24 -38 14 c-25 10 -37 20 -35 31 3 13 21 16 113 16 92 0 110 2 113 16 2 13 -10 17 -59 23 -34 3 -82 6 -105 6 -42 0 -57 14 -37 33 8 8 -5 10 78 -8z m1493 -133 c3 -103 3 -103 -20 -100 -22 3 -23 9 -29 98 -3 52 -4 99 -1 103 2 5 14 7 25 5 21 -3 22 -9 25 -106z m-187 -53 c32 -106 16 -187 -24 -120 -19 33 -41 174 -31 205 6 19 7 19 21 0 8 -10 23 -49 34 -85z m816 79 c15 -19 37 -118 34 -150 -5 -57 26 -133 74 -177 24 -22 53 -41 62 -41 10 0 45 -11 77 -25 33 -13 61 -23 63 -21 1 1 -29 37 -67 78 -106 116 -89 119 46 10 57 -45 90 -80 102 -106 16 -36 27 -44 150 -102 72 -35 132 -68 132 -74 0 -6 -5 -20 -11 -31 -10 -19 -12 -18 -77 15 -99 51 -318 151 -385 175 -32 12 -68 27 -80 35 -12 8 -39 19 -59 26 -47 14 -55 26 -33 50 15 17 14 20 -15 54 -18 20 -36 36 -40 36 -5 0 -14 -16 -20 -35 -6 -19 -15 -37 -19 -40 -7 -4 -179 60 -190 71 -3 2 6 18 18 35 25 33 27 25 -25 97 -16 21 -16 25 7 72 13 27 31 51 39 53 37 11 208 7 217 -5z m-2383 -161 c-7 -161 -9 -170 -34 -157 -16 9 -20 21 -20 65 0 61 -19 77 -21 18 -1 -36 -1 -37 -9 -11 -15 50 -52 72 -77 47 -17 -17 -31 -3 -26 26 8 38 -5 73 -27 77 -12 2 -22 8 -23 13 -2 10 221 56 235 48 4 -2 5 -59 2 -126z m-384 -178 l-11 -20 -32 20 c-18 11 -33 29 -35 41 -5 32 17 89 52 128 l31 35 3 -91 c2 -54 -2 -101 -8 -113z m84 124 c5 -40 3 -55 -9 -67 -31 -30 -38 -19 -33 53 8 111 29 119 42 14z m75 -43 c0 -48 -4 -81 -13 -93 -12 -16 -14 -15 -20 15 -3 17 -2 36 3 41 4 4 6 28 3 52 -2 24 -1 56 3 72 7 26 8 26 15 8 5 -11 9 -54 9 -95z m2269 17 c21 -20 30 -47 15 -47 -21 0 -192 32 -220 41 -28 9 -33 15 -33 43 0 18 2 35 5 38 11 10 210 -54 233 -75z m-2205 -24 c4 -37 -6 -63 -24 -63 -5 0 -9 23 -9 50 0 62 25 71 33 13z m77 -19 c0 -14 -14 -33 -21 -28 -15 9 -10 31 6 31 8 0 15 -1 15 -3z m1247 -33 c25 -37 29 -71 13 -102 -12 -21 -50 -25 -68 -7 -13 13 -17 105 -6 133 10 24 35 14 61 -24z m1043 -46 c142 -39 158 -49 211 -130 27 -43 24 -48 -17 -20 -38 25 -102 48 -114 40 -4 -3 -22 0 -39 6 -25 9 -29 14 -21 24 15 19 -10 31 -82 39 -47 6 -62 13 -83 38 -24 29 -25 54 -1 45 6 -2 72 -21 146 -42z m-2761 -46 c15 -44 14 -81 -5 -107 -23 -34 -34 -27 -34 23 0 34 -5 48 -20 57 -24 15 -25 35 -4 59 22 24 48 10 63 -32z m2497 41 c15 -6 47 -28 70 -50 26 -23 59 -43 86 -49 115 -29 243 -84 233 -101 -3 -6 -19 -10 -36 -10 -16 0 -29 -4 -29 -8 0 -5 -6 -17 -14 -27 -13 -17 -15 -17 -49 9 -20 16 -34 32 -31 37 3 5 -1 9 -8 9 -7 1 -49 7 -93 15 -100 18 -114 18 -51 -2 48 -14 166 -95 166 -113 0 -18 -22 -21 -78 -10 -31 7 -67 14 -79 16 -12 2 -45 27 -72 54 -60 60 -89 67 -36 9 20 -22 35 -42 33 -44 -2 -2 -73 18 -158 44 -85 27 -157 47 -159 45 -7 -6 21 -34 35 -34 29 0 323 -102 355 -123 18 -12 39 -33 45 -46 7 -12 17 -28 24 -34 19 -18 3 43 -17 66 -29 32 -4 31 63 -3 56 -29 68 -32 86 -21 11 7 21 11 23 9 2 -2 24 -31 50 -66 90 -124 175 -326 195 -466 12 -82 14 -86 47 -86 25 0 25 1 19 53 -10 69 -80 286 -119 362 -16 33 -45 84 -63 113 -29 45 -31 52 -15 52 21 0 203 -53 260 -76 49 -19 73 -70 95 -204 15 -93 25 -291 16 -320 -4 -11 4 -16 32 -18 54 -5 72 10 103 82 16 39 35 68 46 71 20 7 27 45 9 45 -6 0 -30 -20 -54 -45 l-43 -45 -6 122 c-4 68 -11 142 -17 165 -5 24 -14 74 -20 112 -6 46 -19 83 -35 108 -16 22 -22 39 -15 41 9 3 116 -26 166 -45 14 -5 15 -3 6 14 -15 27 -86 56 -202 83 -52 12 -135 33 -184 46 -50 13 -91 22 -93 20 -16 -16 38 -56 76 -56 60 0 101 -38 125 -117 10 -31 -1 -30 -169 16 -118 33 -143 43 -160 66 -17 24 -18 29 -5 33 8 3 30 20 49 39 27 27 32 39 29 64 -4 24 -2 29 11 23 50 -23 187 -65 256 -79 44 -9 125 -33 180 -54 107 -42 165 -57 165 -45 0 5 -15 23 -32 42 -32 33 -32 34 -8 27 14 -4 41 -22 60 -40 28 -27 39 -31 57 -24 19 7 33 -1 88 -47 36 -30 65 -59 65 -65 0 -16 -38 -10 -86 16 -46 24 -74 31 -74 19 0 -4 16 -24 35 -45 39 -43 42 -54 20 -62 -9 -4 -31 17 -64 63 -52 71 -86 99 -102 83 -6 -6 13 -37 46 -78 30 -38 54 -74 52 -80 -5 -13 -47 -8 -128 16 -79 23 -79 23 -79 5 0 -10 29 -24 83 -40 49 -15 92 -35 104 -48 12 -13 40 -66 63 -118 45 -100 65 -130 87 -130 21 0 16 16 -37 117 -27 52 -50 99 -50 103 0 4 7 10 15 13 17 7 83 -108 110 -191 12 -39 22 -53 40 -58 27 -7 50 -30 38 -37 -4 -3 -40 3 -78 13 -90 23 -237 41 -248 31 -5 -5 5 -18 22 -31 37 -26 34 -38 -8 -32 -35 5 -86 -27 -97 -61 -4 -12 -8 -50 -8 -85 l-1 -62 35 -10 c53 -15 85 -12 104 9 17 19 17 20 -21 30 -21 6 -43 11 -49 11 -7 0 -14 9 -17 20 -5 20 3 26 16 13 4 -3 19 -7 34 -9 16 -1 42 -5 58 -9 26 -5 37 1 78 41 27 25 47 47 45 48 -2 1 -21 7 -43 12 -27 6 -41 15 -43 28 -4 16 0 18 29 12 92 -18 106 -25 113 -56 7 -36 38 -41 71 -10 21 20 21 20 131 -4 60 -13 129 -28 154 -32 63 -13 90 -57 126 -206 6 -27 5 -28 -39 -28 -55 0 -77 -19 -77 -64 0 -18 -7 -41 -15 -52 -14 -18 -16 -18 -29 -1 -18 23 -33 22 -41 -3 -10 -31 -9 -80 2 -91 5 -5 43 -16 84 -24 41 -7 94 -21 119 -30 97 -34 468 -109 516 -103 41 4 37 29 -8 53 -21 11 -38 23 -38 28 0 4 16 15 35 24 19 9 35 20 35 24 0 4 -22 23 -50 43 -43 31 -48 39 -41 58 13 37 36 32 80 -19 34 -38 44 -44 52 -33 5 8 6 31 2 50 -4 19 -6 50 -6 68 1 17 -2 32 -6 32 -4 0 -22 13 -41 30 -29 25 -33 31 -20 40 8 5 27 10 43 10 26 0 40 20 15 20 -7 1 -26 7 -43 15 -28 13 -23 14 65 12 l95 -2 18 -35 c14 -27 17 -50 13 -105 -8 -127 36 -345 75 -366 11 -5 61 -19 112 -30 51 -11 126 -35 167 -54 41 -18 142 -52 224 -74 135 -37 165 -50 166 -73 0 -26 -93 -6 -356 77 -97 31 -215 65 -263 76 -143 33 -151 36 -151 70 0 24 -4 29 -25 29 -21 0 -25 -5 -25 -30 0 -28 -2 -29 -32 -24 -284 50 -915 184 -1230 260 l-187 45 -3 32 c-3 31 -4 32 -60 35 -32 2 -58 4 -58 5 0 1 6 34 14 72 8 39 16 99 18 134 3 64 3 64 -27 73 -16 5 -58 6 -91 2 -68 -7 -116 2 -93 17 8 5 24 9 37 9 43 0 21 18 -35 28 -104 20 -153 24 -153 15 0 -5 16 -15 35 -22 19 -7 35 -16 35 -21 0 -9 -30 -6 -154 16 -43 8 -93 14 -112 14 -19 0 -34 3 -34 8 0 4 20 30 45 59 25 28 45 53 45 56 0 3 -17 8 -39 12 -33 5 -41 12 -54 46 -8 21 -21 39 -29 39 -7 0 -23 -18 -36 -41 -28 -48 -45 -46 -52 7 -7 52 -35 59 -48 12 -11 -42 -39 -50 -44 -12 -4 37 -35 55 -52 32 -15 -21 -30 -217 -20 -265 8 -38 24 -44 24 -9 0 45 10 56 49 56 31 0 40 -5 50 -26 11 -25 12 -26 31 -9 19 17 22 17 67 -3 27 -11 113 -30 193 -41 164 -23 170 -27 170 -101 0 -26 3 -75 6 -109 l7 -61 -37 0 c-33 0 -36 -2 -36 -30 0 -20 5 -30 15 -30 18 0 20 -57 5 -110 -6 -19 -15 -82 -20 -140 -8 -96 -103 -612 -167 -905 -14 -66 -28 -135 -31 -153 -7 -52 -27 -32 -28 29 0 30 -6 67 -12 82 -18 42 -15 78 13 163 14 42 25 94 25 116 0 25 8 50 21 66 17 22 19 35 14 75 -6 37 -3 52 9 66 9 10 25 53 37 97 18 71 19 81 6 104 -13 22 -13 31 4 85 58 185 78 389 45 468 -11 27 -13 28 -71 23 -33 -3 -103 -8 -156 -12 l-96 -6 -7 59 c-4 32 -7 79 -6 105 1 38 -3 49 -21 58 -27 15 -35 5 -49 -70 -19 -94 -18 -91 -44 -65 -28 28 -57 24 -86 -13 -24 -30 -25 -49 -4 -102 31 -78 -7 -59 -71 35 l-36 52 16 84 c8 46 16 116 18 154 2 69 2 70 -25 73 -25 3 -27 0 -33 -45 -9 -71 -26 -176 -31 -192 -4 -11 -7 -12 -16 -3 -18 18 -39 15 -64 -9 -18 -17 -21 -26 -13 -41 8 -15 6 -23 -12 -37 l-23 -18 29 -27 c17 -15 46 -35 65 -45 40 -21 76 -58 67 -67 -3 -4 -27 8 -53 25 -26 17 -56 31 -67 31 -11 0 -28 7 -38 16 -15 14 -18 13 -37 -13 -33 -48 -54 -94 -57 -130 -4 -42 -10 -49 -29 -34 -13 11 -18 7 -30 -23 -16 -39 -41 -55 -58 -38 -8 8 5 39 44 109 123 219 170 399 169 658 0 144 -15 260 -52 395 -22 83 -134 318 -174 365 -23 27 -26 28 -36 12 -14 -24 -29 -12 -29 23 0 52 8 61 38 46 48 -24 78 -26 138 -10 97 25 215 44 280 44 77 0 177 -31 228 -70 24 -18 52 -30 69 -30 29 0 27 2 -34 48 -96 73 -111 97 -43 72z m1533 -127 c55 -62 61 -78 32 -88 -10 -3 -21 -15 -24 -26 -6 -21 -6 -21 -39 -2 -44 24 -48 30 -48 83 0 52 9 90 20 90 5 0 31 -26 59 -57z m-2229 -61 c0 -31 -2 -33 -27 -28 -16 3 -74 8 -131 12 -107 7 -130 16 -88 35 17 8 50 9 110 2 l85 -9 -6 30 -6 29 31 -19 c26 -15 32 -25 32 -52z m4338 -74 c4 -115 2 -121 -41 -93 -13 8 -78 33 -146 54 -67 22 -132 46 -144 53 -12 8 -52 27 -89 42 -38 16 -68 32 -68 37 0 12 72 16 289 15 l194 -1 5 -107z m-5463 -34 c30 -19 70 -58 90 -86 26 -36 40 -47 47 -40 8 8 3 23 -17 52 -15 22 -25 43 -22 46 12 12 177 -89 177 -109 0 -5 -10 -7 -23 -4 -42 11 -73 -34 -62 -89 6 -33 5 -34 -18 -29 -21 6 -25 1 -37 -37 l-14 -43 -7 82 c-4 59 -14 98 -33 138 -25 50 -42 68 -126 135 -41 32 -12 22 45 -16z m-37 -30 c61 -30 92 -76 116 -169 22 -81 21 -95 -6 -95 -20 0 -21 -1 -6 -16 23 -24 5 -80 -48 -148 -38 -48 -47 -55 -64 -46 -25 13 -56 13 -96 -2 -26 -9 -32 -17 -31 -37 2 -25 0 -26 -48 -22 -67 4 -87 13 -139 62 -111 101 -107 280 8 407 83 92 209 118 314 66z m-744 -9 c-1 -11 -15 -51 -31 -90 -17 -38 -40 -106 -53 -150 -44 -152 -51 -107 -9 55 46 176 60 211 77 208 10 -2 16 -12 16 -23z m1756 -55 c27 -29 43 -62 54 -112 5 -20 13 -27 34 -30 24 -3 27 -7 30 -45 l3 -43 -89 0 c-67 0 -93 -4 -102 -15 -17 -20 -32 -19 -52 4 -8 10 -21 20 -28 23 -8 2 -10 15 -5 41 l7 37 64 0 64 0 0 54 c0 55 -8 66 -49 66 -25 0 -55 25 -47 38 4 7 25 12 48 12 31 0 46 -6 68 -30z m2370 -31 c0 -39 1 -41 58 -65 31 -14 66 -34 77 -44 11 -10 60 -35 108 -56 60 -25 91 -43 97 -58 11 -30 3 -38 -30 -31 -23 5 -30 2 -35 -14 -5 -17 -15 -21 -54 -21 -41 0 -51 5 -82 36 -54 57 -108 89 -196 118 -57 19 -89 36 -104 54 -11 15 -16 28 -11 30 5 1 39 -11 77 -28 37 -17 69 -29 71 -27 9 8 -58 75 -81 81 -14 4 -25 14 -25 22 0 12 6 15 25 10 14 -3 37 -9 51 -12 21 -6 25 -3 24 12 -3 29 -1 34 15 34 11 0 15 -11 15 -41z m-3046 -90 c22 -26 26 -40 26 -94 0 -70 -14 -120 -30 -110 -6 4 -18 1 -26 -6 -24 -20 -37 3 -45 78 -8 66 1 122 24 151 14 18 23 15 51 -19z m2314 -12 c24 -29 65 -357 45 -357 -10 0 -23 77 -23 141 0 29 -17 104 -47 212 -6 20 10 23 25 4z m629 -64 c31 -20 79 -58 107 -84 l51 -48 -35 9 c-47 13 -49 12 -21 -10 13 -11 55 -30 95 -41 39 -12 80 -30 91 -40 16 -14 30 -17 57 -13 22 4 56 0 88 -11 51 -17 51 -17 101 -118 28 -56 55 -106 60 -112 22 -22 -5 53 -48 133 -24 45 -40 82 -35 82 8 0 140 -58 150 -66 2 -1 -1 -12 -8 -23 -10 -20 -12 -20 -36 -5 -13 9 -26 15 -28 13 -10 -10 26 -71 44 -76 12 -3 27 -18 35 -34 18 -33 13 -37 -74 -63 -87 -26 -104 -22 -153 30 -77 83 -281 265 -358 320 -42 29 -85 62 -95 75 -11 12 -44 37 -73 55 -47 31 -52 36 -41 55 15 29 54 20 126 -28z m-1982 -151 c0 -69 2 -77 20 -80 31 -6 38 -17 30 -52 -6 -29 -10 -31 -42 -28 l-36 3 -4 113 c-5 121 -1 154 20 133 7 -7 12 -42 12 -89z m1882 63 c17 -7 40 -26 49 -42 32 -49 154 -180 195 -208 70 -50 54 -17 -41 80 -52 52 -89 95 -84 95 5 0 78 -55 162 -121 145 -116 181 -156 130 -144 -298 68 -300 69 -364 149 -30 36 -54 73 -54 81 0 25 -29 88 -53 114 l-22 23 25 -7 c14 -4 39 -13 57 -20z m714 -26 c207 -75 289 -111 289 -125 0 -19 -22 -13 -102 27 -61 31 -103 38 -96 17 3 -7 24 -20 49 -29 41 -16 70 -42 58 -54 -3 -3 -21 1 -40 9 -19 7 -84 28 -145 46 l-112 33 -6 36 c-3 20 -6 49 -6 65 0 23 3 26 14 17 7 -6 51 -25 97 -42z m-2911 2 c33 -9 39 -46 9 -61 -32 -18 -116 -7 -135 16 -41 53 -40 54 33 53 37 -1 79 -4 93 -8z m-885 -226 c1 -14 -3 -25 -7 -25 -4 0 -8 6 -8 13 0 6 -3 23 -6 37 -6 21 -5 23 7 12 8 -7 14 -24 14 -37z m4001 -61 c0 -27 4 -75 8 -106 7 -57 7 -58 -17 -58 -17 0 -26 -7 -30 -21 -4 -15 -12 -20 -29 -17 -19 2 -24 10 -26 40 -2 29 1 38 16 42 15 5 21 19 26 59 13 114 50 157 52 61z m294 -132 c0 -17 -10 -38 -24 -51 l-24 -22 -16 22 c-19 28 -21 110 -3 128 17 17 67 -39 67 -77z m2026 24 c-8 -37 -23 -56 -46 -56 -34 0 -35 81 -2 107 25 20 55 -13 48 -51z m95 27 c10 -28 3 -83 -11 -83 -4 0 -6 8 -3 18 2 10 -3 24 -11 31 -14 12 -18 9 -31 -20 l-14 -34 -1 39 c0 66 51 102 71 49z m139 -27 c0 -21 -6 -36 -15 -40 -8 -3 -15 -15 -15 -26 0 -11 -4 -20 -10 -20 -5 0 -10 8 -10 18 0 11 -9 27 -20 37 -23 21 -18 32 24 51 44 19 46 18 46 -20z m-2968 -5 c16 -6 37 -25 48 -43 l19 -32 -26 -28 c-32 -33 -43 -35 -43 -9 0 11 -13 33 -29 48 -16 15 -37 41 -47 57 l-18 29 34 -5 c19 -4 47 -11 62 -17z m1910 -13 c1 -18 0 -53 -1 -77 -3 -37 0 -43 13 -38 9 4 16 2 16 -2 0 -5 -7 -11 -15 -15 -12 -4 -15 -33 -15 -170 0 -99 -4 -167 -10 -171 -7 -4 -10 52 -10 159 0 106 -4 166 -10 166 -6 0 -38 -11 -72 -25 -74 -30 -71 -30 -59 -6 6 10 35 29 66 41 31 12 60 31 65 41 6 10 10 43 10 73 0 59 19 79 22 24z m1238 -21 c0 -15 14 -31 46 -51 l45 -29 -6 -73 c-9 -95 7 -98 30 -6 24 94 23 92 34 92 18 0 24 -51 14 -116 -5 -35 -6 -70 -1 -77 4 -6 8 -43 8 -80 0 -65 -1 -68 -21 -62 -20 7 -20 6 -4 -26 18 -34 46 -224 44 -299 -1 -25 -3 -34 -6 -20 -10 67 -13 71 -76 101 -77 36 -89 37 -85 3 2 -22 14 -31 66 -52 61 -25 62 -26 62 -64 0 -49 -14 -54 -74 -28 -60 25 -58 25 -54 -7 3 -22 13 -30 67 -50 66 -25 97 -24 87 2 -3 8 0 15 6 15 7 0 9 -22 5 -70 -7 -86 -15 -102 -34 -66 -8 16 -22 26 -36 26 -12 0 -32 3 -44 6 -21 6 -23 3 -23 -29 0 -35 1 -36 56 -48 44 -10 58 -18 65 -36 8 -22 13 -83 7 -83 -2 0 -28 7 -58 15 -30 8 -56 15 -57 15 -2 0 -3 -11 -3 -25 0 -19 7 -26 38 -34 20 -6 43 -11 50 -11 6 0 21 -9 32 -20 18 -18 20 -33 20 -131 l0 -111 -37 6 c-21 4 -50 9 -65 12 -23 5 -28 2 -28 -14 0 -30 15 -39 93 -56 32 -7 36 -38 11 -74 -14 -20 -22 -22 -55 -17 -35 6 -39 5 -39 -14 0 -26 15 -35 75 -41 l50 -5 1 -193 c1 -160 -1 -192 -12 -188 -8 3 -20 9 -28 12 -25 10 -27 -25 -2 -41 19 -13 24 -28 30 -83 17 -171 17 -172 1 -172 -9 0 -20 11 -25 25 -8 21 -16 24 -72 27 l-63 3 -6 165 c-3 91 -7 168 -8 171 0 4 -17 10 -36 13 -43 8 -44 22 -4 44 l31 17 -9 90 c-4 50 -8 279 -8 510 0 231 -4 611 -9 844 -7 322 -6 422 2 417 7 -4 12 -17 12 -29z m-4181 -104 c-6 -32 -14 -73 -16 -90 -5 -33 -6 -33 -62 -33 l-57 0 -12 89 c-19 141 -22 134 46 127 40 -4 64 -2 82 8 24 14 25 13 28 -14 2 -16 -2 -55 -9 -87z m4421 -26 c0 -30 26 -77 42 -77 6 0 7 11 4 25 -8 32 16 34 38 3 16 -23 21 -83 10 -113 -6 -14 -9 -14 -30 0 -28 18 -28 18 -13 -41 6 -24 17 -44 23 -44 12 0 12 -100 0 -277 l-6 -82 -25 10 c-34 13 -35 12 -31 -13 2 -13 13 -27 26 -33 18 -8 22 -18 22 -53 0 -42 -1 -44 -25 -38 -21 5 -25 3 -25 -17 0 -16 9 -28 25 -35 25 -12 31 -34 19 -79 -4 -13 -11 -20 -20 -16 -19 7 -18 -34 1 -53 8 -9 15 -33 15 -55 0 -28 -4 -39 -15 -39 -19 0 -19 -20 0 -56 15 -30 21 -94 8 -94 -5 0 -8 -105 -9 -233 -1 -243 -20 -561 -35 -587 -11 -19 -11 -19 1 406 7 241 7 467 0 725 -19 690 -22 925 -11 909 6 -8 11 -28 11 -43z m-7401 7 c18 -23 21 -41 21 -120 0 -97 -1 -100 -50 -114 -23 -6 -35 -4 -52 9 -18 15 -22 31 -26 102 -4 81 -3 86 23 117 33 39 57 41 84 6z m201 6 c22 -22 24 -34 20 -135 -3 -84 -17 -105 -72 -105 -32 0 -40 4 -48 26 -15 39 -12 161 5 194 23 44 62 53 95 20z m210 10 c0 -6 -12 -15 -26 -21 -29 -10 -29 -14 -8 -171 6 -45 5 -48 -21 -58 -30 -11 -76 -2 -82 17 -2 6 10 16 27 23 28 12 30 15 30 70 0 42 -5 64 -20 83 -25 31 -25 43 -2 56 22 14 102 14 102 1z m105 -113 c0 -97 1 -101 23 -106 38 -10 25 -26 -20 -26 l-43 0 3 98 c5 173 37 202 37 34z m785 101 c15 -9 24 -9 42 1 14 7 44 11 69 9 l44 -3 -3 -40 c-2 -22 -5 -42 -7 -44 -2 -2 -58 0 -124 4 l-120 7 -6 29 c-4 16 -4 33 0 39 9 14 81 13 105 -2z m6256 -494 c-5 -324 -10 -412 -21 -434 -13 -24 -13 -30 0 -40 17 -14 21 -100 5 -100 -5 0 -10 -11 -10 -25 0 -14 5 -25 10 -25 17 0 12 -90 -5 -96 -21 -9 -19 -44 6 -70 24 -26 17 -74 -13 -82 -14 -3 -17 -10 -12 -26 8 -25 23 -36 40 -29 9 3 13 -61 17 -289 4 -288 9 -338 30 -338 10 0 3 1112 -12 1685 -3 143 -6 261 -5 263 1 1 27 -12 58 -30 52 -30 56 -35 51 -62 -3 -16 -5 -52 -5 -80 0 -60 -12 -85 -32 -69 -7 6 -24 14 -38 18 -25 8 -25 7 -7 -13 10 -11 29 -23 43 -26 22 -6 24 -11 24 -69 0 -34 -3 -106 -7 -160 l-6 -99 -29 6 c-38 8 -38 -17 2 -54 25 -23 28 -31 21 -56 -6 -22 -13 -28 -29 -27 -29 4 -29 -28 -1 -45 16 -10 19 -21 17 -55 -2 -27 -7 -41 -15 -40 -19 4 -16 -44 3 -51 17 -6 13 -50 -8 -93 -8 -16 -8 -30 -1 -46 7 -14 8 -40 4 -64 -10 -53 -1 -750 10 -732 4 8 12 124 18 259 7 135 20 367 31 515 10 149 21 329 24 400 26 552 44 725 44 415 0 -281 -12 -490 -28 -500 -13 -8 -12 -13 3 -39 23 -40 23 -103 0 -99 -12 2 -19 -4 -21 -19 -2 -16 2 -23 12 -23 12 0 16 -11 16 -50 0 -38 -4 -50 -15 -50 -8 0 -15 -9 -15 -21 0 -16 4 -19 20 -14 18 6 20 2 20 -48 0 -52 -1 -54 -24 -50 -17 4 -25 0 -29 -16 -6 -23 0 -31 24 -31 10 0 20 8 22 18 3 9 5 -10 6 -44 1 -56 -1 -62 -24 -72 -14 -6 -25 -16 -25 -22 0 -5 11 -12 25 -16 22 -5 25 -12 25 -50 0 -37 -3 -44 -20 -44 -15 0 -20 -7 -20 -25 0 -18 5 -25 20 -25 17 0 20 -7 20 -45 0 -41 -2 -45 -25 -45 -20 0 -25 -5 -25 -24 0 -18 6 -26 22 -28 32 -5 36 -36 33 -235 l-3 -178 -23 2 c-13 0 -95 4 -181 9 -87 4 -158 10 -158 15 0 4 10 9 23 11 20 3 22 9 24 63 2 33 8 128 13 210 6 83 17 258 25 390 8 132 17 267 20 300 14 156 27 408 35 705 8 300 13 360 28 360 3 0 2 -183 -2 -406z m-3284 292 c-1 -27 2 -54 7 -60 5 -6 7 -23 4 -38 -4 -22 -11 -28 -30 -28 -24 0 -25 3 -20 39 3 24 -1 50 -9 66 -8 15 -14 38 -14 52 0 21 4 24 33 21 32 -3 32 -3 29 -52z m3652 0 c47 -20 78 -67 74 -113 -3 -35 0 -39 37 -58 38 -19 40 -23 43 -69 5 -71 -3 -95 -28 -89 -27 7 -25 -10 3 -22 21 -10 22 -16 25 -141 2 -108 0 -133 -13 -144 -19 -16 -19 -37 -1 -56 12 -11 15 -55 15 -227 -1 -116 2 -223 5 -237 3 -14 15 -155 26 -314 11 -159 22 -292 26 -295 3 -3 3 134 0 304 -14 754 -16 1230 -6 1215 6 -9 8 -51 4 -110 -3 -52 0 -189 7 -305 7 -115 13 -229 12 -252 0 -24 3 -43 8 -43 5 0 9 -22 9 -50 0 -27 -4 -50 -10 -50 -14 0 -12 -34 2 -48 18 -18 27 -212 11 -212 -7 0 -13 -2 -13 -4 0 -2 -3 -11 -6 -20 -5 -12 0 -16 20 -16 24 0 26 -3 26 -43 0 -43 -1 -43 -30 -39 -16 2 -30 0 -30 -6 0 -17 29 -35 50 -29 18 5 20 0 20 -44 0 -45 -2 -49 -22 -46 -31 3 -32 -37 -2 -41 28 -4 34 -39 34 -208 0 -142 8 -168 48 -158 l23 7 -1 281 c-1 327 -2 305 9 286 8 -13 16 -385 13 -532 -2 -55 -3 -58 -27 -58 -16 0 -25 -6 -25 -15 0 -22 -25 -18 -41 6 -13 20 -25 21 -184 25 -93 2 -178 7 -187 10 -12 3 -18 15 -18 34 l0 28 41 -12 c22 -7 44 -18 49 -25 5 -10 19 -12 43 -7 26 5 36 12 39 31 6 27 -7 35 -57 35 -42 0 -52 14 -53 70 0 25 -5 92 -12 149 -10 92 -10 105 4 113 18 10 22 38 6 38 -11 0 -14 49 -4 74 3 8 12 12 20 9 10 -4 14 3 14 25 0 31 -27 53 -40 32 -14 -23 -27 259 -14 294 7 17 20 16 116 -11 l57 -16 3 -126 c4 -166 1 -204 -17 -197 -8 3 -17 1 -21 -5 -7 -12 15 -41 27 -33 5 3 9 -13 9 -35 0 -32 -3 -39 -15 -35 -21 9 -19 -10 5 -31 29 -26 38 -73 46 -233 l7 -143 56 3 56 3 3 39 c2 22 1 50 -3 63 -5 20 -9 22 -25 13 -14 -8 -20 -21 -20 -47 0 -23 -4 -33 -9 -27 -5 5 -15 65 -20 134 -17 190 -50 626 -61 805 -6 88 -13 174 -17 190 l-6 30 -8 -25 c-4 -14 -7 -40 -8 -59 -1 -30 -3 -33 -26 -27 -14 4 -25 2 -25 -3 0 -5 -3 -16 -6 -25 -4 -11 3 -16 29 -21 l34 -7 7 -76 c3 -41 4 -77 1 -80 -7 -8 -154 30 -164 42 -8 10 -31 654 -31 848 0 74 2 86 15 82 12 -5 15 2 15 29 0 35 8 67 16 67 3 0 20 -6 38 -14z m-6034 -136 c-8 -16 -8 -20 4 -20 9 0 20 9 26 21 18 34 23 14 6 -25 -13 -32 -18 -36 -35 -26 -29 15 -32 24 -15 48 19 28 28 29 14 2z m1955 -39 c3 -5 1 -13 -5 -16 -15 -9 -43 3 -35 15 8 13 32 13 40 1z m-4489 -93 c-10 -48 -11 -49 -39 -44 -16 3 -42 6 -58 6 -24 0 -29 4 -29 24 0 15 7 27 19 31 10 3 21 13 23 23 4 14 14 17 50 14 l44 -4 -10 -50z m8804 47 c0 -8 14 -21 30 -30 l30 -16 0 -143 c0 -79 3 -177 6 -219 6 -67 5 -77 -10 -77 -20 0 -21 -36 -1 -44 18 -7 21 -82 3 -88 -9 -3 -7 -14 5 -40 13 -28 15 -42 7 -63 -6 -15 -8 -42 -5 -59 5 -31 41 -583 47 -723 2 -40 1 -73 -3 -73 -3 0 -9 66 -13 148 -3 81 -11 199 -16 262 -5 63 -14 176 -20 250 -5 74 -16 214 -25 310 -8 96 -19 249 -25 340 -6 91 -14 191 -18 223 -5 31 -4 57 0 57 4 0 8 -7 8 -15z m-8547 -12 c24 -4 44 -14 54 -29 14 -22 13 -26 -6 -58 -20 -32 -24 -34 -64 -29 -53 6 -105 22 -112 34 -3 5 -1 27 6 49 11 37 15 40 48 40 20 0 53 -3 74 -7z m3781 -8 c55 -8 104 -21 108 -28 5 -6 7 -23 6 -36 -5 -39 -42 -43 -295 -29 l-233 12 0 25 c0 15 4 32 9 39 19 30 253 40 405 17z m1056 -61 c0 -17 -22 -14 -28 4 -2 7 3 12 12 12 9 0 16 -7 16 -16z m-5132 -57 c1 -4 -1 -19 -4 -33 -6 -23 -10 -25 -38 -19 -34 8 -64 13 -83 14 -8 1 -4 11 9 27 19 21 29 25 68 22 25 -2 46 -7 48 -11z m298 -30 c9 -9 -19 -57 -33 -57 -8 0 -25 8 -39 17 -21 13 -30 14 -45 5 -30 -19 -49 -15 -49 12 0 17 7 26 23 30 25 5 136 0 143 -7z m3219 -57 c25 -33 59 -85 75 -116 45 -85 38 -125 -22 -129 -18 -2 -41 4 -50 12 -9 8 -28 16 -42 17 -27 1 -37 16 -11 16 17 0 19 9 6 29 -7 11 -16 11 -55 -4 -26 -10 -49 -15 -53 -11 -4 3 12 25 34 49 l41 42 -33 67 c-37 75 -34 88 26 88 34 0 42 -6 84 -60z m390 -34 c11 -7 59 -25 107 -40 48 -14 89 -30 92 -35 12 -19 -181 -38 -232 -23 -20 6 -58 14 -84 17 -51 7 -113 42 -113 65 0 26 197 39 230 16z m-3744 -32 c9 -11 23 -14 45 -11 31 5 32 5 23 -21 -5 -15 -20 -40 -33 -57 l-23 -29 -42 18 c-40 18 -41 21 -35 55 3 20 7 42 9 49 6 17 40 15 56 -4z m5638 -5 c21 -8 31 -17 29 -28 -3 -13 -21 -17 -98 -22 -52 -4 -118 -10 -147 -14 -41 -6 -58 -4 -78 9 -46 30 -32 42 63 53 124 14 194 15 231 2z m103 -18 c18 -11 52 -22 76 -26 37 -6 43 -10 40 -28 -4 -29 -27 -32 -94 -12 -42 12 -54 20 -50 31 3 9 1 24 -4 35 -13 24 -9 24 32 0z m-6192 -19 c0 -4 40 -28 89 -52 69 -33 91 -49 96 -68 7 -29 1 -36 -27 -37 -28 0 -35 -22 -10 -29 11 -4 27 -15 35 -24 15 -16 15 -20 1 -40 -9 -14 -26 -22 -44 -22 -40 0 -157 -63 -215 -116 -44 -40 -93 -70 -100 -62 -2 2 18 88 44 191 41 167 48 188 69 193 16 5 22 14 22 33 0 15 3 31 7 34 9 10 33 9 33 -1z m230 -12 c9 -17 8 -20 -7 -20 -10 1 -34 9 -53 20 l-35 19 42 1 c32 0 45 -5 53 -20z m4985 -6 c21 -14 25 -24 25 -68 0 -54 10 -100 31 -153 19 -46 7 -49 -34 -8 -26 26 -44 35 -68 35 -34 0 -69 24 -69 46 0 16 31 34 60 34 20 0 21 3 15 54 -6 49 -2 76 11 76 3 0 16 -7 29 -16z m1147 -21 c16 -14 18 -33 18 -137 0 -135 -16 -188 -57 -194 -27 -4 -28 4 -9 49 10 25 12 46 6 79 -12 58 -12 60 -1 60 5 0 12 -10 17 -22 6 -17 9 -4 11 47 3 43 0 71 -6 73 -12 4 -15 62 -4 62 3 0 15 -7 25 -17z m-260 -26 c19 -15 9 -40 -13 -35 -23 5 -23 -39 0 -54 31 -19 26 -44 -10 -52 -57 -11 -68 12 -48 104 9 41 14 50 32 50 12 0 30 -6 39 -13z m-5660 -50 c13 -20 9 -27 -16 -27 -30 0 -77 36 -70 55 5 13 11 12 42 -1 20 -8 40 -20 44 -27z m627 -18 c-43 -22 -50 -17 -38 24 5 17 9 33 9 35 0 2 14 -7 31 -19 l32 -22 -34 -18z m5146 38 c11 -3 32 -8 48 -11 19 -5 27 -13 27 -27 0 -19 -4 -21 -32 -14 -56 12 -63 11 -63 -10 0 -14 12 -24 40 -35 59 -22 68 -29 55 -45 -11 -14 -90 -9 -100 5 -3 5 -16 10 -30 11 -18 3 -26 12 -31 34 -4 17 -10 38 -14 49 -7 16 -6 17 13 7 20 -10 22 -9 22 12 0 29 9 39 29 33 9 -2 25 -7 36 -9z m-5049 -94 c16 -56 24 -226 11 -240 -4 -4 -40 11 -80 32 -39 21 -87 45 -104 53 -18 9 -33 21 -33 27 0 5 12 34 28 62 20 39 42 62 82 88 30 19 60 35 67 35 7 0 20 -26 29 -57z m-762 -22 c3 -5 -1 -14 -9 -21 -8 -7 -15 -21 -15 -31 0 -24 -16 -32 -47 -24 -27 6 -28 25 -4 88 10 27 11 27 40 12 16 -8 32 -19 35 -24z m5246 -45 c0 -9 -17 -15 -55 -18 -62 -5 -62 -5 -67 -33 -3 -19 2 -20 65 -17 54 2 67 -1 67 -12 0 -11 -15 -16 -62 -18 l-63 -3 -3 -52 c-3 -49 -5 -53 -29 -53 l-25 0 7 103 c4 56 9 105 12 110 2 4 38 7 79 7 56 0 74 -3 74 -14z m430 5 c15 -4 26 -15 28 -29 3 -22 2 -22 -125 -22 -132 0 -203 7 -203 20 0 10 47 28 85 33 51 7 189 5 215 -2z m-918 -31 c12 -21 25 -30 42 -30 14 0 31 -9 40 -22 28 -40 14 -158 -19 -158 -19 0 -34 46 -28 84 3 22 1 42 -7 51 -21 25 -32 5 -29 -54 4 -92 0 -161 -11 -161 -6 0 -10 39 -10 97 0 132 -18 110 -22 -26 -2 -73 -7 -106 -15 -109 -10 -3 -13 34 -13 161 0 91 3 172 6 181 10 27 47 19 66 -14z m-2398 -81 c-5 -58 -3 -71 20 -117 14 -28 26 -56 26 -62 0 -46 -118 63 -146 135 -16 42 -16 49 -2 79 9 18 31 40 50 49 31 15 34 15 46 -1 9 -12 11 -36 6 -83z m3470 75 c58 -16 60 -18 52 -40 -5 -13 -15 -15 -59 -8 -28 4 -68 6 -87 5 l-35 -2 28 29 c15 15 24 32 20 37 -5 4 1 5 12 0 11 -4 42 -14 69 -21z m-2328 -43 c83 -39 136 -89 167 -159 68 -150 74 -273 19 -384 -34 -70 -104 -143 -147 -154 -43 -11 -41 3 9 56 58 62 108 166 114 236 8 91 -37 279 -60 256 -6 -6 -2 -40 10 -88 11 -43 23 -96 27 -117 6 -36 5 -38 -17 -35 -21 3 -24 10 -29 73 -4 39 -14 90 -23 114 -22 61 -87 144 -133 171 -54 33 -73 51 -67 62 9 14 60 2 130 -31z m5372 -65 c2 -28 0 -37 -10 -34 -7 3 -14 22 -16 42 -2 28 0 37 10 34 7 -3 14 -22 16 -42z m-3325 -89 c111 -57 158 -76 214 -85 83 -14 119 -28 128 -50 9 -25 -16 -33 -80 -26 -90 9 -190 60 -379 192 -90 64 -41 50 117 -31z m3325 -25 c2 -33 0 -42 -12 -42 -12 0 -16 11 -16 46 0 59 24 55 28 -4z m-3648 -91 c0 -22 -50 -71 -73 -71 -23 0 -22 7 10 49 41 54 63 62 63 22z m-4870 -95 c-16 -53 -32 -102 -35 -107 -7 -10 -58 -12 -68 -3 -8 9 38 109 79 172 52 77 60 55 24 -62z m9600 89 c0 -8 -7 -15 -15 -15 -8 0 -15 7 -15 15 0 8 7 15 15 15 8 0 15 -7 15 -15z m-8382 -48 c3 -20 12 -31 37 -41 31 -13 33 -17 26 -43 -6 -22 -13 -28 -34 -26 -22 1 -27 -2 -27 -23 0 -19 -5 -24 -25 -24 -23 0 -25 4 -25 43 0 23 3 66 7 95 4 41 9 52 22 50 9 -2 17 -15 19 -31z m8350 -34 c-2 -11 -15 -18 -39 -21 -30 -2 -37 1 -42 17 -5 19 -1 21 40 21 36 0 44 -3 41 -17z m62 2 c0 -8 -4 -15 -9 -15 -5 0 -16 -3 -25 -6 -11 -4 -14 0 -13 15 2 25 47 31 47 6z m-3975 -18 c50 -8 96 -17 103 -21 31 -19 4 -26 -98 -26 -105 0 -110 -1 -110 -21 0 -18 5 -20 26 -16 27 5 180 -10 195 -19 4 -2 6 -11 2 -19 -3 -11 -21 -15 -59 -15 -50 0 -54 -2 -54 -24 0 -35 -24 -49 -72 -43 -50 7 -77 31 -88 83 -11 46 -13 118 -3 127 9 10 56 8 158 -6z m2868 -44 c4 -21 2 -33 -7 -36 -20 -8 -26 2 -26 38 0 57 23 56 33 -2z m798 -460 c1 -7 8 -14 16 -17 8 -4 13 -22 13 -52 0 -30 5 -51 15 -58 20 -15 9 -58 -14 -54 -11 2 -17 16 -19 41 -2 20 -8 37 -14 37 -7 0 -8 -15 -4 -42 18 -122 19 -171 5 -166 -8 3 -15 21 -17 44 -1 21 -7 75 -13 119 -12 93 -18 405 -6 405 4 0 7 33 7 73 0 41 3 77 8 81 4 4 10 -84 14 -196 4 -111 8 -208 9 -215z m-10580 375 c19 -30 3 -36 -151 -56 -39 -5 -55 -11 -55 -22 0 -11 15 -16 62 -18 58 -3 64 -5 78 -32 21 -40 19 -75 -7 -127 -28 -56 -48 -67 -115 -60 -61 6 -58 12 -68 -117 -7 -89 -16 -118 -31 -95 -11 17 -24 346 -17 410 4 37 11 49 34 63 19 11 29 25 29 41 0 13 6 26 13 29 24 11 220 -2 228 -16z m277 -41 c3 -26 1 -28 -25 -25 -22 2 -29 9 -31 31 -3 26 -1 28 25 25 22 -2 29 -9 31 -31z m929 -1 c13 -13 -9 -36 -34 -36 -38 0 -57 14 -49 35 5 14 14 16 42 12 20 -4 39 -8 41 -11z m443 -15 c32 -9 32 -33 1 -38 -13 -2 -42 -17 -64 -33 -48 -35 -82 -38 -97 -10 -14 27 -7 36 34 44 18 4 41 15 51 26 19 21 33 23 75 11z m8201 -334 c-17 -17 -24 -1 -33 75 -6 57 -4 76 7 88 10 11 16 42 17 91 1 48 4 19 10 -85 7 -111 7 -161 -1 -169z m-3304 270 c36 -52 150 -340 200 -502 25 -82 52 -162 59 -177 16 -32 18 -48 4 -48 -5 0 -24 28 -41 63 -57 111 -300 640 -296 643 9 9 52 -45 73 -92 12 -29 28 -55 34 -59 10 -6 -14 65 -54 159 -18 44 -19 46 -8 46 4 0 17 -15 29 -33z m-6261 -94 l4 -103 -37 0 c-21 0 -49 -3 -62 -7 -22 -5 -23 -4 -18 18 4 13 10 56 13 94 9 94 17 107 61 103 l35 -3 4 -102z m290 2 l-9 -96 -46 3 c-56 4 -59 12 -36 113 l16 74 37 3 c20 2 39 2 42 1 3 -1 1 -45 -4 -98z m609 95 c3 -5 1 -26 -4 -46 -7 -25 -7 -51 1 -85 7 -30 8 -53 2 -58 -5 -5 -48 -12 -96 -15 -87 -7 -87 -7 -93 17 -7 27 18 85 40 93 7 3 23 0 34 -6 18 -9 22 -8 27 7 25 71 44 103 63 103 11 0 23 -4 26 -10z m5746 -71 c8 -38 18 -70 24 -70 5 0 16 18 24 40 18 49 31 53 31 9 -1 -49 -32 -133 -50 -133 -26 0 -70 102 -70 160 0 49 5 65 20 65 4 0 14 -32 21 -71z m3893 48 c18 -13 18 -15 1 -40 -23 -35 -13 -97 15 -97 23 0 31 -12 20 -29 -8 -15 -75 -10 -91 6 -5 5 -4 40 2 78 15 104 18 108 53 82z m-6832 -69 l3 -63 93 -3 c80 -2 93 -5 88 -18 -3 -9 -6 -19 -6 -24 0 -5 -10 -10 -22 -12 -29 -4 -37 -43 -30 -158 4 -79 7 -90 23 -90 16 0 19 9 20 58 1 47 3 52 9 27 12 -46 12 -235 0 -235 -5 0 -10 25 -10 55 0 49 -2 55 -20 55 -20 0 -20 -5 -18 -127 3 -120 4 -128 23 -128 13 0 20 -7 20 -20 0 -18 -8 -20 -65 -23 -35 -2 -75 0 -88 3 -24 6 -24 6 12 33 19 15 35 34 36 43 0 10 -24 29 -60 48 -51 28 -60 36 -60 60 0 39 5 40 55 22 43 -15 45 -15 67 6 33 34 38 137 9 175 -23 29 -74 44 -114 34 -16 -4 -31 -22 -47 -55 -24 -52 -48 -71 -62 -49 -11 18 -1 55 29 106 28 49 70 72 132 72 54 0 71 8 71 34 -1 41 -22 55 -82 53 -63 -1 -84 11 -105 60 -29 72 -6 123 57 123 l39 0 3 -62z m-1901 -9 c29 -29 20 -51 -31 -70 l-45 -17 3 -53 c2 -43 25 -180 44 -259 2 -11 -5 -15 -26 -15 -27 0 -32 6 -52 55 -39 96 -56 281 -31 330 25 49 101 66 138 29z m180 1 c28 0 29 -46 2 -71 -34 -33 -45 -86 -37 -188 5 -61 3 -90 -5 -95 -30 -19 -44 128 -26 287 7 73 9 78 29 73 12 -3 28 -6 37 -6z m-839 -26 c-2 -10 -11 -27 -20 -37 -22 -24 -4 -40 50 -43 30 -2 42 -6 39 -16 -2 -7 -4 -26 -6 -43 -2 -26 -6 -29 -26 -26 -59 11 -84 7 -87 -15 -3 -23 2 -25 113 -40 28 -3 56 -11 63 -16 8 -7 12 -40 12 -98 0 -82 2 -90 24 -108 23 -18 24 -20 8 -35 -14 -14 -14 -22 -5 -48 12 -30 12 -30 -11 -15 -28 18 -36 12 -36 -26 0 -15 -4 -36 -10 -46 -5 -9 -14 -30 -20 -45 -9 -26 -74 -66 -107 -67 -10 0 -13 40 -13 169 0 193 -5 228 -31 236 -11 4 -19 15 -19 26 0 35 -19 58 -55 65 -48 9 -52 20 -10 28 45 9 59 36 57 108 -1 53 1 59 34 88 38 33 61 35 56 4z m4908 -6 c1 -13 7 -34 14 -47 10 -18 11 -32 4 -53 -10 -27 -7 -76 7 -145 16 -74 -52 -4 -75 78 -8 28 8 153 23 177 13 19 27 14 27 -10z m998 -14 c6 -51 42 -55 42 -4 0 25 15 40 41 40 10 0 1 -110 -11 -123 -4 -4 -12 -1 -19 7 -18 22 -48 8 -55 -26 -11 -54 -26 -18 -26 63 0 60 3 80 13 77 6 -3 14 -18 15 -34z m-4663 16 c166 -11 260 -27 276 -46 21 -26 -38 -35 -219 -35 -111 1 -181 5 -195 13 -12 6 -53 19 -90 29 -76 19 -82 23 -72 38 8 14 116 14 300 1z m5923 -227 c-2 -106 -6 -148 -15 -151 -10 -3 -13 30 -13 141 0 79 3 147 7 150 20 21 24 -5 21 -140z m2336 108 c10 -11 16 -27 14 -36 -2 -14 -7 -13 -31 9 -15 14 -25 31 -22 36 9 15 20 12 39 -9z m-4452 -13 c7 -14 13 -66 14 -128 2 -100 4 -106 28 -124 14 -11 35 -20 47 -21 35 -2 46 -28 26 -59 -32 -49 -126 -31 -181 34 -27 33 -43 76 -32 87 3 4 18 -4 32 -18 l27 -24 -7 110 c-4 61 -9 122 -12 138 -6 24 -3 27 19 27 17 0 31 -8 39 -22z m-4786 -33 c2 -65 44 -109 44 -46 0 20 8 35 22 45 31 22 58 20 58 -3 0 -11 2 -26 5 -33 3 -8 -3 -25 -15 -38 -18 -20 -20 -37 -20 -141 0 -64 -3 -124 -6 -133 -9 -23 -92 -22 -101 0 -3 9 -1 64 4 123 6 58 8 111 6 118 -2 6 -18 17 -34 23 -16 7 -32 17 -35 22 -6 9 53 108 65 108 3 0 7 -20 7 -45z m6691 -29 c-5 -48 -3 -57 19 -77 31 -29 31 -49 -1 -49 -28 0 -28 0 -16 -52 12 -51 0 -48 -27 7 l-22 46 -108 -8 c-150 -11 -262 -9 -295 5 -25 10 -26 14 -15 33 10 17 10 23 1 26 -19 7 -16 40 5 52 16 10 16 12 -2 26 -11 8 -16 18 -12 22 4 5 86 9 182 11 146 3 174 1 174 -11 0 -8 -7 -20 -15 -27 -30 -25 -18 -48 28 -52 23 -3 45 -3 50 -1 4 2 7 24 7 48 0 42 5 49 44 54 5 0 6 -23 3 -53z m2513 15 c24 -7 42 -41 21 -41 -6 0 -11 -16 -11 -35 0 -29 4 -36 25 -41 14 -3 22 -10 19 -16 -4 -5 -48 -7 -107 -4 -56 3 -117 5 -134 5 -28 1 -33 5 -33 25 0 13 6 26 13 29 9 3 9 7 -1 19 -9 11 -10 23 -2 42 9 25 11 26 97 25 49 -1 99 -4 113 -8z m-9806 -52 c12 -10 0 -38 -19 -45 -27 -11 -105 16 -105 36 0 9 2 19 5 22 8 7 109 -3 119 -13z m-142 -250 c-3 -238 -9 -291 -31 -287 -23 5 -28 83 -17 308 9 190 9 191 30 177 20 -14 21 -21 18 -198z m10108 171 c6 -11 19 -20 30 -20 10 0 22 -4 25 -10 3 -6 -4 -10 -16 -10 -21 0 -22 -2 -15 -90 6 -76 4 -89 -8 -84 -16 6 -22 27 -31 104 -3 30 -8 72 -10 93 -6 40 8 49 25 17z m-9979 -6 c17 -21 15 -103 -4 -139 -13 -27 -15 -27 -25 -9 -8 15 -18 127 -13 157 2 13 28 8 42 -9z m9219 -65 c0 -19 -1 -19 -25 -2 -16 12 -24 28 -24 48 l0 30 24 -28 c14 -15 25 -37 25 -48z m89 -21 c1 -19 -15 -23 -37 -9 -11 7 -10 15 4 47 l17 39 7 -30 c4 -16 8 -38 9 -47z m429 -25 c-2 -14 -13 -32 -25 -40 -21 -14 -23 -14 -33 11 -5 14 -15 26 -22 26 -7 0 0 12 15 25 23 20 32 23 48 14 14 -7 19 -18 17 -36z m162 7 c0 -5 9 -18 21 -29 24 -22 23 -76 -1 -76 -11 0 -15 10 -14 33 2 28 -1 32 -22 32 -21 0 -24 5 -24 35 0 33 2 35 20 25 11 -6 20 -15 20 -20z m-2402 -3 c13 -15 12 -98 0 -91 -4 3 -8 12 -8 20 0 9 -6 14 -12 11 -8 -2 -13 -23 -13 -55 0 -55 -5 -59 -49 -42 -19 7 -25 17 -28 47 -2 27 -8 39 -20 41 -12 2 -18 -3 -19 -15 0 -12 -2 -13 -6 -5 -9 24 21 65 62 83 47 22 79 24 93 6z m1902 -16 c-1 -3 -6 -16 -13 -28 l-12 -22 -21 24 c-28 32 -15 60 21 43 14 -6 25 -14 25 -17z m-8448 -8 c15 -15 28 -33 28 -40 0 -7 14 -41 31 -76 23 -45 30 -72 26 -90 -13 -50 -211 -156 -294 -157 -87 0 -95 74 -24 227 22 49 41 100 41 111 0 18 6 22 31 22 l31 0 -7 -52 c-4 -29 -18 -87 -31 -128 -13 -41 -24 -78 -24 -82 0 -5 16 -8 35 -8 24 0 37 6 45 20 6 11 22 23 35 26 37 9 75 59 75 99 0 76 -26 85 -67 23 l-28 -42 -3 73 c-2 45 2 78 9 87 18 22 60 16 91 -13z m8077 -15 c0 -24 -3 -38 -5 -31 -3 7 -11 10 -19 7 -11 -5 -12 1 -3 30 15 49 28 45 27 -6z m-1932 0 c18 -16 23 -32 23 -67 0 -51 -13 -81 -25 -61 -13 22 -25 -11 -25 -71 0 -48 -3 -57 -20 -62 -15 -4 -20 -14 -20 -41 0 -20 5 -36 10 -36 15 0 12 -67 -4 -82 -7 -8 -23 -33 -35 -56 -24 -47 -50 -65 -88 -60 -35 4 -40 24 -9 32 24 6 66 42 66 56 0 4 -22 5 -50 2 -59 -5 -63 4 -21 50 l28 32 -23 44 c-24 45 -33 112 -15 112 5 0 12 -14 16 -30 4 -17 11 -27 17 -24 13 8 4 110 -11 128 -12 14 -6 77 9 106 29 53 133 70 177 28z m1347 14 c5 -9 -22 -48 -32 -44 -11 6 -20 -33 -10 -50 7 -15 4 -18 -21 -18 -31 0 -41 14 -41 56 0 30 -17 23 -31 -13 -14 -37 -21 -22 -8 16 6 17 23 38 38 46 28 15 97 20 105 7z m780 -19 c-7 -16 -14 -34 -14 -40 0 -7 -7 -13 -15 -13 -11 0 -15 11 -15 40 0 38 2 40 29 40 29 0 30 0 15 -27z m-2329 -5 c7 -6 0 -16 -17 -30 -16 -11 -28 -25 -28 -32 0 -15 -38 -52 -45 -44 -3 2 -8 32 -11 66 l-7 62 49 -6 c27 -4 54 -11 59 -16z m2178 1 c-4 -13 -9 -17 -15 -11 -11 11 -3 32 12 32 4 0 6 -9 3 -21z m-2997 -24 c4 -8 3 -22 0 -31 -6 -15 -8 -15 -25 0 -23 21 -24 20 -66 -97 -15 -43 -32 -76 -38 -74 -12 4 -15 67 -4 74 4 3 3 11 -4 19 -9 11 -9 14 0 14 7 0 10 4 7 9 -4 5 0 12 6 15 10 5 10 7 1 12 -27 12 -6 42 47 66 27 12 70 8 76 -7z m1157 -233 c12 -22 15 -38 8 -49 -7 -13 -16 -2 -45 59 -20 42 -36 87 -35 100 1 18 3 15 11 -12 10 -34 10 -35 19 -11 6 14 7 44 3 68 -3 23 -3 51 2 60 5 12 10 -18 14 -82 4 -67 11 -111 23 -133z m723 213 c-11 -8 -24 -15 -29 -15 -5 0 -20 -9 -34 -20 -14 -11 -36 -20 -49 -20 -20 0 -24 5 -24 29 0 34 9 38 95 40 55 0 58 -1 41 -14z m1339 -46 c-8 -36 -19 -41 -71 -37 l-39 3 49 48 c42 40 51 45 59 32 4 -9 5 -29 2 -46z m-1541 34 c10 -36 18 -162 11 -182 -11 -36 -23 -23 -45 47 -11 37 -23 75 -26 85 -9 30 17 18 27 -13 6 -16 15 -30 20 -30 15 0 10 34 -11 65 -25 38 -25 45 -1 45 11 0 22 -8 25 -17z m1134 -19 c1 -16 8 -39 14 -51 14 -29 4 -40 -18 -22 -27 22 -44 71 -32 92 13 26 32 16 36 -19z m620 4 c6 -17 10 -33 8 -36 -2 -2 -18 4 -36 13 -31 16 -31 17 -14 36 23 26 28 24 42 -13z m-2878 -128 c0 -28 7 -65 16 -81 18 -35 24 -107 9 -110 -16 -3 -64 101 -70 151 -6 45 -6 45 8 15 l14 -30 6 43 c4 24 5 47 2 53 -4 5 -1 9 4 9 6 0 11 -22 11 -50z m2846 35 c-21 -16 -32 -13 -21 4 3 6 14 11 23 11 15 -1 15 -2 -2 -15z m-54 -19 c15 -20 15 -26 3 -36 -11 -9 -16 -7 -24 9 -13 23 -14 51 -3 51 4 0 15 -11 24 -24z m-2644 -197 c6 -48 14 -71 34 -91 14 -16 30 -28 36 -28 6 0 10 -9 9 -20 -2 -24 -16 -25 -43 -5 -10 8 -38 15 -60 15 -48 0 -68 25 -37 47 14 11 17 26 15 84 -1 39 1 76 4 81 13 21 35 -20 42 -83z m-6168 67 c0 -12 -73 -36 -110 -36 -14 0 -12 24 2 38 18 18 108 16 108 -2z m5479 -246 c5 0 12 8 16 18 6 16 7 16 20 -2 13 -17 15 -17 21 -3 11 29 34 20 34 -12 0 -21 6 -32 20 -36 11 -3 20 -13 20 -21 0 -17 -34 -17 -105 0 -49 11 -50 12 -57 56 -10 71 -9 126 5 157 11 25 12 19 15 -64 1 -51 7 -93 11 -93z m-6606 -25 c18 -13 18 -21 7 -141 -13 -133 -28 -202 -30 -134 0 19 -5 89 -10 154 -11 142 -8 153 33 121z m3287 -89 c0 -19 -4 -38 -10 -41 -6 -4 -10 10 -10 34 0 23 5 41 10 41 6 0 10 -15 10 -34z m-3186 -288 c9 -71 12 -126 7 -131 -5 -5 -19 -7 -32 -5 -23 3 -24 7 -21 63 5 112 14 195 22 195 4 0 15 -55 24 -122z m790 -23 c-20 -65 -44 -137 -54 -159 l-17 -41 -8 65 c-5 53 -3 75 13 117 18 47 90 149 98 140 2 -2 -12 -57 -32 -122z m176 18 c0 -16 -30 -142 -52 -216 -6 -20 -9 -39 -7 -42 3 -2 23 -10 44 -17 30 -10 41 -19 43 -37 4 -22 1 -23 -30 -18 -18 3 -40 8 -48 11 -10 4 -20 -5 -30 -27 -18 -38 -50 -45 -105 -22 -37 15 -37 16 -20 35 10 11 26 20 35 20 9 0 24 8 32 18 29 32 80 144 83 184 7 71 55 169 55 111z m2140 -8 c0 -8 -6 -15 -12 -15 -7 0 -42 -5 -77 -10 -73 -10 -85 -7 -71 21 9 16 22 19 85 19 60 0 75 -3 75 -15z m-2755 -314 c17 -5 23 -10 15 -11 -39 -4 31 -19 92 -19 39 -1 70 -6 74 -13 5 -8 2 -9 -9 -5 -9 3 -139 9 -289 12 -150 4 -300 11 -333 17 -33 6 -78 13 -100 16 -33 4 -37 6 -20 13 26 12 530 2 570 -10z m328 -3 c36 2 38 0 35 -26 -3 -25 -6 -27 -51 -26 -50 0 -67 12 -67 47 0 15 4 17 23 10 12 -4 39 -7 60 -5z m-714 -97 c17 -11 7 -41 -13 -41 -13 0 -36 28 -36 44 0 9 33 7 49 -3z m-44 -95 c-8 -19 -12 -42 -9 -50 4 -11 0 -16 -11 -16 -13 0 -16 6 -11 23 3 12 6 34 6 50 0 20 5 27 19 27 19 0 19 -2 6 -34z m-460 -23 c-5 -10 -10 -32 -12 -49 -4 -27 0 -34 26 -50 17 -10 33 -24 35 -31 6 -16 -10 -17 -20 -2 -5 8 -8 8 -14 0 -9 -15 -40 -3 -34 13 3 9 -7 16 -27 20 -31 6 -32 6 -25 53 7 50 17 63 55 63 18 0 22 -4 16 -17z"
       id="path4" />
    <path
       d="M3786 5545 c4 -8 10 -15 15 -15 5 0 9 7 9 15 0 8 -7 15 -15 15 -9 0 -12 -6 -9 -15z"
       id="path6" />
    <path
       d="M3775 5430 c-8 -12 20 -24 35 -15 5 3 10 10 10 16 0 12 -37 12 -45 -1z"
       id="path8" />
    <path
       d="M4546 5231 c-20 -16 -50 -33 -67 -36 -16 -4 -29 -9 -29 -12 0 -15 53 -73 66 -73 17 0 18 12 2 29 -11 10 -10 11 4 6 12 -5 31 6 60 34 l43 40 -21 21 -20 21 -38 -30z"
       id="path10" />
    <path
       d="M5318 4132 c-7 -18 -24 -36 -39 -43 -31 -12 -42 -33 -34 -60 8 -23 18 -24 35 -4 10 13 17 12 51 -5 51 -26 75 -25 95 5 18 27 12 45 -15 45 -11 0 -24 12 -31 29 -6 16 -21 37 -31 47 -19 17 -20 16 -31 -14z"
       id="path12" />
    <path
       d="M2832 4914 c-36 -31 -52 -53 -52 -70 0 -13 5 -24 10 -24 16 0 12 -15 -10 -40 -12 -13 -19 -31 -18 -39 4 -22 27 -25 34 -4 11 33 27 63 35 63 12 0 31 -68 24 -89 -4 -15 3 -26 32 -45 49 -34 59 -33 34 3 -12 16 -21 40 -21 54 0 60 89 113 138 81 18 -12 27 -13 36 -4 16 17 -24 47 -89 66 -58 16 -69 25 -79 67 -3 15 -10 27 -14 27 -4 0 -31 -21 -60 -46z"
       id="path14" />
    <path
       d="M3090 4719 c0 -44 -2 -47 -41 -64 -34 -16 -38 -20 -23 -26 22 -8 74 0 92 14 18 14 15 58 -8 92 l-20 30 0 -46z"
       id="path16" />
    <path
       d="M9482 4244 c-14 -26 1 -55 19 -37 9 9 9 19 2 35 -10 22 -10 22 -21 2z"
       id="path18" />
    <path
       d="M9990 2911 c0 -26 4 -29 46 -36 34 -5 49 -3 55 7 16 25 9 38 -20 38 -16 0 -41 4 -55 10 -24 9 -26 7 -26 -19z"
       id="path20" />
    <path
       d="M9964 2658 c3 -18 8 -69 11 -113 3 -44 8 -92 11 -107 7 -35 34 -46 42 -16 5 21 6 21 28 -7 27 -35 54 -28 54 13 0 26 -4 30 -42 38 -43 9 -43 10 -49 60 -8 60 -36 151 -50 160 -7 4 -8 -7 -5 -28z"
       id="path22" />
    <path
       d="M2726 4027 c-12 -49 -16 -133 -7 -146 5 -8 16 -11 25 -8 25 10 22 177 -4 177 -4 0 -10 -10 -14 -23z"
       id="path24" />
    <path
       d="M2921 4030 c-17 -50 -15 -160 3 -160 8 0 18 5 21 10 10 17 8 147 -3 166 -8 14 -11 11 -21 -16z"
       id="path26" />
    <path
       d="M10280 2536 c0 -21 5 -26 26 -26 21 0 25 4 22 23 -2 14 -11 23 -25 25 -19 3 -23 -1 -23 -22z"
       id="path28" />
    <path
       d="M10270 2390 c0 -25 4 -30 25 -30 20 0 25 5 25 24 0 22 -16 36 -41 36 -5 0 -9 -13 -9 -30z"
       id="path30" />
    <path
       d="M10653 3667 c4 -14 84 -56 110 -56 34 -2 16 15 -49 41 -39 16 -64 22 -61 15z"
       id="path32" />
    <path
       d="M10671 3533 c26 -30 109 -56 109 -33 0 17 -63 50 -94 50 -25 0 -27 -2 -15 -17z"
       id="path34" />
    <path
       d="M10680 3408 c0 -20 12 -32 43 -46 37 -16 37 -16 37 11 0 16 -9 28 -25 35 -34 15 -55 15 -55 0z"
       id="path36" />
    <path
       d="M10780 3368 c0 -32 17 -46 26 -23 4 9 0 24 -10 33 -15 15 -16 14 -16 -10z"
       id="path38" />
    <path
       d="M10640 3271 c0 -11 9 -21 22 -24 27 -8 29 -6 21 21 -7 28 -43 30 -43 3z"
       id="path40" />
    <path
       d="M10700 3256 c0 -22 16 -36 41 -36 17 0 9 39 -10 50 -28 14 -31 13 -31 -14z"
       id="path42" />
    <path
       d="M10763 3231 c1 -11 8 -23 16 -26 17 -7 18 -5 23 20 2 14 -3 21 -19 23 -17 3 -21 -2 -20 -17z"
       id="path44" />
    <path
       d="M10666 3033 c-5 -11 -1 -22 10 -30 27 -20 34 -16 34 17 0 23 -5 30 -19 30 -10 0 -22 -8 -25 -17z"
       id="path46" />
    <path
       d="M10670 2891 c0 -24 39 -39 51 -20 6 9 3 18 -8 27 -25 18 -43 15 -43 -7z"
       id="path48" />
    <path
       d="M10740 2866 c0 -13 20 -26 41 -26 5 0 9 9 9 20 0 15 -7 20 -25 20 -15 0 -25 -6 -25 -14z"
       id="path50" />
    <path
       d="M10662 2756 c4 -28 48 -36 48 -8 0 13 -9 21 -26 25 -21 4 -25 1 -22 -17z"
       id="path52" />
    <path
       d="M10760 2730 c0 -11 4 -20 9 -20 5 0 16 -3 25 -6 11 -4 16 0 16 14 0 18 -18 32 -41 32 -5 0 -9 -9 -9 -20z"
       id="path54" />
    <path
       d="M10660 2622 c0 -11 9 -22 21 -25 16 -4 20 -1 17 16 -4 28 -38 36 -38 9z"
       id="path56" />
    <path
       d="M10757 2614 c-10 -10 12 -44 29 -44 10 0 14 8 12 22 -3 22 -27 35 -41 22z"
       id="path58" />
    <path
       d="M10702 2338 c2 -19 10 -24 41 -26 31 -3 37 0 37 16 0 22 -18 32 -57 32 -20 0 -24 -4 -21 -22z"
       id="path60" />
    <path
       d="M5635 2986 c28 -13 71 -42 98 -65 26 -24 47 -38 47 -33 0 29 -137 121 -180 122 -8 0 8 -11 35 -24z"
       id="path62" />
    <path
       d="M2760 1942 c0 -43 0 -43 33 -40 29 3 32 6 35 39 3 35 2 37 -32 41 l-36 4 0 -44z"
       id="path64" />
    <path
       d="M2747 1843 c-4 -3 -7 -24 -7 -45 l0 -38 50 0 c50 0 50 0 50 33 0 18 -5 38 -12 45 -13 13 -70 17 -81 5z"
       id="path66" />
    <path
       d="M2744 1695 c-5 -12 0 -23 16 -35 15 -11 21 -23 17 -34 -4 -10 -1 -16 7 -16 19 0 32 19 39 58 5 26 3 32 -11 32 -9 0 -27 3 -39 6 -16 5 -25 1 -29 -11z"
       id="path68" />
    <path
       d="M12053 2018 c-20 -27 -21 -45 -1 -62 16 -14 22 -15 35 -5 11 10 19 10 32 2 10 -6 31 -8 47 -5 25 6 29 12 30 45 1 43 -11 48 -28 12 -12 -27 -38 -34 -38 -10 0 8 -4 15 -10 15 -5 0 -10 -4 -10 -10 0 -5 -4 -10 -10 -10 -5 0 -10 9 -10 20 0 22 -22 27 -37 8z"
       id="path70" />
    <path
       d="M6120 5853 c0 -48 21 -79 67 -102 32 -15 49 -19 56 -12 7 7 7 14 2 19 -6 5 -36 32 -67 62 -47 43 -58 49 -58 33z"
       id="path72" />
    <path
       d="M6110 5311 c-5 -11 -10 -42 -10 -69 0 -44 4 -54 31 -77 37 -31 53 -22 52 27 -2 82 -12 111 -43 128 -15 8 -21 6 -30 -9z"
       id="path74" />
    <path
       d="M8780 5008 c0 -17 15 -40 44 -69 52 -51 71 -95 37 -84 -20 6 -20 5 -6 -29 8 -19 15 -60 15 -89 0 -90 9 -117 37 -117 23 0 23 1 9 22 -9 12 -16 42 -16 66 0 39 2 43 20 37 11 -3 20 -2 20 4 0 5 -9 13 -20 16 -17 5 -20 15 -20 61 0 71 -17 109 -74 164 -45 43 -46 43 -46 18z"
       id="path76" />
    <path
       d="M9030 4917 c0 -7 22 -39 48 -72 27 -33 54 -70 61 -83 11 -21 10 -24 -7 -29 -19 -5 -19 -7 -5 -41 12 -28 14 -55 8 -113 -7 -82 -6 -82 40 -93 l30 -8 -22 24 c-30 31 -29 41 2 36 30 -6 33 7 5 24 -27 17 -25 44 3 52 l22 6 -23 18 c-18 14 -22 24 -17 45 16 62 -2 109 -69 180 -65 68 -76 77 -76 54z"
       id="path78" />
    <path
       d="M8396 4501 c-4 -5 -2 -12 3 -15 12 -8 2 -46 -12 -43 -6 1 -13 -13 -17 -30 -7 -33 2 -44 16 -21 13 21 22 -29 23 -125 1 -66 4 -88 14 -85 15 6 21 173 10 262 -8 56 -23 80 -37 57z"
       id="path80" />
    <path
       d="M8518 4298 c4 -179 22 -167 22 15 0 95 -3 127 -12 127 -10 0 -12 -33 -10 -142z"
       id="path82" />
    <path
       d="M8927 4184 c-14 -15 -6 -46 13 -51 23 -6 27 -43 5 -43 -13 0 -15 -34 -16 -242 -1 -134 -2 -274 -3 -313 -1 -38 -5 -209 -9 -380 -4 -170 -10 -402 -14 -515 -4 -113 -7 -231 -7 -262 -1 -45 -5 -60 -21 -72 -28 -20 -13 -30 32 -19 l38 9 6 149 c7 165 34 1455 34 1630 l0 110 -25 3 c-14 2 -29 0 -33 -4z"
       id="path84" />
    <path
       d="M8407 4053 c3 -128 11 -234 18 -241 7 -7 6 303 -1 322 -14 36 -19 10 -17 -81z"
       id="path86" />
    <path
       d="M10975 3754 c11 -9 40 -25 65 -37 25 -11 48 -25 52 -31 4 -6 8 3 8 20 0 28 -5 34 -40 48 -22 9 -55 16 -73 16 -31 -1 -31 -1 -12 -16z"
       id="path88" />
    <path
       d="M8441 3692 c-26 -18 21 -132 54 -132 14 0 14 2 0 24 -24 37 -10 56 41 56 53 0 56 12 10 34 -46 22 -88 29 -105 18z"
       id="path90" />
    <path
       d="M11190 3531 c0 -6 14 -21 31 -33 29 -22 31 -26 27 -76 -5 -60 6 -50 17 16 11 71 21 47 21 -55 0 -54 3 -413 7 -798 7 -680 8 -700 27 -703 23 -4 27 15 35 178 3 63 10 198 15 300 19 351 39 805 42 945 l3 140 -42 23 c-42 23 -43 23 -43 4 0 -11 10 -29 23 -39 l23 -18 -8 -180 c-4 -99 -12 -396 -18 -660 -6 -264 -15 -511 -20 -550 -5 -45 -6 21 -3 180 7 292 6 723 -3 1053 l-7 234 -41 18 c-64 27 -86 32 -86 21z"
       id="path92" />
    <path
       d="M11447 3434 c-8 -8 2 -35 21 -57 14 -16 14 -43 3 -245 -7 -125 -14 -420 -16 -657 l-4 -430 19 300 c10 165 25 466 35 669 l16 370 -30 28 c-32 30 -34 31 -44 22z"
       id="path94" />
    <path
       d="M6013 2920 c-28 -11 -29 -20 -2 -54 16 -21 24 -24 39 -16 28 15 36 51 14 67 -20 15 -21 15 -51 3z"
       id="path96" />
    <path
       d="M6360 2585 c0 -47 16 -64 54 -58 41 6 52 -8 36 -47 -10 -25 -17 -29 -48 -27 l-37 2 -7 -75 c-3 -41 -12 -130 -19 -198 l-12 -123 37 -30 c23 -20 36 -39 36 -55 0 -20 -5 -24 -32 -24 -55 0 -57 -5 -60 -145 l-3 -130 122 -25 c78 -15 126 -21 132 -15 5 6 19 107 30 225 26 259 27 266 46 250 10 -8 15 -32 15 -71 0 -47 4 -63 25 -86 l24 -28 0 40 c0 22 -4 61 -8 86 l-7 47 85 4 c47 3 87 4 89 3 1 -1 -3 -37 -9 -80 -6 -48 -7 -81 -1 -87 6 -6 12 2 15 21 10 51 27 35 27 -24 0 -43 4 -57 19 -67 10 -6 17 -16 15 -22 -4 -14 28 -79 41 -83 6 -1 16 1 23 6 20 12 -46 342 -70 349 -14 3 -38 49 -38 73 0 14 44 15 84 2 45 -15 47 -15 39 15 -6 24 -41 38 -74 29 -28 -8 -311 11 -320 20 -5 5 -11 68 -15 141 -6 120 -5 134 11 145 15 12 6 16 -71 35 -49 11 -108 24 -131 27 -41 7 -43 6 -43 -20z m169 -421 c40 -34 40 -58 -4 -155 -38 -82 -65 -188 -65 -251 0 -27 -4 -38 -15 -38 -12 0 -15 19 -15 108 0 191 26 362 55 362 7 0 27 -12 44 -26z"
       id="path98" />
    <path
       d="M6630 2490 c-6 -12 -9 -29 -5 -38 5 -13 8 -14 20 -1 18 19 23 51 8 56 -6 2 -17 -5 -23 -17z"
       id="path100" />
    <path
       d="M6702 2498 c-7 -7 -12 -17 -12 -24 0 -6 -7 -17 -15 -24 -8 -7 -15 -23 -15 -35 0 -13 -7 -25 -15 -29 -9 -3 -15 -18 -15 -36 0 -24 4 -30 21 -30 14 0 19 5 16 14 -3 8 1 20 9 26 12 10 14 8 14 -14 0 -20 5 -26 21 -26 18 0 20 4 14 28 -14 59 -16 90 -6 96 13 8 15 66 3 66 -4 0 -13 -5 -20 -12z"
       id="path102" />
    <path
       d="M6867 2483 c-4 -3 -7 -21 -7 -39 0 -30 3 -34 35 -40 36 -6 151 -2 159 7 7 7 -6 59 -15 59 -5 0 -9 -9 -9 -20 0 -11 -4 -20 -10 -20 -5 0 -10 9 -10 20 0 11 -4 20 -9 20 -5 0 -11 -9 -14 -20 -8 -30 -30 -25 -25 5 6 30 -8 34 -17 5 -9 -27 -29 -25 -43 5 -12 25 -23 31 -35 18z"
       id="path104" />
    <path
       d="M7079 2450 c-1 -11 -2 -26 -3 -32 -1 -7 7 -12 17 -12 21 2 23 -29 2 -50 -22 -21 -20 -68 3 -64 10 2 16 11 14 21 -2 10 4 17 13 17 12 0 15 -6 10 -19 -6 -21 5 -33 22 -23 15 9 11 62 -4 62 -8 0 -13 13 -13 30 0 21 5 30 16 30 11 0 14 5 10 16 -3 9 -6 22 -6 30 0 8 -7 14 -15 14 -8 0 -12 -6 -9 -14 3 -8 0 -17 -6 -21 -7 -4 -14 2 -17 14 -7 27 -33 27 -34 1z"
       id="path106" />
    <path
       d="M6867 2343 c-9 -9 -9 -53 1 -53 20 1 34 19 27 39 -6 21 -16 26 -28 14z"
       id="path108" />
    <path
       d="M6922 2308 c-19 -19 -14 -48 8 -48 15 0 20 7 20 24 0 30 -12 40 -28 24z"
       id="path110" />
    <path
       d="M12527 1903 c-4 -3 -1 -13 6 -21 9 -12 9 -16 0 -19 -19 -7 -16 -60 3 -67 29 -11 34 -6 34 38 0 41 1 43 27 38 22 -4 25 -2 20 12 -4 10 -7 20 -7 22 0 7 -76 5 -83 -3z"
       id="path112" />
    <path
       d="M6626 1854 c-3 -26 -6 -78 -6 -115 0 -63 2 -69 20 -69 35 0 80 -29 80 -51 0 -19 -4 -20 -51 -14 -46 6 -51 5 -47 -11 4 -24 58 -43 127 -43 29 -1 101 -13 159 -27 74 -18 123 -25 161 -22 l54 5 -5 -109 c-3 -61 -10 -114 -15 -119 -6 -6 -55 6 -129 30 -132 43 -406 107 -499 116 -60 6 -60 6 -38 -13 13 -12 63 -28 130 -42 156 -32 304 -67 336 -79 18 -7 27 -18 27 -32 0 -18 -4 -20 -22 -13 -29 11 -239 7 -251 -5 -23 -23 37 -299 73 -335 15 -15 38 53 51 153 6 50 18 96 25 102 26 21 26 -35 0 -150 -14 -63 -26 -122 -26 -132 0 -25 14 -31 34 -16 14 10 21 43 32 152 8 77 17 141 19 144 13 13 18 -18 16 -105 -1 -74 1 -95 11 -92 9 3 14 34 16 106 1 57 7 102 12 102 6 0 10 -10 11 -22 0 -13 4 -32 8 -43 7 -18 11 -15 30 23 12 24 27 41 34 39 21 -7 9 -131 -24 -233 -23 -73 -28 -98 -19 -114 13 -24 15 -24 150 -5 102 15 105 15 118 -4 13 -18 22 -20 95 -15 110 8 115 10 83 35 -15 11 -33 34 -41 50 -20 38 -85 266 -85 298 0 13 -11 43 -24 66 -24 41 -24 41 -16 227 4 103 11 192 15 197 3 6 13 11 21 11 21 0 108 45 123 64 12 14 10 16 -13 16 -27 0 -227 -56 -258 -72 -27 -13 -25 -89 2 -106 11 -7 20 -16 20 -21 0 -11 -142 -22 -153 -11 -5 4 1 18 13 30 15 15 20 29 16 43 -3 12 -6 25 -6 29 0 3 -9 4 -21 1 -12 -4 -32 3 -52 17 -28 21 -40 23 -124 21 -92 -2 -93 -2 -93 22 0 62 -60 187 -90 187 -4 0 -10 -21 -14 -46z m515 -763 c0 -31 2 -66 5 -79 3 -18 0 -23 -13 -20 -15 3 -17 13 -15 56 3 42 0 52 -12 52 -12 0 -16 -10 -16 -37 0 -21 -3 -49 -7 -61 -16 -63 -32 70 -17 146 l6 31 34 -17 c32 -15 34 -18 35 -71z"
       id="path114" />
    <path
       d="M8822 1635 c-32 -73 -37 -80 -61 -83 -29 -5 -39 -29 -33 -79 5 -51 19 -54 65 -14 28 25 35 40 46 103 7 41 11 85 9 98 -3 22 -7 18 -26 -25z"
       id="path116" />
    <path
       d="M7310 1645 c-17 -20 -4 -124 16 -132 8 -3 40 4 70 16 31 11 69 21 85 21 l29 0 -22 45 c-20 42 -23 44 -40 29 -16 -15 -20 -14 -48 10 -35 29 -71 34 -90 11z"
       id="path118" />
    <path
       d="M5947 1610 c-30 -46 -48 -101 -54 -166 -3 -35 -3 -64 0 -64 13 0 38 63 58 146 22 94 21 122 -4 84z"
       id="path120" />
    <path
       d="M6257 1573 c-2 -4 -17 -46 -32 -93 -42 -127 -95 -203 -203 -288 -49 -39 -109 -52 -232 -52 -107 0 -125 -11 -134 -84 -5 -40 -3 -47 9 -42 18 7 56 -49 112 -164 50 -105 57 -125 45 -146 -7 -13 -15 -5 -40 39 -38 67 -52 78 -52 40 0 -40 -24 -122 -54 -188 -14 -32 -26 -58 -26 -59 0 -2 46 6 103 17 78 14 128 17 214 13 79 -4 114 -2 119 6 4 7 2 14 -5 16 -55 18 -120 126 -165 274 -30 98 -59 238 -51 247 10 9 40 -15 44 -35 2 -10 8 -30 13 -44 l10 -25 14 27 c9 17 20 25 28 22 12 -5 11 -13 -5 -47 -25 -55 -24 -72 7 -137 l26 -55 14 30 c7 17 13 39 14 51 0 30 20 84 31 84 14 0 11 -58 -7 -121 -18 -65 -14 -89 15 -89 31 0 51 38 51 100 1 30 7 66 15 80 14 24 14 23 15 -27 0 -48 2 -53 23 -53 17 0 25 8 32 32 9 29 15 34 59 41 27 4 50 6 53 3 2 -2 -3 -28 -11 -57 -22 -73 -21 -79 14 -79 20 0 30 -5 30 -15 0 -15 -46 -32 -57 -21 -6 6 -53 -52 -53 -67 0 -4 8 -6 18 -3 40 11 107 17 94 8 -23 -16 12 -22 48 -9 29 11 34 10 47 -10 9 -13 20 -23 25 -23 6 0 5 7 -2 15 -9 10 -9 15 -1 15 6 0 11 6 11 14 0 11 9 11 51 2 27 -7 53 -16 57 -22 8 -12 183 -27 207 -18 12 5 8 13 -23 40 -49 41 -86 123 -118 257 -13 56 -36 140 -51 186 l-28 83 -95 -7 c-135 -9 -127 -3 -129 -89 -1 -47 3 -77 10 -81 16 -11 29 14 29 56 0 39 14 51 49 42 16 -4 21 -13 21 -39 0 -19 -3 -34 -8 -34 -4 0 -13 -10 -21 -22 -11 -18 -11 -22 3 -30 9 -5 16 -19 15 -31 l0 -22 -11 22 c-23 47 -67 38 -68 -14 0 -21 -4 -23 -60 -23 -33 0 -60 4 -60 10 0 6 9 10 19 10 10 0 22 7 25 16 9 22 8 24 -9 18 -10 -4 -15 0 -15 15 0 18 4 20 25 15 21 -5 24 -3 19 12 -4 11 -16 27 -28 36 -25 20 -16 34 12 19 19 -10 20 -8 19 34 -1 31 3 49 13 55 10 7 11 10 2 10 -7 0 -16 -9 -20 -20 -6 -17 -13 -9 -36 45 -15 36 -32 65 -36 65 -16 0 -20 -103 -5 -133 15 -30 12 -52 -6 -42 -13 9 -11 -39 2 -52 6 -6 8 -21 4 -34 l-8 -24 -8 23 c-5 12 -16 22 -24 22 -12 0 -15 8 -13 33 3 28 0 32 -24 35 -27 3 -28 4 -13 32 8 16 15 41 15 55 0 22 -3 24 -19 15 -38 -20 -45 -10 -15 23 45 48 83 103 100 142 27 66 54 208 31 168z m-443 -509 c3 -9 6 -49 6 -90 0 -58 -3 -74 -15 -74 -21 0 -34 31 -42 101 -5 47 -3 63 8 70 21 13 36 11 43 -7z m682 -159 c-4 -14 -11 -23 -16 -20 -12 7 -13 68 -3 79 12 12 26 -31 19 -59z m21 -87 c6 -7 13 -25 16 -39 l7 -26 -77 4 c-82 3 -97 10 -91 39 3 16 13 19 55 19 28 0 55 3 59 8 11 10 20 9 31 -5z"
       id="path122" />
    <path
       d="M12195 1481 c-26 -5 -30 -11 -33 -44 -2 -20 -1 -37 1 -37 6 0 191 81 196 86 7 6 -130 2 -164 -5z"
       id="path124" />
    <path
       d="M4615 1446 c-14 -18 -32 -54 -41 -80 -15 -43 -15 -48 0 -71 31 -46 46 -32 46 43 0 97 17 112 22 19 4 -95 16 -110 53 -71 l27 29 -7 -43 c-5 -32 -3 -47 8 -60 9 -9 25 -42 37 -72 38 -96 16 -277 -36 -297 -46 -17 -78 84 -72 228 3 89 3 89 -25 108 -16 10 -39 36 -52 57 l-24 39 -10 -28 c-14 -37 -4 -74 25 -94 29 -19 32 -53 5 -53 -11 0 -27 10 -35 22 -16 22 -16 22 -16 -8 0 -17 3 -59 6 -93 7 -58 8 -62 30 -57 18 5 21 3 17 -14 -3 -12 -14 -25 -24 -31 -22 -11 -24 -45 -8 -102 9 -34 11 -36 26 -22 22 23 25 14 12 -37 -14 -51 -8 -84 22 -122 26 -32 39 -21 39 33 0 33 0 34 38 26 20 -4 49 -9 63 -12 22 -4 27 0 37 34 53 178 54 508 3 644 -46 120 -113 155 -166 85z m135 -672 c14 -36 12 -54 -4 -54 -18 0 -22 6 -31 48 -5 26 -3 32 9 32 9 0 21 -12 26 -26z"
       id="path126" />
    <path
       d="M7530 1429 c0 -28 5 -59 10 -70 11 -19 11 -19 40 3 38 27 39 61 4 93 -42 39 -54 33 -54 -26z"
       id="path128" />
    <path
       d="M7376 1330 c-22 -4 -45 -16 -53 -26 -14 -19 -17 -62 -6 -89 5 -16 8 -15 23 5 31 41 40 15 18 -48 -15 -41 -19 -67 -14 -94 13 -72 30 -45 70 115 40 160 51 133 16 -38 -23 -113 -26 -189 -7 -183 18 6 36 66 36 121 1 55 17 63 27 12 3 -19 10 -35 14 -35 15 0 20 33 20 145 0 94 -3 114 -16 119 -20 8 -77 6 -128 -4z"
       id="path130" />
    <path
       d="M10480 1231 c0 -21 13 -41 26 -41 9 0 14 -11 14 -29 0 -41 15 -46 40 -14 13 17 20 38 18 57 -3 29 -6 31 -50 34 -27 2 -48 -1 -48 -7z"
       id="path132" />
    <path
       d="M4699 1108 c-21 -49 -19 -173 3 -195 26 -25 28 -15 11 51 -11 45 -12 71 -5 115 6 31 9 57 7 59 -1 1 -9 -12 -16 -30z"
       id="path134" />
    <path
       d="M9370 1121 c0 -23 4 -26 48 -36 28 -6 32 -4 32 14 0 22 -27 41 -59 41 -14 0 -21 -6 -21 -19z"
       id="path136" />
    <path
       d="M9500 1112 c0 -35 41 -53 85 -36 13 5 9 11 -17 30 -38 29 -68 31 -68 6z"
       id="path138" />
    <path
       d="M8700 1057 c-20 -7 -36 -20 -38 -30 -3 -16 1 -17 35 -11 57 10 66 16 51 36 -11 14 -18 15 -48 5z"
       id="path140" />
    <path
       d="M7532 895 c-7 -14 -12 -28 -12 -32 0 -11 209 2 222 15 24 24 -9 37 -105 40 -92 4 -93 4 -105 -23z"
       id="path142" />
    <path
       d="M5620 890 c-8 -5 -32 -10 -52 -10 -25 0 -45 -7 -59 -21 -19 -19 -21 -29 -16 -78 3 -31 11 -73 17 -93 10 -33 15 -38 41 -38 17 0 44 -9 60 -20 l28 -21 14 28 c8 15 17 54 19 86 4 54 4 57 -19 57 -13 0 -23 2 -23 5 0 14 30 62 49 79 11 10 18 23 15 27 -7 12 -55 11 -74 -1z"
       id="path144" />
    <path
       d="M7496 801 c-9 -14 4 -41 20 -41 8 0 14 10 14 25 0 25 -23 35 -34 16z"
       id="path146" />
    <path
       d="M8322 789 c-18 -7 -23 -15 -20 -36 4 -38 38 -42 73 -9 46 43 12 72 -53 45z"
       id="path148" />
    <path
       d="M8222 743 c2 -11 14 -19 31 -21 34 -4 35 15 1 28 -34 13 -36 13 -32 -7z"
       id="path150" />
    <path
       d="M7834 708 c-8 -12 14 -19 103 -30 48 -6 93 -16 98 -23 18 -21 54 -28 61 -11 11 29 -14 55 -59 60 -71 9 -198 12 -203 4z"
       id="path152" />
    <path
       d="M6500 700 c-13 -8 -12 -10 3 -10 9 0 17 5 17 10 0 12 -1 12 -20 0z"
       id="path154" />
    <path
       d="M6202 645 l-22 -25 24 0 c35 0 86 12 86 20 0 7 -45 30 -59 30 -4 0 -17 -11 -29 -25z"
       id="path156" />
    <path
       d="M6918 613 c-20 -5 -23 -18 -8 -28 12 -7 40 12 40 26 0 9 -4 10 -32 2z"
       id="path158" />
    <path
       d="M6760 570 c20 -13 33 -13 25 0 -3 6 -14 10 -23 10 -15 0 -15 -2 -2 -10z"
       id="path160" />
    <path
       d="M6851 546 c-8 -9 -12 -19 -9 -21 6 -7 61 -10 118 -7 l45 3 -27 15 c-45 24 -111 29 -127 10z"
       id="path162" />
    <path
       d="M6400 505 c0 -17 2 -18 24 -9 18 7 12 24 -10 24 -8 0 -14 -7 -14 -15z"
       id="path164" />
    <path
       d="M6890 490 c0 -6 34 -10 81 -10 l81 0 -4 -35 c-4 -35 -4 -35 34 -35 35 0 38 2 38 29 0 60 -2 61 -121 61 -66 0 -109 -4 -109 -10z"
       id="path166" />
    <path
       d="M6197 461 c-15 -5 -12 -9 18 -19 19 -8 45 -10 57 -6 19 6 17 8 -18 20 -21 8 -39 13 -39 13 0 0 -8 -4 -18 -8z"
       id="path168" />
    <path
       d="M6032 448 c5 -15 28 -18 29 -3 0 6 -7 12 -17 13 -10 3 -15 -1 -12 -10z"
       id="path170" />
    <path
       d="M6846 451 c-3 -5 16 -12 42 -16 26 -4 55 -14 64 -22 16 -14 18 -14 24 1 13 35 -3 46 -65 46 -33 0 -62 -4 -65 -9z"
       id="path172" />
    <path
       d="M6385 434 c-11 -3 -36 -10 -55 -16 -30 -10 -32 -12 -15 -19 11 -4 35 -8 54 -8 23 -1 39 -9 53 -26 23 -29 88 -37 88 -10 0 10 10 15 30 15 17 0 39 10 53 24 l24 24 -61 6 c-33 3 -81 7 -106 10 -25 2 -54 2 -65 0z"
       id="path174" />
    <path
       d="M6713 428 c-26 -12 -31 -49 -10 -67 23 -18 75 -25 92 -11 18 15 20 61 3 78 -15 15 -55 15 -85 0z"
       id="path176" />
    <path
       d="M4580 240 c0 -40 58 -71 176 -95 55 -11 75 46 24 72 -14 7 -47 13 -75 13 -27 0 -61 7 -75 15 -35 20 -50 18 -50 -5z"
       id="path178" />
    <path
       d="M3665 219 c-38 -5 -155 -22 -260 -38 -104 -16 -305 -46 -445 -66 -140 -20 -262 -40 -270 -44 -8 -3 46 -7 120 -9 124 -2 163 2 465 52 182 30 360 57 398 61 l67 7 0 -32 c0 -31 3 -33 54 -45 36 -8 27 -17 -27 -26 -33 -5 -24 -7 43 -7 47 0 78 2 70 5 -8 3 -24 13 -35 23 -11 10 -30 21 -42 25 -17 5 -23 14 -23 36 0 36 -16 69 -33 68 -7 -1 -43 -5 -82 -10z"
       id="path180" />
    <path
       d="M3984 216 c-16 -43 15 -69 51 -42 16 12 18 18 9 33 -14 23 -52 29 -60 9z"
       id="path182" />
    <path
       d="M3833 213 c-7 -2 -13 -21 -13 -40 0 -39 -2 -38 75 -9 22 8 34 15 28 16 -7 0 -13 7 -13 16 0 13 -3 14 -15 4 -11 -10 -18 -9 -30 4 -9 9 -17 16 -18 15 -1 0 -8 -3 -14 -6z"
       id="path184" />
    <path
       d="M5685 203 c4 -10 12 -30 17 -45 5 -16 13 -28 16 -28 23 0 82 23 82 31 0 9 -99 59 -116 59 -4 0 -3 -8 1 -17z"
       id="path186" />
    <path
       d="M5320 196 c0 -3 26 -16 57 -31 73 -33 156 -33 161 1 3 19 -3 22 -74 27 -89 8 -144 9 -144 3z"
       id="path188" />
    <path
       d="M4111 181 c-11 -7 -8 -12 12 -26 27 -17 47 -13 47 10 0 21 -35 31 -59 16z"
       id="path190" />
    <path
       d="M4365 169 c-147 -17 -169 -29 -92 -50 74 -20 252 19 232 51 -7 11 -39 11 -140 -1z"
       id="path192" />
    <path
       d="M5074 171 c-70 -17 -68 -36 6 -46 51 -7 58 -13 40 -31 -18 -18 7 -29 125 -58 61 -15 118 -29 128 -32 15 -5 17 2 17 51 0 82 -8 91 -76 93 -31 1 -71 6 -88 11 -48 15 -118 20 -152 12z"
       id="path194" />
    <path
       d="M3880 142 c0 -5 9 -17 20 -27 23 -21 47 -8 37 19 -7 16 -57 23 -57 8z"
       id="path196" />
    <path
       d="M4003 121 c-24 -4 -45 -10 -48 -13 -9 -9 162 -21 176 -13 11 7 -54 36 -76 34 -5 -1 -29 -5 -52 -8z"
       id="path198" />
    <path
       d="M4698 88 c-21 -6 -38 -13 -38 -17 0 -11 88 -51 111 -51 39 0 119 34 125 53 9 28 -1 31 -48 18 -32 -9 -51 -9 -71 -2 -32 12 -29 12 -79 -1z"
       id="path200" />
  </g>
</svg>
