%TF.GenerationSoftware,KiCad,Pcbnew,(5.1.6)-1*%
%TF.CreationDate,2020-07-09T10:42:52-04:00*%
%TF.ProjectId,railroad-keyboard-bottom-plate,7261696c-726f-4616-942d-6b6579626f61,rev?*%
%TF.SameCoordinates,Original*%
%TF.FileFunction,Profile,NP*%
%FSLAX46Y46*%
G04 Gerber Fmt 4.6, Leading zero omitted, Abs format (unit mm)*
G04 Created by KiCad (PCBNEW (5.1.6)-1) date 2020-07-09 10:42:52*
%MOMM*%
%LPD*%
G01*
G04 APERTURE LIST*
%TA.AperFunction,Profile*%
%ADD10C,0.150000*%
%TD*%
%TA.AperFunction,Profile*%
%ADD11C,0.200000*%
%TD*%
G04 APERTURE END LIST*
D10*
X74723750Y-116697000D02*
G75*
G03*
X74723750Y-116697000I-1150000J0D01*
G01*
X451913750Y-116706000D02*
G75*
G03*
X451913750Y-116706000I-1150000J0D01*
G01*
X307133750Y-116833000D02*
G75*
G03*
X307133750Y-116833000I-1150000J0D01*
G01*
X148383750Y-116706000D02*
G75*
G03*
X148383750Y-116706000I-1150000J0D01*
G01*
X-4016250Y-116706000D02*
G75*
G03*
X-4016250Y-116706000I-1150000J0D01*
G01*
X229663750Y-116833000D02*
G75*
G03*
X229663750Y-116833000I-1150000J0D01*
G01*
X382063750Y-116833000D02*
G75*
G03*
X382063750Y-116833000I-1150000J0D01*
G01*
X74587750Y-225933000D02*
G75*
G03*
X74587750Y-225933000I-1150000J0D01*
G01*
X148247750Y-225942000D02*
G75*
G03*
X148247750Y-225942000I-1150000J0D01*
G01*
X229527750Y-226069000D02*
G75*
G03*
X229527750Y-226069000I-1150000J0D01*
G01*
X306997750Y-226069000D02*
G75*
G03*
X306997750Y-226069000I-1150000J0D01*
G01*
X451777750Y-225942000D02*
G75*
G03*
X451777750Y-225942000I-1150000J0D01*
G01*
X381927750Y-226069000D02*
G75*
G03*
X381927750Y-226069000I-1150000J0D01*
G01*
X-4152250Y-225942000D02*
G75*
G03*
X-4152250Y-225942000I-1150000J0D01*
G01*
D11*
X453555100Y-113645950D02*
X453555100Y-229000050D01*
X-7613650Y-112852200D02*
X452761350Y-112852200D01*
X453555100Y-229000050D02*
G75*
G02*
X452761350Y-229793800I-793750J0D01*
G01*
X452761350Y-112852200D02*
G75*
G02*
X453555100Y-113645950I0J-793750D01*
G01*
X-7613650Y-229793800D02*
G75*
G02*
X-8407400Y-229000050I0J793750D01*
G01*
X-7613650Y-229793800D02*
X452761350Y-229793800D01*
X-8407400Y-113645950D02*
X-8407400Y-229000050D01*
X-8407400Y-113645950D02*
G75*
G02*
X-7613650Y-112852200I793750J0D01*
G01*
M02*
